<?xml version="1.0" encoding="utf-8"?>
<!-- Generator: Adobe Illustrator 18.1.1, SVG Export Plug-In . SVG Version: 6.00 Build 0)  -->
<svg version="1.1" id="Layer_1" xmlns="http://www.w3.org/2000/svg" xmlns:xlink="http://www.w3.org/1999/xlink" x="0px" y="0px"
	 viewBox="1042 58.5 800 500" enable-background="new 1042 58.5 800 500" xml:space="preserve">
<g>
	<path fill="#FFFFFF" d="M1533.3,274.6c-3,18.3-6.1,36.7-9.2,55c-0.3,1.6-1.6,5.1-2.7,6.9c3.5,0,5.2-0.1,8.7-0.4
		c-0.6-1.7-0.5-5.2-0.3-6.8c0.4-2.6,0.5-3.8,0.9-6.4c3.8,1.5,8,0.8,12.2-1.9c0.3,1.3,0.4,2.3,0.6,3.3c0.2,0.8,0.3,1.6,0.5,2.6
		c0,0.2,0.1,0.4,0.1,0.6c0.2,1.8,0.3,4.9-0.2,6.6c6.9-1.3,10.3-2.2,17.2-4.2c-1.2-1.4-2.6-4.9-2.9-6.4c-3.5-17.1-6.9-34.1-10.3-51.2
		c-0.3-1.5-0.4-5.4,0.1-7.2c-6,1.3-9.1,1.9-15.1,2.6C1533.5,269.4,1533.6,273.1,1533.3,274.6z M1537.4,294.5
		c0.6,3.2,1.3,6.4,1.9,9.6c0.9,4.4,1.7,8.8,2.6,13.2c-1.9,0.9-3.3,1.6-4.8,2c-1,0.2-2.1,0.3-3.3,0.1c-0.8-0.1-1.6-0.3-2.6-0.5
		c1.6-10.7,3.1-21.3,4.7-32C1536.4,289.3,1536.9,291.9,1537.4,294.5z"/>
	<path fill="#FFFFFF" d="M1588.9,322.3c5.1-1.9,8.7-4.2,10.8-6.3c-1.1-2.2-1.6-3.2-2.7-5.4c-1.2,2.3-5.2,7.1-8,7.5
		c-0.8,0.1-1.5,0.1-2.1,0c-0.8-0.1-1.5-0.4-2.2-0.8c-6.2-3.9-5.8-19.7-5.8-27.1c0-10.2-1.6-30.2,10.1-34.6c3-1.1,6.8,0.8,8,2.4
		c1.1-2.8,1.6-4.2,2.7-7.1c-2.1-0.7-5.5-1.1-10.8,0.6c-19,6.1-26,25.4-26.2,43.6C1562.6,310.7,1569.9,329.2,1588.9,322.3z"/>
	<path fill="#FFFFFF" d="M1302.2,271.7c-6.9,0.5-10.3,0.6-17.2,0.6c0.9,1.8,1.5,5.6,1.5,7.2c0,17.9,0,35.8,0,53.8
		c0,1.7-0.6,5.5-1.5,7.2c6.9,0,10.3-0.1,17.2-0.6c-0.9-1.7-1.6-5.5-1.6-7.1c0-9.2,0-13.8,0-23.1c2.6,0.9,7.3,0.5,10.3-0.8
		c0,1.1,0,2.1,0,3.1c0,1,0,1.9,0,2.8c0,5.8,0,10.2,0,17.2c0,1.7-0.6,5.5-1.5,7.3c6.9-0.6,10.3-1.1,17.2-2c-0.9-1.6-1.6-5.3-1.6-7
		c0-17.9,0-35.8,0-53.8c0-1.6,0.7-5.5,1.6-7.4c-6.9,1-10.3,1.4-17.2,2c0.9,1.7,1.5,5.5,1.5,7.1c0,10.2,0,15.4,0,25.6
		c-1.9,0.8-3.5,1.3-5,1.5c-1,0.1-2,0.1-3,0c-0.7-0.1-1.5-0.3-2.3-0.5c0-10.3,0-15.4,0-25.7C1300.7,277.5,1301.3,273.5,1302.2,271.7z
		"/>
	<path fill="#FFFFFF" d="M1334.6,329.6c-0.3,1.6-1.6,5.3-2.7,7.2c3.5-0.5,5.2-0.8,8.7-1.4c-0.6-1.7-0.5-5.2-0.3-6.8
		c0.3-2.6,0.5-3.9,0.9-6.5c3.8,1.2,8,0.4,12.2-2.4c0.3,1.3,0.5,2.3,0.6,3.3c0.2,0.8,0.3,1.6,0.5,2.6c0,0.2,0.1,0.4,0.1,0.7
		c0.2,1.8,0.3,4.9-0.2,6.5c6.9-1.3,10.3-2,17.2-3.4c-1.2-1.5-2.6-5.1-2.9-6.6c-3.4-17.2-6.9-34.5-10.3-51.7
		c-0.3-1.5-0.4-5.4,0.1-7.2c-6,1.2-9.1,1.7-15.1,2.8c0.6,1.6,0.7,5.3,0.4,6.9C1340.7,292.4,1337.6,311,1334.6,329.6z M1346.4,285.8
		c0.5,2.6,1,5.1,1.5,7.7c0.6,3.2,1.3,6.4,1.9,9.6c0.9,4.4,1.7,8.7,2.6,13.1c-1.8,0.9-3.3,1.6-4.8,2c-1,0.3-2.1,0.3-3.3,0.3
		c-0.8-0.1-1.6-0.2-2.6-0.4C1343.3,307.3,1344.8,296.5,1346.4,285.8z"/>
	<path fill="#FFFFFF" d="M1379.6,264c0,0.9,0,1.9,0,2.8c0,1,0,2,0,3.1c0,17,0,34.1,0,51.1c0,1.6-0.6,5.6-1.5,7.5
		c6.8-1.4,10.2-2.1,16.9-3.5c-0.9-1.6-1.5-5.4-1.5-6.9c0-19,0-38,0-57c0,0,0.1,0,0.1,0c1.4-0.3,2.1-0.4,3.5-0.7
		c1.6-0.3,5.5-0.4,7.2,0.1c-0.1-2.2-0.2-3.3-0.4-5.5c-11.6,2.3-23.2,4.7-34.9,7c-0.2,2.3-0.2,3.4-0.4,5.6c1.8-1.2,5.6-2.7,7.2-3
		C1377.4,264.4,1378.2,264.2,1379.6,264z"/>
	<path fill="#FFFFFF" d="M1408.7,259.8c2-1.1,5-2.1,6.3-2.4c1.4-0.3,2.2-0.4,3.6-0.7c0,0.9,0,1.8,0,2.7c0,1,0,2,0,3
		c0,17.1,0,34.2,0,51.2c0,1.6-0.6,5.6-1.5,7.5c6.8-1.2,10.2-1.8,16.9-2.8c-0.9-1.6-1.5-5.4-1.5-7c0-19,0-38,0-57c0,0,0.1,0,0.1,0
		c1.4-0.2,2.1-0.3,3.5-0.5c1.6-0.2,5.5-0.1,7.2,0.6c-0.2-2.2-0.2-3.3-0.4-5.5c-11.7,1.5-23.3,3.5-34.9,5.7c-0.1,2.1-0.2,3.3-0.4,5.3
		c0,0.1,0,0.2,0,0.4C1408,260.1,1408.3,260,1408.7,259.8z"/>
	<path fill="#FFFFFF" d="M1452,254.9c-3.1,18.5-6.1,36.9-9.2,55.4c-0.3,1.6-1.6,5.3-2.7,7.2c3.5-0.5,5.2-0.7,8.7-1.1
		c-0.6-1.7-0.5-5.2-0.3-6.8c0.4-2.6,0.5-3.9,0.9-6.4c3.8,1.4,8,0.9,12.2-1.3c0,0,0.6,0.3,1.1,2.8c0,0,0,0.1,0,0.1
		c0.2,0.8,0.3,2,0.2,3.3c-0.1,1.2-0.4,2.6-1.1,3.9c7.1-1.8,11,0.3,18.3,4c-1.2-1.8-2.9-7-3.2-8.6c-3.4-17.8-6.9-35.6-10.3-53.4
		c-0.3-1.5-0.4-5.4,0.1-7.2c-6,0.3-9.1,0.6-15.1,1.2C1452.2,249.7,1452.3,253.4,1452,254.9z M1456.1,274.9c0.6,3.2,1.3,6.5,1.9,9.7
		c0.9,4.5,1.8,9,2.6,13.5c-1.9,0.7-3.3,1.3-4.8,1.5c-1,0.2-2.1,0.2-3.3,0c-0.8-0.1-1.6-0.3-2.6-0.5c1.6-10.6,3.1-21.3,4.7-31.9
		C1455.1,269.7,1455.6,272.3,1456.1,274.9z"/>
	<path fill="#FFFFFF" d="M1680.7,330.5c0.9-2.3,0.2-3.8-0.7-4.8c0.3-4-2.3-7.5-6.5-7.7c0.2,0.8,0.3,1.5,0.2,2.2
		c-0.1,0.5-0.2,1-0.4,1.5c-0.4,1.1-1.2,2-2.2,2.7c-0.9,0.6-2,1.1-3.2,1.4c0,0,0,0,0,0c-0.2,0.1-0.5,0.1-0.7,0.1
		c-1.9,0.3-4.2,0.3-6.6-0.4c-0.4-0.1-0.8-0.3-1.3-0.4c-0.3-0.1-0.6-0.2-1-0.3c-0.4-0.1-0.8-0.3-1.1-0.5c-0.4-0.2-0.8-0.3-1.2-0.5
		c-0.8-1.1-1.6-2.5-2.4-3.9c1.5,1.1,3.2,2,4.9,2.7c4.1,1.6,9.5,1.8,11.4-1.9c1-2.1,0.3-4.4-1.8-5.2c-1.3-0.5-1.9-0.4-3.2-0.1
		c1.1,1.2,1.1,2.2,0.7,3.4c-1.1,2.8-5.3,2.5-8.3,1.4c-0.3-0.1-0.6-0.2-0.8-0.3c-0.9-0.4-1.7-0.8-2.4-1.1c-0.6-0.3-1.2-0.7-1.7-1
		c-9-17.4-19-49.8-20.1-56.8l6.9-14.2c0.7-1.4,3.4-5.3,5.7-6.9l-11.3,2.2c2.2,1.1,1,4.2,0.3,5.6l-8,17l-2.9,6.1l-2.2,4.8l-0.2-22.9
		c0-1.5,0.1-5.9,3.9-8.8l-20.3,4c2.7,1.3,3.3,5.6,3.3,7l0,15.3c0,2.2,0.1,3.5,1,4.6c-0.9,0.4-2.6,1.3-3.2,2.4c1.8,0.7,2.2,2.3,2.2,4
		l0.1,27.9c0,1.8-0.9,5.5-3.4,7c6.3-0.4,10.6-3.3,20.8-5.3c0.1,0,0.2,0,0.2-0.1c-0.2-0.1-0.4-0.3-0.6-0.5c-2.5-1.6-3.5-4.2-3.5-5.9
		l-0.2-19.1l1.5-3.5c0.3,1.2,0.8,2.8,1.4,4.5c0.6,1.9,1.5,4.1,2.4,6.4c4.9,12,13.7,28.4,24.4,36.2c2.9,2.6,6.7,4.8,11.1,6.5
		C1670.7,338.5,1678.2,336.8,1680.7,330.5z"/>
	<path fill="#FFFFFF" d="M1492.5,256.8v26.5c0,4.2,0.1,6.6,1.6,8.9c-1.5,0.6-4.1,1.7-5,3.9c2.8,1.7,3.4,4.8,3.4,7.9v25.4
		c0,6.3,0.4,15.8-1,23.7c3.3,0,10.3-0.1,17.4-0.2c3.4-8.5,4.4-18.6,4.4-27.9v-20.6c0-4.2-0.1-6.6-1.6-8.9c1.5-0.6,3.8-1.7,5-4
		c-2.8-1.7-3.4-4.8-3.4-7.9v-31.9c0-6.5,1.1-12.8,10-20.6c-12,1.1-21.2,11.7-37,14C1490.9,248,1492.5,253.3,1492.5,256.8z"/>
	<path fill="#FFFFFF" d="M1257,334.9c-4.1,0-6.2,5.2-3.5,8.6c0.8-1.7,2-2.4,3.4-2.4c2.3,0,3.8,1.2,4.9,2.9c0.3,0.5,0.6,1.1,0.8,1.7
		c0.5,1.4,0.7,3,0.7,4.5c0,0.9,0,1.7-0.1,2.5c0.7,0,1.3,0,2,0c0.3-1.5,0.5-3,0.5-4.4c0-5.4-1.2-11.6-6.1-13.1
		c-0.5-0.2-1-0.2-1.6-0.3C1257.7,335,1257.4,334.9,1257,334.9z"/>
	<path fill="#FFFFFF" d="M1268.4,352.9c0.7,0,1.4,0,2.1,0c2.3,0,4.6,0,6.6,0c1.4-4.5,2.1-9.6,2-15.2c-0.3-12.4-5.4-20.9-14.5-20.9
		c-2.8,0-4.6,1.8-5.4,3.4c-4.9,1.6-8,6.3-6.2,11.4c1.4-1,2.4-1.6,4.2-1.6c2.7,0,5.4,1.5,7.5,4.1c0.3,0.3,0.5,0.7,0.8,1.1
		c1.2,1.8,2.1,4.1,2.6,6.8c0.3,1.4,0.4,2.9,0.4,4.5c0,1.6-0.1,3.2-0.4,4.7c-0.1,0.6-0.1,1.2-0.2,1.7
		C1268,352.9,1268.2,352.9,1268.4,352.9z"/>
	<polygon fill="#FFFFFF" points="1687.6,344 1685.7,348.9 1683.7,344 1681.8,344 1681.8,351 1683.1,351 1683.1,345.5 1683.1,345.5 
		1685.2,351 1686.1,351 1688.2,345.5 1688.2,345.5 1688.2,351 1689.5,351 1689.5,344 	"/>
	<polygon fill="#FFFFFF" points="1674.7,345.1 1676.9,345.1 1676.9,351 1678.2,351 1678.2,345.1 1680.4,345.1 1680.4,344 
		1674.7,344 	"/>
	<path fill="#FFFFFF" d="M1638.4,333.6c-4.1-1.5-9.2-2-13.8-2.3c-16.2-1-28.7,4.2-40.3,8.3c-11.8,4.2-23.8,9.1-37.1,11.9
		c-4.5,0.9-9.1,2.3-13.7,2.7c-5.9,0.5-12,0.3-18.1,0.2c-1.1,0-2.2,0-3.4,0c-0.1,0-0.3,0-0.4,0c-1.1,0-2.1,0-3.2,0c0,0,0,0,0,0
		c-6.7,0-13.2,0-17.1,0v0c-6,0-12,0-17.8,0c-0.8,0-1.6,0-2.3,0c-0.9,0-1.8,0-2.7,0c-0.2-1.3-0.2-2.7-0.2-4.4c0-4.1,1.6-9.3,5.5-9.3
		c1.6,0,2.8,0.6,3.8,2.4c0.9-1.4,1.4-2.1,1.4-4c0-1.8-0.9-3.3-2.3-4c-0.9-0.5-1.9-0.7-3.1-0.6c-5.4,0.6-7.7,7.2-7.7,12.8
		c0,2.3,0.3,4.7,0.9,7.1c-0.3,0-0.6,0-0.9,0c0.6,3.2,1.7,5.3,2.6,7.1c0.6,0,1.2,0,1.7,0c0.9,0,1.8,0,2.7,0c0.4,0,0.9,0,1.3,0
		c4.9,0,9.8,0,14.6,0c-1.9,3.3-4.7,5.5-8.8,5.6c-3,0.1-5.5-0.5-7.6-1.5c-0.9-0.4-1.8-1-2.5-1.6c-0.9-0.7-1.7-1.5-2.4-2.4
		c0,0,0,0,0,0c-1.4-1.8-2.5-4-3.2-6.2c0,0,0,0,0,0c0-0.1-0.1-0.3-0.1-0.4c-0.8-2.7-1.1-5.5-1.1-8.4c0-9.7,5.3-16.5,10.8-16.5
		c1.6,0,3.1,0.4,4.6,1.6c1.8-5.1-1.4-9.9-6.2-11.4c-0.8-1.6-2.2-3.1-5.4-3.1c-8.8,0-14.3,8.2-14.5,20.6c0,6.3,0.9,11.9,2.8,16.8
		c-61.2,0-115.1,0.1-175.7,0.1c0,0,0,0,0,0c-2.7,0-5.9,0-9.3,0c0,0,0,0,0,0c-0.9,0-1.7,0-2.6,0c0,0,0,0,0,0c-8.5,0-17.9,0-23.4,0
		c-0.9,0-1.7,0-2.4,0c0,0,0,0,0,0c0,0,0,0.1,0,0.1c0.3,1.1,0.6,2.1,1,3.1c0.1,0.2,0.2,0.4,0.2,0.6c0.3,0.7,0.6,1.4,0.9,2
		c0.1,0.2,0.2,0.5,0.3,0.7c0,0,0,0,0,0c0.6,0,1.2,0,2,0c3.6,0,9.2,0,15.2,0c-0.2,0.4-0.3,0.8-0.5,1.1c0.3-0.3,0.6-0.7,0.9-1.1
		c0.9,0,1.8,0,2.7,0c-2.8,3.8-7.1,6-12.9,5.7c-1-0.1-1.9-0.3-2.8-0.6c-0.8-0.3-1.6-0.8-2.3-1.3c-11.8-9-10.2-46.4-10.2-52.8
		c0-5.1-0.1-7.9-1.9-10.6c1.9-1,3.1-1.4,5-4.1c-3.9-1.3-3.5-10.2-3.5-12.8c0.1-15.2,3.8-40.2,17.8-40.2c4.8,0,8.3,1.6,10.2,4.4
		c0.2,0.3,0.4,0.7,0.6,1.1c0.7,1.4,1.1,3,1.1,4.9c0,4.7-3.8,9.9-10.7,8.6c0,4.4,2.8,7.3,6.2,7.8c-0.5,5.2,2,16.4,12.3,16.9
		c-1.5-3.8-2.3-9.3-2.3-15.2c0.1-10.4,3.1-22.4,10.8-31.5c0,0-7,1-9.6,1.3c-3.4-1.3-9.2-3.2-18.1-3.2c-26.2,0-40.5,23.4-42,49.4
		c-0.1,2.3,0.3,8.2,2.3,11.6c-2,0.6-3.9,2.1-5.1,3.9c2.2,0.9,2.7,9.7,3,12.4c0.7,9.6,3.4,25.5,10.6,37.8c-2,0-4.1,0-6.2,0
		c-3.7,0-8.6,0.7-11.4,0c-2.3-0.6-2.3-5.9-5.9-5.9c-4.1,0-5.3,7.1-4.8,11c0.3,2.7,0.8,6.9,4.3,7.3c3.6,0.4,3.7-4.7,6.9-5.5
		c2.9-0.7,6.8-0.4,10.6-0.4c3.7,0,7.3,0,10.9,0c5.7,6.7,13.3,11.3,23.6,11.3c9.8,0,17.3-4.2,22.1-11.3c1.3,0,2.5,0,3.6,0
		c0,0,0,0,0,0c0,0,0.1,0,0.1,0c1.4,0,2.7,0,4.1,0c39.6,0.1,74.7,0.1,119.2,0.1c14.4,0,24.3,0.2,41.2,0.2c5.8,0,11.7,0,17.6,0
		c4.9,6.9,12.3,10.9,21.6,10.9c11.3,0,18.9-4.4,23.9-11c1.3,0,2.6,0,3.9,0c1.5,0,2.9,0,4.4,0c6.6,0,13.1-0.1,19.6-0.1
		c6.7,1.6,12.5,2.3,18.1,3.7c11.7,3.1,21.6,7.7,32.3,11.5c5.2,1.9,10.6,4.3,16.1,5.9c3.7,1.1,7.8,1.8,12.1,2.7
		c4.3,0.8,9.1,0.6,14.2,0.5c9.2-0.1,16.4-2.2,20.8-8.9C1654.1,363.8,1650.7,338.1,1638.4,333.6z M1590.2,370.7c-4.9-1-7.9-2-9.8-2.8
		l2.5-1.6c1.1,0.8,4.4,2.4,7.3,2.9c1.3,0.2,8.6,1.8,8.3-5.8c-0.2-5.2-2.9-6.3-7.3-6.3c-1.8,0-3.9,0.1-5,0.3v-1.8
		c1.2,0.2,3.4,0.2,5,0.1c3.8-0.2,5.6-2.2,5.6-5.4c0-1.8-0.1-4.5-5.8-3.7c-2.9,0.4-6.2,1.9-7.3,2.7l-2.5-1.7c1.9-0.7,5-1.7,9.8-2.5
		c11.9-2,18.6-1.2,18.8,4.1c0.2,4.3-5.9,6.5-11.6,7c5.7,0.3,13.8,1,14,8.5C1612.5,371.6,1603,373.2,1590.2,370.7z M1619.7,375.9
		c0.6-1,1.1-3.1,1.1-4V346c0-0.9-0.8-4.1-2.4-4.9c4.3-1.2,9.7-1.4,12-3.1V373c0,0.9,0.4,3,1,4L1619.7,375.9z"/>
</g>
</svg>
