<?xml version="1.0" encoding="utf-8"?>
<!-- Generator: Adobe Illustrator 18.1.1, SVG Export Plug-In . SVG Version: 6.00 Build 0)  -->
<svg version="1.1" id="Layer_1" xmlns="http://www.w3.org/2000/svg" xmlns:xlink="http://www.w3.org/1999/xlink" x="0px" y="0px"
	 viewBox="0 0 136.8 136.3" enable-background="new 0 0 136.8 136.3" xml:space="preserve">
<g>
	<path fill="#FFFFFF" d="M133.4,125.6c-4.9,0-9.7-6.5-12.4-10.7c-0.6,0.3-1.2,0.5-1.8,0.5c-0.3,0-0.5,0-0.8-0.1
		c2.2,3.7,6.3,9.6,11.1,11.8c-2.8,1-7.5,2.3-12.9,2.3h0c-4,0-7.9-0.7-11.5-2.1c-0.2,0.8-0.7,1.6-1.3,2.1c4,1.6,8.3,2.5,12.8,2.5
		c9.8,0,17.3-3.9,17.3-4c0.5-0.3,0.7-0.8,0.6-1.4C134.4,126,133.9,125.6,133.4,125.6z"/>
	<path fill="#FFFFFF" d="M9.1,88.6l4.7-16.4c0,0-0.1,0-0.1,0c-0.8,0-1.6-0.3-2.2-0.7L7,87.2C7.9,87.4,8.6,87.9,9.1,88.6z"/>
	<path fill="#FFFFFF" d="M25.5,96.6c-0.8-0.1-1.6-0.4-2.2-1l-5.2,11.8c0.8,0.1,1.6,0.4,2.2,1L25.5,96.6z"/>
	<path fill="#FFFFFF" d="M53.4,45.2l2,3.4c0.2-1,0.6-2,1.1-3l-1-1.7C54.9,44.5,54.2,45,53.4,45.2z"/>
	<path fill="#FFFFFF" d="M7,49.1L11.5,65c0.6-0.4,1.4-0.7,2.2-0.7c0,0,0,0,0.1,0L9.1,47.7C8.6,48.4,7.9,48.9,7,49.1z"/>
	<path fill="#FFFFFF" d="M26.5,47.7l9,17.7c0.6-0.6,1.3-1,2.2-1.1l-9-17.7C28.1,47.2,27.4,47.5,26.5,47.7z"/>
	<path fill="#FFFFFF" d="M17.9,28.8l5.3,12c0.6-0.5,1.4-0.9,2.2-1L20.2,28C19.6,28.5,18.8,28.8,17.9,28.8z"/>
	<path fill="#FFFFFF" d="M42.2,24l7.5,14.5c0.6-0.6,1.3-1,2.2-1.1l-7.5-14.5C43.8,23.5,43,23.9,42.2,24z"/>
	<path fill="#FFFFFF" d="M44.6,114l9.1-16.1c-1-0.3-1.7-0.8-2.1-1.3l-9.1,16C43.3,112.9,44,113.4,44.6,114z"/>
	<path fill="#FFFFFF" d="M44.9,18.2l12-12.2c-0.9-0.1-1.7-0.5-2.3-1.1L43.2,16.5C43.9,16.9,44.5,17.4,44.9,18.2z"/>
	<path fill="#FFFFFF" d="M45,118.4c-0.4,0.7-1,1.3-1.7,1.7L55,131.5c0.6-0.6,1.4-1,2.3-1.1L45,118.4z"/>
	<path fill="#FFFFFF" d="M65.3,121.3l-6.4,9.2c0.8,0.2,1.5,0.7,2,1.4l6.5-9.3C66.5,122.4,65.8,122,65.3,121.3z"/>
	<path fill="#FFFFFF" d="M71.4,121.4c-0.5,0.6-1.2,1.1-2,1.3l6.6,9.4c0.5-0.7,1.1-1.2,1.9-1.5L71.4,121.4z"/>
	<path fill="#FFFFFF" d="M67.6,115L57.1,98.1h-2.1c-0.3,0-0.5,0-0.8-0.1l11.2,18.1C66,115.6,66.7,115.1,67.6,115z"/>
	<path fill="#FFFFFF" d="M41.3,70.9c-0.5,0.6-1.3,1-2.1,1.2l11.7,20.2c0-0.1,0-0.1,0.1-0.2c0.1-0.2,0.4-1.3,0.9-2.9L41.3,70.9z"/>
	<path fill="#FFFFFF" d="M39,64.3c0.8,0.1,1.6,0.5,2.1,1.1l10.7-20.2c-0.8-0.1-1.6-0.5-2.1-1.1L39,64.3z"/>
	<path fill="#FFFFFF" d="M65.3,20.4L53.7,37.5c0.8,0.2,1.5,0.7,2,1.4l11.7-17.1C66.5,21.5,65.8,21,65.3,20.4z"/>
	<path fill="#FFFFFF" d="M65.3,15.6c0.5-0.6,1.2-1.1,2-1.4l-6.7-9.8c-0.5,0.6-1.2,1.1-2,1.4L65.3,15.6z"/>
	<path fill="#FFFFFF" d="M38.5,119.1l-2,3.4c0.8,0.2,1.5,0.6,2.1,1.3l2-3.4C39.8,120.2,39.1,119.7,38.5,119.1z"/>
	<path fill="#FFFFFF" d="M40.5,112.7L29,95.2c-0.5,0.6-1.2,1.1-2,1.3L38.4,114C39,113.4,39.7,112.9,40.5,112.7z"/>
	<path fill="#FFFFFF" d="M25.3,88.8l-8.8-17.7c-0.6,0.6-1.3,0.9-2.2,1.1l8.8,17.7C23.7,89.3,24.5,88.9,25.3,88.8z"/>
	<path fill="#FFFFFF" d="M14.3,64.3c0.8,0.1,1.6,0.5,2.2,1.1l8.8-17.7c-0.8-0.1-1.6-0.5-2.2-1.1L14.3,64.3z"/>
	<path fill="#FFFFFF" d="M37.7,72.1c-0.8-0.1-1.6-0.5-2.2-1.1l-9,17.7c0.8,0.1,1.6,0.5,2.2,1.1L37.7,72.1z"/>
	<path fill="#FFFFFF" d="M38.4,22.6L27,40c0.8,0.2,1.5,0.7,2,1.3l11.5-17.4C39.6,23.7,39,23.2,38.4,22.6z"/>
	<path fill="#FFFFFF" d="M38.6,17.5c0.5-0.6,1.3-1,2.1-1.2l-2.1-3.6c-0.5,0.6-1.3,1-2.1,1.2L38.6,17.5z"/>
	<path fill="#FFFFFF" d="M19.9,114.8L32,124.8c0.3-0.8,0.9-1.4,1.6-1.9l-12.1-10.1C21.1,113.7,20.6,114.3,19.9,114.8z"/>
	<path fill="#FFFFFF" d="M9,93.7c-0.5,0.6-1.3,1-2.1,1.2l7.9,13.8c0.5-0.6,1.3-1,2.1-1.2L9,93.7z"/>
	<path fill="#FFFFFF" d="M6.1,87.1c0.2,0,0.4,0,0.5,0.1L3.9,71.7C3.3,72,2.7,72.2,2,72.2c-0.2,0-0.4,0-0.5-0.1l2.7,15.4
		C4.8,87.3,5.4,87.1,6.1,87.1z"/>
	<path fill="#FFFFFF" d="M3.9,64.7l2.8-15.6c-0.2,0-0.4,0.1-0.5,0.1c-0.7,0-1.3-0.2-1.8-0.5L1.5,64.3c0.2,0,0.4-0.1,0.5-0.1
		C2.7,64.3,3.3,64.4,3.9,64.7z"/>
	<path fill="#FFFFFF" d="M17.1,28.8c-0.8-0.1-1.6-0.5-2.2-1.1l-8,13.6C7.8,41.6,8.5,42,9,42.6L17.1,28.8z"/>
	<path fill="#FFFFFF" d="M21.5,23.7l0.1,0l12-10.3c-0.7-0.4-1.3-1.1-1.6-1.8L20.1,21.8C20.8,22.2,21.3,22.9,21.5,23.7z"/>
	<path fill="#FFFFFF" d="M9.9,69.4c-0.1-0.4-0.2-0.8-0.2-1.2c0-0.4,0.1-0.8,0.2-1.2H5.8C5.9,67.4,6,67.8,6,68.2
		c0,0.4-0.1,0.8-0.2,1.2H9.9z"/>
	<path fill="#FFFFFF" d="M17.7,68.2c0,0.4-0.1,0.8-0.2,1.2h17.1c-0.1-0.4-0.2-0.8-0.2-1.2c0-0.4,0.1-0.8,0.2-1.2H17.5
		C17.6,67.4,17.7,67.8,17.7,68.2z"/>
	<path fill="#FFFFFF" d="M58.9,67H42.1c0.1,0.4,0.2,0.8,0.2,1.2c0,0.4-0.1,0.8-0.2,1.2h16.1C58.4,68.6,58.7,67.8,58.9,67z"/>
	<path fill="#FFFFFF" d="M21.7,24.9c0,0.5-0.1,0.9-0.2,1.3l16.7-4c-0.4-0.6-0.6-1.3-0.6-2.1c0-0.1,0-0.2,0-0.3l-16,3.9l-0.1,0
		C21.6,24.1,21.7,24.5,21.7,24.9z"/>
	<path fill="#FFFFFF" d="M45.2,18.6c0.2,0.5,0.3,1,0.3,1.5c0,0.3,0,0.6-0.1,0.9l19.4-1.5c-0.2-0.5-0.3-1-0.3-1.5
		c0-0.3,0-0.6,0.1-0.9L45.2,18.6z"/>
	<path fill="#FFFFFF" d="M54.4,4.4c-0.5-0.6-0.8-1.4-0.8-2.3L38.8,7.6c0.5,0.6,0.8,1.4,0.8,2.3L54.4,4.4z"/>
	<path fill="#FFFFFF" d="M45.4,115.6c0.1,0.3,0.1,0.6,0.1,0.9c0,0.5-0.1,1.1-0.3,1.5l19.3,1.7c-0.1-0.3-0.1-0.6-0.1-0.9
		c0-0.5,0.1-1.1,0.3-1.5L45.4,115.6z"/>
	<path fill="#FFFFFF" d="M21.4,110c0.2,0.4,0.3,0.9,0.3,1.4c0,0.4-0.1,0.8-0.2,1.1l16,4.2c0-0.1,0-0.1,0-0.2c0-0.8,0.2-1.5,0.6-2.1
		L21.4,110z"/>
	<path fill="#FFFFFF" d="M38.8,128.7l15,5.4c0-0.9,0.3-1.6,0.8-2.3l-15-5.4C39.6,127.3,39.3,128.1,38.8,128.7z"/>
	<path fill="#FFFFFF" d="M123.2,72.2C123.2,72.2,123.2,72.2,123.2,72.2l4.5,16.5c0.5-0.7,1.3-1.2,2.1-1.4l-4.4-15.8
		C124.8,71.9,124.1,72.2,123.2,72.2z"/>
	<path fill="#FFFFFF" d="M118.8,107.5l-5.2-11.8c-0.6,0.5-1.4,0.9-2.2,1l5.2,11.8C117.2,107.9,117.9,107.6,118.8,107.5z"/>
	<path fill="#FFFFFF" d="M80.5,45.6c0.5,0.9,0.8,1.9,1.1,2.9l2-3.4c-0.8-0.2-1.5-0.6-2.1-1.2L80.5,45.6z"/>
	<path fill="#FFFFFF" d="M129.9,49.1c-0.9-0.2-1.6-0.7-2.1-1.4l-4.6,16.6c0,0,0.1,0,0.1,0c0.8,0,1.6,0.3,2.2,0.7L129.9,49.1z"/>
	<path fill="#FFFFFF" d="M99.2,64.3c0.8,0.1,1.6,0.5,2.2,1.1l9-17.7c-0.8-0.1-1.6-0.5-2.2-1.1L99.2,64.3z"/>
	<path fill="#FFFFFF" d="M111.4,39.8c0.8,0.1,1.6,0.4,2.2,1l5.3-12c-0.9,0-1.6-0.4-2.3-0.9L111.4,39.8z"/>
	<path fill="#FFFFFF" d="M85.1,37.4c0.8,0.1,1.6,0.5,2.2,1.1L94.7,24c-0.8-0.1-1.6-0.5-2.2-1.1L85.1,37.4z"/>
	<path fill="#FFFFFF" d="M94.4,112.7l-9.2-16.1c-0.4,0.4-1,1-2,1.3l9.2,16.1C92.9,113.4,93.6,112.9,94.4,112.7z"/>
	<path fill="#FFFFFF" d="M92,18.2c0.4-0.7,1-1.3,1.8-1.6L82.3,4.8c-0.6,0.6-1.4,1-2.3,1.1L92,18.2z"/>
	<path fill="#FFFFFF" d="M91.9,118.4l-12.3,12c0.9,0.1,1.7,0.5,2.3,1.1l11.7-11.4C92.9,119.7,92.3,119.1,91.9,118.4z"/>
	<path fill="#FFFFFF" d="M71.4,116.3L82.7,98c-0.3,0-0.6,0.1-0.9,0.1h-2L69.3,115C70.2,115.2,70.9,115.7,71.4,116.3z"/>
	<path fill="#FFFFFF" d="M86,92.5l11.8-20.4c-0.8-0.2-1.5-0.6-2.1-1.2L85,89.3c0.5,1.7,0.9,2.8,0.9,3C86,92.4,86,92.4,86,92.5z"/>
	<path fill="#FFFFFF" d="M85.1,45.2l10.7,20.2c0.6-0.6,1.3-1,2.1-1.1L87.2,44.1C86.7,44.7,85.9,45.1,85.1,45.2z"/>
	<path fill="#FFFFFF" d="M69.6,21.8l11.7,17.1c0.5-0.6,1.2-1.1,2-1.4L71.6,20.4C71.1,21,70.4,21.5,69.6,21.8z"/>
	<path fill="#FFFFFF" d="M71.6,15.6l6.7-9.8c-0.8-0.2-1.5-0.7-2-1.4l-6.7,9.8C70.4,14.4,71.1,14.9,71.6,15.6z"/>
	<path fill="#FFFFFF" d="M98.4,119.1c-0.5,0.6-1.3,1.1-2.1,1.3l2,3.4c0.5-0.6,1.3-1.1,2.1-1.3L98.4,119.1z"/>
	<path fill="#FFFFFF" d="M98.5,114L110,96.5c-0.8-0.2-1.5-0.7-2-1.3l-11.5,17.5C97.3,112.9,98,113.4,98.5,114z"/>
	<path fill="#FFFFFF" d="M111.6,88.8c0.8,0.1,1.6,0.5,2.2,1.1l8.8-17.7c-0.8-0.1-1.6-0.5-2.2-1.1L111.6,88.8z"/>
	<path fill="#FFFFFF" d="M122.6,64.3l-8.8-17.7c-0.6,0.6-1.3,0.9-2.2,1.1l8.8,17.7C121,64.8,121.8,64.5,122.6,64.3z"/>
	<path fill="#FFFFFF" d="M110.4,88.8l-9-17.7c-0.6,0.6-1.3,1-2.2,1.1l9,17.7C108.8,89.3,109.5,88.9,110.4,88.8z"/>
	<path fill="#FFFFFF" d="M96.5,23.9l11.5,17.4c0.5-0.6,1.2-1.1,2-1.3L98.5,22.6C98,23.2,97.3,23.7,96.5,23.9z"/>
	<path fill="#FFFFFF" d="M98.3,17.5l2.1-3.6c-0.8-0.2-1.5-0.6-2.1-1.2l-2.1,3.6C97.1,16.4,97.8,16.9,98.3,17.5z"/>
	<path fill="#FFFFFF" d="M105,124.8l12.1-10.1c-0.7-0.4-1.2-1.1-1.6-1.9L103.4,123C104.1,123.4,104.6,124.1,105,124.8z"/>
	<path fill="#FFFFFF" d="M130,95c-0.8-0.2-1.5-0.6-2.1-1.2l-7.9,13.8c0.8,0.2,1.5,0.6,2.1,1.2L130,95z"/>
	<path fill="#FFFFFF" d="M133.1,71.8l-2.7,15.4c0.2,0,0.3-0.1,0.5-0.1c0.7,0,1.3,0.2,1.9,0.5l2.7-15.5c-0.2,0-0.4,0.1-0.7,0.1
		C134.2,72.2,133.6,72,133.1,71.8z"/>
	<path fill="#FFFFFF" d="M134.8,64.3c0.2,0,0.4,0,0.7,0.1l-2.8-15.6c-0.6,0.3-1.2,0.5-1.8,0.5c-0.2,0-0.4,0-0.5-0.1l2.7,15.5
		C133.6,64.4,134.2,64.3,134.8,64.3z"/>
	<path fill="#FFFFFF" d="M127.9,42.6c0.5-0.6,1.3-1.1,2.1-1.2l-8-13.6c-0.6,0.6-1.3,0.9-2.2,1.1L127.9,42.6z"/>
	<path fill="#FFFFFF" d="M115.4,23.7c0.2-0.8,0.7-1.5,1.4-1.9l-11.8-10.2c-0.3,0.8-0.9,1.4-1.6,1.8l12,10.3L115.4,23.7z"/>
	<path fill="#FFFFFF" d="M102.6,68.2c0,0.4-0.1,0.8-0.2,1.2h17.1c-0.1-0.4-0.2-0.8-0.2-1.2c0-0.4,0.1-0.8,0.2-1.2h-17.1
		C102.5,67.4,102.6,67.8,102.6,68.2z"/>
	<path fill="#FFFFFF" d="M94.6,68.2c0-0.4,0.1-0.8,0.2-1.2H78c0.2,0.8,0.5,1.6,0.8,2.4h16.1C94.7,69.1,94.6,68.7,94.6,68.2z"/>
	<path fill="#FFFFFF" d="M130.8,68.2c0-0.4,0.1-0.8,0.2-1.2H127c0.1,0.4,0.2,0.8,0.2,1.2c0,0.4-0.1,0.8-0.2,1.2h4.1
		C130.9,69.1,130.8,68.7,130.8,68.2z"/>
	<path fill="#FFFFFF" d="M99.4,19.8c0,0.1,0,0.2,0,0.3c0,0.8-0.2,1.5-0.6,2.1l16.7,4c-0.1-0.4-0.2-0.8-0.2-1.3
		c0-0.4,0.1-0.8,0.2-1.2l-0.1,0L99.4,19.8z"/>
	<path fill="#FFFFFF" d="M91.6,21c-0.1-0.3-0.1-0.6-0.1-0.9c0-0.5,0.1-1,0.3-1.5l-19.4-1.5c0.1,0.3,0.1,0.6,0.1,0.9
		c0,0.5-0.1,1-0.3,1.5L91.6,21z"/>
	<path fill="#FFFFFF" d="M98.2,7.6L83.4,2.2c0,0.9-0.3,1.6-0.8,2.3l14.8,5.4C97.4,9,97.7,8.2,98.2,7.6z"/>
	<path fill="#FFFFFF" d="M61.3,3.2h14.4c-0.1-0.4-0.2-0.8-0.2-1.2c0-0.4,0.1-0.8,0.2-1.2H61.3c0.1,0.4,0.2,0.8,0.2,1.2
		C61.5,2.4,61.4,2.8,61.3,3.2z"/>
	<path fill="#FFFFFF" d="M91.7,118c-0.2-0.5-0.3-1-0.3-1.5c0-0.3,0-0.6,0.1-0.9l-19.5,1.7c0.2,0.5,0.3,1,0.3,1.5
		c0,0.3,0,0.6-0.1,0.9L91.7,118z"/>
	<path fill="#FFFFFF" d="M115.5,112.9c-0.2-0.5-0.3-0.9-0.3-1.5c0-0.3,0.1-0.7,0.1-1l-16.6,4c0.4,0.6,0.6,1.3,0.6,2.1
		c0,0.1,0,0.2,0,0.3L115.5,112.9z"/>
	<path fill="#FFFFFF" d="M82.3,131.9c0.5,0.6,0.8,1.4,0.8,2.3l15-5.4c-0.5-0.6-0.8-1.4-0.8-2.3L82.3,131.9z"/>
	<path fill="#FFFFFF" d="M61.5,133.1c0.1,0.4,0.2,0.8,0.2,1.2c0,0.4-0.1,0.8-0.2,1.2h14c-0.1-0.4-0.2-0.8-0.2-1.2
		c0-0.4,0.1-0.8,0.2-1.2H61.5z"/>
	<path fill="#FFFFFF" d="M114.9,42.8c0.1,0.3,0.1,0.6,0.1,0.9c0,0.5-0.1,1-0.3,1.5l12.3,0.9c-0.1-0.3-0.1-0.6-0.1-0.9
		c0-0.5,0.1-1,0.3-1.5L114.9,42.8z"/>
	<path fill="#FFFFFF" d="M107.1,44.6c-0.1-0.3-0.1-0.6-0.1-0.9c0-0.6,0.1-1.1,0.3-1.6l-19.1-1.8c0.1,0.3,0.1,0.6,0.1,0.9
		c0,0.6-0.1,1.1-0.3,1.6L107.1,44.6z"/>
	<path fill="#FFFFFF" d="M75.4,40.1c1.1,0.7,2.1,1.5,3,2.4l2.3,0c-0.1-0.4-0.2-0.8-0.2-1.2c0-0.4,0.1-0.8,0.2-1.2H75.4z"/>
	<path fill="#FFFFFF" d="M58.6,42.5c0.9-0.9,1.9-1.8,3-2.4h-5.3c0.1,0.4,0.2,0.8,0.2,1.2c0,0.4-0.1,0.8-0.2,1.2L58.6,42.5z"/>
	<path fill="#FFFFFF" d="M10,45.2c0,0.4-0.1,0.7-0.2,1.1l12.4-0.9c-0.2-0.5-0.4-1-0.4-1.6c0-0.3,0-0.5,0.1-0.8L9.8,43.9
		C9.9,44.3,10,44.8,10,45.2z"/>
	<path fill="#FFFFFF" d="M29.6,42.4c0.2,0.4,0.3,0.9,0.3,1.4c0,0.4-0.1,0.7-0.2,1L49,43c-0.3-0.5-0.4-1.1-0.4-1.7
		c0-0.2,0-0.5,0.1-0.7L29.6,42.4z"/>
	<path fill="#FFFFFF" d="M107,92.7c0-0.3,0-0.6,0.1-0.9l-21,1.8c0,0.9-0.2,1.8-0.6,2.5l21.8-1.9C107.1,93.8,107,93.2,107,92.7z"/>
	<path fill="#FFFFFF" d="M51.2,96.1c-0.5-0.7-0.7-1.6-0.6-2.5l-20.9-2c0.1,0.3,0.2,0.7,0.2,1c0,0.5-0.1,1-0.3,1.4L51.2,96.1z"/>
	<path fill="#FFFFFF" d="M114.7,91.2c0.2,0.5,0.3,1,0.3,1.5c0,0.3,0,0.6-0.1,0.9l12.4-0.9c-0.2-0.5-0.4-1-0.4-1.6
		c0-0.3,0-0.5,0.1-0.8L114.7,91.2z"/>
	<path fill="#FFFFFF" d="M22,93.5C22,93.2,22,93,22,92.7c0-0.6,0.1-1.1,0.4-1.6L9.9,90.2c0.1,0.3,0.1,0.6,0.1,0.9
		c0,0.5-0.1,1-0.3,1.5L22,93.5z"/>
	<circle fill="#FFFFFF" cx="52.5" cy="41.3" r="2"/>
	<circle fill="#FFFFFF" cx="6.1" cy="45.2" r="2"/>
	<circle fill="#FFFFFF" cx="25.9" cy="43.8" r="2"/>
	<circle fill="#FFFFFF" cx="35.6" cy="10" r="2"/>
	<circle fill="#FFFFFF" cx="41.5" cy="20.1" r="2"/>
	<circle fill="#FFFFFF" cx="79.4" cy="2" r="2"/>
	<circle fill="#FFFFFF" cx="101.3" cy="10" r="2"/>
	<circle fill="#FFFFFF" cx="95.4" cy="20.1" r="2"/>
	<circle fill="#FFFFFF" cx="111" cy="43.8" r="2"/>
	<circle fill="#FFFFFF" cx="123.2" cy="68.2" r="2"/>
	<circle fill="#FFFFFF" cx="134.8" cy="68.2" r="2"/>
	<circle fill="#FFFFFF" cx="2" cy="68.2" r="2"/>
	<circle fill="#FFFFFF" cx="111" cy="92.7" r="2"/>
	<circle fill="#FFFFFF" cx="95.4" cy="116.5" r="2"/>
	<circle fill="#FFFFFF" cx="68.4" cy="118.8" r="2"/>
	<circle fill="#FFFFFF" cx="98.6" cy="68.2" r="2"/>
	<circle fill="#FFFFFF" cx="84.4" cy="41.3" r="2"/>
	<circle fill="#FFFFFF" cx="68.5" cy="18" r="2"/>
	<circle fill="#FFFFFF" cx="119.2" cy="24.9" r="2"/>
	<circle fill="#FFFFFF" cx="130.9" cy="45.2" r="2"/>
	<circle fill="#FFFFFF" cx="79.2" cy="134.3" r="2"/>
	<circle fill="#FFFFFF" cx="101.3" cy="126.3" r="2"/>
	<circle fill="#FFFFFF" cx="119.2" cy="111.4" r="2"/>
	<circle fill="#FFFFFF" cx="130.9" cy="91.1" r="2"/>
	<circle fill="#FFFFFF" cx="13.7" cy="68.2" r="2"/>
	<circle fill="#FFFFFF" cx="25.9" cy="92.7" r="2"/>
	<circle fill="#FFFFFF" cx="41.5" cy="116.5" r="2"/>
	<circle fill="#FFFFFF" cx="38.3" cy="68.2" r="2"/>
	<circle fill="#FFFFFF" cx="17.7" cy="24.9" r="2"/>
	<circle fill="#FFFFFF" cx="57.7" cy="134.3" r="2"/>
	<circle fill="#FFFFFF" cx="35.6" cy="126.3" r="2"/>
	<circle fill="#FFFFFF" cx="17.7" cy="111.4" r="2"/>
	<circle fill="#FFFFFF" cx="6.1" cy="91.1" r="2"/>
	<circle fill="#FFFFFF" cx="57.5" cy="2" r="2"/>
	<path fill="#FFFFFF" d="M55.1,95.6h26.7c0.9,0,1.4-0.4,1.6-0.7c0.4-0.5,0.4-1.2,0.2-2c-0.3-1.1-9.5-30.2-9.9-31.4
		c-0.1-0.2,0-0.5,0.2-0.6c3.4-1.9,5.5-5.6,5.5-9.4c0-6-4.9-10.9-10.9-10.9h-0.1c-6,0-10.9,4.9-10.9,10.9c0,3.9,2.1,7.5,5.5,9.4
		c0.2,0.1,0.3,0.4,0.2,0.6c-0.1,0.3-9.6,30.3-10,31.4c-0.3,0.8-0.2,1.5,0.1,2C53.6,95.3,54.1,95.6,55.1,95.6z"/>
</g>
</svg>
