<?xml version="1.0" encoding="utf-8"?>
<!-- Generator: Adobe Illustrator 18.1.1, SVG Export Plug-In . SVG Version: 6.00 Build 0)  -->
<svg version="1.1" id="Layer_1" xmlns="http://www.w3.org/2000/svg" xmlns:xlink="http://www.w3.org/1999/xlink" x="0px" y="0px"
	 viewBox="577.6 98.7 839.6 184" enable-background="new 577.6 98.7 839.6 184" xml:space="preserve">
<path fill="#223B40" d="M677.1,248c0-5-4.1-9-9-9H657c2.2,6.6,5.3,12.7,9.4,18.1h1.6C673,257.1,677.1,253.1,677.1,248z"/>
<path fill="#223B40" d="M782.5,268.9c-5.3-0.9-11.5-5-14.7-9.2c9.2-11.2,14.7-25.4,14.7-41c0-3.6-0.3-7.1-0.9-10.5h-4.3h-1.7
	c-1.1,0-2,0.9-2,2c0,1.1,0.9,2,2,2h2.2c1.7,0,3.2,1.4,3.2,3.2c0,1.7-1.4,3.2-3.2,3.2h-23.1h-2c-3,0-5.4-2.5-5.4-5.4
	c0-3,2.5-5.4,5.4-5.4h8.8c1.1,0,2-0.9,2-2c0-1.1-0.9-2-2-2h-14.4c-4.2,0-7.6-3.4-7.6-7.6c0-4.2,3.4-7.6,7.6-7.6h28.1
	c-6.9-13-18.1-23.3-31.7-29.2c-0.5,4.7-4.5,8.4-9.3,8.4h-30.3c-5,0-9.1-4-9.4-8.9c-18.5,7.5-32.8,23.2-38.1,42.7h15.4h2.7
	c1.8,0,3.3-1.4,3.3-3.3c0-1.8-1.4-3.3-3.3-3.3h-3.3c-2.8,0-5-2.3-5-5c0-2.8,2.3-5,5-5H707h3.2c4.7,0,8.5,3.8,8.5,8.5
	s-3.8,8.5-8.5,8.5h-13.8c-1.8,0-3.3,1.4-3.3,3.3c0,1.8,1.4,3.3,3.3,3.3H719c6.6,0,11.8,5.3,11.8,11.8c0,6.6-5.3,11.8-11.8,11.8h-17
	c-1.8,0-3.3,1.4-3.3,3.3s1.4,3.3,3.3,3.3h2.6c1.8,0,3.3,1.4,3.3,3.3c0,1.8-1.4,3.3-3.3,3.3h-17.4c-1.8,0-3.3,1.4-3.3,3.3
	s1.4,3.3,3.3,3.3h7.6c3.2,0,5.7,2.6,5.7,5.7c0,3.2-2.6,5.7-5.7,5.7H672c11.7,12.1,28.1,19.6,46.2,19.6c14.5,0,27.8-4.8,38.6-12.9
	h-3.2c-1.6,0-3-1.3-3-3s1.3-3,3-3h8.7c1.6,0,3,1.3,3,3c0,1.6-1.3,3-3,3h-0.9c9.6,4.5,17.5,1.9,21.1,0.1
	C783.9,269.7,783.3,269.1,782.5,268.9z M746,263.6h-17.7c-3.1,0-5.5-2.5-5.5-5.5c0-3.1,2.5-5.5,5.5-5.5H746c3.1,0,5.5,2.5,5.5,5.5
	S749.1,263.6,746,263.6z"/>
<path fill="#223B40" d="M661.6,210.7c0-1.3-1-2.4-2.4-2.4h-4.6c-0.2,1.5-0.4,3.1-0.6,4.7h5.1C660.5,213,661.6,212,661.6,210.7z"/>
<path fill="#223B40" d="M663.5,232.4c3.5,0,6.3-2.9,6.3-6.3c0-3.5-2.9-6.3-6.3-6.3h-9.6c0.1,4.4,0.5,8.6,1.4,12.8l0,0L663.5,232.4z"
	/>
<path opacity="0.6" fill="#223B40" enable-background="new    " d="M700.6,257.9c0-3.2-2.6-5.7-5.7-5.7h-7.6c-1.8,0-3.3-1.4-3.3-3.3
	c0-1.8,1.4-3.3,3.3-3.3h17.4c1.8,0,3.3-1.4,3.3-3.3s-1.4-3.3-3.3-3.3h-2.6c-1.8,0-3.3-1.4-3.3-3.3c0-1.8,1.4-3.3,3.3-3.3h17
	c6.6,0,11.8-5.3,11.8-11.8c0-6.6-5.3-11.8-11.8-11.8h-22.6c-1.8,0-3.3-1.4-3.3-3.3s1.4-3.3,3.3-3.3h13.8c4.7,0,8.5-3.8,8.5-8.5
	s-3.8-8.5-8.5-8.5h-3.2h-36.2c-2.8,0-5,2.3-5,5c0,2.8,2.3,5,5,5h3.3c1.8,0,3.3,1.4,3.3,3.3s-1.4,3.3-3.3,3.3h-2.7h-15.4
	c-0.6,2.2-1,4.3-1.4,6.6h4.6c1.3,0,2.4,1,2.4,2.4c0,1.3-1,2.4-2.4,2.4h-5.1c-0.2,1.9-0.3,3.8-0.3,5.7c0,0.3,0,0.5,0,0.8h9.6
	c3.5,0,6.3,2.9,6.3,6.3c0,3.5-2.9,6.3-6.3,6.3h-8.2l0,0c0.5,2.3,1.1,4.4,1.7,6.6h11.1c5,0,9,4.1,9,9c0,4.9-4.1,9-9,9h-1.6
	c1.7,2.4,3.6,4.5,5.5,6.6h22.8C698,263.6,700.6,261,700.6,257.9z"/>
<path opacity="0.6" fill="#223B40" enable-background="new    " d="M739.4,196.2c0,4.2,3.4,7.6,7.6,7.6h14.4c1.1,0,2,0.9,2,2
	s-0.9,2-2,2h-8.8c-3,0-5.4,2.5-5.4,5.4c0,3,2.5,5.4,5.4,5.4h2h23.1c1.7,0,3.2-1.4,3.2-3.2c0-1.7-1.4-3.2-3.2-3.2h-2.2
	c-1.1,0-2-0.9-2-2s0.9-2,2-2h1.7h4.3c-1.1-7-3.4-13.5-6.6-19.6H747C742.7,188.7,739.4,192,739.4,196.2z"/>
<path opacity="0.6" fill="#223B40" enable-background="new    " d="M746,252.6h-17.7c-3.1,0-5.5,2.5-5.5,5.5c0,3.1,2.5,5.5,5.5,5.5
	H746c3.1,0,5.5-2.5,5.5-5.5C751.5,255.1,749.1,252.6,746,252.6z"/>
<path opacity="0.6" fill="#223B40" enable-background="new    " d="M703.6,168.1h30.3c4.9,0,8.9-3.7,9.3-8.4
	c-7.7-3.3-16.2-5.1-25.2-5.1c-8.5,0-16.6,1.6-24,4.6C694.5,164.1,698.6,168.1,703.6,168.1z"/>
<path opacity="0.6" fill="#223B40" enable-background="new    " d="M765.2,267.4c0-1.6-1.3-3-3-3h-8.7c-1.6,0-3,1.3-3,3s1.3,3,3,3
	h3.2c0.6-0.5,1.2-0.9,1.8-1.4c0.9,0.5,1.8,1,2.8,1.4h0.9C763.9,270.3,765.2,269,765.2,267.4z"/>
<path opacity="0.6" fill="#223B40" enable-background="new    " d="M636.9,219.4l-34.5,2.4c-2.8,0.2-4.9,2.6-4.7,5.4
	c0.2,2.7,2.4,4.7,5,4.7c0.1,0,0.2,0,0.3,0l34.5-2.4C637.2,226.2,636.9,222.9,636.9,219.4z"/>
<path opacity="0.6" fill="#223B40" enable-background="new    " d="M707.1,138.6c3.3-0.4,6.7-0.7,10-0.7l-2.4-34.4
	c-0.2-2.8-2.6-4.9-5.4-4.7c-2.8,0.2-4.9,2.6-4.7,5.4L707.1,138.6z"/>
<path opacity="0.6" fill="#223B40" enable-background="new    " d="M653.5,169.7c2-2.7,4.3-5.2,6.7-7.6L647.2,151
	c-2.2-1.8-5.3-1.6-7.2,0.5c-1.8,2.2-1.6,5.3,0.5,7.2L653.5,169.7z"/>
<path opacity="0.6" fill="#223B40" enable-background="new    " d="M606.6,187.9l32.9,10.6c0.8-3.3,1.9-6.5,3.2-9.6l-32.9-10.6
	c-2.7-0.8-5.5,0.6-6.3,3.3C602.5,184.3,603.9,187.1,606.6,187.9z"/>
<path opacity="0.6" fill="#223B40" enable-background="new    " d="M758.2,110.7c0.8-2.7-0.6-5.5-3.3-6.3s-5.5,0.6-6.3,3.3
	l-10.6,32.8c3.3,0.8,6.5,1.9,9.6,3.2L758.2,110.7z"/>
<path opacity="0.6" fill="#223B40" enable-background="new    " d="M628.3,258.7c-2.5,1.2-3.5,4.3-2.3,6.8c0.9,1.7,2.7,2.8,4.5,2.8
	c0.8,0,1.5-0.2,2.3-0.5l15.3-7.8c-1.7-2.9-3.3-5.9-4.6-9L628.3,258.7z"/>
<path opacity="0.6" fill="#223B40" enable-background="new    " d="M673.8,150.9c2.9-1.8,5.7-3.5,8.8-5l-17.1-32.4
	c-1.3-2.5-4.4-3.4-6.9-2.2c-2.5,1.3-3.4,4.4-2.2,6.9L673.8,150.9z"/>
<path fill="#223B40" d="M1074.6,243.4c6-11.1,9.3-23.7,9.3-36.5c0-41.8-34-75.8-75.8-75.8s-75.8,34-75.8,75.8s34,75.8,75.8,75.8
	c14.5,0,28.8-4.2,41-12.1c3.9,1.3,7.8,1.9,11.8,1.9c7,0,12.5-2,15.9-3.7c5.6-2.8,8.7-8.5,7.8-14.3
	C1083.7,249.3,1079.8,245,1074.6,243.4z M1070.9,257.4c-3.5,1.7-11.2,4.3-20.6-0.1c-0.9-0.4-1.7-0.9-2.7-1.4
	c-0.6,0.5-1.2,0.9-1.8,1.4c-10.4,7.9-23.5,12.6-37.7,12.6c-17.7,0-33.6-7.3-45.1-19c-1.9-2-3.8-4.1-5.4-6.3
	c-3.9-5.3-7.1-11.3-9.1-17.7c-0.7-2-1.2-4.2-1.7-6.3c-0.8-4-1.3-8.2-1.4-12.5c0-0.2,0-0.5,0-0.7c0-1.9,0.1-3.8,0.3-5.6
	c0.1-1.5,0.3-3.1,0.6-4.6c0.3-2.2,0.8-4.3,1.4-6.3c5.2-19,19.1-34.4,37.2-41.7c7.2-2.9,15.1-4.5,23.3-4.5c8.7,0,17,1.7,24.5,5
	c13.3,5.6,24.3,15.8,30.9,28.5c3.1,5.8,5.3,12.3,6.5,19c0.5,3.4,0.8,6.8,0.8,10.2c0,15.2-5.4,29.1-14.3,39.9c3.2,4.1,9.1,8.1,14.3,9
	C1071.6,256,1072.2,256.6,1070.9,257.4z"/>
<path fill="#223B40" d="M996.2,191L996.2,191c0,2.4,0.6,4.5,1.7,6.3c1.1,1.8,2.8,3.4,4.6,4.5l-2.9,18.5l-2.3,14.8
	c0,0.1,0.1,0.2,0.2,0.2h21.8c0.1,0,0.2-0.1,0.2-0.2l-2.8-18l-2.4-15.5c0.8-0.4,1.5-0.9,2.2-1.5c2.6-2.3,4.2-5.5,4.2-9.3
	c0-6.9-5.5-12.4-12.4-12.4c-0.3,0-0.5,0-0.8,0C1001.4,179.1,996.3,184.5,996.2,191z"/>
<g>
	<polygon fill="#223B40" points="1353.8,210.9 1365.6,187.7 1339.3,185.5 	"/>
	<polygon fill="#223B40" points="1367,184.8 1374.3,168.6 1352.6,163.4 	"/>
	<polygon fill="#223B40" points="1339,183.3 1365.1,185.7 1350.3,163.8 	"/>
	<polygon fill="#223B40" points="1353.8,215.2 1339.3,240.6 1365.6,238.2 	"/>
	<polygon fill="#223B40" points="1352,214 1330,214 1337.8,239 	"/>
	<path fill="#223B40" d="M1329.9,206.8c-0.5,0.5-1.1,0.9-1.6,1.2l1.2,3.9h22.6l-14.7-25.8l-3.6,6.2c0.4,1.3,0.7,2.8,0.7,4.3
		C1334.5,200.5,1332.8,204.2,1329.9,206.8z"/>
	<polygon fill="#223B40" points="1304.2,182.3 1318.9,160.5 1292.8,162.5 	"/>
	<polygon fill="#223B40" points="1319.1,158.5 1309.1,143.9 1293.7,160.4 	"/>
	<polygon fill="#223B40" points="1274.5,241.3 1267.2,257.5 1288.7,263 	"/>
	<polygon fill="#223B40" points="1286.1,214 1263.1,214 1274.4,236.9 	"/>
	<polygon fill="#223B40" points="1287.7,210.9 1302.3,185.5 1276.1,187.7 	"/>
	<polygon fill="#223B40" points="1287.7,215.2 1276.1,238.2 1302.3,240.6 	"/>
	<polygon fill="#223B40" points="1276.5,185.7 1302.4,183.3 1291,163.6 	"/>
	<polygon fill="#223B40" points="1288.9,163.2 1267.2,167.6 1274.6,184.8 	"/>
	<path fill="#223B40" d="M1289.5,212h22.9l1.2-3.9c-1.7-1.1-3.3-2.7-4.4-4.5c-1.2-2-1.9-4.5-1.9-7v-0.1c0-1.2,0.2-2.5,0.5-3.7
		l-3.8-6.6L1289.5,212z"/>
	<polygon fill="#223B40" points="1304.2,243.6 1292.7,263.7 1319.1,265.9 	"/>
	<polygon fill="#223B40" points="1255.3,187.2 1272.9,186 1265.5,169.1 1255.1,187.2 1255.2,187.1 	"/>
	<polygon fill="#223B40" points="1386.1,238.7 1368.7,240.1 1376.1,256.4 1386.2,238.8 1386.2,238.8 	"/>
	<polygon fill="#223B40" points="1311.7,214 1289.5,214 1303.6,238.8 	"/>
	<polygon fill="#223B40" points="1255.3,238.7 1255.2,238.8 1255.1,238.8 1265.3,256.5 1272.9,240.1 	"/>
	<polygon fill="#223B40" points="1386.1,187.2 1386.2,187.2 1386.2,187.2 1376.1,169.5 1368.7,186 	"/>
	<polygon fill="#223B40" points="1335.6,242.8 1306.1,242.9 1321.1,265.1 	"/>
	<path fill="#223B40" d="M1332.8,190.1l2.8-4.8h-7.3C1330.1,186.5,1331.7,188.1,1332.8,190.1z"/>
	<polygon fill="#223B40" points="1293.6,265.9 1309.1,282.1 1319.2,267.9 	"/>
	<path fill="#223B40" d="M1313.6,185.3h-7.8l3,5.2C1310,188.3,1311.6,186.6,1313.6,185.3z"/>
	<polygon fill="#223B40" points="1337.3,182.2 1348.6,162.6 1322.9,160.5 	"/>
	<polygon fill="#223B40" points="1347.7,160.6 1332.3,143.9 1322.7,158.5 	"/>
	<path fill="#223B40" d="M1306.1,183.2h13.2c0.3,0,0.5-0.1,0.8-0.1h0.2c0.2,0,0.4,0,0.7,0c0.6,0,1.2,0.1,1.8,0.1h12.8l-14.7-22
		L1306.1,183.2z"/>
	<polygon fill="#223B40" points="1286.3,274.7 1306,281.8 1291.1,266.3 	"/>
	<polygon fill="#223B40" points="1311.2,282.8 1330.4,282.8 1321,268.8 	"/>
	<polygon fill="#223B40" points="1335.7,281.7 1355.1,274.7 1350.3,266.3 	"/>
	<polygon fill="#223B40" points="1352,265.2 1356.9,273.6 1373.3,259.8 	"/>
	<polygon fill="#223B40" points="1302.5,242.6 1276.5,240.4 1290.9,262.6 	"/>
	<polygon fill="#223B40" points="1268.1,259.8 1284.6,273.6 1289.4,265.2 	"/>
	<polygon fill="#223B40" points="1272.7,238 1261.6,215.8 1255.8,236.8 	"/>
	<path fill="#223B40" d="M1375.4,260.7l-17,14.2c12.6,6.9,25.3,3.5,30.8,1.3C1382.6,273.7,1377.1,264.1,1375.4,260.7z"/>
	<polygon fill="#223B40" points="1261.6,210.2 1272.7,188 1255.8,189.3 	"/>
	<polygon fill="#223B40" points="1250.1,214 1254,235.8 1260,214 	"/>
	<polygon fill="#223B40" points="1254,190.2 1250.1,212 1260,212 	"/>
	<polygon fill="#223B40" points="1387.5,235.7 1391.3,214 1381.5,214 	"/>
	<polygon fill="#223B40" points="1391.3,212 1387.5,190.3 1381.5,212 	"/>
	<polygon fill="#223B40" points="1263.1,212 1286.1,212 1274.4,189.2 	"/>
	<polygon fill="#223B40" points="1367,241.3 1352.8,262.9 1374.3,257.5 	"/>
	<polygon fill="#223B40" points="1379.9,215.9 1368.8,238 1385.6,236.8 	"/>
	<polygon fill="#223B40" points="1378.6,214 1355.5,214 1367.2,236.9 	"/>
	<polygon fill="#223B40" points="1284.6,152.4 1269.4,165 1289.5,160.9 	"/>
	<polygon fill="#223B40" points="1337.3,243.8 1323.1,265.9 1348.8,263.7 	"/>
	<polygon fill="#223B40" points="1322.9,267.9 1332.5,282.1 1347.9,265.9 	"/>
	<polygon fill="#223B40" points="1355.5,212 1378.6,212 1367.2,189.2 	"/>
	<polygon fill="#223B40" points="1365.1,240.4 1339,242.6 1350.5,262.6 	"/>
	<polygon fill="#223B40" points="1368.8,188 1379.9,210.2 1385.6,189.3 	"/>
	<polygon fill="#223B40" points="1330.2,143.3 1311.2,143.3 1320.8,157.5 	"/>
	<polygon fill="#223B40" points="1306.1,144.1 1286.3,151.4 1291.2,159.9 	"/>
	<polygon fill="#223B40" points="1355.1,151.4 1335.4,144.1 1350.1,160.1 	"/>
	<polygon fill="#223B40" points="1373.4,166.2 1356.9,152.4 1351.8,161.1 	"/>
</g>
</svg>
