<?xml version="1.0" encoding="utf-8"?>
<!-- Generator: Adobe Illustrator 18.1.1, SVG Export Plug-In . SVG Version: 6.00 Build 0)  -->
<svg version="1.1" id="Layer_1" xmlns="http://www.w3.org/2000/svg" xmlns:xlink="http://www.w3.org/1999/xlink" x="0px" y="0px"
	 viewBox="577.6 356.6 839.6 184" enable-background="new 577.6 356.6 839.6 184" xml:space="preserve">
<g>
	<path fill="#223B40" d="M1368,501.5c2.7,4.5,7.9,12.1,13.9,14c-5,2-17.3,5.7-30,0.5c-0.2,0.5-0.5,1-0.9,1.4
		c5.1,2.1,10.1,2.9,14.7,2.9c11,0,19.3-4.4,19.4-4.5c0.3-0.2,0.5-0.6,0.4-0.9c-0.1-0.4-0.4-0.6-0.8-0.6c-6,0-11.8-7.9-14.9-13
		c-0.4,0.1-0.8,0.2-1.3,0.2C1368.4,501.6,1368.2,501.6,1368,501.5z"/>
	<path fill="#223B40" d="M1247,452.1l-5.6,18.8c0.5,0.2,1,0.5,1.5,0.8l5.7-19.2C1248,452.5,1247.4,452.3,1247,452.1z"/>
	<path fill="#223B40" d="M1260.4,479.6l-6.2,14.3c0.5,0.1,1.1,0.3,1.5,0.7l6.2-14.3C1261.4,480.1,1260.9,479.9,1260.4,479.6z"/>
	<path fill="#223B40" d="M1294.1,421.8l3.1,5.2c0.1-0.7,0.4-1.5,0.6-2.2l-2.3-3.9C1295.1,421.3,1294.7,421.6,1294.1,421.8z"/>
	<path fill="#223B40" d="M1248.5,444.8l-5.8-19.3c-0.4,0.4-0.9,0.6-1.5,0.8l5.7,19C1247.4,445,1247.9,444.8,1248.5,444.8z"/>
	<path fill="#223B40" d="M1275.8,444.9l-10.7-21c-0.4,0.3-0.9,0.6-1.5,0.7l10.7,21C1274.8,445.3,1275.3,445,1275.8,444.9z"/>
	<path fill="#223B40" d="M1261.9,417.1l-6.4-14.3c-0.5,0.3-1,0.5-1.5,0.6l6.4,14.4C1260.8,417.4,1261.3,417.2,1261.9,417.1z"/>
	<path fill="#223B40" d="M1291.9,414.3l-9-17.3c-0.4,0.3-0.9,0.6-1.4,0.8l9,17.3C1290.9,414.7,1291.3,414.5,1291.9,414.3z"/>
	<path fill="#223B40" d="M1292.9,480.3l-11.1,19.5c0.5,0.2,1,0.5,1.4,0.9l11.1-19.5C1293.7,480.9,1293.2,480.6,1292.9,480.3z"/>
	<path fill="#223B40" d="M1283.6,391.7l13.3-14.7c-0.5-0.2-0.9-0.6-1.3-1l-13.3,14.6C1282.8,390.9,1283.2,391.3,1283.6,391.7z"/>
	<path fill="#223B40" d="M1282.4,506.8l13.5,14.3c0.4-0.4,0.8-0.7,1.3-1l-13.7-14.4C1283.3,506.1,1282.9,506.5,1282.4,506.8z"/>
	<path fill="#223B40" d="M1308.2,508.9l-7.8,11.2c0.5,0.2,1,0.5,1.3,0.9l7.9-11.3C1309,509.6,1308.5,509.3,1308.2,508.9z"/>
	<path fill="#223B40" d="M1295.8,481.4c-0.4,0-0.7,0-1-0.1l13.5,21.9c0.4-0.4,0.9-0.6,1.4-0.8l-13-21H1295.8z"/>
	<path fill="#223B40" d="M1292.7,474.6l-13.3-23.1c-0.4,0.4-0.9,0.6-1.4,0.8l14.1,24.4c0-0.2,0.1-0.3,0.1-0.5
		C1292.3,476.1,1292.4,475.5,1292.7,474.6z"/>
	<path fill="#223B40" d="M1291.9,421.8c-0.5-0.2-1-0.4-1.4-0.8l-12.6,23.8c0.5,0.2,1,0.4,1.4,0.8L1291.9,421.8z"/>
	<path fill="#223B40" d="M1295.7,415.4l13.8-20.2c-0.5-0.2-1-0.5-1.3-0.9l-13.8,20.2C1294.9,414.7,1295.4,415,1295.7,415.4z"/>
	<path fill="#223B40" d="M1309.5,388l-8.1-11.8c-0.4,0.4-0.8,0.7-1.3,0.9l8.1,11.9C1308.5,388.5,1309,388.2,1309.5,388z"/>
	<path fill="#223B40" d="M1277.7,506.3l-2.8,4.6c0.5,0.2,1,0.5,1.4,0.8l2.8-4.6C1278.6,506.9,1278.1,506.7,1277.7,506.3z"/>
	<path fill="#223B40" d="M1279,499.8l-13.5-20.6c-0.4,0.4-0.9,0.7-1.4,0.9l13.5,20.6C1278,500.3,1278.5,500,1279,499.8z"/>
	<path fill="#223B40" d="M1251.3,451.7c-0.4,0.3-0.9,0.6-1.5,0.7l10.5,21c0.4-0.3,0.9-0.6,1.5-0.7L1251.3,451.7z"/>
	<path fill="#223B40" d="M1261.7,424.7c-0.5-0.1-1-0.4-1.5-0.7l-10.5,21c0.5,0.1,1,0.4,1.5,0.7L1261.7,424.7z"/>
	<path fill="#223B40" d="M1274.3,451.7l-10.7,21c0.5,0.1,1,0.4,1.5,0.7l10.7-21C1275.3,452.3,1274.8,452,1274.3,451.7z"/>
	<path fill="#223B40" d="M1265.5,418.1l13.5-20.5c-0.5-0.2-1-0.5-1.4-0.9l-13.5,20.5C1264.6,417.5,1265.1,417.8,1265.5,418.1z"/>
	<path fill="#223B40" d="M1279.2,390.3l-2.9-4.9c-0.4,0.4-0.9,0.6-1.4,0.8l2.9,4.9C1278.2,390.8,1278.7,390.5,1279.2,390.3z"/>
	<path fill="#223B40" d="M1271.3,511.5l-14.5-12c-0.3,0.5-0.6,0.9-1,1.3l14.5,12C1270.5,512.3,1270.9,511.9,1271.3,511.5z"/>
	<path fill="#223B40" d="M1242.8,477.5c-0.4,0.4-0.9,0.6-1.4,0.8l9.5,16.5c0.4-0.4,0.9-0.6,1.4-0.8L1242.8,477.5z"/>
	<path fill="#223B40" d="M1240.3,470.7l-3.3-18.4c-0.5,0.2-1,0.3-1.5,0.3c0,0-0.1,0-0.1,0l3.3,18.4c0.5-0.2,1-0.3,1.5-0.3
		C1240.2,470.7,1240.3,470.7,1240.3,470.7z"/>
	<path fill="#223B40" d="M1237,445l3.3-18.6c0,0-0.1,0-0.1,0c-0.5,0-1-0.1-1.5-0.3l-3.3,18.6c0,0,0.1,0,0.1,0
		C1236.1,444.7,1236.6,444.9,1237,445z"/>
	<path fill="#223B40" d="M1252.5,403.2c-0.5-0.1-1-0.4-1.5-0.7l-9.6,16.3c0.5,0.2,1,0.5,1.4,0.8L1252.5,403.2z"/>
	<path fill="#223B40" d="M1257,398l14.4-12.4c-0.4-0.3-0.8-0.8-1.1-1.2l-14.2,12.2C1256.5,397,1256.8,397.5,1257,398z"/>
	<path fill="#223B40" d="M1244.9,448.7c0-0.3,0-0.6,0.1-0.8h-5.6c0.1,0.3,0.1,0.5,0.1,0.8c0,0.3,0,0.6-0.1,0.8h5.6
		C1245,449.2,1244.9,448.9,1244.9,448.7z"/>
	<path fill="#223B40" d="M1272.9,448.7c0-0.3,0-0.6,0.1-0.8h-20.3c0.1,0.3,0.1,0.5,0.1,0.8c0,0.3,0,0.6-0.1,0.8h20.3
		C1272.9,449.2,1272.9,448.9,1272.9,448.7z"/>
	<path fill="#223B40" d="M1280.7,448.7c0,0.3,0,0.6-0.1,0.8h20.1c0.2-0.5,0.3-1.1,0.5-1.6h-20.6
		C1280.7,448.1,1280.7,448.4,1280.7,448.7z"/>
	<path fill="#223B40" d="M1276.5,394.1l-19.3,4.6c0,0.2,0.1,0.4,0.1,0.7c0,0.4-0.1,0.7-0.2,1l19.7-4.8
		C1276.7,395.2,1276.5,394.7,1276.5,394.1z"/>
	<path fill="#223B40" d="M1284.3,394.5l23-1.8c-0.1-0.4-0.2-0.7-0.2-1.1c0-0.2,0-0.3,0.1-0.5l-23,1.8c0.1,0.4,0.2,0.7,0.2,1.1
		C1284.3,394.2,1284.3,394.4,1284.3,394.5z"/>
	<path fill="#223B40" d="M1295.3,375.5c-0.3-0.5-0.5-1-0.6-1.5l-17.7,6.5c0.3,0.5,0.5,1,0.6,1.5L1295.3,375.5z"/>
	<path fill="#223B40" d="M1307.2,505l-22.9-2c0,0.2,0,0.3,0,0.5c0,0.4-0.1,0.8-0.2,1.1l22.9,2c0-0.2,0-0.3,0-0.5
		C1307,505.7,1307.1,505.3,1307.2,505z"/>
	<path fill="#223B40" d="M1276.9,501.7l-19.8-5.2c0.1,0.4,0.2,0.7,0.2,1.2c0,0.2,0,0.4-0.1,0.6l19.2,5
		C1276.5,502.7,1276.7,502.2,1276.9,501.7z"/>
	<path fill="#223B40" d="M1277.6,515.1c-0.1,0.6-0.3,1.1-0.5,1.5l17.9,6.5c0.1-0.6,0.3-1.1,0.6-1.5L1277.6,515.1z"/>
	<circle fill="#223B40" cx="1273.7" cy="382.5" r="2.3"/>
	<circle fill="#223B40" cx="1280.4" cy="394" r="2.3"/>
	<path fill="#223B40" d="M1373.5,452.5l5.7,19.2c0.4-0.4,0.9-0.7,1.5-0.8l-5.6-18.8C1374.6,452.3,1374,452.5,1373.5,452.5z"/>
	<path fill="#223B40" d="M1360.1,480.3l6.2,14.3c0.4-0.3,0.9-0.6,1.5-0.7l-6.2-14.3C1361.1,479.9,1360.6,480.1,1360.1,480.3z"/>
	<path fill="#223B40" d="M1326.4,421l-2.3,3.9c0.3,0.7,0.5,1.4,0.6,2.1l3.1-5.2C1327.3,421.6,1326.8,421.3,1326.4,421z"/>
	<path fill="#223B40" d="M1375,445.3l5.7-19c-0.5-0.2-1-0.4-1.5-0.8l-5.8,19.3C1374,444.8,1374.6,445,1375,445.3z"/>
	<path fill="#223B40" d="M1347.6,445.6l10.7-21c-0.5-0.1-1-0.4-1.5-0.7l-10.7,21C1346.7,445,1347.2,445.3,1347.6,445.6z"/>
	<path fill="#223B40" d="M1361.6,417.7l6.4-14.4c-0.6-0.1-1.1-0.3-1.5-0.6l-6.4,14.3C1360.6,417.2,1361.1,417.4,1361.6,417.7z"/>
	<path fill="#223B40" d="M1331.6,415.1l9-17.3c-0.5-0.1-1-0.4-1.4-0.8l-9,17.3C1330.7,414.5,1331.1,414.7,1331.6,415.1z"/>
	<path fill="#223B40" d="M1327.7,481.1l11.1,19.6c0.4-0.4,0.9-0.7,1.4-0.9l-11.2-19.6C1328.8,480.5,1328.3,480.9,1327.7,481.1z"/>
	<path fill="#223B40" d="M1339.6,390.7l-13.3-14.6c-0.4,0.4-0.8,0.8-1.3,1l13.3,14.7C1338.7,391.3,1339.2,390.9,1339.6,390.7z"/>
	<path fill="#223B40" d="M1338.4,505.7l-13.7,14.4c0.5,0.2,1,0.5,1.3,1l13.5-14.3C1339.1,506.5,1338.7,506.1,1338.4,505.7z"/>
	<path fill="#223B40" d="M1312.4,509.7l7.9,11.3c0.4-0.4,0.8-0.7,1.3-0.9l-7.9-11.3C1313.4,509.2,1312.9,509.5,1312.4,509.7z"/>
	<path fill="#223B40" d="M1326.1,481.4h-0.9l-13,21c0.5,0.2,1,0.5,1.4,0.9l13.6-22C1326.9,481.3,1326.5,481.4,1326.1,481.4z"/>
	<path fill="#223B40" d="M1329.2,474.7c0.3,0.9,0.5,1.5,0.5,1.6c0.1,0.2,0.1,0.4,0.1,0.6l14.2-24.5c-0.5-0.2-1-0.4-1.4-0.8
		L1329.2,474.7z"/>
	<path fill="#223B40" d="M1342.7,445.7c0.4-0.3,0.9-0.6,1.4-0.8l-12.6-23.8c-0.4,0.3-0.9,0.6-1.4,0.8L1342.7,445.7z"/>
	<path fill="#223B40" d="M1327.6,414.5l-13.8-20.2c-0.4,0.4-0.8,0.7-1.3,0.9l13.8,20.2C1326.6,415,1327.1,414.7,1327.6,414.5z"/>
	<path fill="#223B40" d="M1313.8,388.9l8.1-11.8c-0.5-0.2-1-0.5-1.3-0.9l-8.1,11.8C1313,388.2,1313.5,388.5,1313.8,388.9z"/>
	<path fill="#223B40" d="M1342.8,507.1l2.8,4.6c0.4-0.4,0.9-0.7,1.4-0.8l-2.8-4.6C1343.8,506.7,1343.4,506.9,1342.8,507.1z"/>
	<path fill="#223B40" d="M1356.5,479.2l-13.5,20.6c0.5,0.2,1,0.5,1.4,0.9l13.5-20.6C1357.4,479.9,1356.9,479.6,1356.5,479.2z"/>
	<path fill="#223B40" d="M1360.3,472.7c0.5,0.1,1,0.4,1.5,0.7l10.5-21c-0.5-0.1-1-0.4-1.5-0.7L1360.3,472.7z"/>
	<path fill="#223B40" d="M1370.7,445.6c0.4-0.3,0.9-0.6,1.5-0.7l-10.5-21c-0.4,0.3-0.9,0.6-1.5,0.7L1370.7,445.6z"/>
	<path fill="#223B40" d="M1346.2,452.4l10.7,21c0.4-0.3,0.9-0.6,1.5-0.7l-10.7-21C1347.2,452,1346.7,452.3,1346.2,452.4z"/>
	<path fill="#223B40" d="M1343,397.7l13.5,20.5c0.4-0.4,0.8-0.7,1.4-0.9l-13.5-20.5C1344,397.2,1343.5,397.5,1343,397.7z"/>
	<path fill="#223B40" d="M1344.2,391.1l2.9-4.9c-0.5-0.2-1-0.4-1.4-0.8l-2.9,4.9C1343.3,390.5,1343.8,390.8,1344.2,391.1z"/>
	<path fill="#223B40" d="M1351.7,512.8l14.5-12c-0.4-0.3-0.8-0.8-1-1.3l-14.5,12C1351.1,511.9,1351.4,512.3,1351.7,512.8z"/>
	<path fill="#223B40" d="M1369.8,494c0.5,0.2,1,0.4,1.4,0.8l9.5-16.5c-0.5-0.2-1-0.4-1.4-0.8L1369.8,494z"/>
	<path fill="#223B40" d="M1386.3,452.6c-0.5,0-0.9-0.1-1.3-0.3l-3.3,18.4c0,0,0.1,0,0.1,0c0.5,0,1,0.1,1.5,0.3l3.3-18.4
		C1386.5,452.5,1386.4,452.6,1386.3,452.6z"/>
	<path fill="#223B40" d="M1381.7,426.4l3.3,18.6c0.4-0.2,0.9-0.3,1.3-0.3c0.1,0,0.2,0,0.3,0l-3.3-18.6c-0.5,0.2-0.9,0.3-1.5,0.3
		C1381.8,426.4,1381.7,426.4,1381.7,426.4z"/>
	<path fill="#223B40" d="M1379.2,419.7c0.4-0.4,0.9-0.6,1.4-0.8l-9.6-16.3c-0.4,0.3-0.9,0.6-1.5,0.7L1379.2,419.7z"/>
	<path fill="#223B40" d="M1350.6,385.6L1365,398c0.2-0.5,0.5-1,0.9-1.4l-14.2-12.2C1351.4,384.9,1351,385.3,1350.6,385.6z"/>
	<path fill="#223B40" d="M1349.1,448.7c0,0.3,0,0.6-0.1,0.8h20.3c-0.1-0.3-0.1-0.5-0.1-0.8c0-0.3,0-0.6,0.1-0.8H1349
		C1349.1,448.1,1349.1,448.4,1349.1,448.7z"/>
	<path fill="#223B40" d="M1321.3,449.5h20.1c-0.1-0.3-0.1-0.5-0.1-0.8c0-0.3,0-0.6,0.1-0.8h-20.6
		C1320.9,448.4,1321.1,448.9,1321.3,449.5z"/>
	<path fill="#223B40" d="M1377.1,448.7c0,0.3,0,0.6-0.1,0.8h5.5c-0.1-0.3-0.1-0.5-0.1-0.8c0-0.3,0-0.6,0.1-0.8h-5.5
		C1377,448.1,1377.1,448.4,1377.1,448.7z"/>
	<path fill="#223B40" d="M1345.1,395.7l19.7,4.8c-0.1-0.3-0.2-0.7-0.2-1c0-0.2,0-0.5,0.1-0.7l-19.3-4.6
		C1345.5,394.7,1345.3,395.2,1345.1,395.7z"/>
	<path fill="#223B40" d="M1314.7,392.7l23,1.8c0-0.2-0.1-0.3-0.1-0.5c0-0.4,0.1-0.8,0.2-1.1l-23-1.8c0,0.2,0.1,0.3,0.1,0.5
		C1314.9,392,1314.8,392.4,1314.7,392.7z"/>
	<path fill="#223B40" d="M1344.4,382c0.1-0.6,0.3-1.1,0.6-1.5l-17.7-6.5c-0.1,0.6-0.3,1.1-0.6,1.5L1344.4,382z"/>
	<path fill="#223B40" d="M1302.4,374.3h17.2c-0.1-0.3-0.1-0.5-0.1-0.8s0-0.6,0.1-0.8h-17.2c0.1,0.3,0.1,0.5,0.1,0.8
		S1302.4,374,1302.4,374.3z"/>
	<path fill="#223B40" d="M1337.7,503l-23.1,2c0.1,0.4,0.2,0.7,0.2,1.1c0,0.2,0,0.3,0,0.5l23.1-2c-0.1-0.4-0.2-0.7-0.2-1.1
		C1337.7,503.3,1337.7,503.1,1337.7,503z"/>
	<path fill="#223B40" d="M1345.5,503.3l19.3-4.7c-0.1-0.3-0.1-0.6-0.1-1c0-0.2,0-0.5,0.1-0.7l-19.6,4.7
		C1345.3,502.2,1345.5,502.8,1345.5,503.3z"/>
	<path fill="#223B40" d="M1326.5,521.6c0.3,0.5,0.5,1,0.6,1.5l17.9-6.5c-0.3-0.5-0.5-1-0.5-1.5L1326.5,521.6z"/>
	<path fill="#223B40" d="M1319.4,522.9h-16.8c0.1,0.3,0.1,0.5,0.1,0.8c0,0.3,0,0.6-0.1,0.8h16.8c-0.1-0.3-0.1-0.5-0.1-0.8
		C1319.3,523.4,1319.3,523.1,1319.4,522.9z"/>
	<path fill="#223B40" d="M1363.2,420.9c0,0.4-0.1,0.7-0.2,1.1l15,1.1c0-0.2-0.1-0.4-0.1-0.5c0-0.4,0.1-0.7,0.2-1.1l-15-1.1
		C1363.2,420.5,1363.2,420.7,1363.2,420.9z"/>
	<path fill="#223B40" d="M1333,418.1c0,0.4-0.1,0.8-0.2,1.2l22.6,2.1c0-0.2,0-0.3,0-0.5c0-0.4,0.1-0.8,0.2-1.2l-22.6-2.1
		C1333,417.8,1333,417.9,1333,418.1z"/>
	<path fill="#223B40" d="M1325.3,418.9c-0.1-0.3-0.1-0.5-0.1-0.8c0-0.3,0-0.6,0.1-0.8h-7.8c0.9,0.5,1.7,1,2.5,1.6L1325.3,418.9z"/>
	<path fill="#223B40" d="M1296.7,418.9l5.3,0c0.8-0.6,1.6-1.2,2.5-1.6h-7.8c0.1,0.3,0.1,0.5,0.1,0.8
		C1296.8,418.4,1296.8,418.6,1296.7,418.9z"/>
	<path fill="#223B40" d="M1258.8,420.9c0-0.1,0-0.2,0-0.4l-14.9,1.1c0.1,0.3,0.1,0.6,0.1,0.9c0,0.2,0,0.5-0.1,0.7l15-1.1
		C1258.9,421.7,1258.8,421.3,1258.8,420.9z"/>
	<path fill="#223B40" d="M1289,418.1c0-0.1,0-0.2,0-0.3l-22.6,2.1c0.1,0.3,0.1,0.6,0.1,1c0,0.2,0,0.4-0.1,0.7l22.7-2.1
		C1289.1,419,1289,418.6,1289,418.1z"/>
	<path fill="#223B40" d="M1329.3,479.9l26.3-2.3c-0.1-0.4-0.2-0.7-0.2-1.1c0-0.2,0-0.3,0-0.5l-25.5,2.2
		C1329.8,478.8,1329.6,479.4,1329.3,479.9z"/>
	<path fill="#223B40" d="M1291.9,478.2l-25.4-2.4c0,0.2,0.1,0.4,0.1,0.7c0,0.3-0.1,0.7-0.1,1l26.1,2.5
		C1292.2,479.4,1292,478.8,1291.9,478.2z"/>
	<path fill="#223B40" d="M1363.2,476.4c0,0.2,0,0.4-0.1,0.5l15-1.1c-0.1-0.4-0.2-0.8-0.2-1.3c0-0.1,0-0.2,0-0.4l-14.9,1.1
		C1363.1,475.7,1363.2,476,1363.2,476.4z"/>
	<path fill="#223B40" d="M1258.8,476.4c0-0.4,0.1-0.9,0.2-1.2l-15-1.1c0,0.2,0.1,0.3,0.1,0.5c0,0.4-0.1,0.8-0.2,1.1l14.9,1.1
		C1258.8,476.7,1258.8,476.6,1258.8,476.4z"/>
	<circle fill="#223B40" cx="1323.4" cy="373.5" r="2.3"/>
	<circle fill="#223B40" cx="1348.3" cy="382.5" r="2.3"/>
	<circle fill="#223B40" cx="1341.6" cy="394" r="2.3"/>
	<circle fill="#223B40" cx="1359.3" cy="420.9" r="2.3"/>
	<circle fill="#223B40" cx="1373.2" cy="448.7" r="2.3"/>
	<circle fill="#223B40" cx="1386.3" cy="448.7" r="2.3"/>
	<circle fill="#223B40" cx="1235.5" cy="448.7" r="2.3"/>
	<circle fill="#223B40" cx="1359.3" cy="476.4" r="2.3"/>
	<circle fill="#223B40" cx="1341.6" cy="503.4" r="2.3"/>
	<circle fill="#223B40" cx="1310.9" cy="506.1" r="2.3"/>
	<circle fill="#223B40" cx="1345.2" cy="448.7" r="2.3"/>
	<circle fill="#223B40" cx="1329.1" cy="418.1" r="2.3"/>
	<circle fill="#223B40" cx="1311" cy="391.6" r="2.3"/>
	<circle fill="#223B40" cx="1368.6" cy="399.5" r="2.3"/>
	<circle fill="#223B40" cx="1381.8" cy="422.5" r="2.3"/>
	<circle fill="#223B40" cx="1323.2" cy="523.7" r="2.3"/>
	<circle fill="#223B40" cx="1348.3" cy="514.6" r="2.3"/>
	<circle fill="#223B40" cx="1368.6" cy="497.7" r="2.3"/>
	<circle fill="#223B40" cx="1381.8" cy="474.6" r="2.3"/>
	<circle fill="#223B40" cx="1248.8" cy="448.7" r="2.3"/>
	<circle fill="#223B40" cx="1262.7" cy="476.4" r="2.3"/>
	<circle fill="#223B40" cx="1280.4" cy="503.4" r="2.3"/>
	<circle fill="#223B40" cx="1276.8" cy="448.7" r="2.3"/>
	<circle fill="#223B40" cx="1292.9" cy="418.1" r="2.3"/>
	<circle fill="#223B40" cx="1253.4" cy="399.5" r="2.3"/>
	<circle fill="#223B40" cx="1240.2" cy="422.5" r="2.3"/>
	<circle fill="#223B40" cx="1298.8" cy="523.7" r="2.3"/>
	<circle fill="#223B40" cx="1273.7" cy="514.6" r="2.3"/>
	<circle fill="#223B40" cx="1253.4" cy="497.7" r="2.3"/>
	<circle fill="#223B40" cx="1240.2" cy="474.6" r="2.3"/>
	<circle fill="#223B40" cx="1298.6" cy="373.5" r="2.3"/>
	<circle fill="#223B40" cx="1262.7" cy="420.9" r="2.3"/>
	<path fill="#223B40" d="M1295.8,479.2c1.5,0,28.8,0,30.3,0s1.9-1,1.5-2.3c-0.4-1.3-11.2-35.7-11.2-35.7c-0.1-0.5,0.1-1,0.5-1.3
		c3.7-2.1,5.9-6,5.9-10.2c0-6.5-5.3-11.8-11.8-11.8c0,0,0,0-0.1,0c0,0,0,0-0.1,0c-6.5,0-11.8,5.3-11.8,11.8c0,4.2,2.3,8.1,5.9,10.2
		c0.5,0.3,0.7,0.8,0.5,1.3c0,0-10.9,34.4-11.3,35.7C1293.8,478.2,1294.3,479.2,1295.8,479.2z"/>
</g>
<g>
	<path fill="#223B40" d="M693.7,212.5c0.8,0.8,1.9,1.2,2.3,0.7s0.1-1.5-0.7-2.3l-3.8-3.8c-0.8-0.8-1.9-1.2-2.3-0.7s-0.1,1.5,0.7,2.3
		L693.7,212.5z"/>
	<path fill="#223B40" d="M716.9,232.5c-0.8-0.8-1.9-1.2-2.3-0.7s-0.1,1.5,0.7,2.3l3.8,3.8c0.8,0.8,1.9,1.2,2.3,0.7s0.1-1.5-0.7-2.3
		L716.9,232.5z"/>
	<path fill="#223B40" d="M704.2,219.8c-0.8-0.8-1.9-1.2-2.3-0.7s-0.1,1.5,0.7,2.3l3.8,3.8c0.8,0.8,1.9,1.2,2.3,0.7s0.1-1.5-0.7-2.3
		L704.2,219.8z"/>
	<path fill="#223B40" d="M640.9,156.5c-0.8-0.8-1.9-1.2-2.3-0.7s-0.1,1.5,0.7,2.3l3.8,3.8c0.8,0.8,1.9,1.2,2.3,0.7s0.1-1.5-0.7-2.3
		L640.9,156.5z"/>
	<path fill="#223B40" d="M630.4,149.2c0.8,0.8,1.9,1.2,2.3,0.7s0.1-1.5-0.7-2.3l-3.8-3.8c-0.8-0.8-1.9-1.2-2.3-0.7s-0.1,1.5,0.7,2.3
		L630.4,149.2z"/>
	<path fill="#223B40" d="M655.7,199.8c0.8,0.8,1.9,1.2,2.3,0.7s0.1-1.5-0.7-2.3l-3.8-3.8c-0.8-0.8-1.9-1.2-2.3-0.7s-0.1,1.5,0.7,2.3
		L655.7,199.8z"/>
	<path fill="#223B40" d="M630.4,174.5c0.8,0.8,1.9,1.2,2.3,0.7s0.1-1.5-0.7-2.3l-3.8-3.8c-0.8-0.8-1.9-1.2-2.3-0.7s-0.1,1.5,0.7,2.3
		L630.4,174.5z"/>
	<path fill="#223B40" d="M617.8,161.9c0.8,0.8,1.9,1.2,2.3,0.7s0.1-1.5-0.7-2.3l-3.8-3.8c-0.8-0.8-1.9-1.2-2.3-0.7s-0.1,1.5,0.7,2.3
		L617.8,161.9z"/>
	<path fill="#223B40" d="M640.9,181.8c-0.8-0.8-1.9-1.2-2.3-0.7s-0.1,1.5,0.7,2.3l3.8,3.8c0.8,0.8,1.9,1.2,2.3,0.7s0.1-1.5-0.7-2.3
		L640.9,181.8z"/>
	<path fill="#223B40" d="M693.7,237.8c0.8,0.8,1.9,1.2,2.3,0.7s0.1-1.5-0.7-2.3l-3.8-3.8c-0.8-0.8-1.9-1.2-2.3-0.7s-0.1,1.5,0.7,2.3
		L693.7,237.8z"/>
	<path fill="#223B40" d="M704.2,245.1c-0.8-0.8-1.9-1.2-2.3-0.7s-0.1,1.5,0.7,2.3l3.8,3.8c0.8,0.8,1.9,1.2,2.3,0.7s0.1-1.5-0.7-2.3
		L704.2,245.1z"/>
	<path fill="#223B40" d="M668.4,237.8c0.8,0.8,1.9,1.2,2.3,0.7s0.1-1.5-0.7-2.3l-3.8-3.8c-0.8-0.8-1.9-1.2-2.3-0.7s-0.1,1.5,0.7,2.3
		L668.4,237.8z"/>
	<path fill="#223B40" d="M630.4,199.8c0.8,0.8,1.9,1.2,2.3,0.7s0.1-1.5-0.7-2.3l-3.8-3.8c-0.8-0.8-1.9-1.2-2.3-0.7s-0.1,1.5,0.7,2.3
		L630.4,199.8z"/>
	<path fill="#223B40" d="M678.9,245.1c-0.8-0.8-1.9-1.2-2.3-0.7s-0.1,1.5,0.7,2.3l3.8,3.8c0.8,0.8,1.9,1.2,2.3,0.7s0.1-1.5-0.7-2.3
		L678.9,245.1z"/>
	<path fill="#223B40" d="M617.8,187.2c0.8,0.8,1.9,1.2,2.3,0.7s0.1-1.5-0.7-2.3l-3.8-3.8c-0.8-0.8-1.9-1.2-2.3-0.7s-0.1,1.5,0.7,2.3
		L617.8,187.2z"/>
	<path fill="#223B40" d="M640.9,207.1c-0.8-0.8-1.9-1.2-2.3-0.7s-0.1,1.5,0.7,2.3l3.8,3.8c0.8,0.8,1.9,1.2,2.3,0.7s0.1-1.5-0.7-2.3
		L640.9,207.1z"/>
	<path fill="#223B40" d="M628.3,219.8c-0.8-0.8-1.9-1.2-2.3-0.7s-0.1,1.5,0.7,2.3l3.8,3.8c0.8,0.8,1.9,1.2,2.3,0.7s0.1-1.5-0.7-2.3
		L628.3,219.8z"/>
	<path fill="#223B40" d="M653.6,245.1c-0.8-0.8-1.9-1.2-2.3-0.7s-0.1,1.5,0.7,2.3l3.8,3.8c0.8,0.8,1.9,1.2,2.3,0.7s0.1-1.5-0.7-2.3
		L653.6,245.1z"/>
	<path fill="#223B40" d="M640.9,232.5c-0.8-0.8-1.9-1.2-2.3-0.7s-0.1,1.5,0.7,2.3l3.8,3.8c0.8,0.8,1.9,1.2,2.3,0.7s0.1-1.5-0.7-2.3
		L640.9,232.5z"/>
	<path fill="#223B40" d="M615.6,207.1c-0.8-0.8-1.9-1.2-2.3-0.7s-0.1,1.5,0.7,2.3l3.8,3.8c0.8,0.8,1.9,1.2,2.3,0.7s0.1-1.5-0.7-2.3
		L615.6,207.1z"/>
	<path fill="#223B40" d="M747.6,238.6c0.1-0.3,0.1-0.6,0-0.9c0,0,0,0,0,0c0,0,0,0-0.1-0.1c-0.2-0.5-0.2-0.5-0.2-0.5
		c-0.1,0-0.2,0-0.2-0.1c-0.2-0.2-0.5-0.3-0.8-0.3c0,0,0,0,0,0c0,0,0,0-0.1,0c0,0,0,0,0,0c-0.1,0-0.3,0-0.4,0
		c-1.9-0.4-4.8-2.8-4.8-2.8c-0.5-0.4-1-0.8-1.3-1c-0.2-0.2-0.4-0.4-0.6-0.6c-0.9-1-1.5-1.9-1.9-2.6c0-0.1-0.1-0.2-0.1-0.4
		c-0.2-0.5-0.3-1.2-0.3-1.3c3.1-5.2,5.5-10.8,7.2-16.6c0,0,0,0,0,0c0,0,0,0,0,0c2-6.7,3-13.8,3-20.9c0-1,0-2-0.1-3c0,0,0,0,0,0
		c0,0,0,0,0,0c-0.2-5.6-1.1-10.9-2.5-16.1c0,0,0,0,0,0c0,0,0,0,0,0c-1.7-6.3-4.2-12.3-7.4-17.8c0,0,0,0,0,0c0,0,0,0,0-0.1
		c-5.4-9.1-12.6-17-21.3-23.1c0,0,0,0,0,0c0,0,0,0,0,0c-6.4-4.5-13.5-8-21.2-10.3c0,0,0,0,0,0c0,0,0,0,0,0c-6.6-2-13.7-3.1-20.9-3.1
		c-6.9,0-13.7,1-20,2.8c0,0,0,0-0.1,0c0,0,0,0,0,0c-4.8,1.4-9.5,3.2-13.9,5.5c0,0,0,0,0,0c0,0,0,0,0,0
		c-10.6,5.6-19.7,13.6-26.5,23.4c0,0,0,0,0,0c0,0,0,0,0,0c-4.5,6.5-8,13.8-10.2,21.6c0,0,0,0,0,0c0,0,0,0,0,0.1
		c-1.8,6.4-2.8,13-2.8,20c0,7,1,13.7,2.8,20.1c0,0,0,0,0,0.1c0,0,0,0,0,0c7,24.4,26.3,43.6,50.7,50.5c0,0,0,0,0,0c0,0,0,0,0.1,0
		c6.3,1.8,13,2.8,19.9,2.8c6.6,0,13-0.9,19.2-2.5c0,0,0,0,0,0c0,0,0,0,0,0c12.1-3.3,23.1-9.5,32.3-18.5c0.5,0.1,1.3,0.3,2.2,0.5
		c2.1,0.6,4.9,1.3,8,1.3c4.6,0,8.5-1.7,11.7-5.1c0,0,0,0,0.1,0c0,0,0,0,0.3-0.3c0,0,0,0,0,0c0,0,0,0,0,0c0.3-0.3,0.3-0.3,0.3-0.3
		C747.6,238.7,747.6,238.7,747.6,238.6z M735.3,241.5c-2.7,0-5.3-0.7-7.2-1.2c-2.5-0.7-3.8-0.9-4.8,0c-8.8,8.7-19.5,14.9-31.2,18
		l-0.5-0.5c-0.8-0.8-1.9-1.2-2.3-0.7c-0.4,0.4-0.2,1.1,0.3,1.8c-2.5,0.6-5.1,1-7.7,1.3l0.8-0.8c0.8-0.8,1.2-1.9,0.7-2.3
		s-1.5-0.1-2.3,0.7l-2.8,2.8c-1.6,0.1-3.1,0.2-4.7,0.2c-1.5,0-3.1-0.1-4.6-0.2l-2.8-2.8c-0.8-0.8-1.9-1.2-2.3-0.7s-0.1,1.5,0.7,2.3
		l0.8,0.8c-2.6-0.3-5.2-0.8-7.7-1.3c0.5-0.7,0.7-1.5,0.3-1.8c-0.4-0.4-1.5-0.1-2.3,0.7l-0.5,0.5c-23.8-6.4-42.6-25-49.4-48.7
		l0.8-0.8c0.8-0.8,1.2-1.9,0.7-2.3c-0.4-0.4-1.4-0.1-2.3,0.6c-0.7-2.8-1.2-5.7-1.6-8.7l1.5,1.5c0.8,0.8,1.9,1.2,2.3,0.7
		s0.1-1.5-0.7-2.3l-3.4-3.4c-0.1-1.5-0.2-3.1-0.2-4.6c0-1.1,0-2.2,0.1-3.3l3.5-3.5c0.8-0.8,1.2-1.9,0.7-2.3s-1.5-0.1-2.3,0.7
		l-1.6,1.6c0.3-3.1,0.8-6.1,1.5-9.1l0.1,0.1c0.8,0.8,1.9,1.2,2.3,0.7s0.1-1.5-0.7-2.3l-1.1-1.1c2.6-9.5,7.1-18.2,13.1-25.7l0.7-0.7
		c0.3-0.3,0.6-0.7,0.7-1c0.9-1.1,1.9-2.1,2.8-3.1c0.3,0,0.6-0.1,0.9-0.3c0.2-0.2,0.3-0.6,0.3-0.9c1-1,2-1.9,3-2.8
		c0.4-0.1,0.8-0.4,1.2-0.8l1.3-1.3c7.2-5.8,15.6-10.2,24.8-12.8l1.4,1.4c0.8,0.8,1.9,1.2,2.3,0.7s0.1-1.5-0.7-2.3l-0.5-0.5
		c3.3-0.8,6.6-1.4,10-1.7l-2.2,2.2c-0.8,0.8-1.2,1.9-0.7,2.3s1.5,0.1,2.3-0.7l3.8-3.8c0.1-0.1,0.2-0.2,0.3-0.3
		c1.1-0.1,2.2-0.1,3.3-0.1c1.1,0,2.3,0,3.4,0.1c0.1,0.1,0.2,0.2,0.3,0.3l3.8,3.8c0.8,0.8,1.9,1.2,2.3,0.7s0.1-1.5-0.7-2.3l-2.2-2.2
		c3.4,0.3,6.7,0.9,10,1.7l-0.5,0.5c-0.8,0.8-1.2,1.9-0.7,2.3s1.5,0.1,2.3-0.7l1.4-1.4c9.3,2.7,17.9,7.2,25.2,13.2l0.8,0.8
		c0.3,0.3,0.6,0.5,0.9,0.7c1.1,1,2.2,1.9,3.2,3c0,0.3,0.1,0.6,0.3,0.8c0.2,0.2,0.5,0.3,0.8,0.3c1.1,1.1,2.1,2.3,3.1,3.5
		c0.1,0.2,0.3,0.4,0.5,0.7l0.2,0.2c6.2,7.6,10.9,16.5,13.5,26.3l-1.1,1.1c-0.8,0.8-1.2,1.9-0.7,2.3s1.5,0.1,2.3-0.7l0.1-0.1
		c0.7,2.9,1.2,5.9,1.5,8.9l-1.5-1.5c-0.8-0.8-1.9-1.2-2.3-0.7s-0.1,1.5,0.7,2.3l3.4,3.4c0.1,1.1,0.1,2.3,0.1,3.4
		c0,1.6-0.1,3.1-0.2,4.7l-3.3,3.3c-0.8,0.8-1.2,1.9-0.7,2.3s1.5,0.1,2.3-0.7l1.4-1.4c-0.3,2.9-0.8,5.7-1.5,8.6
		c-0.8-0.7-1.8-1-2.2-0.6c-0.4,0.4-0.1,1.5,0.7,2.3l0.8,0.8c-1.7,5.9-4.1,11.6-7.3,16.9c-0.7,1.1-0.4,2.7,0.7,4.6
		c1.5,2.7,4.8,6.3,8.4,7.8C740.9,240.6,738.3,241.5,735.3,241.5z"/>
	<path fill="#223B40" d="M643.1,136.5c0.8,0.8,1.9,1.2,2.3,0.7s0.1-1.5-0.7-2.3l-3.8-3.8c-0.8-0.8-1.9-1.2-2.3-0.7s-0.1,1.5,0.7,2.3
		L643.1,136.5z"/>
	<path fill="#223B40" d="M719.1,212.5c0.8,0.8,1.9,1.2,2.3,0.7s0.1-1.5-0.7-2.3l-3.8-3.8c-0.8-0.8-1.9-1.2-2.3-0.7s-0.1,1.5,0.7,2.3
		L719.1,212.5z"/>
	<path fill="#223B40" d="M655.7,149.2c0.8,0.8,1.9,1.2,2.3,0.7s0.1-1.5-0.7-2.3l-3.8-3.8c-0.8-0.8-1.9-1.2-2.3-0.7s-0.1,1.5,0.7,2.3
		L655.7,149.2z"/>
	<path fill="#223B40" d="M693.7,187.2c0.8,0.8,1.9,1.2,2.3,0.7s0.1-1.5-0.7-2.3l-3.8-3.8c-0.8-0.8-1.9-1.2-2.3-0.7s-0.1,1.5,0.7,2.3
		L693.7,187.2z"/>
	<path fill="#223B40" d="M731.7,225.2c0.8,0.8,1.9,1.2,2.3,0.7s0.1-1.5-0.7-2.3l-3.8-3.8c-0.8-0.8-1.9-1.2-2.3-0.7s-0.1,1.5,0.7,2.3
		L731.7,225.2z"/>
	<path fill="#223B40" d="M706.4,199.8c0.8,0.8,1.9,1.2,2.3,0.7s0.1-1.5-0.7-2.3l-3.8-3.8c-0.8-0.8-1.9-1.2-2.3-0.7s-0.1,1.5,0.7,2.3
		L706.4,199.8z"/>
	<path fill="#223B40" d="M706.4,174.5c0.8,0.8,1.9,1.2,2.3,0.7s0.1-1.5-0.7-2.3l-3.8-3.8c-0.8-0.8-1.9-1.2-2.3-0.7s-0.1,1.5,0.7,2.3
		L706.4,174.5z"/>
	<path fill="#223B40" d="M681.1,149.2c0.8,0.8,1.9,1.2,2.3,0.7s0.1-1.5-0.7-2.3l-3.8-3.8c-0.8-0.8-1.9-1.2-2.3-0.7s-0.1,1.5,0.7,2.3
		L681.1,149.2z"/>
	<path fill="#223B40" d="M668.4,136.5c0.8,0.8,1.9,1.2,2.3,0.7s0.1-1.5-0.7-2.3l-3.8-3.8c-0.8-0.8-1.9-1.2-2.3-0.7s-0.1,1.5,0.7,2.3
		L668.4,136.5z"/>
	<path fill="#223B40" d="M691.6,156.5c-0.8-0.8-1.9-1.2-2.3-0.7s-0.1,1.5,0.7,2.3l3.8,3.8c0.8,0.8,1.9,1.2,2.3,0.7s0.1-1.5-0.7-2.3
		L691.6,156.5z"/>
	<path fill="#223B40" d="M719.1,187.2c0.8,0.8,1.9,1.2,2.3,0.7s0.1-1.5-0.7-2.3l-3.8-3.8c-0.8-0.8-1.9-1.2-2.3-0.7s-0.1,1.5,0.7,2.3
		L719.1,187.2z"/>
	<path fill="#223B40" d="M731.7,199.8c0.8,0.8,1.9,1.2,2.3,0.7s0.1-1.5-0.7-2.3l-3.8-3.8c-0.8-0.8-1.9-1.2-2.3-0.7s-0.1,1.5,0.7,2.3
		L731.7,199.8z"/>
	<path fill="#223B40" d="M691.6,131.2c-0.8-0.8-1.9-1.2-2.3-0.7s-0.1,1.5,0.7,2.3l3.8,3.8c0.8,0.8,1.9,1.2,2.3,0.7s0.1-1.5-0.7-2.3
		L691.6,131.2z"/>
	<path fill="#223B40" d="M731.7,174.5c0.8,0.8,1.9,1.2,2.3,0.7s0.1-1.5-0.7-2.3l-3.8-3.8c-0.8-0.8-1.9-1.2-2.3-0.7s-0.1,1.5,0.7,2.3
		L731.7,174.5z"/>
	<path fill="#223B40" d="M719.1,161.9c0.8,0.8,1.9,1.2,2.3,0.7s0.1-1.5-0.7-2.3l-3.8-3.8c-0.8-0.8-1.9-1.2-2.3-0.7s-0.1,1.5,0.7,2.3
		L719.1,161.9z"/>
	<path fill="#223B40" d="M708,147.6l-3.8-3.8c-0.8-0.8-1.9-1.2-2.3-0.7s-0.1,1.5,0.7,2.3l3.8,3.8c0.8,0.8,1.9,1.2,2.3,0.7
		S708.8,148.4,708,147.6z"/>
	<path fill="#223B40" d="M719.1,143.8l-3.8,3.8c-0.8,0.8-1.2,1.9-0.7,2.3s1.5,0.1,2.3-0.7l3.8-3.8c0.8-0.8,1.2-1.9,0.7-2.3
		S719.9,143,719.1,143.8z"/>
	<path fill="#223B40" d="M630.4,232.5l-3.8,3.8c-0.8,0.8-1.2,1.9-0.7,2.3s1.5,0.1,2.3-0.7l3.8-3.8c0.8-0.8,1.2-1.9,0.7-2.3
		S631.3,231.6,630.4,232.5z"/>
	<path fill="#223B40" d="M653.6,212.5l3.8-3.8c0.8-0.8,1.2-1.9,0.7-2.3s-1.5-0.1-2.3,0.7l-3.8,3.8c-0.8,0.8-1.2,1.9-0.7,2.3
		S652.8,213.3,653.6,212.5z"/>
	<path fill="#223B40" d="M706.4,156.5l-3.8,3.8c-0.8,0.8-1.2,1.9-0.7,2.3s1.5,0.1,2.3-0.7l3.8-3.8c0.8-0.8,1.2-1.9,0.7-2.3
		S707.2,155.7,706.4,156.5z"/>
	<path fill="#223B40" d="M643.1,219.8l-3.8,3.8c-0.8,0.8-1.2,1.9-0.7,2.3s1.5,0.1,2.3-0.7l3.8-3.8c0.8-0.8,1.2-1.9,0.7-2.3
		S643.9,219,643.1,219.8z"/>
	<path fill="#223B40" d="M630.4,207.1l-3.8,3.8c-0.8,0.8-1.2,1.9-0.7,2.3s1.5,0.1,2.3-0.7l3.8-3.8c0.8-0.8,1.2-1.9,0.7-2.3
		S631.3,206.3,630.4,207.1z"/>
	<path fill="#223B40" d="M653.6,187.2l3.8-3.8c0.8-0.8,1.2-1.9,0.7-2.3s-1.5-0.1-2.3,0.7l-3.8,3.8c-0.8,0.8-1.2,1.9-0.7,2.3
		S652.8,188,653.6,187.2z"/>
	<path fill="#223B40" d="M617.8,219.8l-3.8,3.8c-0.8,0.8-1.2,1.9-0.7,2.3s1.5,0.1,2.3-0.7l3.8-3.8c0.8-0.8,1.2-1.9,0.7-2.3
		S618.6,219,617.8,219.8z"/>
	<path fill="#223B40" d="M706.4,131.2l-3.8,3.8c-0.8,0.8-1.2,1.9-0.7,2.3s1.5,0.1,2.3-0.7l3.8-3.8c0.8-0.8,1.2-1.9,0.7-2.3
		S707.2,130.3,706.4,131.2z"/>
	<path fill="#223B40" d="M643.1,194.5l-3.8,3.8c-0.8,0.8-1.2,1.9-0.7,2.3s1.5,0.1,2.3-0.7l3.8-3.8c0.8-0.8,1.2-1.9,0.7-2.3
		S643.9,193.6,643.1,194.5z"/>
	<path fill="#223B40" d="M691.6,149.2l3.8-3.8c0.8-0.8,1.2-1.9,0.7-2.3s-1.5-0.1-2.3,0.7l-3.8,3.8c-0.8,0.8-1.2,1.9-0.7,2.3
		S690.7,150,691.6,149.2z"/>
	<path fill="#223B40" d="M613.3,200.6c0.4,0.4,1.5,0.1,2.3-0.7l3.8-3.8c0.8-0.8,1.2-1.9,0.7-2.3s-1.5-0.1-2.3,0.7l-3.8,3.8
		C613.2,199.1,612.8,200.1,613.3,200.6z"/>
	<path fill="#223B40" d="M625.9,187.9c0.4,0.4,1.5,0.1,2.3-0.7l3.8-3.8c0.8-0.8,1.2-1.9,0.7-2.3s-1.5-0.1-2.3,0.7l-3.8,3.8
		C625.8,186.4,625.5,187.5,625.9,187.9z"/>
	<path fill="#223B40" d="M678.9,136.5l3.8-3.8c0.8-0.8,1.2-1.9,0.7-2.3s-1.5-0.1-2.3,0.7l-3.8,3.8c-0.8,0.8-1.2,1.9-0.7,2.3
		S678.1,137.4,678.9,136.5z"/>
	<path fill="#223B40" d="M643.1,169.2l-3.8,3.8c-0.8,0.8-1.2,1.9-0.7,2.3s1.5,0.1,2.3-0.7l3.8-3.8c0.8-0.8,1.2-1.9,0.7-2.3
		S643.9,168.3,643.1,169.2z"/>
	<path fill="#223B40" d="M666.3,149.2l3.8-3.8c0.8-0.8,1.2-1.9,0.7-2.3s-1.5-0.1-2.3,0.7l-3.8,3.8c-0.8,0.8-1.2,1.9-0.7,2.3
		S665.4,150,666.3,149.2z"/>
	<path fill="#223B40" d="M653.6,161.9l3.8-3.8c0.8-0.8,1.2-1.9,0.7-2.3s-1.5-0.1-2.3,0.7l-3.8,3.8c-0.8,0.8-1.2,1.9-0.7,2.3
		S652.8,162.7,653.6,161.9z"/>
	<path fill="#223B40" d="M630.4,156.5l-3.8,3.8c-0.8,0.8-1.2,1.9-0.7,2.3s1.5,0.1,2.3-0.7l3.8-3.8c0.8-0.8,1.2-1.9,0.7-2.3
		S631.3,155.7,630.4,156.5z"/>
	<path fill="#223B40" d="M640.9,149.2l3.8-3.8c0.8-0.8,1.2-1.9,0.7-2.3s-1.5-0.1-2.3,0.7l-3.8,3.8c-0.8,0.8-1.2,1.9-0.7,2.3
		S640.1,150,640.9,149.2z"/>
	<path fill="#223B40" d="M617.8,169.2l-3.8,3.8c-0.8,0.8-1.2,1.9-0.7,2.3s1.5,0.1,2.3-0.7l3.8-3.8c0.8-0.8,1.2-1.9,0.7-2.3
		S618.6,168.3,617.8,169.2z"/>
	<path fill="#223B40" d="M653.6,136.5l3.8-3.8c0.8-0.8,1.2-1.9,0.7-2.3s-1.5-0.1-2.3,0.7l-3.8,3.8c-0.8,0.8-1.2,1.9-0.7,2.3
		S652.8,137.4,653.6,136.5z"/>
	<path fill="#223B40" d="M731.7,232.5l-3.8,3.8c-0.8,0.8-1.2,1.9-0.7,2.3s1.5,0.1,2.3-0.7l3.8-3.8c0.8-0.8,1.2-1.9,0.7-2.3
		S732.6,231.6,731.7,232.5z"/>
	<path fill="#223B40" d="M716.9,174.5l3.8-3.8c0.8-0.8,1.2-1.9,0.7-2.3s-1.5-0.1-2.3,0.7l-3.8,3.8c-0.8,0.8-1.2,1.9-0.7,2.3
		S716.1,175.4,716.9,174.5z"/>
	<path fill="#223B40" d="M655.7,232.5l-3.8,3.8c-0.8,0.8-1.2,1.9-0.7,2.3s1.5,0.1,2.3-0.7l3.8-3.8c0.8-0.8,1.2-1.9,0.7-2.3
		S656.6,231.6,655.7,232.5z"/>
	<path fill="#223B40" d="M704.2,187.2l3.8-3.8c0.8-0.8,1.2-1.9,0.7-2.3s-1.5-0.1-2.3,0.7l-3.8,3.8c-0.8,0.8-1.2,1.9-0.7,2.3
		S703.4,188,704.2,187.2z"/>
	<path fill="#223B40" d="M689.3,200.6c0.4,0.4,1.5,0.1,2.3-0.7l3.8-3.8c0.8-0.8,1.2-1.9,0.7-2.3s-1.5-0.1-2.3,0.7l-3.8,3.8
		C689.1,199.1,688.8,200.1,689.3,200.6z"/>
	<path fill="#223B40" d="M643.1,245.1l-3.8,3.8c-0.8,0.8-1.2,1.9-0.7,2.3s1.5,0.1,2.3-0.7l3.8-3.8c0.8-0.8,1.2-1.9,0.7-2.3
		S643.9,244.3,643.1,245.1z"/>
	<path fill="#223B40" d="M729.6,161.9l3.8-3.8c0.8-0.8,1.2-1.9,0.7-2.3s-1.5-0.1-2.3,0.7l-3.8,3.8c-0.8,0.8-1.2,1.9-0.7,2.3
		S728.7,162.7,729.6,161.9z"/>
	<path fill="#223B40" d="M716.9,199.8l3.8-3.8c0.8-0.8,1.2-1.9,0.7-2.3s-1.5-0.1-2.3,0.7l-3.8,3.8c-0.8,0.8-1.2,1.9-0.7,2.3
		S716.1,200.7,716.9,199.8z"/>
	<path fill="#223B40" d="M681.1,232.5l-3.8,3.8c-0.8,0.8-1.2,1.9-0.7,2.3s1.5,0.1,2.3-0.7l3.8-3.8c0.8-0.8,1.2-1.9,0.7-2.3
		S681.9,231.6,681.1,232.5z"/>
	<path fill="#223B40" d="M693.7,219.8l-1.4,1.4l-9-37c0.7-0.5,1.4-1,2.1-1.6c2.3-2,4-4.5,4.9-7.4c0.4-0.1,0.9-0.4,1.3-0.8l3.8-3.8
		c0.8-0.8,1.2-1.9,0.7-2.3s-1.5-0.1-2.3,0.7l-2.7,2.7c0.1-0.7,0.1-1.3,0.1-2c0-9.5-7.7-17.2-17.2-17.2c-0.3,0-0.6,0-0.9,0l-0.2,0
		c-3.2,0.2-6.1,1.3-8.5,2.9c-0.2,0-0.3,0.1-0.4,0.2c-0.1,0.1-0.1,0.1-0.1,0.2c-4.2,3.1-7,8.1-7,13.7c0,0,0,0.1,0,0.1
		c0,0.9,0.1,1.9,0.2,2.8l-3.4-3.4c-0.8-0.8-1.9-1.2-2.3-0.7s-0.1,1.5,0.7,2.3l3.8,3.8c0.7,0.7,1.5,1,2,0.9c0.4,1.1,0.9,2.2,1.5,3.2
		c1.4,2.3,3.2,4.2,5.5,5.6l-4.6,18.6c-0.2,0.2-0.3,0.5-0.2,0.8l-4.4,18l-1.9-1.9c-0.8-0.8-1.9-1.2-2.3-0.7s-0.1,1.5,0.7,2.3l2.8,2.8
		l-0.4,1.5c0,0,0,0.1,0,0.1c-0.1,0.5,0.1,1,0.4,1.4c0.3,0.4,0.8,0.6,1.3,0.6h35.5c0.5,0,1-0.2,1.3-0.6c0.3-0.4,0.5-0.9,0.4-1.4
		c0,0,0-0.1,0-0.1l-0.5-1.9l2.4-2.4c0.8-0.8,1.2-1.9,0.7-2.3S694.6,219,693.7,219.8z M667.9,183.9c0.2-0.7-0.1-1.3-0.7-1.7
		c-2.2-1.2-4-3-5.3-5.2c-1.3-2.2-2-4.7-2-7.2c0,0,0-0.1,0-0.1c0-7.4,5.9-13.6,13.3-14.1l0.2,0c0.2,0,0.4,0,0.7,0
		c7.8,0,14.2,6.4,14.2,14.2c0,4.1-1.8,8-4.8,10.7c-0.8,0.7-1.6,1.3-2.5,1.8c-0.6,0.3-0.9,1-0.7,1.7l9.9,41h-32.3L667.9,183.9z"/>
	<path fill="#223B40" d="M704.2,212.5l3.8-3.8c0.8-0.8,1.2-1.9,0.7-2.3s-1.5-0.1-2.3,0.7l-3.8,3.8c-0.8,0.8-1.2,1.9-0.7,2.3
		S703.4,213.3,704.2,212.5z"/>
	<path fill="#223B40" d="M729.6,187.2l3.8-3.8c0.8-0.8,1.2-1.9,0.7-2.3s-1.5-0.1-2.3,0.7l-3.8,3.8c-0.8,0.8-1.2,1.9-0.7,2.3
		S728.7,188,729.6,187.2z"/>
	<path fill="#223B40" d="M668.4,245.1l-3.8,3.8c-0.8,0.8-1.2,1.9-0.7,2.3s1.5,0.1,2.3-0.7l3.8-3.8c0.8-0.8,1.2-1.9,0.7-2.3
		S669.2,244.3,668.4,245.1z"/>
	<path fill="#223B40" d="M729.6,212.5l3.8-3.8c0.8-0.8,1.2-1.9,0.7-2.3s-1.5-0.1-2.3,0.7l-3.8,3.8c-0.8,0.8-1.2,1.9-0.7,2.3
		S728.7,213.3,729.6,212.5z"/>
	<path fill="#223B40" d="M693.7,245.1l-3.8,3.8c-0.8,0.8-1.2,1.9-0.7,2.3s1.5,0.1,2.3-0.7l3.8-3.8c0.8-0.8,1.2-1.9,0.7-2.3
		S694.6,244.3,693.7,245.1z"/>
	<path fill="#223B40" d="M704.2,237.8l3.8-3.8c0.8-0.8,1.2-1.9,0.7-2.3s-1.5-0.1-2.3,0.7l-3.8,3.8c-0.8,0.8-1.2,1.9-0.7,2.3
		S703.4,238.7,704.2,237.8z"/>
	<path fill="#223B40" d="M716.9,225.2l3.8-3.8c0.8-0.8,1.2-1.9,0.7-2.3s-1.5-0.1-2.3,0.7l-3.8,3.8c-0.8,0.8-1.2,1.9-0.7,2.3
		S716.1,226,716.9,225.2z"/>
</g>
<g>
	
		<rect x="975.1" y="155.5" transform="matrix(-0.7071 0.7071 -0.7071 -0.7071 1779.876 -416.6394)" fill="#223B40" width="2.3" height="9.6"/>
	
		<rect x="1051.1" y="231.5" transform="matrix(0.7071 -0.7071 0.7071 0.7071 141.1049 813.2307)" fill="#223B40" width="2.3" height="9.6"/>
	
		<rect x="962.4" y="142.8" transform="matrix(-0.7071 0.7071 -0.7071 -0.7071 1749.3058 -429.302)" fill="#223B40" width="2.3" height="9.6"/>
	
		<rect x="1038.4" y="218.8" transform="matrix(0.7071 -0.7071 0.7071 0.7071 146.3528 800.5614)" fill="#223B40" width="2.3" height="9.6"/>
	
		<rect x="971.4" y="184.5" transform="matrix(0.7071 0.7071 -0.7071 0.7071 417.1903 -635.9269)" fill="#223B40" width="9.6" height="2.3"/>
	
		<rect x="958.7" y="171.8" transform="matrix(0.7071 0.7071 -0.7071 0.7071 404.5278 -630.6819)" fill="#223B40" width="9.6" height="2.3"/>
	
		<rect x="1025.7" y="231.5" transform="matrix(0.7071 -0.7071 0.7071 0.7071 133.6902 795.3163)" fill="#223B40" width="2.3" height="9.6"/>
	
		<rect x="946.1" y="159.2" transform="matrix(0.7071 0.7071 -0.7071 0.7071 391.8652 -625.4369)" fill="#223B40" width="9.6" height="2.3"/>
	
		<rect x="987.8" y="193.5" transform="matrix(0.7071 -0.7071 0.7071 0.7071 149.4251 757.3289)" fill="#223B40" width="2.3" height="9.6"/>
	
		<rect x="1000.4" y="231.5" transform="matrix(0.7071 -0.7071 0.7071 0.7071 126.2725 777.4089)" fill="#223B40" width="2.3" height="9.6"/>
	
		<rect x="1009.4" y="247.8" transform="matrix(0.7071 0.7071 -0.7071 0.7071 473.0854 -644.2443)" fill="#223B40" width="9.6" height="2.3"/>
	
		<rect x="962.4" y="193.5" transform="matrix(-0.7071 0.7071 -0.7071 -0.7071 1785.1207 -342.8365)" fill="#223B40" width="2.3" height="9.6"/>
	
		<rect x="971.4" y="209.8" transform="matrix(0.7071 0.7071 -0.7071 0.7071 435.0979 -628.5093)" fill="#223B40" width="9.6" height="2.3"/>
	
		<rect x="949.8" y="180.8" transform="matrix(-0.7071 0.7071 -0.7071 -0.7071 1754.5508 -355.499)" fill="#223B40" width="2.3" height="9.6"/>
	
		<rect x="984.1" y="247.8" transform="matrix(0.7071 0.7071 -0.7071 0.7071 465.6679 -626.3368)" fill="#223B40" width="9.6" height="2.3"/>
	
		<rect x="958.7" y="222.5" transform="matrix(0.7071 0.7071 -0.7071 0.7071 440.3429 -615.8468)" fill="#223B40" width="9.6" height="2.3"/>
	
		<rect x="946.1" y="209.8" transform="matrix(0.7071 0.7071 -0.7071 0.7071 427.6803 -610.6018)" fill="#223B40" width="9.6" height="2.3"/>
	
		<rect x="971.4" y="235.1" transform="matrix(0.7071 0.7071 -0.7071 0.7071 453.0053 -621.0918)" fill="#223B40" width="9.6" height="2.3"/>
	
		<rect x="987.8" y="142.8" transform="matrix(-0.7071 0.7071 -0.7071 -0.7071 1792.5385 -447.2094)" fill="#223B40" width="2.3" height="9.6"/>
	
		<rect x="1025.7" y="180.8" transform="matrix(-0.7071 0.7071 -0.7071 -0.7071 1884.2484 -409.2217)" fill="#223B40" width="2.3" height="9.6"/>
	
		<rect x="1060" y="222.5" transform="matrix(-0.7071 -0.7071 0.7071 -0.7071 1659.7228 1134.7279)" fill="#223B40" width="9.6" height="2.3"/>
	
		<rect x="1034.7" y="197.2" transform="matrix(-0.7071 -0.7071 0.7071 -0.7071 1634.3909 1073.5715)" fill="#223B40" width="9.6" height="2.3"/>
	
		<rect x="971.4" y="133.8" transform="matrix(0.7071 0.7071 -0.7071 0.7071 381.3752 -650.762)" fill="#223B40" width="9.6" height="2.3"/>
	
		<rect x="1047.4" y="209.8" transform="matrix(-0.7071 -0.7071 0.7071 -0.7071 1647.0535 1104.1415)" fill="#223B40" width="9.6" height="2.3"/>
	
		<rect x="1051.1" y="180.8" transform="matrix(0.7071 -0.7071 0.7071 0.7071 176.9228 798.3889)" fill="#223B40" width="2.3" height="9.6"/>
	
		<rect x="1025.7" y="155.5" transform="matrix(-0.7071 0.7071 -0.7071 -0.7071 1866.3412 -452.4544)" fill="#223B40" width="2.3" height="9.6"/>
	
		<rect x="1013.1" y="142.8" transform="matrix(-0.7071 0.7071 -0.7071 -0.7071 1835.771 -465.1171)" fill="#223B40" width="2.3" height="9.6"/>
	
		<rect x="1063.7" y="193.5" transform="matrix(0.7071 -0.7071 0.7071 0.7071 171.6778 811.0514)" fill="#223B40" width="2.3" height="9.6"/>
	
		<rect x="996.7" y="133.8" transform="matrix(-0.7071 -0.7071 0.7071 -0.7071 1614.3112 938.6288)" fill="#223B40" width="9.6" height="2.3"/>
	
		<rect x="1034.7" y="171.8" transform="matrix(-0.7071 -0.7071 0.7071 -0.7071 1652.2986 1030.3387)" fill="#223B40" width="9.6" height="2.3"/>
	
		<rect x="1047.4" y="159.2" transform="matrix(-0.7071 -0.7071 0.7071 -0.7071 1682.8688 1017.6762)" fill="#223B40" width="9.6" height="2.3"/>
	
		<rect x="1034.7" y="146.5" transform="matrix(-0.7071 -0.7071 0.7071 -0.7071 1670.2063 987.1063)" fill="#223B40" width="9.6" height="2.3"/>
	
		<rect x="1022.1" y="133.8" transform="matrix(-0.7071 -0.7071 0.7071 -0.7071 1657.5437 956.5361)" fill="#223B40" width="9.6" height="2.3"/>
	
		<rect x="1060" y="171.8" transform="matrix(-0.7071 -0.7071 0.7071 -0.7071 1695.5314 1048.2463)" fill="#223B40" width="9.6" height="2.3"/>
	
		<rect x="958.7" y="235.1" transform="matrix(0.7071 -0.7071 0.7071 0.7071 115.1462 750.5477)" fill="#223B40" width="9.6" height="2.3"/>
	
		<rect x="1051.1" y="142.8" transform="matrix(-0.7071 -0.7071 0.7071 -0.7071 1691.8389 996.0533)" fill="#223B40" width="2.3" height="9.6"/>
	
		<rect x="975.1" y="218.8" transform="matrix(0.7071 0.7071 -0.7071 0.7071 444.0516 -624.8006)" fill="#223B40" width="2.3" height="9.6"/>
	
		<rect x="1038.4" y="155.5" transform="matrix(-0.7071 -0.7071 0.7071 -0.7071 1661.2524 1008.7227)" fill="#223B40" width="2.3" height="9.6"/>
	
		<rect x="981.4" y="216.1" transform="matrix(0.7071 -0.7071 0.7071 0.7071 134.14 758.4152)" fill="#223B40" width="2.3" height="2.3"/>
	
		<rect x="968.8" y="228.8" transform="matrix(0.7071 0.7071 -0.7071 0.7071 446.6742 -618.4693)" fill="#223B40" width="2.3" height="2.3"/>
	
		<rect x="1032.1" y="165.5" transform="matrix(0.7071 0.7071 -0.7071 0.7071 420.4491 -681.782)" fill="#223B40" width="2.3" height="2.3"/>
	
		<rect x="1044.7" y="152.8" transform="matrix(-0.7071 0.7071 -0.7071 -0.7071 1894.2888 -476.6934)" fill="#223B40" width="2.3" height="2.3"/>
	
		<rect x="1034.7" y="133.8" transform="matrix(-0.7071 0.7071 -0.7071 -0.7071 1870.0566 -504.6573)" fill="#223B40" width="9.6" height="2.3"/>
	
		<rect x="971.4" y="197.2" transform="matrix(-0.7071 0.7071 -0.7071 -0.7071 1806.7372 -351.7903)" fill="#223B40" width="9.6" height="2.3"/>
	
		<rect x="946.1" y="222.5" transform="matrix(0.7071 -0.7071 0.7071 0.7071 120.3913 737.8851)" fill="#223B40" width="9.6" height="2.3"/>
	
		<rect x="962.4" y="206.1" transform="matrix(0.7071 0.7071 -0.7071 0.7071 431.389 -619.5556)" fill="#223B40" width="2.3" height="9.6"/>
	
		<rect x="1022.1" y="146.5" transform="matrix(-0.7071 0.7071 -0.7071 -0.7071 1857.3873 -474.0708)" fill="#223B40" width="9.6" height="2.3"/>
	
		<rect x="987.8" y="180.8" transform="matrix(-0.7071 -0.7071 0.7071 -0.7071 1556.8796 1016.1401)" fill="#223B40" width="2.3" height="9.6"/>
	
		<rect x="981.4" y="190.8" transform="matrix(-0.7071 -0.7071 0.7071 -0.7071 1541.5945 1022.4714)" fill="#223B40" width="2.3" height="2.3"/>
	
		<rect x="968.8" y="203.5" transform="matrix(0.7071 0.7071 -0.7071 0.7071 428.7666 -625.8868)" fill="#223B40" width="2.3" height="2.3"/>
	
		<rect x="956.1" y="216.1" transform="matrix(-0.7071 0.7071 -0.7071 -0.7071 1787.7434 -305.9353)" fill="#223B40" width="2.3" height="2.3"/>
	
		<rect x="1019.4" y="152.8" transform="matrix(-0.7071 -0.7071 0.7071 -0.7071 1633.3049 984.4838)" fill="#223B40" width="2.3" height="2.3"/>
	
		<rect x="1032.1" y="140.2" transform="matrix(-0.7071 -0.7071 0.7071 -0.7071 1663.875 971.8212)" fill="#223B40" width="2.3" height="2.3"/>
	
		<rect x="962.4" y="180.8" transform="matrix(0.7071 0.7071 -0.7071 0.7071 413.4815 -626.973)" fill="#223B40" width="2.3" height="9.6"/>
	
		<rect x="1000.4" y="142.8" transform="matrix(-0.7071 -0.7071 0.7071 -0.7071 1605.3572 960.2449)" fill="#223B40" width="2.3" height="9.6"/>
	
		<rect x="975.1" y="168.2" transform="matrix(0.7071 0.7071 -0.7071 0.7071 408.2365 -639.6356)" fill="#223B40" width="2.3" height="9.6"/>
	
		<rect x="984.1" y="159.2" transform="matrix(-0.7071 0.7071 -0.7071 -0.7071 1801.4921 -425.593)" fill="#223B40" width="9.6" height="2.3"/>
	
		<rect x="946.1" y="197.2" transform="matrix(-0.7071 0.7071 -0.7071 -0.7071 1763.5045 -333.883)" fill="#223B40" width="9.6" height="2.3"/>
	
		<rect x="1013.1" y="130.2" transform="matrix(-0.7071 -0.7071 0.7071 -0.7071 1635.9274 947.5823)" fill="#223B40" width="2.3" height="9.6"/>
	
		<rect x="981.4" y="165.5" transform="matrix(0.7071 -0.7071 0.7071 0.7071 169.9552 743.58)" fill="#223B40" width="2.3" height="2.3"/>
	
		<rect x="968.8" y="178.2" transform="matrix(-0.7071 0.7071 -0.7071 -0.7071 1782.4983 -379.738)" fill="#223B40" width="2.3" height="2.3"/>
	
		<rect x="956.1" y="190.8" transform="matrix(0.7071 0.7071 -0.7071 0.7071 416.104 -620.6417)" fill="#223B40" width="2.3" height="2.3"/>
	
		<rect x="943.4" y="203.5" transform="matrix(-0.7071 0.7071 -0.7071 -0.7071 1757.1732 -318.5979)" fill="#223B40" width="2.3" height="2.3"/>
	
		<rect x="994.1" y="152.8" transform="matrix(-0.7071 0.7071 -0.7071 -0.7071 1807.8234 -440.8782)" fill="#223B40" width="2.3" height="2.3"/>
	
		<rect x="1006.7" y="140.2" transform="matrix(-0.7071 0.7071 -0.7071 -0.7071 1820.486 -471.4484)" fill="#223B40" width="2.3" height="2.3"/>
	
		<rect x="1019.4" y="127.5" transform="matrix(-0.7071 -0.7071 0.7071 -0.7071 1651.2125 941.251)" fill="#223B40" width="2.3" height="2.3"/>
	
		<rect x="946.1" y="171.8" transform="matrix(-0.7071 0.7071 -0.7071 -0.7071 1745.597 -377.1154)" fill="#223B40" width="9.6" height="2.3"/>
	
		<rect x="984.1" y="133.8" transform="matrix(-0.7071 0.7071 -0.7071 -0.7071 1783.5847 -468.8257)" fill="#223B40" width="9.6" height="2.3"/>
	
		<rect x="958.7" y="159.2" transform="matrix(-0.7071 0.7071 -0.7071 -0.7071 1758.2596 -407.6856)" fill="#223B40" width="9.6" height="2.3"/>
	
		<rect x="971.4" y="146.5" transform="matrix(-0.7071 0.7071 -0.7071 -0.7071 1770.9221 -438.2555)" fill="#223B40" width="9.6" height="2.3"/>
	
		<rect x="968.8" y="152.8" transform="matrix(0.7071 0.7071 -0.7071 0.7071 392.9515 -640.722)" fill="#223B40" width="2.3" height="2.3"/>
	
		<rect x="956.1" y="165.5" transform="matrix(-0.7071 0.7071 -0.7071 -0.7071 1751.9283 -392.4005)" fill="#223B40" width="2.3" height="2.3"/>
	
		<rect x="943.4" y="178.2" transform="matrix(-0.7071 0.7071 -0.7071 -0.7071 1739.2657 -361.8303)" fill="#223B40" width="2.3" height="2.3"/>
	
		<rect x="981.4" y="140.2" transform="matrix(-0.7071 -0.7071 0.7071 -0.7071 1577.4095 936.0062)" fill="#223B40" width="2.3" height="2.3"/>
	
		<rect x="994.1" y="127.5" transform="matrix(-0.7071 -0.7071 0.7071 -0.7071 1607.9799 923.3436)" fill="#223B40" width="2.3" height="2.3"/>
	
		<rect x="1060.1" y="235.2" transform="matrix(0.7071 -0.7071 0.7071 0.7071 144.8108 822.1913)" fill="#223B40" width="9.6" height="2.3"/>
	
		<rect x="1034.7" y="184.5" transform="matrix(0.7071 -0.7071 0.7071 0.7071 173.214 789.4351)" fill="#223B40" width="9.6" height="2.3"/>
	
		<rect x="987.8" y="231.5" transform="matrix(0.7071 0.7071 -0.7071 0.7071 456.7141 -630.0456)" fill="#223B40" width="2.3" height="9.6"/>
	
		<rect x="1051.1" y="168.2" transform="matrix(-0.7071 -0.7071 0.7071 -0.7071 1673.9149 1039.2926)" fill="#223B40" width="2.3" height="9.6"/>
	
		<rect x="1060" y="159.2" transform="matrix(-0.7071 0.7071 -0.7071 -0.7071 1931.1968 -479.3322)" fill="#223B40" width="9.6" height="2.3"/>
	
		<rect x="1025.7" y="193.5" transform="matrix(0.7071 0.7071 -0.7071 0.7071 440.9792 -668.0331)" fill="#223B40" width="2.3" height="9.6"/>
	
		<rect x="981.4" y="241.5" transform="matrix(0.7071 0.7071 -0.7071 0.7071 459.3366 -623.7143)" fill="#223B40" width="2.3" height="2.3"/>
	
		<rect x="1032.1" y="190.8" transform="matrix(0.7071 0.7071 -0.7071 0.7071 438.3566 -674.3644)" fill="#223B40" width="2.3" height="2.3"/>
	
		<rect x="1044.7" y="178.2" transform="matrix(-0.7071 -0.7071 0.7071 -0.7071 1658.6299 1045.6239)" fill="#223B40" width="2.3" height="2.3"/>
	
		<rect x="1057.4" y="165.5" transform="matrix(0.7071 -0.7071 0.7071 0.7071 192.2079 797.3026)" fill="#223B40" width="2.3" height="2.3"/>
	
		<rect x="1051.1" y="193.5" transform="matrix(-0.7071 -0.7071 0.7071 -0.7071 1656.0073 1082.5254)" fill="#223B40" width="2.3" height="9.6"/>
	
		<rect x="996.7" y="247.8" transform="matrix(0.7071 -0.7071 0.7071 0.7071 117.3188 781.1177)" fill="#223B40" width="9.6" height="2.3"/>
	
		<rect x="1034.7" y="209.8" transform="matrix(0.7071 -0.7071 0.7071 0.7071 155.3064 796.8527)" fill="#223B40" width="9.6" height="2.3"/>
	
		<rect x="1009.4" y="235.1" transform="matrix(0.7071 -0.7071 0.7071 0.7071 129.9813 786.3627)" fill="#223B40" width="9.6" height="2.3"/>
	
		<rect x="1060" y="184.5" transform="matrix(0.7071 -0.7071 0.7071 0.7071 180.6316 807.3427)" fill="#223B40" width="9.6" height="2.3"/>
	<path fill="#223B40" d="M1031.1,221l-1.6-1.6l-3.2,3.2l-0.8-3.4l-1.2-5.1l-1.4-5.6l6.6,6.6l1.6-1.6l-6.8-6.8l-1.5,1.5l-0.8-3.4
		l0.2-0.2l-0.3-0.3l-1.4-5.6l-2.6-10.8l-0.6-2.5c0.7-0.5,1.4-1,2.1-1.6c2.2-1.9,3.8-4.3,4.7-6.9l0.3,0.3l6.8-6.8l-1.6-1.6l-4.5,4.5
		c0.1-0.8,0.2-1.6,0.2-2.4c0-0.7,0-1.3-0.1-2c-0.3-2.6-1.2-5.1-2.6-7.3c-1.4-2.1-3.2-3.9-5.3-5.3l-0.3-0.3l-0.1,0.1
		c-0.9-0.5-1.9-1-2.9-1.4c-1.9-0.7-3.9-1.1-5.9-1.1c-0.3,0-0.6,0-0.9,0l-0.2,0c-1.7,0.1-3.4,0.5-4.9,1.1c-1,0.4-2,0.8-2.9,1.4
		l-0.1-0.1l-0.5,0.5c-2,1.3-3.6,3-4.9,4.9c-1.5,2.2-2.4,4.8-2.7,7.5c-0.1,0.6-0.1,1.2-0.1,1.8c0,0,0,0.1,0,0.1
		c0,0.8,0.1,1.6,0.2,2.4l-4.6-4.6l-1.6,1.6l6.8,6.8l0.3-0.3c0.4,1,0.8,2,1.4,2.9c1.4,2.3,3.2,4.2,5.5,5.6l-0.6,2.5l-2.6,10.7
		l-1.4,5.6l-0.3,0.3l0.2,0.2l-0.8,3.4l-1.5-1.5l-6.8,6.8l1.6,1.6l6.6-6.6l-1.4,5.6l-1.2,5l-0.8,3.4l-3.2-3.2l-1.6,1.6l4.1,4.1
		l-0.4,1.7c0,0,0,0.1,0,0.1c-0.1,0.5,0.1,1,0.4,1.4c0.3,0.4,0.8,0.6,1.3,0.6h4.5l-1,1l1.6,1.6l1.6-1.6l-1-1h6.2h11.7h6.2l-1,1
		l1.6,1.6l1.6-1.6l-1-1h4.4c0.5,0,1-0.2,1.3-0.6c0.3-0.4,0.5-0.9,0.4-1.4c0,0,0-0.1,0-0.1l-0.4-1.6L1031.1,221z M1024,226h-32.3
		l10.1-41c0.2-0.7-0.1-1.3-0.7-1.7c-2.2-1.2-4-3-5.3-5.2c-1.3-2.2-2-4.7-2-7.2c0,0,0-0.1,0-0.1c0-7.4,5.9-13.6,13.3-14.1l0.2,0
		c0.2,0,0.4,0,0.7,0c7.8,0,14.2,6.4,14.2,14.2c0,4.1-1.8,8-4.8,10.7c-0.8,0.7-1.6,1.3-2.5,1.8c-0.6,0.3-0.9,1-0.7,1.7L1024,226z"/>
	
		<rect x="1032.1" y="216.1" transform="matrix(0.7071 -0.7071 0.7071 0.7071 148.9752 794.2302)" fill="#223B40" width="2.3" height="2.3"/>
	
		<rect x="1006.7" y="241.5" transform="matrix(0.7071 0.7071 -0.7071 0.7071 466.7543 -641.6218)" fill="#223B40" width="2.3" height="2.3"/>
	
		<rect x="994.1" y="254.1" transform="matrix(0.7071 0.7071 -0.7071 0.7071 471.9992 -628.9593)" fill="#223B40" width="2.3" height="2.3"/>
	
		<rect x="1044.7" y="203.5" transform="matrix(0.7071 -0.7071 0.7071 0.7071 161.6377 799.4752)" fill="#223B40" width="2.3" height="2.3"/>
	
		<rect x="1057.4" y="190.8" transform="matrix(-0.7071 -0.7071 0.7071 -0.7071 1671.2925 1076.1941)" fill="#223B40" width="2.3" height="2.3"/>
	
		<rect x="1070.1" y="178.2" transform="matrix(0.7071 -0.7071 0.7071 0.7071 186.9629 809.9652)" fill="#223B40" width="2.3" height="2.3"/>
	
		<rect x="1038.4" y="231.5" transform="matrix(0.7071 0.7071 -0.7071 0.7071 471.5491 -665.8605)" fill="#223B40" width="2.3" height="9.6"/>
	
		<rect x="1060" y="209.8" transform="matrix(0.7071 -0.7071 0.7071 0.7071 162.7241 814.7601)" fill="#223B40" width="9.6" height="2.3"/>
	
		<rect x="1022.1" y="247.8" transform="matrix(0.7071 -0.7071 0.7071 0.7071 124.7364 799.025)" fill="#223B40" width="9.6" height="2.3"/>
	
		<rect x="1047.4" y="222.5" transform="matrix(0.7071 -0.7071 0.7071 0.7071 150.0615 809.515)" fill="#223B40" width="9.6" height="2.3"/>
	
		<rect x="1044.7" y="228.8" transform="matrix(0.7071 -0.7071 0.7071 0.7071 143.7303 806.8926)" fill="#223B40" width="2.3" height="2.3"/>
	
		<rect x="1032.1" y="241.5" transform="matrix(0.7071 -0.7071 0.7071 0.7071 131.0677 801.6475)" fill="#223B40" width="2.3" height="2.3"/>
	
		<rect x="1019.4" y="254.1" transform="matrix(0.7071 0.7071 -0.7071 0.7071 479.4166 -646.8667)" fill="#223B40" width="2.3" height="2.3"/>
	
		<rect x="1057.4" y="216.1" transform="matrix(0.7071 -0.7071 0.7071 0.7071 156.3928 812.1375)" fill="#223B40" width="2.3" height="2.3"/>
	
		<rect x="1070.1" y="203.5" transform="matrix(0.7071 -0.7071 0.7071 0.7071 169.0554 817.3826)" fill="#223B40" width="2.3" height="2.3"/>
	<path fill="#223B40" d="M1081.8,238.6c-0.2-0.5-0.8-0.9-1.4-0.9c-1.9,0-4.7-1.8-7.1-4.5c-1.8-2-2.4-3.6-2.4-4.1
		c6.8-11.4,10.4-24.4,10.4-37.7c0-40.5-33-73.5-73.5-73.5c-40.5,0-73.5,33-73.5,73.5s33,73.5,73.5,73.5c19.4,0,37.7-7.5,51.5-21.1
		c0.5,0.1,1.3,0.3,2.2,0.5c2.1,0.6,4.9,1.3,8,1.3c4.8,0,8.8-1.8,12-5.4C1081.9,239.8,1082,239.1,1081.8,238.6z M1069.5,242.6
		c-1.6,0-3.2-0.2-4.6-0.5c-1-0.2-1.9-0.5-2.7-0.7c-2.5-0.7-3.8-0.9-4.8,0c-4.5,4.5-9.5,8.2-14.9,11.3l1.1-1.1l-6.8-6.8l-1.6,1.6
		l6.7,6.7c-0.9,0.5-1.8,1-2.8,1.5c-3.1,1.6-6.4,2.9-9.7,3.9c-1.1,0.3-2.2,0.7-3.3,1l-2-2l-1.6,1.6l1,1c-2.5,0.6-5.1,1-7.6,1.3
		l2.4-2.4l-1.6-1.6l-4.3,4.3c-1.5,0.1-2.9,0.2-4.4,0.2c-0.1,0-0.2,0-0.3,0c-0.1,0-0.1,0-0.2,0c-1.5,0-2.9-0.1-4.4-0.2l-4.3-4.3
		l-1.6,1.6l2.4,2.4c-2.6-0.3-5.1-0.7-7.6-1.3l1-1l-1.6-1.6l-2,2c-1.1-0.3-2.2-0.6-3.3-1c-3.3-1.1-6.6-2.4-9.7-3.9
		c-0.9-0.5-1.9-1-2.8-1.5l6.7-6.7l-1.6-1.6l-6.8,6.8l1.2,1.2c-12-6.8-21.7-16.9-28-29.2c-1.6-3.1-2.9-6.3-4.1-9.6
		c-0.4-1.1-0.7-2.1-1-3.2l2.4-2.4l-1.6-1.6l-1.4,1.4c-0.3-1.1-0.5-2.3-0.8-3.5c0-0.1,0-0.1,0-0.2c-0.3-1.6-0.6-3.3-0.8-5l3,3
		l1.6-1.6l-4.9-4.9c-0.1-1.5-0.2-3.1-0.2-4.6c0-1.1,0-2.2,0.1-3.3l5-5l-1.6-1.6l-3.2,3.2c0.2-1.6,0.4-3.3,0.7-4.9
		c0-0.2,0.1-0.4,0.1-0.7c0.2-1.2,0.4-2.4,0.7-3.5l1.7,1.7l1.6-1.6l-2.6-2.6c0.3-1.1,0.6-2.2,1-3.3c1.1-3.3,2.4-6.6,4-9.7
		c2.3-4.5,5-8.8,8.2-12.7l2.2-2.2l-0.2-0.2c0.7-0.8,1.3-1.5,2-2.2l0.3,0.3l1.6-1.6l-0.3-0.3c0.7-0.7,1.4-1.4,2.2-2.1l0.2,0.2
		l2.8-2.8c3.7-3,7.8-5.6,12.1-7.8c3-1.6,6.2-2.9,9.5-4c1.1-0.4,2.1-0.7,3.2-1l3,3l1.6-1.6l-2-2c1.2-0.3,2.3-0.5,3.5-0.8
		c0.5-0.1,1.1-0.2,1.6-0.3c1.6-0.3,3.2-0.5,4.9-0.7l-3.7,3.7l1.6,1.6l5.6-5.6c1.1-0.1,2.2-0.1,3.3-0.1c1.1,0,2.3,0,3.4,0.1l5.6,5.6
		l1.6-1.6l-3.7-3.7c1.7,0.2,3.3,0.4,4.9,0.7c0.5,0.1,1.1,0.2,1.6,0.3c1.2,0.2,2.3,0.5,3.5,0.8l-2,2l1.6,1.6l2.9-2.9
		c1.1,0.3,2.2,0.6,3.2,1c3.3,1.1,6.5,2.5,9.6,4.1c4.4,2.3,8.6,5,12.4,8.2l2.4,2.4l0.2-0.2c0.7,0.7,1.5,1.4,2.2,2.1l-0.2,0.2l1.6,1.6
		l0.2-0.2c0.7,0.7,1.4,1.5,2,2.2l-0.1,0.1l1.7,1.7c3.3,4.1,6.2,8.5,8.6,13.3c1.5,3.1,2.9,6.3,3.9,9.7c0.3,1.1,0.7,2.2,1,3.3
		l-2.6,2.6l1.6,1.6l1.6-1.6c0.3,1.2,0.5,2.3,0.7,3.5c0,0.2,0.1,0.3,0.1,0.5c0.3,1.6,0.5,3.3,0.7,4.9l-3.1-3.1l-1.6,1.6l4.9,4.9
		c0.1,1.1,0.1,2.3,0.1,3.4c0,1.6-0.1,3.1-0.2,4.7l-4.9,4.9l1.6,1.6l2.9-2.9c-0.2,1.7-0.5,3.4-0.8,5c0,0,0,0,0,0
		c-0.2,1.2-0.5,2.3-0.8,3.5l-1.4-1.4l-1.6,1.6l2.3,2.3c-0.3,1.1-0.6,2.2-1,3.2c-1.1,3.3-2.4,6.5-4,9.6c-0.7,1.4-1.5,2.8-2.3,4.1
		c-0.7,1.1-0.4,2.7,0.7,4.6c1.5,2.7,4.8,6.3,8.4,7.8c-0.4,0.3-0.8,0.5-1.1,0.8C1074.2,242,1072,242.6,1069.5,242.6z"/>
</g>
<g>
	<path fill="#223B40" d="M1328.3,125.2l-0.2,0c0.1,0,0.2,0.1,0.3,0.1L1328.3,125.2z"/>
	<path fill="#223B40" d="M1233.8,230.2l1.8,1.2c-0.7-1.1-1.3-2.2-2-3.4L1233.8,230.2z"/>
	<path fill="#223B40" d="M1254.5,253.1l3.1,0.9c-1.4-0.9-2.7-1.9-4-2.8L1254.5,253.1z"/>
	<path fill="#223B40" d="M1353.5,143.9l-0.2-0.5l-0.3-0.1C1353.1,143.5,1353.3,143.7,1353.5,143.9z"/>
	<path fill="#223B40" d="M1224.2,200.7l0.9,1.3c-0.2-1.3-0.3-2.6-0.4-3.9L1224.2,200.7z"/>
	<path fill="#223B40" d="M1243.2,143.1l-0.3,0.7c0.3-0.4,0.6-0.7,0.9-1L1243.2,143.1z"/>
	<path fill="#223B40" d="M1267.9,125.2l-0.3,0.4c0.4-0.2,0.7-0.3,1.1-0.5L1267.9,125.2z"/>
	<path fill="#223B40" d="M1298.6,118.9l-0.3-0.1l-0.5,0.1c0.1,0,0.2,0,0.3,0C1298.4,118.9,1298.5,118.9,1298.6,118.9z"/>
	<path fill="#223B40" d="M1227.4,170.2v2c0.3-1,0.6-2,0.9-2.9L1227.4,170.2z"/>
	<path fill="#223B40" d="M1362.3,230.2l0.1-1.4c-0.5,0.9-1,1.8-1.6,2.7L1362.3,230.2z"/>
	<path fill="#223B40" d="M1340.2,253.1l1.5-0.1l1.5-2.1C1342.3,251.7,1341.3,252.4,1340.2,253.1z"/>
	<path fill="#223B40" d="M1371.9,200.8l-0.3-1.1c-0.1,0.7-0.1,1.3-0.2,2L1371.9,200.8z"/>
	<path fill="#223B40" d="M1313.5,265.6l1.7-1.3c-1.2,0.3-2.5,0.6-3.8,0.8L1313.5,265.6z"/>
	<path fill="#223B40" d="M1368.7,170l-0.5-0.7c0.1,0.4,0.3,0.8,0.4,1.3L1368.7,170z"/>
	<path fill="#223B40" d="M1282.6,265.6l2-0.6c-1.6-0.3-3.2-0.6-4.7-1L1282.6,265.6z"/>
	<path fill="#223B40" d="M1262.7,257.1c3.6,2,7.5,3.7,11.4,5.1l-5.4-3.3L1262.7,257.1z"/>
	<path fill="#223B40" d="M1287.9,265.6c3.4,0.5,6.8,0.7,10.3,0.7c3.2,0,6.3-0.2,9.3-0.6l-11-2.8L1287.9,265.6z"/>
	<polygon fill="#223B40" points="1342.9,230.7 1351.5,238.8 1362,217.6 	"/>
	<path fill="#223B40" d="M1318.9,263.3c6.7-2,13-4.8,18.8-8.5l-8.8,0.6L1318.9,263.3z"/>
	<polygon fill="#223B40" points="1311.2,243 1328.3,253.6 1340,232 	"/>
	<polygon fill="#223B40" points="1254.5,219.3 1274.4,244.2 1280.9,229.5 1283.1,220.3 	"/>
	<polygon fill="#223B40" points="1267.7,189.8 1254.1,217.8 1283.5,218.8 1283.9,217.4 	"/>
	<polygon fill="#223B40" points="1269,189.1 1284.4,215.3 1290.3,191.3 	"/>
	<polygon fill="#223B40" points="1276.7,246.2 1296.3,261 1308,243.7 	"/>
	<polygon fill="#223B40" points="1347.2,160.8 1340.2,138.1 1321.1,144.2 	"/>
	<polygon fill="#223B40" points="1317.9,142.8 1310.1,124.7 1288.2,134.8 	"/>
	<path fill="#223B40" d="M1225.7,205.4c1.2,6.6,3.2,13,6,18.8l-1.1-11.8L1225.7,205.4z"/>
	<path fill="#223B40" d="M1350.3,140.4c-5.3-5.2-11.3-9.7-18-13.2l8.8,9.2L1350.3,140.4z"/>
	<path fill="#223B40" d="M1365.9,163.3c-2.3-5.3-5.2-10.2-8.5-14.7l3.2,7.1L1365.9,163.3z"/>
	<path fill="#223B40" d="M1371.9,195.4c0-0.9,0.1-1.9,0.1-2.8c0-6.5-0.8-12.8-2.4-18.8l-1.6,8.5L1371.9,195.4z"/>
	<path fill="#223B40" d="M1237.8,234.7c3.7,5.3,8.1,10.2,13.1,14.3l-3.8-8.1L1237.8,234.7z"/>
	<path fill="#223B40" d="M1259.8,157.7l8.1,28.9l14.1-15.5c0.2-3.7,1.5-7,3.7-9.7L1259.8,157.7z"/>
	<path fill="#223B40" d="M1364.1,225.6c3.1-6.2,5.4-12.9,6.6-20l-6.1,9.9L1364.1,225.6z"/>
	<path fill="#223B40" d="M1225.9,178.5c-0.8,4.2-1.3,8.6-1.3,13.1l1.3-6.5V178.5z"/>
	<path fill="#223B40" d="M1240.1,147.3c-4.3,5.5-7.9,11.7-10.5,18.3l6.4-6.8L1240.1,147.3z"/>
	<path fill="#223B40" d="M1290.9,119.3c-5.4,0.5-10.7,1.7-15.7,3.3l7.6-1.1L1290.9,119.3z"/>
	<path fill="#223B40" d="M1264.3,127.2c-6.4,3.3-12.3,7.6-17.5,12.6l11.4-5.2L1264.3,127.2z"/>
	<path fill="#223B40" d="M1323.8,123.5c-6.7-2.5-13.8-4-21.3-4.4l8.2,3.8L1323.8,123.5z"/>
	<polygon fill="#223B40" points="1251.9,219.1 1233,213.5 1247.4,238.4 	"/>
	<polygon fill="#223B40" points="1341.9,231.8 1330.7,252.5 1350.5,239.9 	"/>
	<polygon fill="#223B40" points="1309.7,243.9 1298.2,260.9 1326.6,254.4 	"/>
	<path fill="#223B40" d="M1354.1,237.1l6.8-5.7c0.5-0.9,1.1-1.8,1.6-2.7l0.5-9.8L1354.1,237.1z"/>
	<path fill="#223B40" d="M1366.9,179l1.6-8.4c-0.1-0.4-0.3-0.8-0.4-1.3l-6.4-9.1L1366.9,179z"/>
	<path fill="#223B40" d="M1344.1,139.5l13.4,13.2l-4-8.7c-0.2-0.2-0.4-0.4-0.6-0.6L1344.1,139.5z"/>
	<path fill="#223B40" d="M1365,212.1l6.3-10.4c0.1-0.7,0.2-1.3,0.2-2l-4.1-13.4L1365,212.1z"/>
	<polygon fill="#223B40" points="1274.9,246.8 1270.2,257.6 1293.7,260.9 	"/>
	<polygon fill="#223B40" points="1284.9,134.2 1282.4,123.4 1261.9,134.4 	"/>
	<polygon fill="#223B40" points="1286.4,133.9 1307.4,124.3 1283.9,123.1 	"/>
	<polygon fill="#223B40" points="1258,156.1 1258,137.2 1238.7,158.2 	"/>
	<polygon fill="#223B40" points="1239,186.6 1227.6,186 1231.6,209 	"/>
	<polygon fill="#223B40" points="1273.5,246.2 1250.5,241.8 1268.8,257 	"/>
	<polygon fill="#223B40" points="1239.2,185.1 1236.4,162.3 1227.8,184.5 	"/>
	<path fill="#223B40" d="M1352.4,240.6l-6.5,9.4c2.8,2.1,13.9,9,26.1-2c-9.4,0-12.6-9.4-12.5-13.2L1352.4,240.6z"/>
	<path fill="#223B40" d="M1272.6,259.5l7.3,4.5c1.6,0.4,3.1,0.7,4.7,1l8.4-2.7L1272.6,259.5z"/>
	<path fill="#223B40" d="M1299.7,262.1l11.7,3c1.3-0.2,2.5-0.5,3.8-0.8l10.3-8.1L1299.7,262.1z"/>
	<path fill="#223B40" d="M1249.8,243.2l3.8,8c1.3,1,2.6,1.9,4,2.8l8.1,2.4L1249.8,243.2z"/>
	<path fill="#223B40" d="M1349,242.7l-17.4,11l8.7-0.6c1-0.7,2-1.5,3-2.2L1349,242.7z"/>
	<path fill="#223B40" d="M1232.4,215.6l1.2,12.4c0.6,1.1,1.3,2.3,2,3.4l9.8,6.6L1232.4,215.6z"/>
	<polygon fill="#223B40" points="1319.7,143 1338.5,137 1312,125.2 	"/>
	<path fill="#223B40" d="M1306.7,122.7l-8-3.8c-0.1,0-0.3,0-0.4,0c-0.1,0-0.2,0-0.3,0l-10.2,2.8L1306.7,122.7z"/>
	<path fill="#223B40" d="M1278.7,123.7l-10,1.4c-0.4,0.2-0.7,0.3-1.1,0.5l-5.8,7.1L1278.7,123.7z"/>
	<path fill="#223B40" d="M1337.4,134.9l-9-9.5c-0.1,0-0.2-0.1-0.3-0.1l-13.5-0.6L1337.4,134.9z"/>
	<path fill="#223B40" d="M1255.6,137.5l-11.7,5.4c-0.3,0.3-0.6,0.7-0.9,1l-4.3,12L1255.6,137.5z"/>
	<path fill="#223B40" d="M1234.6,162.6l-6.3,6.6c-0.3,1-0.6,1.9-0.9,2.9v9L1234.6,162.6z"/>
	<path fill="#223B40" d="M1226.6,189.3l-1.8,8.9c0.1,1.3,0.2,2.6,0.4,3.9l4.9,6.9L1226.6,189.3z"/>
	<polygon fill="#223B40" points="1322.2,212.1 1341.3,229.2 1349.1,198.5 	"/>
	<polygon fill="#223B40" points="1266.6,187.4 1258.5,158.7 1241.4,185.2 	"/>
	<polygon fill="#223B40" points="1266.4,188.9 1241.2,186.8 1252.9,216.6 	"/>
	<polygon fill="#223B40" points="1307.8,242.2 1294.9,229.5 1282.6,229.5 1275.8,244.8 	"/>
	<path fill="#223B40" d="M1325,174.7l22.1-12.1l-26.8-17.1C1321.6,153.9,1324.3,170.5,1325,174.7z"/>
	<path fill="#223B40" d="M1282.2,173.4l-12.9,14.2l21.5,2.2l0.8-3.2C1286.4,184.2,1282.7,179.3,1282.2,173.4z"/>
	<path fill="#223B40" d="M1325.9,176c2.2,1.6,7.9,6.2,23.5,19.3l-1.5-31.4L1325.9,176z"/>
	<path fill="#223B40" d="M1321.7,210.6l27.1-13.7c-8.5-7.1-20.3-17-23.8-19.6L1321.7,210.6z"/>
	<polygon fill="#223B40" points="1320.2,210.3 1323.5,177.3 1305.3,187.9 1307.8,199 	"/>
	<polygon fill="#223B40" points="1319.6,213 1311.3,214.8 1314.2,227.7 	"/>
	<polygon fill="#223B40" points="1319.2,211.5 1308.4,201.7 1311,213.3 	"/>
	<path fill="#223B40" d="M1299.5,155.8l17.9-11.5l-30.5-8.2l4.7,21.1c2-0.9,4.2-1.4,6.6-1.4C1298.7,155.7,1299.1,155.7,1299.5,155.8
		z"/>
	<polygon fill="#223B40" points="1321.1,213.2 1310.8,241.5 1340.2,230.3 	"/>
	<path fill="#223B40" d="M1314.3,170.6l9.1,4c-0.1-0.9-0.3-2.1-0.6-3.6c-0.5-3-1.1-7-1.8-11c-1-6.2-2-12.3-2.4-14.8l-16.9,10.9
		C1308.6,157.6,1313.8,163.5,1314.3,170.6z"/>
	<polygon fill="#223B40" points="1309.2,241.5 1313.6,229.5 1297.1,229.5 	"/>
	<path fill="#223B40" d="M1308.7,184.2l14-8.2l-8.3-3.7C1314.2,177.1,1312.1,181.3,1308.7,184.2z"/>
	<path fill="#223B40" d="M1285.4,136.4l-24.8,19.9l26.5,3.9c0.9-0.9,2-1.7,3.1-2.3L1285.4,136.4z"/>
	<polygon fill="#223B40" points="1349.8,162.8 1365.5,179.6 1359.4,157.2 	"/>
	<polygon fill="#223B40" points="1240.6,183.7 1257.3,157.7 1237.6,159.9 	"/>
	<polygon fill="#223B40" points="1272.7,244.5 1253.2,220.2 1248.6,239.8 	"/>
	<polygon fill="#223B40" points="1259.5,155.2 1283.7,135.8 1259.5,135.9 	"/>
	<polygon fill="#223B40" points="1351.3,197.1 1363.4,213.3 1366.1,184.2 	"/>
	<polygon fill="#223B40" points="1251.6,217.3 1240.1,188.2 1232.3,211.7 	"/>
	<polygon fill="#223B40" points="1349.4,164.7 1350.9,195.4 1366,182.3 	"/>
	<polygon fill="#223B40" points="1350.6,198.8 1342.9,228.8 1362.8,215.1 	"/>
	<polygon fill="#223B40" points="1349,161.5 1358.6,155.9 1342.3,139.9 	"/>
</g>
<path fill="#223B40" d="M1089.3,454.5l-3.4,19.1c0.1,0,0.3,0,0.4,0c0.6,0,1.2,0.2,1.8,0.4l3.4-19.1c-0.1,0-0.3,0-0.4,0
	C1090.4,454.9,1089.8,454.8,1089.3,454.5z"/>
<path fill="#223B40" d="M1022.4,527.1H1003c0.1,0.3,0.1,0.6,0.1,0.9c0,0.5-0.1,0.9-0.2,1.3h19.6c-0.1-0.4-0.2-0.8-0.2-1.3
	C1022.2,527.7,1022.3,527.4,1022.4,527.1z"/>
<path fill="#223B40" d="M951.2,404.8c-0.7-0.2-1.4-0.7-1.9-1.2l-9.6,16.7c0.8,0.2,1.4,0.6,1.9,1.1L951.2,404.8z"/>
<path fill="#223B40" d="M935.8,447.3l3.4-19.3c-0.1,0-0.3,0-0.4,0c-0.6,0-1.2-0.2-1.8-0.4l-3.4,19.3c0.1,0,0.3,0,0.4,0
	C934.7,446.9,935.3,447.1,935.8,447.3z"/>
<path fill="#223B40" d="M1069.2,502.8l-15.1,12.7c0.6,0.4,1.1,1,1.4,1.8l15.4-12.9C1070.2,504,1069.6,503.4,1069.2,502.8z"/>
<path fill="#223B40" d="M1029.6,525.8c0.4,0.6,0.7,1.3,0.7,2.1l18.4-6.7c-0.5-0.6-0.8-1.3-0.9-2.1L1029.6,525.8z"/>
<path fill="#223B40" d="M955.7,398.7c0.1,0.1,0.1,0.2,0.2,0.4c0.3,0.5,0.5,1.1,0.5,1.8l20.2-4.2c-0.3-0.6-0.5-1.2-0.5-1.9
	c0-0.1,0-0.2,0-0.3l-19.7,4l14.5-12.2c-0.6-0.4-1.1-1-1.4-1.7l-15.3,12.9C954.8,397.7,955.3,398.1,955.7,398.7z"/>
<path fill="#223B40" d="M977.3,519.2c-0.1,0.8-0.4,1.5-0.9,2.1L995,528c0-0.8,0.2-1.5,0.6-2.1L977.3,519.2z"/>
<path fill="#223B40" d="M1047.8,382.7c0.1-0.8,0.3-1.5,0.8-2.1l-18.5-6.7c0,0.8-0.3,1.5-0.7,2.1L1047.8,382.7z"/>
<path fill="#223B40" d="M1073.9,496.9c0.7,0.2,1.4,0.7,1.8,1.3l9.6-16.7c-0.8-0.2-1.4-0.5-2-1.1L1073.9,496.9z"/>
<path fill="#223B40" d="M939.2,473.6l-3.4-19.1c-0.5,0.3-1.1,0.4-1.8,0.4c-0.1,0-0.3,0-0.4,0L937,474c0.5-0.3,1.2-0.5,1.8-0.5
	C938.9,473.6,939,473.6,939.2,473.6z"/>
<path fill="#223B40" d="M1002.6,374.7h19.5c-0.1-0.4-0.2-0.7-0.2-1.1c0-0.4,0.1-0.8,0.2-1.1h-19.5c0.1,0.4,0.2,0.7,0.2,1.1
	C1002.8,374,1002.8,374.4,1002.6,374.7z"/>
<path fill="#223B40" d="M995.6,376c-0.4-0.6-0.7-1.3-0.8-2.1l-18.3,6.7c0.4,0.6,0.7,1.3,0.8,2.1L995.6,376z"/>
<path fill="#223B40" d="M1083.4,421.3c0.5-0.5,1.2-0.9,1.9-1.1l-9.8-17c-0.5,0.5-1.2,0.9-2,1.1L1083.4,421.3z"/>
<path fill="#223B40" d="M1054,386.3l14.9,12.5c0.3-0.7,0.8-1.3,1.4-1.8l-14.9-12.5C1055.1,385.3,1054.6,385.9,1054,386.3z"/>
<path fill="#223B40" d="M941.6,480.5c-0.5,0.5-1.2,0.9-2,1.1l9.9,17.1c0.5-0.5,1.2-0.9,1.9-1.1L941.6,480.5z"/>
<path fill="#223B40" d="M970.9,515.5L956.1,503c-0.3,0.7-0.8,1.3-1.5,1.7l15,12.6C969.8,516.5,970.3,515.9,970.9,515.5z"/>
<path fill="#223B40" d="M1085.9,428.1l3.4,19.3c0.5-0.3,1.1-0.4,1.8-0.4c0.1,0,0.3,0,0.4,0l-3.4-19.3c-0.5,0.3-1.1,0.4-1.8,0.4
	C1086.1,428.1,1086,428.1,1085.9,428.1z"/>
<path fill="#223B40" d="M972.4,450.9c0-0.4,0.1-0.8,0.2-1.1h-21.1c0.1,0.4,0.2,0.7,0.2,1.1s-0.1,0.8-0.2,1.1h21.1
	C972.5,451.7,972.4,451.3,972.4,450.9z"/>
<path fill="#223B40" d="M943.7,450.9c0-0.4,0.1-0.8,0.2-1.1h-6c0.1,0.4,0.2,0.7,0.2,1.1s-0.1,0.8-0.2,1.1h6
	C943.7,451.7,943.7,451.3,943.7,450.9z"/>
<path fill="#223B40" d="M1052.7,450.9c0,0.4-0.1,0.8-0.2,1.1h21c-0.1-0.4-0.2-0.7-0.2-1.1s0.1-0.8,0.2-1.1h-21
	C1052.6,450.2,1052.7,450.5,1052.7,450.9z"/>
<path fill="#223B40" d="M1044.8,449.8H1022l0.7,2.2h22.1c-0.1-0.4-0.2-0.7-0.2-1.1S1044.7,450.2,1044.8,449.8z"/>
<path fill="#223B40" d="M1081.4,450.9c0,0.4-0.1,0.8-0.2,1.1h6c-0.1-0.4-0.2-0.7-0.2-1.1c0-0.4,0.1-0.8,0.2-1.1h-6
	C1081.3,450.2,1081.4,450.5,1081.4,450.9z"/>
<path fill="#223B40" d="M1003.5,449.8h-23.2c0.1,0.4,0.2,0.7,0.2,1.1s-0.1,0.8-0.2,1.1h22.5L1003.5,449.8z"/>
<path fill="#223B40" d="M993.4,415.6l-10.4-18c-0.5,0.5-1.2,0.9-2,1.1l10.3,17.9C991.9,416,992.6,415.7,993.4,415.6z"/>
<path fill="#223B40" d="M1031.4,485.8l10.8,18.7c0.5-0.5,1.2-0.9,2-1.1l-10.7-18.6C1032.8,485.3,1032.1,485.6,1031.4,485.8z"/>
<path fill="#223B40" d="M1046,511.1l2.8,4.9c0.5-0.6,1.2-1,1.9-1.2l-2.8-4.9C1047.4,510.5,1046.8,510.9,1046,511.1z"/>
<path fill="#223B40" d="M999.7,426.4l-2.5-4.3c-0.5,0.6-1.1,1-1.9,1.3l3.3,5.7C998.9,428.1,999.2,427.2,999.7,426.4z"/>
<path fill="#223B40" d="M979.2,390.9l-3-5.2c-0.5,0.5-1.2,0.9-1.9,1.1l3,5.2C977.7,391.5,978.4,391.1,979.2,390.9z"/>
<path fill="#223B40" d="M1047.8,392.2l3.1-5.3c-0.8-0.2-1.4-0.6-1.9-1.1l-3,5.2C1046.6,391.2,1047.3,391.6,1047.8,392.2z"/>
<path fill="#223B40" d="M1025.7,425.9c0.5,0.8,0.8,1.6,1.1,2.5l2.9-5.1c-0.8-0.2-1.4-0.6-1.9-1.1L1025.7,425.9z"/>
<path fill="#223B40" d="M991.6,485L981,503.3c0.8,0.2,1.4,0.5,2,1.1l10.7-18.6C992.9,485.7,992.2,485.4,991.6,485z"/>
<path fill="#223B40" d="M1033.6,416.7l10.4-18c-0.8-0.1-1.4-0.5-2-1l-10.4,17.9C1032.4,415.8,1033,416.2,1033.6,416.7z"/>
<path fill="#223B40" d="M977.2,509.9l-2.8,4.9c0.7,0.2,1.4,0.6,1.9,1.2l2.8-4.9C978.3,510.9,977.7,510.5,977.2,509.9z"/>
<path fill="#223B40" d="M1049.5,454.9l10.9,21.4c0.6-0.4,1.3-0.7,2.1-0.8l-11-21.7C1050.9,454.3,1050.3,454.7,1049.5,454.9z"/>
<path fill="#223B40" d="M1028,484.8l-13.9,21.4c0.7,0.2,1.4,0.7,1.8,1.3l14.1-21.7C1029.2,485.6,1028.5,485.3,1028,484.8z"/>
<path fill="#223B40" d="M1077.5,454.9l5.6,20.3c0.5-0.7,1.1-1.2,1.9-1.4l-5.4-19.6C1079,454.7,1078.3,454.9,1077.5,454.9z"/>
<path fill="#223B40" d="M947.7,454.9c-0.8,0-1.5-0.2-2.1-0.6l-5.5,19.5c0.8,0.3,1.4,0.8,1.9,1.4L947.7,454.9
	C947.7,454.9,947.7,454.9,947.7,454.9z"/>
<path fill="#223B40" d="M1064,475.7c0.7,0.2,1.4,0.7,1.9,1.2l11-22c-0.8-0.1-1.5-0.4-2-0.9L1064,475.7z"/>
<path fill="#223B40" d="M950.4,453.9c-0.5,0.5-1.2,0.9-2,1l10.8,21.7c0.5-0.5,1.2-0.9,2-1L950.4,453.9z"/>
<path fill="#223B40" d="M995.3,485.6l14.6,21.7c0.5-0.6,1.2-1,1.9-1.2l-14.6-21.7C996.6,485,996,485.4,995.3,485.6z"/>
<path fill="#223B40" d="M1032,478.1c0.7,0.3,1.4,0.7,1.8,1.3l14-24.5c-0.8-0.2-1.4-0.5-2-1.1L1032,478.1z"/>
<path fill="#223B40" d="M973.7,453.9l-11,21.7c0.8,0.1,1.4,0.5,2,1l11-21.7C975,454.7,974.3,454.4,973.7,453.9z"/>
<path fill="#223B40" d="M979.3,453.7c-0.5,0.5-1.2,0.9-1.9,1.1l13.8,24.2c0.5-0.5,1.2-0.9,1.9-1.1L979.3,453.7z"/>
<path fill="#223B40" d="M1049,507.3c0,0.1,0,0.1,0,0.2l20-5.1c-0.2-0.5-0.4-1.1-0.4-1.6c0-0.2,0-0.4,0.1-0.6l-20.2,5.1
	C1048.8,505.9,1049,506.5,1049,507.3z"/>
<path fill="#223B40" d="M1046.3,503.5c0.7,0.2,1.4,0.7,1.8,1.3l14-21.3c-0.8-0.1-1.5-0.5-2-1L1046.3,503.5z"/>
<path fill="#223B40" d="M1063.8,483.3l6.4,14.2c0.6-0.5,1.3-0.8,2.1-0.8l-6.6-14.6C1065.2,482.7,1064.6,483.1,1063.8,483.3z"/>
<path fill="#223B40" d="M976.1,507.3c0-0.7,0.2-1.4,0.5-2l-20.5-5.2c0.1,0.4,0.2,0.8,0.2,1.2c0,0.4-0.1,0.7-0.2,1.1l19.9,5.1
	C976.1,507.4,976.1,507.3,976.1,507.3z"/>
<path fill="#223B40" d="M959.3,482.5l-6.8,14.8c0.8,0,1.5,0.3,2.1,0.7l6.7-14.6C960.6,483.3,959.9,483,959.3,482.5z"/>
<path fill="#223B40" d="M978.8,503.5L965,482.1c-0.5,0.6-1.1,1-1.9,1.2l13.9,21.5C977.5,504.2,978.1,503.7,978.8,503.5z"/>
<path fill="#223B40" d="M1009.7,512.6l-8.6,12.1c0.7,0.4,1.2,1,1.5,1.7l8.9-12.6C1010.9,513.6,1010.2,513.2,1009.7,512.6z"/>
<path fill="#223B40" d="M981.9,510.9l14.1,14.7c0.5-0.6,1.1-1.1,1.8-1.3l-14.2-14.9C983.1,510,982.6,510.6,981.9,510.9z"/>
<path fill="#223B40" d="M1014.1,513.8l8.5,12.6c0.3-0.7,0.9-1.3,1.5-1.7l-8.2-12.2C1015.5,513.1,1014.9,513.5,1014.1,513.8z"/>
<path fill="#223B40" d="M1009.1,508.6l-25-2c0,0.2,0.1,0.5,0.1,0.8c0,0.5-0.1,1-0.3,1.5l25,2.1c-0.1-0.3-0.1-0.5-0.1-0.8
	C1008.8,509.5,1008.9,509,1009.1,508.6z"/>
<path fill="#223B40" d="M1041.1,506.5l-24.5,2.1c0.2,0.4,0.3,0.9,0.3,1.4c0,0.3,0,0.5-0.1,0.8l24.5-2.1c-0.2-0.5-0.3-1-0.3-1.5
	C1041,507,1041,506.8,1041.1,506.5z"/>
<path fill="#223B40" d="M1041.6,509.4l-14.1,14.9c0.7,0.2,1.4,0.7,1.9,1.3l13.9-14.7C1042.6,510.5,1042,510,1041.6,509.4z"/>
<path fill="#223B40" d="M983.6,392.7l14.3-15.2c-0.8-0.2-1.5-0.6-2-1.2L982,391.2C982.6,391.5,983.2,392.1,983.6,392.7z"/>
<path fill="#223B40" d="M1048.8,394.8c0,0.8-0.2,1.5-0.6,2.1l20.8,4.9c-0.2-0.5-0.3-1-0.3-1.5c0-0.3,0-0.6,0.1-0.9L1048.8,394.8
	C1048.8,394.7,1048.8,394.8,1048.8,394.8z"/>
<path fill="#223B40" d="M1045.9,398.6l14.1,20.9c0.5-0.5,1.2-0.9,2-1l-14.2-21.1C1047.3,397.9,1046.7,398.3,1045.9,398.6z"/>
<path fill="#223B40" d="M1011.5,388.5l-9-13.2c-0.3,0.7-0.9,1.3-1.5,1.7l8.7,12.7C1010.1,389.1,1010.7,388.7,1011.5,388.5z"/>
<path fill="#223B40" d="M1015.8,389.7l8.3-12.6c-0.7-0.4-1.2-0.9-1.6-1.6l-8.6,12.9C1014.6,388.7,1015.3,389.1,1015.8,389.7z"/>
<path fill="#223B40" d="M1042.9,391.2l-13.9-15c-0.5,0.6-1.2,1-1.9,1.2l14.2,15.3C1041.7,392.1,1042.2,391.6,1042.9,391.2z"/>
<path fill="#223B40" d="M1065.7,419.7l6.9-15.3c-0.8,0-1.5-0.2-2.2-0.7l-6.7,14.8C1064.6,418.7,1065.2,419.1,1065.7,419.7z"/>
<path fill="#223B40" d="M965,419.8l14-21.2c-0.7-0.2-1.4-0.7-1.9-1.2l-14,21.2C963.9,418.8,964.5,419.2,965,419.8z"/>
<path fill="#223B40" d="M961.4,418.4l-6.3-14.5c-0.6,0.5-1.2,0.9-2,1l6.3,14.4C960,418.8,960.7,418.5,961.4,418.4z"/>
<path fill="#223B40" d="M1016.4,393.7l24.4,2.1c-0.1-0.3-0.1-0.6-0.1-1c0-0.4,0.1-0.9,0.2-1.2l-24.3-2c0.1,0.3,0.1,0.5,0.1,0.8
	C1016.7,392.8,1016.6,393.3,1016.4,393.7z"/>
<path fill="#223B40" d="M1008.7,392.3c0-0.3,0-0.6,0.1-0.8l-24.9,1.9c0.2,0.4,0.3,0.9,0.3,1.4c0,0.3,0,0.6-0.1,0.8l24.9-1.9
	C1008.8,393.2,1008.7,392.8,1008.7,392.3z"/>
<path fill="#223B40" d="M1051.5,448.1l11-21.7c-0.8-0.1-1.5-0.3-2.1-0.8l-10.9,21.4C1050.3,447.2,1050.9,447.5,1051.5,448.1z"/>
<path fill="#223B40" d="M1045.8,448.1c0.5-0.5,1.2-0.9,2-1.1l-14.2-24.9c-0.5,0.6-1.2,1-1.9,1.2L1045.8,448.1z"/>
<path fill="#223B40" d="M975.7,447l-11-21.7c-0.5,0.5-1.2,0.9-2,1l11,21.7C974.3,447.5,975,447.1,975.7,447z"/>
<path fill="#223B40" d="M1064,426.2l10.8,21.7c0.6-0.5,1.3-0.8,2-0.9l-11-22C1065.3,425.5,1064.7,426,1064,426.2z"/>
<path fill="#223B40" d="M997.3,417.2l14.2-21.1c-0.7-0.2-1.4-0.7-1.9-1.2l-14.1,21C996.3,416.1,996.9,416.5,997.3,417.2z"/>
<path fill="#223B40" d="M1029.6,415.6l-13.9-20.8c-0.5,0.6-1.1,1-1.9,1.2l13.8,20.7C1028.2,416.2,1028.9,415.8,1029.6,415.6z"/>
<path fill="#223B40" d="M947.7,446.9C947.7,446.9,947.7,446.9,947.7,446.9l-5.7-20.5c-0.5,0.7-1.2,1.1-1.9,1.4l5.5,19.7
	C946.2,447.1,946.9,446.9,947.7,446.9z"/>
<path fill="#223B40" d="M961.2,426.3c-0.8-0.1-1.5-0.5-2-1L948.4,447c0.8,0.1,1.5,0.5,2,1L961.2,426.3z"/>
<path fill="#223B40" d="M1079.6,447.6l5.4-19.7c-0.8-0.3-1.5-0.8-1.9-1.4l-5.6,20.4C1078.3,447,1079,447.2,1079.6,447.6z"/>
<path fill="#223B40" d="M993.4,423.5c-0.8-0.1-1.5-0.5-2-1l-14,24.6c0.8,0.2,1.4,0.6,1.9,1.1L993.4,423.5z"/>
<path fill="#223B40" d="M1026.8,420.6c-0.1-0.4-0.2-0.7-0.2-1.1c0-0.4,0.1-0.8,0.2-1.1l-13.4,0c2.7,0.1,5.1,0.9,7.2,2.2
	L1026.8,420.6z"/>
<path fill="#223B40" d="M1034.7,419.5c0,0.5-0.1,1-0.3,1.4l24.4,2.2c0-0.2-0.1-0.5-0.1-0.7c0-0.5,0.1-1,0.3-1.5l-24.5-2.2
	C1034.6,419,1034.7,419.2,1034.7,419.5z"/>
<path fill="#223B40" d="M957.9,422.4c0-0.3,0-0.6,0.1-0.8l-15.5,1.1c0.2,0.4,0.3,0.9,0.3,1.4c0,0.3,0,0.6-0.1,0.8l15.5-1.1
	C958,423.3,957.9,422.9,957.9,422.4z"/>
<path fill="#223B40" d="M990.1,419.5c0-0.3,0-0.5,0.1-0.7l-24.5,2.2c0.2,0.5,0.3,0.9,0.3,1.5c0,0.3,0,0.5-0.1,0.8l24.5-2.2
	C990.2,420.5,990.1,420,990.1,419.5z"/>
<path fill="#223B40" d="M1066.8,422.4c0,0.5-0.1,0.9-0.3,1.4l15.8,1.2c-0.1-0.3-0.1-0.5-0.1-0.8c0-0.5,0.1-1,0.3-1.4l-15.8-1.2
	C1066.8,421.8,1066.8,422.1,1066.8,422.4z"/>
<path fill="#223B40" d="M1011.9,418.4l0.2,0c0,0,0,0,0.1,0l-14.2,0c0.1,0.4,0.2,0.7,0.2,1.1c0,0.4-0.1,0.8-0.2,1.1l7.1,0
	C1007,419.4,1009.3,418.6,1011.9,418.4z"/>
<path fill="#223B40" d="M990.1,481.8c0-0.3,0.1-0.7,0.1-1l-24.3-2.1c0,0.3,0.1,0.5,0.1,0.8c0,0.5-0.1,1-0.3,1.5l24.6,2.2
	C990.1,482.7,990.1,482.3,990.1,481.8z"/>
<path fill="#223B40" d="M957.9,479.5c0-0.5,0.1-1,0.3-1.4l-15.5-1.1c0,0.2,0.1,0.4,0.1,0.7c0,0.6-0.1,1.1-0.3,1.6l15.5,1.1
	C958,480,957.9,479.8,957.9,479.5z"/>
<path fill="#223B40" d="M1066.8,479.5c0,0.3,0,0.6-0.1,0.9l15.9-1.2c-0.2-0.5-0.3-1-0.3-1.6c0-0.2,0-0.4,0.1-0.7l-15.8,1.2
	C1066.7,478.5,1066.8,479,1066.8,479.5z"/>
<path fill="#223B40" d="M1034.7,481.8c0,0.5-0.1,0.9-0.3,1.4l24.6-2.2c-0.2-0.5-0.3-1-0.3-1.5c0-0.2,0-0.5,0.1-0.7l-24.3,2.2
	C1034.6,481.2,1034.7,481.5,1034.7,481.8z"/>
<path fill="#223B40" d="M1012.8,420.6c-0.2,0-0.4,0-0.5,0h1C1013.1,420.6,1013,420.6,1012.8,420.6z"/>
<path fill="#223B40" d="M1012.8,418.4c-0.2,0-0.4,0-0.7,0h1.2C1013.2,418.4,1013,418.4,1012.8,418.4z"/>
<path fill="#223B40" d="M1026.7,482.4c0-0.2-0.1-0.4-0.1-0.5c0-0.2,0-0.4,0.1-0.6l-28.7,0.1c0,0.2,0,0.3,0,0.5c0,0.2,0,0.4-0.1,0.6
	c-0.1,0.4-0.2,0.7-0.3,1c0,0,0,0.1-0.1,0.1l29.3-0.1c0,0,0,0,0,0C1026.8,483.1,1026.7,482.8,1026.7,482.4z"/>
<g>
	<path fill="#223B40" d="M1022.7,452l-0.7-2.2l-1.3-4.2c0.6-0.4,1.2-0.9,1.8-1.4c3.2-2.8,5-6.9,5-11.1c0-1.6-0.3-3.2-0.8-4.7
		c-0.3-0.9-0.7-1.7-1.1-2.5c-1.2-2.2-3-4-5.1-5.3c-2.1-1.3-4.6-2.1-7.2-2.2h-1.2c0,0,0,0-0.1,0l-0.2,0c-2.5,0.2-4.9,1-6.9,2.2
		c-2.3,1.4-4.1,3.4-5.3,5.8c-0.4,0.8-0.8,1.7-1.1,2.6c-0.4,1.3-0.6,2.6-0.6,4l0,0.1c0,2.7,0.7,5.3,2.1,7.6c1.2,2,2.8,3.6,4.7,4.9
		l-1.4,4.2l-0.7,2.2l-8.4,25.8c0.4,0,0.8,0.1,1.1,0.2c0,0,0.1,0,0.1,0c0.3,0.1,0.6,0.3,0.9,0.5l1.6-4.8l7.1-21.8l0.7-2.2l1.7-5.2
		l-0.8-0.4c-1.9-1.1-3.6-2.6-4.7-4.5c-1.2-1.9-1.8-4.2-1.8-6.5c0-0.4,0-0.7,0.1-1.1c0.1-1.1,0.4-2.2,0.7-3.2c1.7-4.5,5.9-7.8,11-8.1
		l0.2,0c0,0,0,0,0,0c0.2,0,0.4,0,0.5,0c0.2,0,0.3,0,0.5,0c5,0.2,9.2,3.3,11.1,7.6c0.4,1,0.7,2,0.8,3c0.1,0.6,0.2,1.2,0.2,1.9
		c0,3.6-1.6,7-4.3,9.4c-0.7,0.6-1.4,1.1-2.2,1.6l-0.8,0.4l1.6,5.2l0.7,2.2l7,22.3l1.3,4c0.3-0.2,0.6-0.3,0.9-0.4
		c0.1,0,0.1,0,0.2-0.1c0.3-0.1,0.7-0.1,1-0.1c0,0,0.1,0,0.1,0L1022.7,452z"/>
</g>
<g>
	<path fill="#223B40" d="M1072.4,526.3c-6.2,0-13.3-1.4-20.3-5.6l1.2-1.9c14.1,8.6,28.8,4.7,35,2.3c-8.6-3.4-15.4-17.7-15.7-18.4
		l2-1c0.1,0.2,8.5,17.8,17.4,17.8c0.5,0,1,0.3,1.1,0.8c0.1,0.5-0.1,1-0.6,1.3C1092.3,521.8,1083.7,526.3,1072.4,526.3z"/>
</g>
<g id="XMLID_4_">
	<g>
		<path fill="#223B40" d="M724.4,480.8l-1.1-1.6l0,0l14.3-28.6l1-0.6l1.1,0.8l9,26.8l-1,1.5L724.4,480.8z M738.5,453.9l-12.3,24.6
			l19.9-1.6L738.5,453.9z"/>
	</g>
	<g>
		<path fill="#223B40" d="M752.4,452.1h-13.7l-1.1-1.4l8.1-26.9l0.2,0.1l0.9-0.9l0.9,0.1l1,0.9l4.8,27.1L752.4,452.1z M740.2,449.9
			h10.9l-4-22.9L740.2,449.9z"/>
	</g>
	<g>
		<path fill="#223B40" d="M738.7,452.1h-28.9l-1-1.6l14.5-28.7l2,0l14.3,28.7L738.7,452.1z M711.6,449.9h25.2l-12.5-25L711.6,449.9z
			"/>
	</g>
	<g>
		<path fill="#223B40" d="M723.3,480.2l-14.5-28.7l1-1.6h28.9l1,1.6l-14.3,28.7L723.3,480.2z M711.6,452.1l12.7,25l12.5-25H711.6z"
			/>
	</g>
	<g>
		<path fill="#223B40" d="M708.8,451.6L690.9,420l1.1-1.7l32.5,2.9l0.9,0.6l0,1.1l-14.5,28.7L708.8,451.6z M693.9,420.8l15.9,27.9
			l12.9-25.3L693.9,420.8z"/>
	</g>
	<g>
		<path fill="#223B40" d="M747.6,425.2l-23.3-1.7l-0.9-1.6l9.7-22.1l2-0.1l13.7,23.8L747.6,425.2z M726,421.3l19.6,1.5l-11.5-20.1
			L726,421.3z"/>
	</g>
	<g>
		<path fill="#223B40" d="M724.4,423.5L724.4,423.5l-1-0.5L705,395.3l1.2-1.7l28,5.6l0.8,1.6l-9.7,22.1L724.4,423.5z M708.4,396.3
			l15.7,23.7l8.3-19L708.4,396.3z"/>
	</g>
	<g>
		<path fill="#223B40" d="M659,430.1l-5.9-10.1l1-1.7h18.7v2.2c-5.6,0-10.4,3.8-11.6,9.2L659,430.1z M656,420.6l3.7,6.3
			c1.1-2.6,3-4.8,5.3-6.3H656z"/>
	</g>
	<g>
		<path fill="#223B40" d="M686.4,430.5l-2.1-0.4c-1.1-5.5-6-9.5-11.7-9.5v-2.2h19.1l1,1.7L686.4,430.5z M680.3,420.6
			c2.4,1.6,4.4,3.8,5.5,6.6l4-6.6H680.3z"/>
	</g>
	<g>
		<path fill="#223B40" d="M693.1,483.1l-2.1-0.2l-9.5-31.5l1.1-1.4h27.2l1,1.7L693.1,483.1z M684.1,452.1l8.3,27.6l15.4-27.6H684.1z
			"/>
	</g>
	<g>
		<path fill="#223B40" d="M663.5,452.1h-26.1l-1-1.6l16.6-31.5l2,0L661,429l0.1,0.8c-0.2,0.8-0.3,1.8-0.3,2.7c0,4,2,7.7,5.3,9.9
			l0.5,1.2l-1.9,7.6L663.5,452.1z M639.3,449.9h23.3l1.5-6.1c-3.5-2.7-5.6-6.8-5.6-11.3c0-1,0.1-1.9,0.3-2.8l-4.7-8L639.3,449.9z"/>
	</g>
	<g>
		<path fill="#223B40" d="M638.4,451.5l-2,0l-14.5-28.7l0.9-1.6l31.2-2.9l1.1,1.6L638.4,451.5z M624.6,423.3l12.8,25.2l14.6-27.8
			L624.6,423.3z"/>
	</g>
	<g>
		<path fill="#223B40" d="M637.4,452.1h-28.9l-1-1.6l14.3-28.7l2,0l14.5,28.7L637.4,452.1z M610.4,449.9h25.2l-12.7-25L610.4,449.9z
			"/>
	</g>
	<g>
		<path fill="#223B40" d="M623.9,480.2l-2,0l-14.3-28.7l1-1.6h28.9l1,1.6L623.9,480.2z M610.4,452.1l12.5,25l12.7-25H610.4z"/>
	</g>
	<g>
		<path fill="#223B40" d="M706.5,508.6l-1.2-0.5l-0.1-0.1l0-1.2l18.2-27.7l2,0.2l9.7,21.3l-0.8,1.6L706.5,508.6z M724.2,482
			l-15.6,23.8l23.9-5.6L724.2,482z"/>
	</g>
	<g>
		<path fill="#223B40" d="M732.5,525.5c-7.3,0-14-1.8-20.1-5.5l-0.2-1.8l21.1-18.1l1.8,0.4c0.1,0.2,8.2,18.2,17,18.2l0.5,2.1
			C752.3,521.1,743.9,525.5,732.5,525.5z M714.9,518.9c5.4,2.9,11.3,4.4,17.6,4.4c6.8,0,12.6-1.7,15.9-3
			c-7.2-2.9-12.9-13.6-14.8-17.4L714.9,518.9z"/>
	</g>
	<g>
		<path fill="#223B40" d="M713.7,519.9l-1.7-0.3l-6.8-11.7l0.7-1.7l27.9-6.4l1,1.9L713.7,519.9z M707.9,508.2l5.3,9.2l16.6-14.2
			L707.9,508.2z"/>
	</g>
	<g>
		<path fill="#223B40" d="M687.4,529.6h-0.3l-0.9-0.4l-0.2-0.3l0.2-1.5l0,0l0.1-0.1l19.1-20.6l1.8,0.2l6.8,11.7l-0.6,1.6l-25.5,9.4
			L687.4,529.6z M706,509.3l-15.7,16.9l21.1-7.7L706,509.3z"/>
	</g>
	<g>
		<path fill="#223B40" d="M687.6,529l-1.6-0.2L671.6,511l0.8-1.8l33.7-2.8l0.9,1.9L687.6,529z M674.7,511.2l12.2,15.3l16.4-17.7
			L674.7,511.2z"/>
	</g>
	<g>
		<path fill="#223B40" d="M687.1,529.6h-27l-0.9-1.8l12.4-18.2l1.8-0.1l14.6,18.2L687.1,529.6z M662.3,527.3h22.5l-12.2-15.2
			L662.3,527.3z"/>
	</g>
	<g>
		<path fill="#223B40" d="M672.6,511.4l-1-1.8l19.6-27.7l1.9,0.1l14,24.8l-0.9,1.7L672.6,511.4z M692,484.7l-17.2,24.3l29.5-2.5
			L692,484.7z"/>
	</g>
	<g>
		<path fill="#223B40" d="M659.7,529.5l-25.9-9.4l-0.6-1.6l6.9-11.5l1.8-0.2l19,20.9L659.7,529.5z M635.9,518.5l20.3,7.4l-14.9-16.4
			L635.9,518.5z"/>
	</g>
	<g>
		<path fill="#223B40" d="M633.6,519.9l-21-17.5l1-2l27.8,5.9l0.7,1.7l-6.9,11.5L633.6,519.9z M617.5,503.7l16.5,13.7l5.4-9.1
			L617.5,503.7z"/>
	</g>
	<g>
		<path fill="#223B40" d="M640.9,508.7l-27.8-5.9l-0.8-1.5l9.6-21.9l2-0.2l18.3,27.9L640.9,508.7z M614.9,500.8l23.8,5.1L623.1,482
			L614.9,500.8z"/>
	</g>
	<g>
		<path fill="#223B40" d="M608.6,452.1h-13.7l-1.1-1.3l4.8-26.9l1-0.9l0.8-0.1l1,0.9l0.2-0.1l8.1,26.9L608.6,452.1z M596.2,449.9
			h10.9l-6.8-22.7L596.2,449.9z"/>
	</g>
	<g>
		<path fill="#223B40" d="M609.6,451.5l-2.1-0.2l-8.1-26.9l0-0.3l1-1.2l22.5-1.7l1.1,1.6L609.6,451.5z M601.9,425l6.9,23l12.2-24.4
			L601.9,425z"/>
	</g>
	<g>
		<path fill="#223B40" d="M599.7,425.2l-1-1.7l13.7-23.2l2,0.1l9.6,21.5l-0.9,1.6L599.7,425.2z M613.2,403.3l-11.5,19.5l19.5-1.4
			L613.2,403.3z"/>
	</g>
	<g>
		<path fill="#223B40" d="M613.5,402l-1-1.9l21-18.1l1.7,0.3l6.9,11.9l-0.7,1.7L613.5,402z M634,384.5l-16.6,14.3l22-4.9L634,384.5z
			"/>
	</g>
	<g>
		<path fill="#223B40" d="M623.8,423l-2-0.2l-9.6-21.5l0.8-1.6l27.9-6.2l1.2,1.7L623.8,423z M614.9,401.7l8.2,18.4l15.6-23.7
			L614.9,401.7z"/>
	</g>
	<g>
		<path fill="#223B40" d="M623,423.5l-1-1.7l18.3-27.7l1.9,0.1L655,419l-0.9,1.6L623,423.5z M641,396.9L625.1,421l27.2-2.5
			L641,396.9z"/>
	</g>
	<g>
		<path fill="#223B40" d="M641.3,395.8l-0.9-1.9l18.7-21.2l1.8,0.1l12.6,18.4l-0.8,1.8L641.3,395.8z M659.8,375.3l-15.9,18l26.6-2.4
			L659.8,375.3z"/>
	</g>
	<g>
		<path fill="#223B40" d="M692.2,483.7h-36.5l-1.1-1.4l9.5-38.5c-3.5-2.7-5.6-6.8-5.6-11.3c0-1.1,0.1-2.2,0.4-3.2
			c1.5-6.4,7.2-11,13.8-11c6.7,0,12.5,4.8,13.9,11.3c0.2,0.9,0.3,1.9,0.3,2.9c0,4.3-2,8.4-5.3,11.1l11.7,38.6L692.2,483.7z
			 M657.1,481.4h33.5l-11.4-37.9l0.4-1.2c3.2-2.2,5-5.9,5-9.7c0-0.9-0.1-1.7-0.3-2.4c-1.1-5.5-6.1-9.5-11.7-9.5
			c-5.6,0-10.4,3.8-11.6,9.2c-0.2,0.9-0.3,1.8-0.3,2.7c0,4,2,7.7,5.3,9.9l0.5,1.2L657.1,481.4z"/>
	</g>
	<g>
		<path fill="#223B40" d="M735,501.6l-2-0.1l-9.7-21.3l0.9-1.6l23.4-1.9l1.1,1.7L735,501.6z M726,480.7l8.1,17.9l11.5-19.5
			L726,480.7z"/>
	</g>
	<g>
		<path fill="#223B40" d="M746.6,478.1l-9-26.8l1.1-1.5h13.7l1.1,1.3l-4.8,26.8L746.6,478.1z M740.3,452.1l7.1,21.1l3.7-21.1H740.3z
			"/>
	</g>
	<g>
		<path fill="#223B40" d="M707.1,508l-1.9-0.1l-14-24.8l0.9-1.7l32.2-2.9l1,1.7L707.1,508z M694,483.5l12.2,21.7l15.9-24.2
			L694,483.5z"/>
	</g>
	<g>
		<path fill="#223B40" d="M692.3,483.7l-1.1-1.7l17.6-31.5l2,0l14.5,28.7l0,1l-0.9,0.6l-0.2,0L692.3,483.7z M709.7,453.4l-15.6,27.8
			l28.4-2.5L709.7,453.4z"/>
	</g>
	<g>
		<path fill="#223B40" d="M672.5,511.4h-0.3l-31.2-2.7l-0.9-1.7l14.5-25l1.9,0l16.8,27.7L672.5,511.4z M643,506.6l27.4,2.4
			l-14.7-24.2L643,506.6z"/>
	</g>
	<g>
		<path fill="#223B40" d="M659.3,529.2l-19-20.9l0.9-1.9l31.3,2.7l0.8,1.8l-12.4,18.2L659.3,529.2z M643.9,508.9l16.1,17.7
			l10.5-15.4L643.9,508.9z"/>
	</g>
	<g>
		<path fill="#223B40" d="M654.7,483.1l-18.2-31.5l1-1.7h26.1l1.1,1.4l-7.8,31.5L654.7,483.1z M639.4,452.1l15.9,27.4l6.8-27.4
			H639.4z"/>
	</g>
	<g>
		<path fill="#223B40" d="M655.6,483.7l-32.8-2.9l-0.9-1.6l14.5-28.7l2-0.1l18.2,31.5L655.6,483.7z M624.6,478.7l29,2.6l-16.1-27.9
			L624.6,478.7z"/>
	</g>
	<g>
		<path fill="#223B40" d="M640.2,508.2l-18.3-27.9l1-1.7l32.8,2.9l0.9,1.7l-14.5,25L640.2,508.2z M625.1,481l16,24.4l12.7-21.9
			L625.1,481z"/>
	</g>
	<g>
		<path fill="#223B40" d="M673.4,510.9l-1.9-0.1l-16.8-27.7l1-1.7h36.5l0.9,1.8L673.4,510.9z M657.7,483.7l14.9,24.5l17.4-24.5
			H657.7z"/>
	</g>
	<g>
		<path fill="#223B40" d="M612.3,502.2l-13.7-23.8l1.1-1.7l23.3,1.9l0.9,1.6l-9.6,21.9L612.3,502.2z M601.7,479.1l11.5,20l8-18.5
			L601.7,479.1z"/>
	</g>
	<g>
		<path fill="#223B40" d="M622.8,480.8l-23.3-1.9l-1-1.5l8.9-26.8l2.1-0.1l14.3,28.7L622.8,480.8z M601.1,476.8l19.8,1.6l-12.2-24.4
			L601.1,476.8z"/>
	</g>
	<g>
		<path fill="#223B40" d="M600.7,478.1l-2.2-0.2l-4.8-26.8l1.1-1.3h13.7l1.1,1.5L600.7,478.1z M596.2,452.1l3.8,21.1l7-21.1H596.2z"
			/>
	</g>
	<g>
		<path fill="#223B40" d="M724.2,423.5l-32.5-2.9l-0.9-1.7l14.1-24.8l1.9-0.1l18.4,27.7L724.2,423.5z M693.7,418.5l28.4,2.5
			l-16.1-24.2L693.7,418.5z"/>
	</g>
	<g>
		<path fill="#223B40" d="M709.8,452.1h-27.2l-1.1-0.8l-2.4-7.8l0.4-1.2c3.2-2.2,5-5.9,5-9.7c0-0.9-0.1-1.7-0.3-2.4l0.1-0.8
			l6.4-10.4l1.9,0l17.9,31.5L709.8,452.1z M683.5,449.9h24.4l-16.1-28.2l-5.1,8.4c0.1,0.8,0.2,1.6,0.2,2.5c0,4.3-2,8.4-5.3,11.1
			L683.5,449.9z"/>
	</g>
	<g>
		<path fill="#223B40" d="M691.8,420.6h-37.8l-0.9-1.7l18.5-27.6l1.9,0l19.3,27.6L691.8,420.6z M656.2,418.4h33.5l-17.2-24.5
			L656.2,418.4z"/>
	</g>
	<g>
		<path fill="#223B40" d="M737.6,451.5l-14.3-28.7l1.1-1.6l22.4,1.7l1,1.1l0,0.4l-8.1,26.9L737.6,451.5z M726.2,423.6l12.2,24.4
			l6.9-23L726.2,423.6z"/>
	</g>
	<g>
		<path fill="#223B40" d="M733.8,401.3l-28-5.6L705,394l7.6-12l1.7-0.3l20.4,17.6L733.8,401.3z M707.8,393.9l22.2,4.4l-16.2-13.9
			L707.8,393.9z"/>
	</g>
	<g>
		<path fill="#223B40" d="M705.1,395.4l-18.8-21.2l1.2-1.8l26.4,9.2l0.6,1.7l-7.6,12L705.1,395.4z M690.9,375.9l14.9,16.9l6-9.5
			L690.9,375.9z"/>
	</g>
	<g>
		<path fill="#223B40" d="M642,395.4l-1.8-0.2l-6.9-11.9l0.6-1.6l25.6-9.4l1.2,1.8L642,395.4z M635.9,383.4l5.4,9.4l14.8-16.7
			L635.9,383.4z"/>
	</g>
	<g>
		<path fill="#223B40" d="M673.4,392.5l-1.8-0.1L659,374.1l0.9-1.8h27.3l0.9,1.8L673.4,392.5z M662,374.5l10.6,15.4l12.3-15.4H662z"
			/>
	</g>
	<g>
		<path fill="#223B40" d="M705.9,395.8l-33.5-2.8l-0.8-1.8l14.7-18.4l1.7,0l18.8,21.2L705.9,395.8z M674.7,390.9l28.6,2.4l-16-18.1
			L674.7,390.9z"/>
	</g>
	<g>
		<path fill="#223B40" d="M655,420.1l-1.9-0.1l-12.9-24.8l0.9-1.6l31.3-2.8l1,1.7L655,420.1z M642.9,395.6l11.2,21.7l16.1-24.1
			L642.9,395.6z"/>
	</g>
	<g>
		<path fill="#223B40" d="M690.9,420.1l-19.3-27.6l1-1.8l33.5,2.8l0.9,1.7L692.8,420L690.9,420.1z M674.8,393.2l16.9,24.2l12.4-21.8
			L674.8,393.2z"/>
	</g>
</g>
</svg>
