<?xml version="1.0" encoding="utf-8"?>
<!-- Generator: Adobe Illustrator 18.1.1, SVG Export Plug-In . SVG Version: 6.00 Build 0)  -->
<svg version="1.1" id="Layer_1" xmlns="http://www.w3.org/2000/svg" xmlns:xlink="http://www.w3.org/1999/xlink" x="0px" y="0px"
	 viewBox="0 0 792 612" enable-background="new 0 0 792 612" xml:space="preserve">
<g>
	<path fill="#F07646" d="M535,389c-10.4,0-20.6-13.8-26.3-22.7c-1.3,0.6-2.5,1.1-3.8,1.1c-0.6,0-1.1,0-1.7-0.2
		c4.7,7.9,13.4,20.4,23.6,25.1c-6,2.1-15.9,4.9-27.4,4.9l0,0c-8.5,0-16.8-1.5-24.4-4.5c-0.4,1.7-1.5,3.4-2.8,4.5
		c8.5,3.4,17.6,5.3,27.2,5.3c20.8,0,36.8-8.3,36.8-8.5c1.1-0.6,1.5-1.7,1.3-3C537.1,389.8,536,389,535,389z"/>
	<path fill="#3E5259" d="M270.8,310.4l10-34.8h-0.2c-1.7,0-3.4-0.6-4.7-1.5l-9.6,33.4C268.3,307.8,269.8,308.9,270.8,310.4z"/>
	<path fill="#F07646" d="M305.7,327.4c-1.7-0.2-3.4-0.8-4.7-2.1l-11,25.1c1.7,0.2,3.4,0.9,4.7,2.1L305.7,327.4z"/>
	<path fill="#71A596" d="M365,218.1l4.2,7.2c0.4-2.1,1.3-4.2,2.3-6.4l-2.1-3.6C368.4,216.6,366.7,217.7,365,218.1z"/>
	<path fill="#9B6C73" d="M266.4,226.4l9.6,33.6c1.3-0.9,3-1.5,4.7-1.5c0,0,0,0,0.2,0l-10-35.1C269.8,224.9,268.3,226,266.4,226.4z"
		/>
	<path fill="#F07646" d="M308,223.4l19.1,37.6c1.3-1.3,2.8-2.1,4.7-2.3l-19.1-37.6C311.2,222.2,309.7,223,308,223.4z"/>
	<path fill="#9B6C73" d="M289.5,183.3l11.3,25.5c1.3-1.1,3-1.9,4.7-2.1l-11.3-25.3C293.1,182.6,291.5,183.3,289.5,183.3z"/>
	<path fill="#F07646" d="M341.2,173.1l15.9,30.8c1.3-1.3,2.8-2.1,4.7-2.3l-16.1-30.8C344.6,172,342.9,172.9,341.2,173.1z"/>
	<path fill="#D7AD45" d="M346.3,364.3l19.3-34.2c-2.1-0.6-3.6-1.7-4.5-2.8l-19.3,34C343.7,362,345.2,362.8,346.3,364.3z"/>
	<path fill="#D7AD45" d="M347.1,160.5l25.5-25.9c-1.9-0.2-3.6-1.1-4.9-2.3l-24.4,24.9C344.8,157.8,346.1,159.1,347.1,160.5z"/>
	<path fill="#F07646" d="M347.1,373.7c-0.9,1.5-2.1,2.8-3.6,3.6l24.9,24.2c1.3-1.3,3-2.1,4.9-2.3L347.1,373.7z"/>
	<path fill="#389377" d="M390.3,379.8l-13.6,19.5c1.7,0.4,3.2,1.5,4.2,3l13.8-19.8C392.8,382.2,391.3,381.1,390.3,379.8z"/>
	<path fill="#3E5259" d="M403.2,380.1c-1.1,1.3-2.5,2.3-4.2,2.8l14,20c1.1-1.5,2.3-2.5,4-3.2L403.2,380.1z"/>
	<path fill="#3E5259" d="M395.2,366.2l-22.1-35.9h-4.5c-0.6,0-1.1,0-1.7-0.2l23.8,38.5C391.8,367.7,393.2,366.7,395.2,366.2z"/>
	<path fill="#71A596" d="M339.3,272.7c-1.1,1.3-2.8,2.1-4.5,2.5l24.9,42.9c0-0.2,0-0.2,0.2-0.4c0.2-0.4,0.9-2.8,1.9-6.2L339.3,272.7
		z"/>
	<path fill="#3E5259" d="M334.4,258.7c1.7,0.2,3.4,1.1,4.5,2.3l22.7-42.9c-1.7-0.2-3.4-1.1-4.5-2.3L334.4,258.7z"/>
	<path fill="#71A596" d="M390.3,165.4l-24.9,36.3c1.7,0.4,3.2,1.5,4.2,3l24.9-36.3C392.8,167.8,391.3,166.7,390.3,165.4z"/>
	<path fill="#3E5259" d="M390.3,155c1.1-1.3,2.5-2.3,4.2-3l-14.2-20.8c-1.1,1.3-2.6,2.3-4.2,3L390.3,155z"/>
	<path fill="#71A596" d="M333.5,375.2l-4.2,7.2c1.7,0.4,3.2,1.3,4.5,2.8l4.2-7.2C336.1,377.3,334.6,376.4,333.5,375.2z"/>
	<path fill="#3E5259" d="M337.6,361.6l-24.4-37.2c-1.1,1.3-2.5,2.3-4.2,2.8l24.4,37.2C334.4,363.1,335.9,362,337.6,361.6z"/>
	<path fill="#71A596" d="M305.3,310.8l-18.7-37.6c-1.3,1.3-2.8,1.9-4.7,2.3l18.7,37.6C301.9,311.8,303.6,311,305.3,310.8z"/>
	<path fill="#389377" d="M281.9,258.7c1.7,0.2,3.4,1.1,4.7,2.3l18.7-37.6c-1.7-0.2-3.4-1.1-4.7-2.3L281.9,258.7z"/>
	<path fill="#3E5259" d="M331.6,275.3c-1.7-0.2-3.4-1.1-4.7-2.3l-19.1,37.6c1.7,0.2,3.4,1.1,4.7,2.3L331.6,275.3z"/>
	<path fill="#3E5259" d="M333.1,170.1l-24.2,36.8c1.7,0.4,3.2,1.5,4.2,2.8l24.4-36.8C335.9,172.4,334.4,171.4,333.1,170.1z"/>
	<path fill="#D7AD45" d="M333.5,159.1c1.1-1.3,2.8-2.1,4.5-2.5l-4.5-7.7c-1.1,1.3-2.8,2.1-4.5,2.6L333.5,159.1z"/>
	<path fill="#389377" d="M293.8,366l25.7,21.5c0.6-1.7,1.9-3,3.4-4L297,362C296.3,363.7,295.3,365,293.8,366z"/>
	<path fill="#D7AD45" d="M270.6,321.2c-1.1,1.3-2.8,2.1-4.5,2.5l16.8,29.3c1.1-1.3,2.8-2.1,4.5-2.5L270.6,321.2z"/>
	<path fill="#389377" d="M264.5,307.2c0.4,0,0.9,0,1.1,0.2l-5.7-32.7c-1.3,0.6-2.5,1.1-4,1.1c-0.4,0-0.9,0-1.1-0.2l5.7,32.7
		C261.7,307.6,263,307.2,264.5,307.2z"/>
	<path fill="#D7AD45" d="M259.8,259.6l6-33.1c-0.4,0-0.9,0.2-1.1,0.2c-1.5,0-2.8-0.4-3.8-1.1l-6,33.1c0.4,0,0.9-0.2,1.1-0.2
		C257.2,258.5,258.5,258.9,259.8,259.6z"/>
	<path fill="#F07646" d="M288,183.3c-1.7-0.2-3.4-1.1-4.7-2.3l-17,28.9c1.7,0.4,3.2,1.3,4.5,2.6L288,183.3z"/>
	<path fill="#3E5259" d="M297.2,172.4h0.2l25.5-21.9c-1.5-0.8-2.8-2.3-3.4-3.8l-25.3,21.5C295.7,169.3,296.8,170.7,297.2,172.4z"/>
	<path fill="#3E5259" d="M272.8,269.6c-0.2-0.9-0.4-1.7-0.4-2.5c0-0.9,0.2-1.7,0.4-2.5h-8.9c0.2,0.9,0.4,1.7,0.4,2.5
		c0,0.9-0.2,1.7-0.4,2.5H272.8z"/>
	<path fill="#389377" d="M289.1,267c0,0.9-0.2,1.7-0.4,2.5H325c-0.2-0.9-0.4-1.7-0.4-2.5c0-0.9,0.2-1.7,0.4-2.5h-36.3
		C288.9,265.3,289.1,266.2,289.1,267z"/>
	<path fill="#9B6C73" d="M376.7,264.5H341c0.2,0.9,0.4,1.7,0.4,2.6c0,0.8-0.2,1.7-0.4,2.5h34.2C375.6,267.9,376.2,266.2,376.7,264.5
		z"/>
	<path fill="#389377" d="M297.6,175c0,1.1-0.2,1.9-0.4,2.8l35.5-8.5c-0.9-1.3-1.3-2.8-1.3-4.5c0-0.2,0-0.4,0-0.6l-34,8.3h-0.2
		C297.4,173.3,297.6,174.1,297.6,175z"/>
	<path fill="#71A596" d="M347.5,161.6c0.4,1.1,0.6,2.1,0.6,3.2c0,0.6,0,1.3-0.2,1.9l41.2-3.2c-0.4-1.1-0.6-2.1-0.6-3.2
		c0-0.6,0-1.3,0.2-1.9L347.5,161.6z"/>
	<path fill="#9B6C73" d="M367.1,131.4c-1.1-1.3-1.7-3-1.7-4.9L333.9,138c1.1,1.3,1.7,3,1.7,4.9L367.1,131.4z"/>
	<path fill="#71A596" d="M348,367.7c0.2,0.6,0.2,1.3,0.2,1.9c0,1.1-0.2,2.3-0.6,3.2l41,3.6c-0.2-0.6-0.2-1.3-0.2-1.9
		c0-1.1,0.2-2.3,0.6-3.2L348,367.7z"/>
	<path fill="#9B6C73" d="M297.2,355.8c0.4,0.8,0.6,1.9,0.6,3c0,0.9-0.2,1.7-0.4,2.3l34,8.9c0-0.2,0-0.2,0-0.4c0-1.7,0.4-3.2,1.3-4.5
		L297.2,355.8z"/>
	<path fill="#3E5259" d="M334,395.6l31.9,11.5c0-1.9,0.6-3.4,1.7-4.9l-31.9-11.5C335.6,392.6,335,394.3,334,395.6z"/>
	<path fill="#3E5259" d="M513.3,275.5L513.3,275.5l9.6,35.1c1.1-1.5,2.8-2.5,4.5-3L518,274C516.7,274.9,515.2,275.5,513.3,275.5z"/>
	<path fill="#3E5259" d="M504,350.5l-11-25.1c-1.3,1.1-3,1.9-4.7,2.1l11.1,25.1C500.5,351.4,502,350.7,504,350.5z"/>
	<path fill="#3E5259" d="M422.6,219c1.1,1.9,1.7,4,2.3,6.2l4.2-7.2c-1.7-0.4-3.2-1.3-4.5-2.6L422.6,219z"/>
	<path fill="#3E5259" d="M527.5,226.4c-1.9-0.4-3.4-1.5-4.5-3l-9.8,35.3h0.2c1.7,0,3.4,0.6,4.7,1.5L527.5,226.4z"/>
	<path fill="#71A596" d="M462.3,258.7c1.7,0.2,3.4,1.1,4.7,2.3l19.1-37.6c-1.7-0.2-3.4-1.1-4.7-2.3L462.3,258.7z"/>
	<path fill="#389377" d="M488.2,206.7c1.7,0.2,3.4,0.9,4.7,2.1l11.3-25.5c-1.9,0-3.4-0.9-4.9-1.9L488.2,206.7z"/>
	<path fill="#9B6C73" d="M432.3,201.6c1.7,0.2,3.4,1.1,4.7,2.3l15.9-30.8c-1.7-0.2-3.4-1.1-4.7-2.3L432.3,201.6z"/>
	<path fill="#389377" d="M452.1,361.6l-19.5-34.2c-0.8,0.9-2.1,2.1-4.2,2.8l19.5,34.2C448.9,362.8,450.4,362,452.1,361.6z"/>
	<path fill="#D7AD45" d="M447,160.5c0.8-1.5,2.1-2.8,3.8-3.4l-24.4-24.9c-1.3,1.3-3,2.1-4.9,2.3L447,160.5z"/>
	<path fill="#9B6C73" d="M446.8,373.7l-26.1,25.5c1.9,0.2,3.6,1.1,4.9,2.3l24.9-24.2C448.9,376.4,447.6,375.2,446.8,373.7z"/>
	<path fill="#71A596" d="M403.2,369.2l24-38.9c-0.6,0-1.3,0.2-1.9,0.2h-4.2L399,366.5C400.7,366.9,402.2,367.7,403.2,369.2z"/>
	<path fill="#D7AD45" d="M434.2,318.6l25.1-43.4c-1.7-0.4-3.2-1.3-4.5-2.5l-22.7,39.1c1.1,3.6,1.9,6,1.9,6.4
		C434.2,318.2,434.2,318.4,434.2,318.6z"/>
	<path fill="#F07646" d="M432.3,218.1l22.7,42.9c1.3-1.3,2.8-2.1,4.5-2.3l-22.7-42.9C435.7,216.9,434,217.7,432.3,218.1z"/>
	<path fill="#D7AD45" d="M399.4,168.2l24.9,36.5c1.1-1.3,2.5-2.3,4.2-3l-24.9-36.3C402.6,166.7,401.1,167.8,399.4,168.2z"/>
	<path fill="#F07646" d="M403.7,155l14.2-20.8c-1.7-0.4-3.2-1.5-4.2-3L399.4,152C401.1,152.7,402.6,153.7,403.7,155z"/>
	<path fill="#3E5259" d="M460.6,375.2c-1.1,1.3-2.8,2.3-4.5,2.8l4.2,7.2c1.1-1.3,2.8-2.3,4.5-2.8L460.6,375.2z"/>
	<path fill="#F07646" d="M460.8,364.3l24.4-37.2c-1.7-0.4-3.2-1.5-4.2-2.8l-24.4,37.2C458.3,362,459.8,363.1,460.8,364.3z"/>
	<path fill="#389377" d="M488.7,310.8c1.7,0.2,3.4,1.1,4.7,2.3l18.7-37.6c-1.7-0.2-3.4-1.1-4.7-2.3L488.7,310.8z"/>
	<path fill="#D7AD45" d="M512,258.7l-18.7-37.6c-1.3,1.3-2.8,1.9-4.7,2.3l18.7,37.6C508.6,259.8,510.3,258.9,512,258.7z"/>
	<path fill="#71A596" d="M486.1,310.8L467,273.2c-1.3,1.3-2.8,2.1-4.7,2.3l19.1,37.6C482.7,311.8,484.2,311,486.1,310.8z"/>
	<path fill="#F07646" d="M456.6,172.9l24.4,37c1.1-1.3,2.5-2.3,4.2-2.8l-24.4-37C459.8,171.4,458.3,172.4,456.6,172.9z"/>
	<path fill="#3E5259" d="M460.6,159.1l4.5-7.6c-1.7-0.4-3.2-1.3-4.5-2.6l-4.5,7.7C457.8,156.9,459.3,157.8,460.6,159.1z"/>
	<path fill="#389377" d="M474.6,387.3l25.7-21.5c-1.5-0.8-2.6-2.3-3.4-4l-25.7,21.5C472.7,384.3,474,385.8,474.6,387.3z"/>
	<path fill="#71A596" d="M527.8,323.7c-1.7-0.4-3.2-1.3-4.5-2.5l-16.8,29.3c1.7,0.4,3.2,1.3,4.5,2.5L527.8,323.7z"/>
	<path fill="#F07646" d="M534.3,274.7l-5.7,32.7c0.4,0,0.6-0.2,1.1-0.2c1.5,0,2.8,0.4,4,1.1l5.7-32.9c-0.4,0-0.8,0.2-1.5,0.2
		C536.7,275.5,535.4,275.1,534.3,274.7z"/>
	<path fill="#3E5259" d="M538,258.5c0.4,0,0.8,0,1.5,0.2l-6-33.1c-1.3,0.6-2.5,1.1-3.8,1.1c-0.4,0-0.8,0-1.1-0.2l5.7,32.9
		C535.4,258.9,536.7,258.5,538,258.5z"/>
	<path fill="#71A596" d="M523.3,212.6c1.1-1.3,2.8-2.3,4.5-2.6l-17-28.9c-1.3,1.3-2.8,1.9-4.7,2.3L523.3,212.6z"/>
	<path fill="#9B6C73" d="M496.7,172.4c0.4-1.7,1.5-3.2,3-4l-25.1-21.7c-0.6,1.7-1.9,3-3.4,3.8L496.7,172.4L496.7,172.4z"/>
	<path fill="#9B6C73" d="M469.5,267c0,0.9-0.2,1.7-0.4,2.5h36.3c-0.2-0.9-0.4-1.7-0.4-2.5c0-0.9,0.2-1.7,0.4-2.5h-36.3
		C469.3,265.3,469.5,266.2,469.5,267z"/>
	<path fill="#3E5259" d="M452.5,267c0-0.9,0.2-1.7,0.4-2.5h-35.7c0.4,1.7,1.1,3.4,1.7,5.1h34.2C452.7,268.7,452.5,267.9,452.5,267z"
		/>
	<path fill="#F07646" d="M529.5,267c0-0.9,0.2-1.7,0.4-2.5h-8.5c0.2,0.9,0.4,1.7,0.4,2.5c0,0.9-0.2,1.7-0.4,2.5h8.7
		C529.7,268.7,529.5,267.9,529.5,267z"/>
	<path fill="#3E5259" d="M462.7,164.2c0,0.2,0,0.4,0,0.6c0,1.7-0.4,3.2-1.3,4.5l35.5,8.5c-0.2-0.9-0.4-1.7-0.4-2.8
		c0-0.8,0.2-1.7,0.4-2.5h-0.2L462.7,164.2z"/>
	<path fill="#3E5259" d="M446.2,166.7c-0.2-0.6-0.2-1.3-0.2-1.9c0-1.1,0.2-2.1,0.6-3.2l-41.2-3.2c0.2,0.6,0.2,1.3,0.2,1.9
		c0,1.1-0.2,2.1-0.6,3.2L446.2,166.7z"/>
	<path fill="#71A596" d="M460.2,138l-31.5-11.5c0,1.9-0.6,3.4-1.7,4.9l31.4,11.5C458.5,141.2,459.1,139.5,460.2,138z"/>
	<path fill="#3E5259" d="M381.8,128.9h30.6c-0.2-0.9-0.4-1.7-0.4-2.6c0-0.8,0.2-1.7,0.4-2.5h-30.6c0.2,0.8,0.4,1.7,0.4,2.5
		C382.2,127.2,382,128,381.8,128.9z"/>
	<path fill="#D7AD45" d="M446.6,372.8c-0.4-1.1-0.6-2.1-0.6-3.2c0-0.6,0-1.3,0.2-1.9l-41.4,3.6c0.4,1.1,0.6,2.1,0.6,3.2
		c0,0.6,0,1.3-0.2,1.9L446.6,372.8z"/>
	<path fill="#71A596" d="M496.9,362c-0.4-1.1-0.6-1.9-0.6-3.2c0-0.6,0.2-1.5,0.2-2.1l-35.3,8.5c0.9,1.3,1.3,2.8,1.3,4.5
		c0,0.2,0,0.4,0,0.6L496.9,362z"/>
	<path fill="#D7AD45" d="M426.4,402.4c1.1,1.3,1.7,3,1.7,4.9l31.9-11.5c-1.1-1.3-1.7-3-1.7-4.9L426.4,402.4z"/>
	<path fill="#F07646" d="M382.2,404.9c0.2,0.9,0.4,1.7,0.4,2.6c0,0.8-0.2,1.7-0.4,2.5h29.8c-0.2-0.9-0.4-1.7-0.4-2.5
		c0-0.9,0.2-1.7,0.4-2.6H382.2z"/>
	<path fill="#3E5259" d="M495.7,213c0.2,0.6,0.2,1.3,0.2,1.9c0,1.1-0.2,2.1-0.6,3.2l26.1,1.9c-0.2-0.6-0.2-1.3-0.2-1.9
		c0-1.1,0.2-2.1,0.6-3.2L495.7,213z"/>
	<path fill="#3E5259" d="M479.1,216.9c-0.2-0.6-0.2-1.3-0.2-1.9c0-1.3,0.2-2.3,0.6-3.4l-40.6-3.8c0.2,0.6,0.2,1.3,0.2,1.9
		c0,1.3-0.2,2.3-0.6,3.4L479.1,216.9z"/>
	<path fill="#389377" d="M411.7,207.3c2.3,1.5,4.5,3.2,6.4,5.1h4.9c-0.2-0.9-0.4-1.7-0.4-2.6c0-0.9,0.2-1.7,0.4-2.6H411.7z"/>
	<path fill="#389377" d="M376,212.4c1.9-1.9,4-3.8,6.4-5.1h-11.3c0.2,0.9,0.4,1.7,0.4,2.5c0,0.9-0.2,1.7-0.4,2.6L376,212.4z"/>
	<path fill="#71A596" d="M272.8,218.1c0,0.9-0.2,1.5-0.4,2.3l26.4-1.9c-0.4-1.1-0.9-2.1-0.9-3.4c0-0.6,0-1.1,0.2-1.7l-25.7,1.9
		C272.8,216.2,272.8,217.1,272.8,218.1z"/>
	<path fill="#D7AD45" d="M314.4,212.2c0.4,0.9,0.6,1.9,0.6,3c0,0.9-0.2,1.5-0.4,2.1l40.8-3.8c-0.6-1.1-0.8-2.3-0.8-3.6
		c0-0.4,0-1.1,0.2-1.5L314.4,212.2z"/>
	<path fill="#9B6C73" d="M478.9,319.1c0-0.6,0-1.3,0.2-1.9l-44.6,3.8c0,1.9-0.4,3.8-1.3,5.3l46.3-4
		C479.3,321.2,478.9,320.1,478.9,319.1z"/>
	<path fill="#F07646" d="M360.5,326.3c-1.1-1.5-1.5-3.4-1.3-5.3l-44.4-4.2c0.2,0.6,0.4,1.5,0.4,2.1c0,1.1-0.2,2.1-0.6,3L360.5,326.3
		z"/>
	<path fill="#3E5259" d="M495.2,315.9c0.4,1.1,0.6,2.1,0.6,3.2c0,0.6,0,1.3-0.2,1.9l26.3-1.9c-0.4-1.1-0.8-2.1-0.8-3.4
		c0-0.6,0-1.1,0.2-1.7L495.2,315.9z"/>
	<path fill="#3E5259" d="M298.2,320.8c-0.2-0.6-0.2-1.1-0.2-1.7c0-1.3,0.2-2.3,0.9-3.4l-26.4-1.9c0.2,0.6,0.2,1.3,0.2,1.9
		c0,1.1-0.2,2.1-0.6,3.2L298.2,320.8z"/>
	<circle fill="#D7AD45" cx="363.1" cy="209.8" r="4.2"/>
	<circle fill="#71A596" cx="264.5" cy="218.1" r="4.2"/>
	<circle fill="#9B6C73" cx="306.5" cy="215.2" r="4.2"/>
	<circle fill="#D7AD45" cx="327.1" cy="143.3" r="4.2"/>
	<circle fill="#3E5259" cx="339.7" cy="164.8" r="4.2"/>
	<circle fill="#9B6C73" cx="420.2" cy="126.3" r="4.2"/>
	<circle fill="#389377" cx="466.8" cy="143.3" r="4.2"/>
	<circle fill="#3E5259" cx="454.2" cy="164.8" r="4.2"/>
	<circle fill="#D7AD45" cx="487.4" cy="215.2" r="4.2"/>
	<circle fill="#389377" cx="513.3" cy="267" r="4.2"/>
	<circle fill="#9B6C73" cx="538" cy="267" r="4.2"/>
	<circle fill="#9B6C73" cx="255.8" cy="267" r="4.2"/>
	<circle fill="#F07646" cx="487.4" cy="319.1" r="4.2"/>
	<circle fill="#D7AD45" cx="454.2" cy="369.6" r="4.2"/>
	<circle fill="#3E5259" cx="396.8" cy="374.5" r="4.2"/>
	<circle fill="#3E5259" cx="461" cy="267" r="4.2"/>
	<circle fill="#389377" cx="430.8" cy="209.8" r="4.2"/>
	<circle fill="#F07646" cx="397.1" cy="160.3" r="4.2"/>
	<circle fill="#D7AD45" cx="504.8" cy="175" r="4.2"/>
	<circle fill="#71A596" cx="529.7" cy="218.1" r="4.2"/>
	<circle fill="#3E5259" cx="419.8" cy="407.5" r="4.2"/>
	<circle fill="#389377" cx="466.8" cy="390.5" r="4.2"/>
	<circle fill="#9B6C73" cx="504.8" cy="358.8" r="4.2"/>
	<circle fill="#71A596" cx="529.7" cy="315.7" r="4.2"/>
	<circle fill="#D7AD45" cx="280.6" cy="267" r="4.2"/>
	<circle fill="#389377" cx="306.5" cy="319.1" r="4.2"/>
	<circle fill="#3E5259" cx="339.7" cy="369.6" r="4.2"/>
	<circle fill="#F07646" cx="332.9" cy="267" r="4.2"/>
	<circle fill="#389377" cx="289.1" cy="175" r="4.2"/>
	<circle fill="#D7AD45" cx="374.1" cy="407.5" r="4.2"/>
	<circle fill="#71A596" cx="327.1" cy="390.5" r="4.2"/>
	<circle fill="#F07646" cx="289.3" cy="358.8" r="4.2"/>
	<circle fill="#3E5259" cx="264.5" cy="315.7" r="4.2"/>
	<circle fill="#71A596" cx="373.7" cy="126.3" r="4.2"/>
	<path fill="#3E5259" d="M368.6,325.2h56.7c1.9,0,3-0.8,3.4-1.5c0.9-1.1,0.9-2.5,0.4-4.2c-0.6-2.3-20.2-64.2-21-66.7
		c-0.2-0.4,0-1.1,0.4-1.3c7.2-4,11.7-11.9,11.7-20c0-12.8-10.4-23.2-23.2-23.2h-0.2c-12.8,0-23.2,10.4-23.2,23.2
		c0,8.3,4.5,15.9,11.7,20c0.4,0.2,0.6,0.9,0.4,1.3c-0.2,0.6-20.4,64.4-21.2,66.7c-0.6,1.7-0.4,3.2,0.2,4.2
		C365.4,324.4,366.5,325.2,368.6,325.2z"/>
</g>
<g>
	<g>
		<path fill="#F07646" d="M351.6,539.6c4,0,7,2.8,7,6.8c0,4.2-3,6.8-7,6.8s-7-2.8-7-6.8C344.6,542.4,347.5,539.6,351.6,539.6z
			 M351.6,550.7c2.5,0,4-1.7,4-4.2c0-2.6-1.7-4.2-4-4.2s-4,1.7-4,4.2C347.5,549,349.2,550.7,351.6,550.7z"/>
		<path fill="#F07646" d="M360.7,539.9h8.7v2.8h-6v2.8h5.5v2.8h-5.5v5.1h-3v-13.4H360.7z"/>
	</g>
	<g>
		<g>
			<path fill="#3E5259" d="M386,523.9h9.8v35.5h18.1v9.1h-28v-44.6H386z"/>
			<path fill="#3E5259" d="M437.4,564.7L437.4,564.7c-2.1,3.2-6,4.7-9.8,4.7c-5.7,0-10.8-3.2-10.8-9.3c0-10.6,12.8-10.8,20.6-10.8
				c0-3.4-2.8-5.5-6-5.5c-3,0-5.7,1.5-7.6,3.6l-5.1-5.1c3.4-3.2,8.5-4.9,13.4-4.9c11,0,14,5.5,14,15.7v15.5h-8.7L437.4,564.7
				L437.4,564.7z M435.1,555.2c-3,0-9.3,0.2-9.3,4.5c0,2.3,2.3,3.4,4.5,3.4c3.6,0,7.2-1.9,7.2-5.7v-1.9h-2.3V555.2z"/>
			<path fill="#3E5259" d="M450.6,537.9h9.1v4.2h0.2c1.3-2.3,4.2-4.9,8.9-4.9c9.6,0,11.3,6.4,11.3,14.5v16.8h-9.4v-14.9
				c0-3.6,0-8.1-4.9-8.1c-4.9,0-5.7,3.8-5.7,7.9v15.3h-9.3v-30.8H450.6z"/>
			<path fill="#3E5259" d="M516.3,566c0,11.5-6,17.6-17.6,17.6c-5.3,0-10.8-0.9-15.3-4.5l5.3-7.9c3,2.5,6.2,4,10,4
				c5.7,0,8.5-3.2,8.5-7.4v-3h-0.2c-2.1,3-5.7,4-8.7,4c-9.1,0-15.1-6.6-15.1-15.7c0-8.1,5.3-15.9,14-15.9c5.3,0,8.9,2.5,10.4,4.7
				h0.2v-4h8.7v28H516.3z M500.1,560.5c4.2,0,7.4-3.6,7.4-7.4c0-4-3.2-7.4-7.4-7.4s-7.4,3.6-7.4,7.4
				C492.5,557.1,495.9,560.5,500.1,560.5z"/>
			<path fill="#3E5259" d="M549.4,568.5h-8.9v-4.2h-0.2c-1.3,2.3-4.2,4.9-8.9,4.9c-9.6,0-11.3-6.4-11.3-14.5v-16.8h9.3v14.9
				c0,3.6,0,8.1,4.9,8.1s5.7-3.8,5.7-7.9v-15.3h9.4V568.5L549.4,568.5z"/>
			<path fill="#3E5259" d="M572.8,564.7L572.8,564.7c-2.1,3.2-6,4.7-9.8,4.7c-5.7,0-10.8-3.2-10.8-9.3c0-10.6,12.8-10.8,20.6-10.8
				c0-3.4-2.8-5.5-6-5.5c-3,0-5.7,1.5-7.7,3.6l-5.1-5.1c3.4-3.2,8.5-4.9,13.4-4.9c11,0,14,5.5,14,15.7v15.5h-8.7V564.7L572.8,564.7z
				 M570.5,555.2c-3,0-9.3,0.2-9.3,4.5c0,2.3,2.3,3.4,4.5,3.4c3.6,0,7.2-1.9,7.2-5.7v-1.9h-2.3V555.2z"/>
			<path fill="#3E5259" d="M617,566c0,11.5-6,17.6-17.6,17.6c-5.3,0-10.8-0.9-15.3-4.5l5.3-7.9c3,2.5,6.2,4,10,4
				c5.7,0,8.5-3.2,8.5-7.4v-3h-0.2c-2.1,3-5.7,4-8.7,4c-9.1,0-15.1-6.6-15.1-15.7c0-8.1,5.3-15.9,14-15.9c5.3,0,8.9,2.5,10.4,4.7
				h0.2v-4h8.7v28H617z M600.6,560.5c4.2,0,7.4-3.6,7.4-7.4c0-4-3.2-7.4-7.4-7.4s-7.4,3.6-7.4,7.4
				C593.2,557.1,596.4,560.5,600.6,560.5z"/>
			<path fill="#3E5259" d="M649.7,563.2c-3,3.8-8.1,6-13,6c-9.3,0-17-6.4-17-15.9c0-9.8,7.4-15.9,17-15.9c8.7,0,14.2,6.4,14.2,15.9
				v3h-21.9c0.8,3.6,3.4,6,7,6c3,0,5.1-1.5,6.8-3.6L649.7,563.2z M641.7,549.8c0-3.2-2.3-5.7-5.7-5.7c-4.2,0-6.4,2.8-6.6,5.7H641.7z
				"/>
		</g>
		<g>
			<path fill="#3E5259" d="M168.4,534.3c-1.7-2.1-4.9-3-7.2-3c-2.8,0-6.8,1.3-6.8,4.7c0,8.3,20.8,3,20.8,18.7
				c0,10-8.1,14.9-17.4,14.9c-5.7,0-10.8-1.7-15.3-5.7l7-7.9c2.1,2.8,5.3,4.2,8.7,4.2c3.2,0,6.8-1.5,6.8-4.7
				c0-8.3-21.2-3.8-21.2-18.9c0-9.6,8.3-14.7,17.2-14.7c5.1,0,10,1.3,13.8,4.7L168.4,534.3z"/>
			<path fill="#3E5259" d="M199.9,547.5c-1.1-1.3-2.8-2.3-4.7-2.3c-4.9,0-7.6,3.2-7.6,7.9s3,7.9,7.6,7.9c2.1,0,3.6-1.1,4.7-2.3
				l6.4,6.6c-3,3-7.4,4.2-11.1,4.2c-9.6,0-17.2-6.4-17.2-16.4s7.6-16.4,17.2-16.4c3.6,0,8.1,1.1,11.1,4.2L199.9,547.5z"/>
			<path fill="#3E5259" d="M219.2,524.6v17h0.2c0.9-2.3,4-4.9,8.7-4.9c9.8,0,11.5,6.4,11.5,14.7v17.2H230v-15.3c0-3.6,0-8.1-4.9-8.1
				s-5.7,3.8-5.7,7.9v15.5h-9.6v-44H219.2z"/>
			<path fill="#3E5259" d="M261.3,536.7c9.6,0,17.2,6.4,17.2,16.4s-7.6,16.4-17.2,16.4s-17.2-6.4-17.2-16.4S251.5,536.7,261.3,536.7
				z M261.3,560.9c4.9,0,7.6-3.2,7.6-7.9s-3-7.9-7.6-7.9c-4.9,0-7.6,3.2-7.6,7.9S256.4,560.9,261.3,560.9z"/>
			<path fill="#3E5259" d="M298.9,536.7c9.6,0,17.2,6.4,17.2,16.4s-7.6,16.4-17.2,16.4s-17.2-6.4-17.2-16.4S289.3,536.7,298.9,536.7
				z M298.9,560.9c4.9,0,7.6-3.2,7.6-7.9s-3-7.9-7.6-7.9c-4.9,0-7.6,3.2-7.6,7.9S294,560.9,298.9,560.9z"/>
			<path fill="#3E5259" d="M319.3,524.6h9.6v44h-9.6V524.6z"/>
		</g>
		<rect x="341.2" y="524.6" fill="#3E5259" width="31.7" height="8.7"/>
		<rect x="341.2" y="559.8" fill="#3E5259" width="31.7" height="8.7"/>
	</g>
</g>
<g>
	<g>
		<path fill="#3E5259" d="M241.9,470.4c-1.9-2.3-4.9-3.8-8.5-3.8c-7.6,0-13.2,6.2-13.2,14.7s5.5,14.7,12.8,14.7c4,0,7.2-1.7,9.3-4.9
			l8.3,6.2c-3.8,5.3-10.2,7.9-16.4,7.9c-14.2,0-24.4-9.3-24.4-23.8s10.4-23.8,24.4-23.8c5.1,0,11.5,1.7,15.3,6.6L241.9,470.4z"/>
		<path fill="#3E5259" d="M309.9,500.1L309.9,500.1c-2.3,3.4-6.2,4.7-10,4.7c-5.7,0-11-3.4-11-9.6c0-10.8,13.2-11,21-11
			c0-3.4-2.8-5.5-6.2-5.5c-3.2,0-5.7,1.5-7.9,3.8l-5.1-5.3c3.6-3.4,8.7-5.1,13.8-5.1c11.3,0,14.2,5.7,14.2,16.2v15.9h-8.9
			L309.9,500.1L309.9,500.1z M307.6,490.3c-3,0-9.6,0.2-9.6,4.5c0,2.3,2.3,3.4,4.5,3.4c3.8,0,7.2-1.9,7.2-5.7v-2.1L307.6,490.3
			L307.6,490.3z"/>
		<path fill="#3E5259" d="M344.8,480.6h-8.5V491c0,3.4,0.4,5.7,4.5,5.7c1.1,0,3-0.2,3.8-0.9v8.1c-2.1,0.8-4.5,1.1-6.8,1.1
			c-6.4,0-11.3-2.5-11.3-9.3v-14.9h-6.2v-7.7h6.2V464h9.6v9.1h8.5v7.4H344.8z"/>
		<path fill="#3E5259" d="M370.9,480.6h-8.5V491c0,3.4,0.4,5.7,4.5,5.7c1.1,0,3-0.2,3.8-0.9v8.1c-2.1,0.8-4.5,1.1-6.8,1.1
			c-6.4,0-11.3-2.5-11.3-9.3v-14.9h-6.2v-7.7h6.2V464h9.6v9.1h8.5v7.4H370.9z"/>
		<path fill="#3E5259" d="M394.1,500.1L394.1,500.1c-2.3,3.4-6.2,4.7-10,4.7c-5.7,0-11-3.4-11-9.6c0-10.8,13.2-11,21-11
			c0-3.4-2.8-5.5-6.2-5.5c-3.2,0-5.7,1.5-7.9,3.8l-5.1-5.3c3.6-3.4,8.7-5.1,13.8-5.1c11.3,0,14.2,5.7,14.2,16.2v15.9h-8.9
			L394.1,500.1L394.1,500.1z M391.8,490.3c-3,0-9.6,0.2-9.6,4.5c0,2.3,2.3,3.4,4.5,3.4c3.8,0,7.2-1.9,7.2-5.7v-2.1L391.8,490.3
			L391.8,490.3z"/>
		<path fill="#3E5259" d="M407.7,472.9h9.1v4.2h0.2c1.3-2.3,4.5-5.1,9.1-5.1c9.8,0,11.5,6.4,11.5,14.7v17.2h-9.6v-15.3
			c0-3.6,0-8.3-5.1-8.3c-5.1,0-5.7,3.8-5.7,7.9v15.5h-9.6L407.7,472.9L407.7,472.9z"/>
		<path fill="#3E5259" d="M458.3,472.1c9.6,0,17.4,6.4,17.4,16.4s-7.7,16.4-17.4,16.4c-9.6,0-17.4-6.4-17.4-16.4
			S448.5,472.1,458.3,472.1z M458.3,496.3c4.9,0,7.6-3.2,7.6-7.9s-3-7.9-7.6-7.9c-4.9,0-7.7,3.2-7.7,7.9S453.4,496.3,458.3,496.3z"
			/>
		<path fill="#3E5259" d="M496.1,472.1c9.6,0,17.4,6.4,17.4,16.4s-7.7,16.4-17.4,16.4c-9.8,0-17.4-6.4-17.4-16.4
			C478.7,478.4,486.5,472.1,496.1,472.1z M496.1,496.3c4.9,0,7.6-3.2,7.6-7.9s-3-7.9-7.6-7.9c-4.7,0-7.7,3.2-7.7,7.9
			S491.2,496.3,496.1,496.3z"/>
		<path fill="#3E5259" d="M550.5,501.4c0,11.7-6,18.1-18.1,18.1c-5.5,0-11.3-1.1-15.7-4.5l5.3-7.9c3,2.5,6.2,4,10.2,4
			c5.7,0,8.5-3.2,8.5-7.6v-3h-0.2c-2.1,3-6,4-8.7,4c-9.1,0-15.3-6.6-15.3-16.2c0-8.3,5.3-16.1,14.2-16.1c5.5,0,9.1,2.5,10.6,4.9h0.2
			v-4h8.9V501.4z M533.9,495.9c4.5,0,7.7-3.6,7.7-7.6s-3.4-7.7-7.7-7.7c-4.5,0-7.7,3.6-7.7,7.7C526.3,492.3,529.5,495.9,533.9,495.9
			z"/>
		<path fill="#3E5259" d="M575.1,500.1L575.1,500.1c-2.3,3.4-6.2,4.7-10,4.7c-5.7,0-11-3.4-11-9.6c0-10.8,13.2-11,21-11
			c0-3.4-2.8-5.5-6.2-5.5c-3.2,0-5.7,1.5-7.9,3.8l-5.1-5.3c3.6-3.4,8.7-5.1,13.8-5.1c11.3,0,14.2,5.7,14.2,16.2v15.9h-8.9V500.1
			L575.1,500.1z M572.8,490.3c-3,0-9.6,0.2-9.6,4.5c0,2.3,2.3,3.4,4.5,3.4c3.8,0,7.2-1.9,7.2-5.7v-2.1L572.8,490.3L572.8,490.3z"/>
	</g>
	<path fill="#3E5259" d="M264.5,460.6v17h0.2c0.9-2.3,4-4.9,8.7-4.9c9.8,0,11.5,6.4,11.5,14.7v17.2h-9.6v-15.3c0-3.6,0-8.1-4.9-8.1
		c-4.9,0-5.7,3.8-5.7,7.9v15.5h-9.6v-44H264.5z"/>
</g>
</svg>
