<?xml version="1.0" encoding="utf-8"?>
<!-- Generator: Adobe Illustrator 18.1.1, SVG Export Plug-In . SVG Version: 6.00 Build 0)  -->
<svg version="1.1" id="Layer_1" xmlns="http://www.w3.org/2000/svg" xmlns:xlink="http://www.w3.org/1999/xlink" x="0px" y="0px"
	 viewBox="577.6 356.6 839.6 184" enable-background="new 577.6 356.6 839.6 184" xml:space="preserve">
<g>
	<path fill="#223B40" d="M1360.4,496.9c2.5,4.3,7.5,11.4,13.1,13.2c-4.8,1.9-16.3,5.4-28.4,0.5c-0.2,0.5-0.5,0.9-0.9,1.3
		c4.8,2,9.6,2.8,13.9,2.8c10.4,0,18.2-4.1,18.3-4.2c0.3-0.2,0.5-0.5,0.4-0.9c-0.1-0.3-0.4-0.6-0.7-0.6c-5.7,0-11.1-7.5-14-12.3
		c-0.4,0.1-0.8,0.2-1.2,0.2C1360.7,497,1360.6,496.9,1360.4,496.9z"/>
	<path fill="#223B40" d="M1246,450.2l-5.3,17.8c0.5,0.2,1,0.4,1.4,0.8l5.4-18.1C1247,450.6,1246.5,450.4,1246,450.2z"/>
	<path fill="#223B40" d="M1258.8,476.2l-5.9,13.5c0.5,0.1,1,0.3,1.4,0.6l5.9-13.5C1259.7,476.7,1259.2,476.5,1258.8,476.2z"/>
	<path fill="#223B40" d="M1290.6,421.6l2.9,4.9c0.1-0.7,0.3-1.4,0.6-2l-2.2-3.7C1291.6,421.1,1291.1,421.4,1290.6,421.6z"/>
	<path fill="#223B40" d="M1247.5,443.3l-5.5-18.2c-0.4,0.3-0.9,0.6-1.4,0.7l5.4,17.9C1246.5,443.5,1247,443.3,1247.5,443.3z"/>
	<path fill="#223B40" d="M1273.3,443.4l-10.1-19.8c-0.4,0.3-0.9,0.6-1.4,0.7l10.1,19.8C1272.3,443.8,1272.8,443.5,1273.3,443.4z"/>
	<path fill="#223B40" d="M1260.2,417.1l-6-13.5c-0.4,0.3-0.9,0.5-1.5,0.5l6.1,13.6C1259.2,417.4,1259.6,417.2,1260.2,417.1z"/>
	<path fill="#223B40" d="M1288.5,414.5l-8.5-16.4c-0.4,0.3-0.9,0.6-1.4,0.7l8.5,16.4C1287.5,414.9,1288,414.7,1288.5,414.5z"/>
	<path fill="#223B40" d="M1289.4,476.8l-10.5,18.4c0.5,0.2,0.9,0.5,1.3,0.8l10.5-18.5C1290.2,477.4,1289.7,477.1,1289.4,476.8z"/>
	<path fill="#223B40" d="M1280.6,393.2l12.6-13.9c-0.5-0.2-0.9-0.5-1.2-0.9l-12.5,13.8C1279.9,392.4,1280.3,392.8,1280.6,393.2z"/>
	<path fill="#223B40" d="M1279.6,501.8l12.8,13.5c0.4-0.4,0.8-0.7,1.3-0.9l-12.9-13.6C1280.4,501.2,1280,501.6,1279.6,501.8z"/>
	<path fill="#223B40" d="M1303.8,503.8l-7.4,10.6c0.5,0.2,0.9,0.5,1.3,0.9l7.4-10.6C1304.7,504.5,1304.2,504.2,1303.8,503.8z"/>
	<path fill="#223B40" d="M1292.2,477.9c-0.3,0-0.7,0-0.9-0.1l12.8,20.7c0.4-0.3,0.8-0.6,1.3-0.8l-12.3-19.8H1292.2z"/>
	<path fill="#223B40" d="M1289.3,471.4l-12.6-21.8c-0.4,0.3-0.8,0.6-1.3,0.8l13.3,23c0-0.2,0.1-0.3,0.1-0.5
		C1288.8,472.8,1289,472.3,1289.3,471.4z"/>
	<path fill="#223B40" d="M1288.5,421.6c-0.5-0.1-1-0.4-1.4-0.7l-11.9,22.5c0.5,0.1,1,0.4,1.4,0.7L1288.5,421.6z"/>
	<path fill="#223B40" d="M1292.1,415.5l13-19.1c-0.5-0.2-0.9-0.5-1.3-0.9l-13,19.1C1291.3,414.9,1291.8,415.2,1292.1,415.5z"/>
	<path fill="#223B40" d="M1305.1,389.6l-7.7-11.2c-0.4,0.4-0.8,0.7-1.3,0.9l7.7,11.2C1304.2,390.2,1304.6,389.8,1305.1,389.6z"/>
	<path fill="#223B40" d="M1275.1,501.4l-2.6,4.4c0.5,0.2,0.9,0.4,1.3,0.8l2.6-4.4C1276,502,1275.5,501.7,1275.1,501.4z"/>
	<path fill="#223B40" d="M1276.3,495.3l-12.8-19.5c-0.4,0.4-0.8,0.7-1.3,0.8l12.8,19.5C1275.4,495.7,1275.8,495.5,1276.3,495.3z"/>
	<path fill="#223B40" d="M1250.1,449.8c-0.4,0.3-0.9,0.6-1.4,0.7l9.9,19.8c0.4-0.3,0.9-0.6,1.4-0.7L1250.1,449.8z"/>
	<path fill="#223B40" d="M1260,424.3c-0.5-0.1-1-0.4-1.4-0.7l-9.9,19.8c0.5,0.1,1,0.4,1.4,0.7L1260,424.3z"/>
	<path fill="#223B40" d="M1271.9,449.8l-10.1,19.8c0.5,0.1,1,0.4,1.4,0.7l10.1-19.8C1272.8,450.4,1272.3,450.1,1271.9,449.8z"/>
	<path fill="#223B40" d="M1263.5,418.1l12.8-19.4c-0.5-0.2-0.9-0.5-1.3-0.8l-12.8,19.4C1262.7,417.5,1263.2,417.8,1263.5,418.1z"/>
	<path fill="#223B40" d="M1276.5,391.8l-2.7-4.6c-0.4,0.3-0.8,0.6-1.3,0.8l2.7,4.6C1275.5,392.3,1276,392,1276.5,391.8z"/>
	<path fill="#223B40" d="M1269.1,506.3l-13.7-11.4c-0.2,0.5-0.6,0.9-1,1.2l13.7,11.4C1268.3,507.1,1268.7,506.7,1269.1,506.3z"/>
	<path fill="#223B40" d="M1242.1,474.2c-0.4,0.3-0.8,0.6-1.3,0.8l8.9,15.6c0.4-0.3,0.8-0.6,1.3-0.8L1242.1,474.2z"/>
	<path fill="#223B40" d="M1239.8,467.8l-3.1-17.4c-0.4,0.2-0.9,0.3-1.4,0.3c0,0-0.1,0-0.1,0l3.1,17.4c0.4-0.2,0.9-0.3,1.4-0.3
		C1239.7,467.8,1239.7,467.8,1239.8,467.8z"/>
	<path fill="#223B40" d="M1236.7,443.5l3.1-17.6c0,0-0.1,0-0.1,0c-0.5,0-1-0.1-1.4-0.3l-3.1,17.6c0,0,0.1,0,0.1,0
		C1235.8,443.3,1236.2,443.4,1236.7,443.5z"/>
	<path fill="#223B40" d="M1251.3,404c-0.5-0.1-1-0.4-1.4-0.7l-9.1,15.4c0.5,0.2,1,0.4,1.3,0.8L1251.3,404z"/>
	<path fill="#223B40" d="M1255.6,399.1l13.6-11.7c-0.4-0.3-0.8-0.7-1-1.2l-13.4,11.6C1255.1,398.2,1255.4,398.6,1255.6,399.1z"/>
	<path fill="#223B40" d="M1244.1,446.9c0-0.3,0-0.5,0.1-0.8h-5.3c0.1,0.2,0.1,0.5,0.1,0.8c0,0.3,0,0.5-0.1,0.8h5.3
		C1244.2,447.5,1244.1,447.2,1244.1,446.9z"/>
	<path fill="#223B40" d="M1270.5,446.9c0-0.3,0-0.5,0.1-0.8h-19.2c0.1,0.2,0.1,0.5,0.1,0.8c0,0.3,0,0.5-0.1,0.8h19.2
		C1270.6,447.5,1270.5,447.2,1270.5,446.9z"/>
	<path fill="#223B40" d="M1277.9,446.9c0,0.3,0,0.5-0.1,0.8h19c0.2-0.5,0.3-1,0.5-1.5h-19.5C1277.9,446.4,1277.9,446.7,1277.9,446.9
		z"/>
	<path fill="#223B40" d="M1274,395.4l-18.2,4.4c0,0.2,0.1,0.4,0.1,0.6c0,0.3-0.1,0.7-0.1,1l18.6-4.5
		C1274.1,396.5,1274,396,1274,395.4z"/>
	<path fill="#223B40" d="M1281.3,395.8l21.7-1.7c-0.1-0.3-0.2-0.7-0.2-1.1c0-0.2,0-0.3,0-0.5l-21.7,1.7c0.1,0.3,0.2,0.7,0.2,1.1
		C1281.3,395.5,1281.3,395.7,1281.3,395.8z"/>
	<path fill="#223B40" d="M1291.7,377.9c-0.3-0.4-0.5-0.9-0.5-1.5l-16.7,6.1c0.3,0.4,0.5,0.9,0.5,1.5L1291.7,377.9z"/>
	<path fill="#223B40" d="M1303,500.1l-21.7-1.9c0,0.2,0,0.3,0,0.5c0,0.4-0.1,0.7-0.2,1.1l21.7,1.9c0-0.1,0-0.3,0-0.4
		C1302.8,500.8,1302.8,500.5,1303,500.1z"/>
	<path fill="#223B40" d="M1274.4,497l-18.7-4.9c0.1,0.3,0.2,0.7,0.2,1.1c0,0.2,0,0.4-0.1,0.5l18.2,4.7
		C1274,498,1274.1,497.5,1274.4,497z"/>
	<path fill="#223B40" d="M1275,509.7c-0.1,0.5-0.2,1-0.5,1.5l16.9,6.1c0.1-0.5,0.2-1,0.5-1.5L1275,509.7z"/>
	<circle fill="#223B40" cx="1271.3" cy="384.5" r="2.1"/>
	<circle fill="#223B40" cx="1277.6" cy="395.3" r="2.1"/>
	<path fill="#223B40" d="M1365.5,450.6l5.4,18.1c0.4-0.4,0.9-0.6,1.4-0.8l-5.3-17.8C1366.6,450.4,1366.1,450.6,1365.5,450.6z"/>
	<path fill="#223B40" d="M1352.9,476.8l5.9,13.5c0.4-0.3,0.9-0.5,1.4-0.6l-5.9-13.5C1353.9,476.5,1353.4,476.7,1352.9,476.8z"/>
	<path fill="#223B40" d="M1321.1,420.8l-2.2,3.6c0.2,0.7,0.5,1.3,0.6,2l2.9-4.9C1321.9,421.4,1321.5,421.1,1321.1,420.8z"/>
	<path fill="#223B40" d="M1367,443.7l5.4-17.9c-0.5-0.1-1-0.4-1.4-0.7l-5.5,18.2C1366.1,443.3,1366.6,443.5,1367,443.7z"/>
	<path fill="#223B40" d="M1341.1,444.1l10.1-19.8c-0.5-0.1-1-0.4-1.4-0.7l-10.1,19.8C1340.3,443.5,1340.7,443.8,1341.1,444.1z"/>
	<path fill="#223B40" d="M1354.3,417.7l6.1-13.6c-0.5-0.1-1-0.3-1.5-0.5l-6,13.5C1353.4,417.2,1353.9,417.4,1354.3,417.7z"/>
	<path fill="#223B40" d="M1326,415.2l8.5-16.4c-0.5-0.1-1-0.4-1.4-0.7l-8.5,16.4C1325.1,414.7,1325.6,414.9,1326,415.2z"/>
	<path fill="#223B40" d="M1322.3,477.6l10.5,18.5c0.4-0.4,0.8-0.6,1.3-0.8l-10.5-18.5C1323.3,477.1,1322.9,477.4,1322.3,477.6z"/>
	<path fill="#223B40" d="M1333.6,392.2l-12.5-13.8c-0.3,0.4-0.8,0.7-1.2,0.9l12.6,13.9C1332.7,392.8,1333.1,392.4,1333.6,392.2z"/>
	<path fill="#223B40" d="M1332.4,500.8l-12.9,13.6c0.5,0.2,0.9,0.5,1.3,0.9l12.8-13.5C1333.1,501.6,1332.7,501.2,1332.4,500.8z"/>
	<path fill="#223B40" d="M1307.9,504.6l7.5,10.7c0.4-0.4,0.8-0.7,1.3-0.9l-7.5-10.7C1308.8,504.1,1308.4,504.4,1307.9,504.6z"/>
	<path fill="#223B40" d="M1320.8,477.9h-0.8l-12.3,19.9c0.5,0.2,0.9,0.4,1.3,0.8l12.9-20.8C1321.6,477.8,1321.2,477.9,1320.8,477.9z
		"/>
	<path fill="#223B40" d="M1323.7,471.5c0.3,0.8,0.4,1.4,0.5,1.5c0.1,0.2,0.1,0.4,0.1,0.5l13.4-23.2c-0.5-0.2-1-0.4-1.3-0.8
		L1323.7,471.5z"/>
	<path fill="#223B40" d="M1336.5,444.1c0.4-0.3,0.9-0.6,1.4-0.7l-11.9-22.5c-0.4,0.3-0.9,0.6-1.4,0.7L1336.5,444.1z"/>
	<path fill="#223B40" d="M1322.2,414.7l-13-19.1c-0.4,0.4-0.8,0.7-1.3,0.9l13,19.1C1321.3,415.2,1321.7,414.9,1322.2,414.7z"/>
	<path fill="#223B40" d="M1309.2,390.5l7.7-11.2c-0.5-0.2-0.9-0.5-1.3-0.9l-7.7,11.2C1308.4,389.8,1308.9,390.1,1309.2,390.5z"/>
	<path fill="#223B40" d="M1336.6,502.2l2.6,4.4c0.4-0.4,0.8-0.6,1.3-0.8l-2.6-4.4C1337.6,501.7,1337.1,502,1336.6,502.2z"/>
	<path fill="#223B40" d="M1349.5,475.8l-12.8,19.5c0.5,0.2,0.9,0.5,1.3,0.8l12.8-19.5C1350.3,476.4,1349.9,476.1,1349.5,475.8z"/>
	<path fill="#223B40" d="M1353.1,469.6c0.5,0.1,1,0.4,1.4,0.7l9.9-19.8c-0.5-0.1-1-0.4-1.4-0.7L1353.1,469.6z"/>
	<path fill="#223B40" d="M1363,444.1c0.4-0.3,0.9-0.6,1.4-0.7l-9.9-19.8c-0.4,0.3-0.9,0.6-1.4,0.7L1363,444.1z"/>
	<path fill="#223B40" d="M1339.8,450.5l10.1,19.8c0.4-0.3,0.9-0.6,1.4-0.7l-10.1-19.8C1340.7,450.1,1340.3,450.4,1339.8,450.5z"/>
	<path fill="#223B40" d="M1336.8,398.8l12.8,19.4c0.4-0.4,0.8-0.7,1.3-0.8l-12.8-19.4C1337.7,398.3,1337.3,398.6,1336.8,398.8z"/>
	<path fill="#223B40" d="M1337.9,392.6l2.7-4.6c-0.5-0.2-1-0.4-1.3-0.8l-2.7,4.6C1337.1,392,1337.5,392.3,1337.9,392.6z"/>
	<path fill="#223B40" d="M1345,507.5l13.7-11.4c-0.4-0.3-0.7-0.7-1-1.2l-13.7,11.4C1344.4,506.7,1344.7,507.1,1345,507.5z"/>
	<path fill="#223B40" d="M1362,489.8c0.5,0.2,1,0.4,1.3,0.8l8.9-15.6c-0.5-0.2-1-0.4-1.3-0.8L1362,489.8z"/>
	<path fill="#223B40" d="M1377.7,450.6c-0.4,0-0.9-0.1-1.3-0.2l-3.1,17.4c0,0,0.1,0,0.1,0c0.5,0,1,0.1,1.4,0.3l3.1-17.4
		C1377.8,450.6,1377.8,450.6,1377.7,450.6z"/>
	<path fill="#223B40" d="M1373.3,426l3.1,17.5c0.4-0.1,0.8-0.2,1.3-0.2c0.1,0,0.2,0,0.3,0l-3.1-17.6c-0.4,0.2-0.9,0.3-1.4,0.3
		C1373.4,426,1373.4,426,1373.3,426z"/>
	<path fill="#223B40" d="M1370.9,419.6c0.4-0.3,0.8-0.6,1.3-0.8l-9.1-15.4c-0.4,0.3-0.9,0.6-1.4,0.7L1370.9,419.6z"/>
	<path fill="#223B40" d="M1343.9,387.4l13.6,11.7c0.2-0.5,0.5-0.9,0.9-1.3l-13.4-11.6C1344.7,386.7,1344.4,387.1,1343.9,387.4z"/>
	<path fill="#223B40" d="M1342.5,446.9c0,0.3,0,0.5-0.1,0.8h19.2c-0.1-0.2-0.1-0.5-0.1-0.8c0-0.3,0-0.5,0.1-0.8h-19.2
		C1342.5,446.4,1342.5,446.7,1342.5,446.9z"/>
	<path fill="#223B40" d="M1316.2,447.7h19c-0.1-0.2-0.1-0.5-0.1-0.8c0-0.3,0-0.5,0.1-0.8h-19.5
		C1315.9,446.7,1316.1,447.2,1316.2,447.7z"/>
	<path fill="#223B40" d="M1368.9,446.9c0,0.3,0,0.5-0.1,0.8h5.2c-0.1-0.2-0.1-0.5-0.1-0.8c0-0.3,0-0.5,0.1-0.8h-5.2
		C1368.9,446.4,1368.9,446.7,1368.9,446.9z"/>
	<path fill="#223B40" d="M1338.7,396.9l18.6,4.5c-0.1-0.3-0.1-0.6-0.1-1c0-0.2,0-0.4,0.1-0.6l-18.2-4.4
		C1339.1,396,1339,396.5,1338.7,396.9z"/>
	<path fill="#223B40" d="M1310.1,394.1l21.7,1.7c0-0.2,0-0.3,0-0.5c0-0.4,0.1-0.7,0.2-1.1l-21.7-1.7c0,0.2,0,0.3,0,0.5
		C1310.2,393.4,1310.2,393.8,1310.1,394.1z"/>
	<path fill="#223B40" d="M1338.1,384c0.1-0.5,0.3-1,0.5-1.5l-16.7-6.1c-0.1,0.5-0.3,1-0.5,1.5L1338.1,384z"/>
	<path fill="#223B40" d="M1298.4,376.7h16.3c-0.1-0.2-0.1-0.5-0.1-0.8s0-0.5,0.1-0.8h-16.3c0.1,0.2,0.1,0.5,0.1,0.8
		S1298.4,376.4,1298.4,376.7z"/>
	<path fill="#223B40" d="M1331.8,498.2l-21.8,1.9c0.1,0.3,0.2,0.7,0.2,1.1c0,0.2,0,0.3,0,0.5l21.8-1.9c-0.1-0.3-0.2-0.7-0.2-1.1
		C1331.7,498.5,1331.8,498.4,1331.8,498.2z"/>
	<path fill="#223B40" d="M1339.1,498.6l18.2-4.4c-0.1-0.3-0.1-0.6-0.1-0.9c0-0.2,0-0.4,0.1-0.6l-18.5,4.5
		C1339,497.6,1339.1,498.1,1339.1,498.6z"/>
	<path fill="#223B40" d="M1321.2,515.9c0.3,0.4,0.4,0.9,0.5,1.5l16.9-6.1c-0.3-0.4-0.4-0.9-0.5-1.5L1321.2,515.9z"/>
	<path fill="#223B40" d="M1314.4,517h-15.8c0.1,0.2,0.1,0.5,0.1,0.8c0,0.3,0,0.5-0.1,0.8h15.8c-0.1-0.2-0.1-0.5-0.1-0.8
		C1314.4,517.5,1314.4,517.3,1314.4,517z"/>
	<path fill="#223B40" d="M1355.8,420.7c0,0.4-0.1,0.7-0.2,1l14.1,1c0-0.2-0.1-0.3-0.1-0.5c0-0.4,0.1-0.7,0.2-1l-14.1-1
		C1355.8,420.4,1355.8,420.5,1355.8,420.7z"/>
	<path fill="#223B40" d="M1327.3,418.1c0,0.4-0.1,0.7-0.2,1.1l21.4,2c0-0.1,0-0.3,0-0.4c0-0.4,0.1-0.7,0.2-1.1l-21.4-2
		C1327.3,417.8,1327.3,417.9,1327.3,418.1z"/>
	<path fill="#223B40" d="M1320,418.8c-0.1-0.2-0.1-0.5-0.1-0.8c0-0.3,0-0.5,0.1-0.8h-7.4c0.8,0.4,1.6,0.9,2.4,1.5L1320,418.8z"/>
	<path fill="#223B40" d="M1293.1,418.8l5,0c0.7-0.6,1.5-1.1,2.4-1.5h-7.4c0.1,0.2,0.1,0.5,0.1,0.8
		C1293.1,418.3,1293.1,418.6,1293.1,418.8z"/>
	<path fill="#223B40" d="M1257.2,420.7c0-0.1,0-0.2,0-0.4l-14.1,1c0.1,0.3,0.1,0.6,0.1,0.9c0,0.2,0,0.4-0.1,0.7l14.2-1
		C1257.3,421.5,1257.2,421.1,1257.2,420.7z"/>
	<path fill="#223B40" d="M1285.8,418.1c0-0.1,0-0.2,0-0.2l-21.3,2c0.1,0.3,0.1,0.6,0.1,0.9c0,0.2,0,0.4-0.1,0.6l21.5-2
		C1285.9,419,1285.8,418.5,1285.8,418.1z"/>
	<path fill="#223B40" d="M1323.8,476.4l24.8-2.2c-0.1-0.3-0.2-0.7-0.2-1.1c0-0.2,0-0.3,0-0.5l-24.1,2.1
		C1324.3,475.4,1324.1,476,1323.8,476.4z"/>
	<path fill="#223B40" d="M1288.5,474.8l-24-2.3c0,0.2,0.1,0.4,0.1,0.6c0,0.3-0.1,0.6-0.1,0.9l24.6,2.3
		C1288.8,475.9,1288.6,475.4,1288.5,474.8z"/>
	<path fill="#223B40" d="M1355.8,473.2c0,0.2,0,0.3-0.1,0.5l14.2-1c-0.1-0.4-0.2-0.8-0.2-1.2c0-0.1,0-0.2,0-0.3l-14.1,1
		C1355.8,472.5,1355.8,472.8,1355.8,473.2z"/>
	<path fill="#223B40" d="M1257.2,473.2c0-0.4,0.1-0.8,0.2-1.2l-14.2-1c0,0.2,0.1,0.3,0.1,0.5c0,0.4-0.1,0.7-0.2,1l14.1,1
		C1257.2,473.4,1257.2,473.3,1257.2,473.2z"/>
	<circle fill="#223B40" cx="1318.3" cy="375.9" r="2.1"/>
	<circle fill="#223B40" cx="1341.7" cy="384.5" r="2.1"/>
	<circle fill="#223B40" cx="1335.4" cy="395.3" r="2.1"/>
	<circle fill="#223B40" cx="1352.1" cy="420.7" r="2.1"/>
	<circle fill="#223B40" cx="1365.3" cy="446.9" r="2.1"/>
	<circle fill="#223B40" cx="1377.7" cy="446.9" r="2.1"/>
	<circle fill="#223B40" cx="1235.3" cy="446.9" r="2.1"/>
	<circle fill="#223B40" cx="1352.1" cy="473.2" r="2.1"/>
	<circle fill="#223B40" cx="1335.4" cy="498.7" r="2.1"/>
	<circle fill="#223B40" cx="1306.5" cy="501.2" r="2.1"/>
	<circle fill="#223B40" cx="1338.8" cy="446.9" r="2.1"/>
	<circle fill="#223B40" cx="1323.6" cy="418.1" r="2.1"/>
	<circle fill="#223B40" cx="1306.5" cy="393" r="2.1"/>
	<circle fill="#223B40" cx="1360.9" cy="400.5" r="2.1"/>
	<circle fill="#223B40" cx="1373.4" cy="422.3" r="2.1"/>
	<circle fill="#223B40" cx="1318.1" cy="517.8" r="2.1"/>
	<circle fill="#223B40" cx="1341.7" cy="509.2" r="2.1"/>
	<circle fill="#223B40" cx="1360.9" cy="493.3" r="2.1"/>
	<circle fill="#223B40" cx="1373.4" cy="471.5" r="2.1"/>
	<circle fill="#223B40" cx="1247.8" cy="446.9" r="2.1"/>
	<circle fill="#223B40" cx="1260.9" cy="473.2" r="2.1"/>
	<circle fill="#223B40" cx="1277.6" cy="498.7" r="2.1"/>
	<circle fill="#223B40" cx="1274.2" cy="446.9" r="2.1"/>
	<circle fill="#223B40" cx="1289.4" cy="418.1" r="2.1"/>
	<circle fill="#223B40" cx="1252.1" cy="400.5" r="2.1"/>
	<circle fill="#223B40" cx="1239.6" cy="422.3" r="2.1"/>
	<circle fill="#223B40" cx="1295" cy="517.8" r="2.1"/>
	<circle fill="#223B40" cx="1271.3" cy="509.2" r="2.1"/>
	<circle fill="#223B40" cx="1252.1" cy="493.3" r="2.1"/>
	<circle fill="#223B40" cx="1239.6" cy="471.5" r="2.1"/>
	<circle fill="#223B40" cx="1294.8" cy="375.9" r="2.1"/>
	<circle fill="#223B40" cx="1260.9" cy="420.7" r="2.1"/>
	<path fill="#223B40" d="M1292.2,475.8c1.4,0,27.2,0,28.7,0s1.8-1,1.4-2.2c-0.4-1.2-10.6-33.7-10.6-33.7c-0.1-0.5,0.1-1,0.5-1.2
		c3.5-2,5.6-5.7,5.6-9.7c0-6.2-5-11.2-11.2-11.2c0,0,0,0-0.1,0c0,0,0,0-0.1,0c-6.2,0-11.2,5-11.2,11.2c0,4,2.1,7.7,5.6,9.7
		c0.4,0.2,0.6,0.7,0.5,1.2c0,0-10.3,32.5-10.7,33.7S1290.7,475.8,1292.2,475.8z"/>
</g>
<g>
	<path fill="#223B40" d="M1068.4,452.5l-3.2,18.1c0.1,0,0.3,0,0.4,0c0.6,0,1.2,0.2,1.7,0.4l3.2-18.1c-0.1,0-0.3,0-0.4,0
		C1069.5,452.9,1068.9,452.7,1068.4,452.5z"/>
	<path fill="#223B40" d="M1005.2,521.1h-18.3c0.1,0.3,0.1,0.6,0.1,0.9c0,0.4-0.1,0.8-0.2,1.2h18.5c-0.1-0.4-0.2-0.8-0.2-1.2
		C1005.1,521.6,1005.1,521.3,1005.2,521.1z"/>
	<path fill="#223B40" d="M938,405.5c-0.7-0.2-1.3-0.6-1.8-1.2l-9.1,15.7c0.7,0.2,1.3,0.5,1.8,1L938,405.5z"/>
	<path fill="#223B40" d="M923.4,445.7l3.2-18.2c-0.1,0-0.3,0-0.4,0c-0.6,0-1.2-0.2-1.7-0.4l-3.2,18.2c0.1,0,0.3,0,0.4,0
		C922.4,445.3,922.9,445.5,923.4,445.7z"/>
	<path fill="#223B40" d="M1049.5,498.1l-14.3,12c0.6,0.4,1,1,1.3,1.7l14.5-12.2C1050.4,499.2,1049.9,498.7,1049.5,498.1z"/>
	<path fill="#223B40" d="M1012,519.8c0.4,0.6,0.6,1.3,0.7,2l17.4-6.3c-0.4-0.5-0.7-1.2-0.8-2L1012,519.8z"/>
	<path fill="#223B40" d="M942.2,399.7c0.1,0.1,0.1,0.2,0.2,0.3c0.3,0.5,0.5,1.1,0.5,1.7l19.1-3.9c-0.3-0.5-0.5-1.1-0.5-1.8
		c0-0.1,0-0.2,0-0.3l-18.6,3.8l13.7-11.5c-0.6-0.4-1.1-1-1.4-1.6l-14.5,12.2C941.4,398.8,941.9,399.2,942.2,399.7z"/>
	<path fill="#223B40" d="M962.6,513.6c-0.1,0.7-0.4,1.4-0.8,2l17.6,6.4c0-0.7,0.2-1.4,0.6-2L962.6,513.6z"/>
	<path fill="#223B40" d="M1029.2,384.6c0-0.7,0.3-1.4,0.7-2l-17.5-6.4c0,0.7-0.3,1.4-0.7,2L1029.2,384.6z"/>
	<path fill="#223B40" d="M1053.9,492.6c0.7,0.2,1.3,0.6,1.7,1.2l9.1-15.8c-0.7-0.2-1.4-0.5-1.9-1L1053.9,492.6z"/>
	<path fill="#223B40" d="M926.6,470.5l-3.2-18c-0.5,0.3-1.1,0.4-1.7,0.4c-0.1,0-0.3,0-0.4,0l3.2,18.1c0.5-0.3,1.1-0.4,1.7-0.4
		C926.4,470.5,926.5,470.5,926.6,470.5z"/>
	<path fill="#223B40" d="M986.6,377.1h18.4c-0.1-0.3-0.2-0.7-0.2-1.1c0-0.4,0.1-0.7,0.2-1.1h-18.4c0.1,0.3,0.2,0.7,0.2,1.1
		C986.8,376.4,986.7,376.8,986.6,377.1z"/>
	<path fill="#223B40" d="M979.9,378.3c-0.4-0.6-0.7-1.2-0.7-2l-17.3,6.3c0.4,0.6,0.7,1.2,0.7,2L979.9,378.3z"/>
	<path fill="#223B40" d="M1062.9,421.1c0.5-0.5,1.1-0.9,1.8-1.1l-9.3-16.1c-0.5,0.5-1.1,0.9-1.9,1L1062.9,421.1z"/>
	<path fill="#223B40" d="M1035.1,388l14.1,11.8c0.3-0.7,0.7-1.2,1.3-1.7l-14.1-11.8C1036.2,387.1,1035.7,387.6,1035.1,388z"/>
	<path fill="#223B40" d="M928.9,477c-0.5,0.5-1.1,0.9-1.9,1l9.3,16.1c0.5-0.5,1.1-0.9,1.8-1.1L928.9,477z"/>
	<path fill="#223B40" d="M956.6,510.1l-14.1-11.8c-0.3,0.7-0.8,1.2-1.4,1.6l14.1,11.9C955.6,511.1,956.1,510.5,956.6,510.1z"/>
	<path fill="#223B40" d="M1065.2,427.5l3.2,18.2c0.5-0.3,1.1-0.4,1.7-0.4c0.1,0,0.3,0,0.4,0l-3.2-18.2c-0.5,0.2-1.1,0.4-1.7,0.4
		C1065.5,427.5,1065.3,427.5,1065.2,427.5z"/>
	<path fill="#223B40" d="M958,449.1c0-0.4,0.1-0.7,0.2-1.1h-19.9c0.1,0.3,0.2,0.7,0.2,1.1s-0.1,0.7-0.2,1.1h19.9
		C958.1,449.8,958,449.5,958,449.1z"/>
	<path fill="#223B40" d="M930.9,449.1c0-0.4,0.1-0.7,0.2-1.1h-5.6c0.1,0.3,0.2,0.7,0.2,1.1s-0.1,0.7-0.2,1.1h5.6
		C930.9,449.8,930.9,449.5,930.9,449.1z"/>
	<path fill="#223B40" d="M1033.9,449.1c0,0.4-0.1,0.7-0.2,1.1h19.8c-0.1-0.3-0.2-0.7-0.2-1.1s0.1-0.7,0.2-1.1h-19.8
		C1033.8,448.4,1033.9,448.7,1033.9,449.1z"/>
	<path fill="#223B40" d="M1026.4,448h-21.5l0.7,2.1h20.9c-0.1-0.3-0.2-0.7-0.2-1.1S1026.3,448.4,1026.4,448z"/>
	<path fill="#223B40" d="M1061,449.1c0,0.4-0.1,0.7-0.2,1.1h5.7c-0.1-0.3-0.2-0.7-0.2-1.1c0-0.4,0.1-0.7,0.2-1h-5.7
		C1060.9,448.4,1061,448.7,1061,449.1z"/>
	<path fill="#223B40" d="M987.4,448h-21.9c0.1,0.3,0.2,0.7,0.2,1.1s-0.1,0.7-0.2,1.1h21.2L987.4,448z"/>
	<path fill="#223B40" d="M977.9,415.7l-9.8-17c-0.5,0.5-1.1,0.9-1.8,1l9.7,16.9C976.5,416.1,977.1,415.8,977.9,415.7z"/>
	<path fill="#223B40" d="M1013.7,482l10.2,17.6c0.5-0.5,1.1-0.9,1.8-1l-10.1-17.6C1015.1,481.5,1014.4,481.9,1013.7,482z"/>
	<path fill="#223B40" d="M1027.5,506l2.7,4.6c0.5-0.5,1.1-0.9,1.8-1.1l-2.7-4.6C1028.9,505.4,1028.2,505.8,1027.5,506z"/>
	<path fill="#223B40" d="M983.8,425.9l-2.4-4.1c-0.5,0.6-1.1,1-1.8,1.2l3.1,5.4C983,427.5,983.3,426.7,983.8,425.9z"/>
	<path fill="#223B40" d="M964.4,392.4l-2.8-4.9c-0.5,0.5-1.1,0.9-1.8,1.1l2.8,4.9C963.1,392.9,963.7,392.6,964.4,392.4z"/>
	<path fill="#223B40" d="M1029.2,393.6l2.9-5c-0.7-0.2-1.3-0.5-1.8-1.1l-2.8,4.9C1028.1,392.6,1028.7,393,1029.2,393.6z"/>
	<path fill="#223B40" d="M1008.3,425.5c0.4,0.8,0.8,1.6,1.1,2.4l2.8-4.8c-0.7-0.2-1.3-0.5-1.8-1L1008.3,425.5z"/>
	<path fill="#223B40" d="M976.1,481.2l-10,17.4c0.7,0.2,1.4,0.5,1.9,1l10.1-17.6C977.4,482,976.7,481.7,976.1,481.2z"/>
	<path fill="#223B40" d="M1015.8,416.8l9.8-17c-0.7-0.1-1.4-0.5-1.9-1l-9.8,16.9C1014.7,415.9,1015.3,416.3,1015.8,416.8z"/>
	<path fill="#223B40" d="M962.5,504.8l-2.7,4.7c0.7,0.2,1.3,0.6,1.8,1.1l2.7-4.6C963.6,505.8,963,505.4,962.5,504.8z"/>
	<path fill="#223B40" d="M1030.8,452.8l10.3,20.2c0.6-0.4,1.3-0.7,2-0.7l-10.4-20.5C1032.2,452.3,1031.6,452.7,1030.8,452.8z"/>
	<path fill="#223B40" d="M1010.5,481.1l-13.1,20.2c0.7,0.2,1.3,0.7,1.7,1.2l13.3-20.5C1011.7,481.9,1011,481.5,1010.5,481.1z"/>
	<path fill="#223B40" d="M1057.3,452.9l5.3,19.2c0.5-0.6,1.1-1.1,1.8-1.3l-5.1-18.5C1058.7,452.6,1058,452.9,1057.3,452.9z"/>
	<path fill="#223B40" d="M934.7,452.9c-0.7,0-1.4-0.2-2-0.6l-5.2,18.4c0.7,0.3,1.4,0.7,1.8,1.4L934.7,452.9
		C934.7,452.9,934.7,452.9,934.7,452.9z"/>
	<path fill="#223B40" d="M1044.5,472.5c0.7,0.2,1.3,0.6,1.8,1.2l10.4-20.8c-0.7-0.1-1.4-0.4-1.9-0.9L1044.5,472.5z"/>
	<path fill="#223B40" d="M937.2,451.9c-0.5,0.5-1.2,0.8-1.9,1l10.2,20.5c0.5-0.5,1.2-0.8,1.9-1L937.2,451.9z"/>
	<path fill="#223B40" d="M979.6,481.9l13.8,20.5c0.5-0.5,1.1-0.9,1.8-1.1l-13.8-20.5C980.9,481.3,980.3,481.7,979.6,481.9z"/>
	<path fill="#223B40" d="M1014.3,474.7c0.7,0.2,1.3,0.7,1.7,1.3l13.2-23.2c-0.7-0.2-1.4-0.5-1.9-1L1014.3,474.7z"/>
	<path fill="#223B40" d="M959.3,451.9l-10.4,20.5c0.7,0.1,1.4,0.5,1.9,1l10.4-20.5C960.4,452.7,959.8,452.4,959.3,451.9z"/>
	<path fill="#223B40" d="M964.6,451.7c-0.5,0.5-1.1,0.9-1.8,1.1l13,22.9c0.5-0.5,1.1-0.9,1.8-1L964.6,451.7z"/>
	<path fill="#223B40" d="M1030.4,502.3c0,0.1,0,0.1,0,0.2l18.9-4.8c-0.2-0.5-0.3-1-0.3-1.6c0-0.2,0-0.4,0.1-0.6l-19.1,4.9
		C1030.2,501,1030.4,501.6,1030.4,502.3z"/>
	<path fill="#223B40" d="M1027.8,498.7c0.7,0.2,1.3,0.6,1.7,1.2l13.2-20.1c-0.7-0.1-1.4-0.5-1.9-1L1027.8,498.7z"/>
	<path fill="#223B40" d="M1044.4,479.7l6.1,13.4c0.6-0.4,1.2-0.7,2-0.8l-6.2-13.8C1045.7,479.1,1045.1,479.5,1044.4,479.7z"/>
	<path fill="#223B40" d="M961.5,502.3c0-0.7,0.2-1.3,0.5-1.9l-19.3-4.9c0.1,0.4,0.2,0.8,0.2,1.2c0,0.4-0.1,0.7-0.2,1l18.8,4.8
		C961.6,502.4,961.5,502.4,961.5,502.3z"/>
	<path fill="#223B40" d="M945.7,478.9l-6.4,14c0.7,0,1.4,0.3,2,0.7l6.3-13.8C946.9,479.7,946.2,479.4,945.7,478.9z"/>
	<path fill="#223B40" d="M964.1,498.7L951,478.5c-0.5,0.5-1.1,0.9-1.8,1.2l13.2,20.3C962.8,499.4,963.4,499,964.1,498.7z"/>
	<path fill="#223B40" d="M993.3,507.3l-8.1,11.4c0.6,0.4,1.1,1,1.4,1.6l8.4-11.9C994.4,508.3,993.7,507.9,993.3,507.3z"/>
	<path fill="#223B40" d="M967,505.7l13.3,13.9c0.4-0.6,1-1,1.7-1.2l-13.4-14.1C968.2,504.9,967.6,505.4,967,505.7z"/>
	<path fill="#223B40" d="M997.4,508.5l8,11.9c0.3-0.7,0.8-1.2,1.5-1.6l-7.8-11.5C998.7,507.8,998.1,508.2,997.4,508.5z"/>
	<path fill="#223B40" d="M992.6,503.5l-23.6-1.9c0,0.2,0.1,0.5,0.1,0.7c0,0.5-0.1,1-0.3,1.4l23.6,1.9c0-0.2-0.1-0.5-0.1-0.7
		C992.4,504.4,992.5,504,992.6,503.5z"/>
	<path fill="#223B40" d="M1022.9,501.6l-23.2,1.9c0.2,0.4,0.3,0.9,0.3,1.3c0,0.3,0,0.5-0.1,0.8l23.2-2c-0.2-0.4-0.3-0.9-0.3-1.4
		C1022.8,502.1,1022.8,501.8,1022.9,501.6z"/>
	<path fill="#223B40" d="M1023.4,504.3l-13.3,14.1c0.7,0.2,1.3,0.6,1.8,1.2l13.1-13.9C1024.3,505.4,1023.7,504.9,1023.4,504.3z"/>
	<path fill="#223B40" d="M968.6,394.1l13.5-14.4c-0.7-0.2-1.4-0.6-1.9-1.1l-13.2,14C967.7,393,968.2,393.5,968.6,394.1z"/>
	<path fill="#223B40" d="M1030.1,396c0,0.7-0.2,1.4-0.6,2l19.7,4.7c-0.2-0.4-0.3-0.9-0.3-1.4c0-0.3,0-0.5,0.1-0.8L1030.1,396
		C1030.1,396,1030.1,396,1030.1,396z"/>
	<path fill="#223B40" d="M1027.5,399.6l13.3,19.8c0.5-0.5,1.2-0.8,1.9-1l-13.4-19.9C1028.8,399,1028.2,399.4,1027.5,399.6z"/>
	<path fill="#223B40" d="M994.9,390.1l-8.5-12.5c-0.3,0.7-0.8,1.3-1.4,1.6l8.2,12C993.6,390.7,994.2,390.3,994.9,390.1z"/>
	<path fill="#223B40" d="M999,391.2l7.9-11.9c-0.6-0.4-1.2-0.9-1.5-1.5l-8.1,12.2C997.9,390.3,998.5,390.7,999,391.2z"/>
	<path fill="#223B40" d="M1024.6,392.7l-13.1-14.1c-0.5,0.5-1.1,0.9-1.8,1.2l13.4,14.4C1023.4,393.5,1024,393,1024.6,392.7z"/>
	<path fill="#223B40" d="M1046.2,419.6l6.5-14.5c-0.8,0-1.5-0.2-2-0.6l-6.3,14C1045.1,418.7,1045.7,419,1046.2,419.6z"/>
	<path fill="#223B40" d="M951,419.7l13.2-20c-0.7-0.2-1.3-0.6-1.8-1.2l-13.2,20C949.9,418.7,950.6,419.1,951,419.7z"/>
	<path fill="#223B40" d="M947.7,418.4l-6-13.7c-0.5,0.5-1.2,0.8-1.9,0.9l5.9,13.6C946.3,418.8,946.9,418.5,947.7,418.4z"/>
	<path fill="#223B40" d="M999.6,395l23.1,1.9c-0.1-0.3-0.1-0.6-0.1-0.9c0-0.4,0.1-0.8,0.2-1.2l-22.9-1.9c0,0.2,0.1,0.5,0.1,0.7
		C999.9,394.2,999.8,394.6,999.6,395z"/>
	<path fill="#223B40" d="M992.3,393.7c0-0.3,0-0.5,0.1-0.8l-23.5,1.8c0.2,0.4,0.3,0.9,0.3,1.3c0,0.3,0,0.5-0.1,0.8l23.5-1.8
		C992.4,394.6,992.3,394.1,992.3,393.7z"/>
	<path fill="#223B40" d="M1032.7,446.4l10.4-20.5c-0.7,0-1.4-0.3-2-0.7l-10.3,20.2C1031.6,445.5,1032.2,445.9,1032.7,446.4z"/>
	<path fill="#223B40" d="M1027.4,446.4c0.5-0.5,1.1-0.9,1.9-1l-13.4-23.5c-0.5,0.5-1.1,0.9-1.8,1.1L1027.4,446.4z"/>
	<path fill="#223B40" d="M961.2,445.4l-10.4-20.5c-0.5,0.5-1.2,0.8-1.9,1l10.4,20.5C959.8,445.8,960.4,445.5,961.2,445.4z"/>
	<path fill="#223B40" d="M1044.5,425.7l10.2,20.5c0.5-0.5,1.2-0.8,1.9-0.9l-10.4-20.8C1045.8,425.1,1045.2,425.5,1044.5,425.7z"/>
	<path fill="#223B40" d="M981.6,417.2l13.4-19.9c-0.7-0.2-1.3-0.6-1.8-1.2l-13.3,19.8C980.6,416.2,981.1,416.6,981.6,417.2z"/>
	<path fill="#223B40" d="M1012.1,415.8L999,396.1c-0.5,0.5-1.1,1-1.8,1.2l13,19.6C1010.7,416.3,1011.4,415.9,1012.1,415.8z"/>
	<path fill="#223B40" d="M934.7,445.3C934.7,445.3,934.7,445.3,934.7,445.3l-5.4-19.3c-0.5,0.6-1.1,1.1-1.8,1.3l5.2,18.6
		C933.3,445.5,933.9,445.3,934.7,445.3z"/>
	<path fill="#223B40" d="M947.5,425.9c-0.7-0.1-1.4-0.5-1.9-1l-10.2,20.5c0.7,0.1,1.4,0.5,1.9,1L947.5,425.9z"/>
	<path fill="#223B40" d="M1059.3,446l5.1-18.6c-0.7-0.2-1.4-0.7-1.8-1.3l-5.3,19.3C1058,445.3,1058.7,445.6,1059.3,446z"/>
	<path fill="#223B40" d="M977.9,423.1c-0.7-0.1-1.4-0.4-1.9-0.9l-13.2,23.2c0.7,0.2,1.3,0.5,1.8,1.1L977.9,423.1z"/>
	<path fill="#223B40" d="M1009.4,420.5c-0.1-0.3-0.2-0.7-0.2-1.1c0-0.4,0.1-0.7,0.2-1.1l-12.7,0c2.5,0.1,4.8,0.9,6.8,2.1
		L1009.4,420.5z"/>
	<path fill="#223B40" d="M1016.8,419.4c0,0.5-0.1,0.9-0.3,1.4l23.1,2c0-0.2-0.1-0.5-0.1-0.7c0-0.5,0.1-1,0.3-1.4l-23.1-2
		C1016.8,418.9,1016.8,419.2,1016.8,419.4z"/>
	<path fill="#223B40" d="M944.3,422.1c0-0.3,0-0.5,0.1-0.8l-14.6,1.1c0.2,0.4,0.3,0.9,0.3,1.3c0,0.3,0,0.5-0.1,0.8l14.6-1.1
		C944.4,423,944.3,422.6,944.3,422.1z"/>
	<path fill="#223B40" d="M974.7,419.4c0-0.2,0-0.5,0.1-0.7l-23.1,2c0.2,0.4,0.3,0.9,0.3,1.4c0,0.3,0,0.5-0.1,0.7l23.1-2
		C974.8,420.4,974.7,419.9,974.7,419.4z"/>
	<path fill="#223B40" d="M1047.2,422.1c0,0.5-0.1,0.9-0.2,1.3l14.9,1.1c-0.1-0.3-0.1-0.5-0.1-0.8c0-0.5,0.1-0.9,0.3-1.3l-15-1.1
		C1047.1,421.6,1047.2,421.8,1047.2,422.1z"/>
	<path fill="#223B40" d="M995.3,418.4l0.2,0c0,0,0,0,0.1,0l-13.4,0c0.1,0.3,0.2,0.7,0.2,1.1c0,0.4-0.1,0.7-0.2,1.1l6.7,0
		C990.7,419.3,992.9,418.5,995.3,418.4z"/>
	<path fill="#223B40" d="M974.7,478.3c0-0.3,0.1-0.6,0.1-0.9l-23-2c0,0.2,0.1,0.5,0.1,0.7c0,0.5-0.1,0.9-0.3,1.4l23.2,2
		C974.8,479.1,974.7,478.7,974.7,478.3z"/>
	<path fill="#223B40" d="M944.3,476.1c0-0.5,0.1-0.9,0.3-1.3l-14.6-1.1c0,0.2,0.1,0.4,0.1,0.6c0,0.5-0.1,1-0.3,1.5l14.7,1.1
		C944.4,476.6,944.3,476.3,944.3,476.1z"/>
	<path fill="#223B40" d="M1047.2,476.1c0,0.3,0,0.6-0.1,0.8l15-1.1c-0.2-0.5-0.3-1-0.3-1.5c0-0.2,0-0.4,0.1-0.6l-14.9,1.1
		C1047.1,475.2,1047.2,475.6,1047.2,476.1z"/>
	<path fill="#223B40" d="M1016.8,478.3c0,0.4-0.1,0.9-0.2,1.3l23.3-2.1c-0.2-0.4-0.3-0.9-0.3-1.4c0-0.2,0-0.5,0.1-0.7l-22.9,2
		C1016.8,477.7,1016.8,478,1016.8,478.3z"/>
	<path fill="#223B40" d="M996.2,420.4c-0.2,0-0.3,0-0.5,0h1C996.5,420.5,996.3,420.4,996.2,420.4z"/>
	<path fill="#223B40" d="M996.2,418.3c-0.2,0-0.4,0-0.6,0h1.2C996.5,418.3,996.4,418.3,996.2,418.3z"/>
	<path fill="#223B40" d="M1009.3,478.8c0-0.2-0.1-0.3-0.1-0.5c0-0.2,0-0.4,0.1-0.5l-27.1,0.1c0,0.2,0,0.3,0,0.5c0,0.2,0,0.4-0.1,0.6
		c-0.1,0.3-0.1,0.7-0.3,1c0,0,0,0.1-0.1,0.1l27.7-0.1c0,0,0,0,0,0C1009.4,479.5,1009.3,479.2,1009.3,478.8z"/>
	<g>
		<path fill="#223B40" d="M1005.6,450.2l-0.7-2.1l-1.2-4c0.6-0.4,1.2-0.8,1.7-1.3c3-2.7,4.8-6.5,4.8-10.5c0-1.5-0.3-3-0.7-4.4
			c-0.3-0.8-0.6-1.6-1.1-2.4c-1.2-2-2.8-3.8-4.8-5c-2-1.3-4.3-2-6.8-2.1h-1.2c0,0,0,0-0.1,0l-0.2,0c-2.4,0.1-4.6,0.9-6.5,2.1
			c-2.1,1.3-3.9,3.2-5,5.4c-0.4,0.8-0.7,1.6-1,2.5c-0.4,1.2-0.5,2.5-0.6,3.8l0,0.1c0,2.5,0.7,5,2,7.2c1.1,1.9,2.7,3.4,4.5,4.6
			l-1.3,4l-0.7,2.1l-7.9,24.4c0.4,0,0.7,0.1,1,0.2c0,0,0.1,0,0.1,0c0.3,0.1,0.6,0.3,0.9,0.5l1.5-4.5l6.7-20.6l0.7-2.1l1.6-4.9
			l-0.8-0.4c-1.8-1-3.4-2.5-4.5-4.3c-1.1-1.8-1.7-3.9-1.7-6.1c0-0.4,0-0.7,0.1-1.1c0.1-1.1,0.3-2.1,0.7-3c1.6-4.3,5.6-7.4,10.3-7.7
			l0.2,0c0,0,0,0,0,0c0.2,0,0.3,0,0.5,0c0.2,0,0.3,0,0.5,0c4.7,0.2,8.7,3.1,10.4,7.2c0.4,0.9,0.6,1.9,0.8,2.9
			c0.1,0.6,0.1,1.2,0.1,1.8c0,3.4-1.5,6.6-4,8.9c-0.7,0.6-1.4,1.1-2.1,1.5l-0.8,0.4l1.5,4.9l0.7,2.1l6.6,21.1l1.2,3.8
			c0.3-0.2,0.5-0.3,0.8-0.4c0.1,0,0.1,0,0.2-0.1c0.3-0.1,0.6-0.1,1-0.1c0,0,0.1,0,0.1,0L1005.6,450.2z"/>
	</g>
	<g>
		<path fill="#223B40" d="M1052.4,520.3c-5.9,0-12.6-1.3-19.1-5.3l1.1-1.8c13.4,8.1,27.2,4.4,33.1,2.1c-8.1-3.3-14.6-16.7-14.9-17.3
			l1.9-0.9c0.1,0.2,8.1,16.8,16.4,16.8c0.5,0,0.9,0.3,1,0.8c0.1,0.5-0.1,1-0.5,1.2C1071.3,516,1063.2,520.3,1052.4,520.3z"/>
	</g>
</g>
<g id="XMLID_4_">
	<g>
		<path fill="#223B40" d="M733.5,477.3l-1-1.6l0,0l13.5-27l0.9-0.6l1.1,0.7l8.5,25.3l-0.9,1.4L733.5,477.3z M746.8,451.9l-11.6,23.2
			l18.8-1.5L746.8,451.9z"/>
	</g>
	<g>
		<path fill="#223B40" d="M760,450.2h-13l-1.1-1.4l7.7-25.5l0.2,0.1l0.9-0.9l0.8,0.1l1,0.9l4.5,25.6L760,450.2z M748.4,448.1h10.3
			l-3.8-21.6L748.4,448.1z"/>
	</g>
	<g>
		<path fill="#223B40" d="M747,450.2h-27.3l-0.9-1.5l13.7-27.1l1.9,0l13.5,27.1L747,450.2z M721.5,448.1h23.8l-11.8-23.6
			L721.5,448.1z"/>
	</g>
	<g>
		<path fill="#223B40" d="M732.5,476.7l-13.7-27.1l0.9-1.5H747l0.9,1.5l-13.5,27.1L732.5,476.7z M721.5,450.2l12,23.6l11.8-23.6
			H721.5z"/>
	</g>
	<g>
		<path fill="#223B40" d="M718.8,449.7l-17-29.8l1-1.6l30.7,2.7l0.8,0.6l0,1l-13.7,27.1L718.8,449.7z M704.7,420.6l15,26.3
			l12.1-23.9L704.7,420.6z"/>
	</g>
	<g>
		<path fill="#223B40" d="M755.4,424.8l-22-1.6l-0.9-1.5l9.1-20.9l1.9-0.1l12.9,22.5L755.4,424.8z M735.1,421.1l18.6,1.4l-10.9-19
			L735.1,421.1z"/>
	</g>
	<g>
		<path fill="#223B40" d="M733.5,423.2L733.5,423.2l-0.9-0.5l-17.3-26.2l1.1-1.6l26.5,5.3l0.8,1.5l-9.1,20.9L733.5,423.2z
			 M718.4,397.5l14.9,22.4l7.8-17.9L718.4,397.5z"/>
	</g>
	<g>
		<path fill="#223B40" d="M671.8,429.5l-5.6-9.5l0.9-1.6h17.6v2.1c-5.3,0-9.8,3.6-11,8.7L671.8,429.5z M668.9,420.4l3.5,5.9
			c1.1-2.5,2.8-4.5,5-5.9H668.9z"/>
	</g>
	<g>
		<path fill="#223B40" d="M697.7,429.8l-1.9-0.3c-1.1-5.2-5.7-9-11-9v-2.1h18.1l0.9,1.6L697.7,429.8z M691.9,420.4
			c2.3,1.5,4.1,3.6,5.2,6.2l3.8-6.2H691.9z"/>
	</g>
	<g>
		<path fill="#223B40" d="M704,479.5l-1.9-0.2l-9-29.8l1-1.4h25.7l0.9,1.6L704,479.5z M695.5,450.2l7.9,26l14.6-26H695.5z"/>
	</g>
	<g>
		<path fill="#223B40" d="M676,450.2h-24.6l-0.9-1.6l15.7-29.8l1.9,0l5.6,9.5l0.1,0.8c-0.2,0.8-0.3,1.7-0.3,2.5c0,3.8,1.9,7.2,5,9.3
			l0.4,1.1l-1.8,7.2L676,450.2z M653.1,448.1h22l1.4-5.7c-3.3-2.5-5.3-6.5-5.3-10.7c0-0.9,0.1-1.8,0.3-2.6l-4.4-7.5L653.1,448.1z"/>
	</g>
	<g>
		<path fill="#223B40" d="M652.3,449.7l-1.9,0l-13.7-27.1l0.8-1.5l29.4-2.7l1,1.6L652.3,449.7z M639.3,423l12.1,23.8l13.8-26.2
			L639.3,423z"/>
	</g>
	<g>
		<path fill="#223B40" d="M651.4,450.2h-27.3l-0.9-1.5l13.5-27.1l1.9,0l13.7,27.1L651.4,450.2z M625.8,448.1h23.8l-12-23.6
			L625.8,448.1z"/>
	</g>
	<g>
		<path fill="#223B40" d="M638.6,476.7l-1.9,0l-13.5-27.1l0.9-1.5h27.3l0.9,1.5L638.6,476.7z M625.8,450.2l11.8,23.6l12-23.6H625.8z
			"/>
	</g>
	<g>
		<path fill="#223B40" d="M716.6,503.6l-1.1-0.5l-0.1-0.1l0-1.1l17.2-26.2l1.9,0.1l9.2,20.1l-0.7,1.5L716.6,503.6z M733.3,478.5
			L718.5,501l22.6-5.3L733.3,478.5z"/>
	</g>
	<g>
		<path fill="#223B40" d="M741.2,519.6c-6.9,0-13.3-1.7-19-5.2l-0.1-1.7l19.9-17.1l1.7,0.4c0.1,0.2,7.8,17.2,16.1,17.2l0.5,2
			C759.8,515.3,751.9,519.6,741.2,519.6z M724.5,513.3c5.1,2.8,10.7,4.1,16.7,4.1c6.4,0,11.9-1.6,15-2.9c-6.8-2.8-12.2-12.8-14-16.5
			L724.5,513.3z"/>
	</g>
	<g>
		<path fill="#223B40" d="M723.4,514.3l-1.6-0.3l-6.4-11l0.7-1.6l26.3-6l0.9,1.8L723.4,514.3z M717.9,503.2l5.1,8.7l15.7-13.4
			L717.9,503.2z"/>
	</g>
	<g>
		<path fill="#223B40" d="M698.6,523.4h-0.3l-0.8-0.4l-0.2-0.3l0.2-1.5l0,0l0.1-0.1l18.1-19.5l1.7,0.2l6.4,11l-0.6,1.5l-24.1,8.8
			L698.6,523.4z M716.1,504.2l-14.8,16l19.9-7.3L716.1,504.2z"/>
	</g>
	<g>
		<path fill="#223B40" d="M698.7,522.9l-1.5-0.2l-13.6-16.9l0.7-1.7l31.8-2.7l0.9,1.8L698.7,522.9z M686.6,506l11.6,14.4l15.5-16.7
			L686.6,506z"/>
	</g>
	<g>
		<path fill="#223B40" d="M698.3,523.4h-25.5l-0.9-1.7l11.7-17.2l1.7-0.1l13.8,17.2L698.3,523.4z M674.8,521.2h21.3l-11.5-14.3
			L674.8,521.2z"/>
	</g>
	<g>
		<path fill="#223B40" d="M684.6,506.2l-1-1.7l18.6-26.2l1.8,0.1l13.2,23.5l-0.8,1.6L684.6,506.2z M703,480.9l-16.3,22.9l27.9-2.4
			L703,480.9z"/>
	</g>
	<g>
		<path fill="#223B40" d="M672.5,523.3l-24.4-8.8l-0.5-1.5L654,502l1.7-0.2l17.9,19.7L672.5,523.3z M650,512.9l19.2,6.9l-14.1-15.5
			L650,512.9z"/>
	</g>
	<g>
		<path fill="#223B40" d="M647.7,514.3l-19.8-16.5l0.9-1.9l26.3,5.6l0.7,1.6l-6.5,10.9L647.7,514.3z M632.6,498.9l15.5,12.9l5.1-8.5
			L632.6,498.9z"/>
	</g>
	<g>
		<path fill="#223B40" d="M654.7,503.6l-26.3-5.6l-0.8-1.5l9-20.7l1.9-0.2l17.3,26.3L654.7,503.6z M630.1,496.2l22.5,4.8l-14.8-22.5
			L630.1,496.2z"/>
	</g>
	<g>
		<path fill="#223B40" d="M624.1,450.2h-12.9l-1.1-1.2l4.5-25.5l1-0.9l0.8-0.1l0.9,0.9l0.2-0.1l7.7,25.5L624.1,450.2z M612.4,448.1
			h10.3l-6.5-21.4L612.4,448.1z"/>
	</g>
	<g>
		<path fill="#223B40" d="M625.1,449.7l-2-0.2l-7.7-25.5l0-0.3l1-1.1l21.2-1.6l1,1.5L625.1,449.7z M617.8,424.6l6.6,21.7l11.5-23
			L617.8,424.6z"/>
	</g>
	<g>
		<path fill="#223B40" d="M615.7,424.8l-1-1.6l12.9-21.9l1.9,0.1l9,20.3l-0.9,1.5L615.7,424.8z M628.4,404.1l-10.8,18.4l18.4-1.4
			L628.4,404.1z"/>
	</g>
	<g>
		<path fill="#223B40" d="M628.8,402.8l-0.9-1.8l19.8-17.1l1.6,0.3l6.5,11.2l-0.7,1.6L628.8,402.8z M648.1,386.4l-15.6,13.5
			l20.8-4.6L648.1,386.4z"/>
	</g>
	<g>
		<path fill="#223B40" d="M638.5,422.7l-1.9-0.2l-9-20.3l0.7-1.5l26.3-5.9l1.1,1.6L638.5,422.7z M630.1,402.5l7.7,17.4l14.8-22.4
			L630.1,402.5z"/>
	</g>
	<g>
		<path fill="#223B40" d="M637.7,423.2l-1-1.6l17.3-26.2l1.8,0.1l12.2,23.5l-0.8,1.5L637.7,423.2z M654.8,398l-15.1,22.8l25.7-2.4
			L654.8,398z"/>
	</g>
	<g>
		<path fill="#223B40" d="M655,397l-0.9-1.8l17.7-20l1.7,0.1l11.9,17.4l-0.8,1.7L655,397z M672.5,377.6l-15,17l25.2-2.2L672.5,377.6
			z"/>
	</g>
	<g>
		<path fill="#223B40" d="M703.1,480h-34.5l-1-1.3l9-36.3c-3.3-2.5-5.3-6.5-5.3-10.7c0-1.1,0.1-2.1,0.4-3.1
			c1.4-6.1,6.8-10.3,13.1-10.3c6.3,0,11.8,4.5,13.1,10.7c0.2,0.8,0.3,1.8,0.3,2.7c0,4.1-1.9,7.9-5,10.5l11,36.5L703.1,480z
			 M669.9,477.9h31.7l-10.8-35.8l0.4-1.2c3-2.1,4.8-5.6,4.8-9.2c0-0.8-0.1-1.6-0.2-2.3c-1.1-5.2-5.7-9-11-9c-5.3,0-9.8,3.6-11,8.7
			c-0.2,0.8-0.3,1.7-0.3,2.6c0,3.8,1.9,7.2,5,9.3l0.4,1.1L669.9,477.9z"/>
	</g>
	<g>
		<path fill="#223B40" d="M743.5,496.9l-1.9-0.1l-9.2-20.1l0.9-1.5l22.1-1.8l1,1.6L743.5,496.9z M735.1,477.2l7.7,16.9l10.8-18.4
			L735.1,477.2z"/>
	</g>
	<g>
		<path fill="#223B40" d="M754.5,474.8l-8.5-25.3l1-1.4h13l1,1.2l-4.5,25.3L754.5,474.8z M748.5,450.2l6.7,19.9l3.5-19.9H748.5z"/>
	</g>
	<g>
		<path fill="#223B40" d="M717.2,503l-1.8-0.1l-13.2-23.5l0.8-1.6l30.4-2.7l1,1.6L717.2,503z M704.8,479.9l11.6,20.5l15-22.9
			L704.8,479.9z"/>
	</g>
	<g>
		<path fill="#223B40" d="M703.2,480l-1-1.6l16.7-29.8l1.9,0l13.7,27.1l0,1l-0.8,0.6l-0.2,0L703.2,480z M719.7,451.4L705,477.7
			l26.9-2.4L719.7,451.4z"/>
	</g>
	<g>
		<path fill="#223B40" d="M684.5,506.2h-0.3l-29.4-2.6L654,502l13.7-23.6l1.8,0l15.9,26.2L684.5,506.2z M656.6,501.7l25.9,2.2
			L668.6,481L656.6,501.7z"/>
	</g>
	<g>
		<path fill="#223B40" d="M672,523l-17.9-19.7l0.9-1.8l29.6,2.5l0.8,1.7l-11.7,17.2L672,523z M657.5,503.9l15.2,16.7l9.9-14.6
			L657.5,503.9z"/>
	</g>
	<g>
		<path fill="#223B40" d="M667.7,479.5l-17.2-29.8l0.9-1.6H676l1,1.3l-7.4,29.8L667.7,479.5z M653.2,450.2l15,25.9l6.4-25.9H653.2z"
			/>
	</g>
	<g>
		<path fill="#223B40" d="M668.5,480l-31-2.7l-0.9-1.5l13.7-27.1l1.9,0l17.2,29.8L668.5,480z M639.3,475.3l27.4,2.4l-15.2-26.3
			L639.3,475.3z"/>
	</g>
	<g>
		<path fill="#223B40" d="M654,503.2l-17.3-26.3l1-1.6l31,2.7l0.8,1.6l-13.7,23.6L654,503.2z M639.7,477.5l15.1,23.1l12-20.7
			L639.7,477.5z"/>
	</g>
	<g>
		<path fill="#223B40" d="M685.4,505.7l-1.8-0.1l-15.9-26.2l0.9-1.6h34.5l0.9,1.7L685.4,505.7z M670.5,480l14.1,23.2L701,480H670.5z
			"/>
	</g>
	<g>
		<path fill="#223B40" d="M627.7,497.5L614.7,475l1-1.6l22,1.8l0.9,1.5l-9,20.7L627.7,497.5z M617.6,475.7l10.9,18.9l7.6-17.4
			L617.6,475.7z"/>
	</g>
	<g>
		<path fill="#223B40" d="M637.5,477.3l-22-1.8l-0.9-1.4l8.4-25.3l2-0.1l13.5,27.1L637.5,477.3z M617.1,473.5l18.7,1.5l-11.5-23.1
			L617.1,473.5z"/>
	</g>
	<g>
		<path fill="#223B40" d="M616.7,474.8l-2.1-0.2l-4.5-25.3l1-1.2h12.9l1,1.4L616.7,474.8z M612.4,450.2l3.5,19.9l6.7-19.9H612.4z"/>
	</g>
	<g>
		<path fill="#223B40" d="M733.4,423.1l-30.7-2.7l-0.8-1.6l13.3-23.5l1.8-0.1l17.3,26.2L733.4,423.1z M704.5,418.5l26.8,2.4
			L716.2,398L704.5,418.5z"/>
	</g>
	<g>
		<path fill="#223B40" d="M719.7,450.2h-25.7l-1-0.8l-2.2-7.4l0.4-1.2c3-2.1,4.8-5.6,4.8-9.2c0-0.8-0.1-1.6-0.2-2.3l0.1-0.8l6-9.8
			l1.8,0l17,29.8L719.7,450.2z M694.9,448.1h23.1l-15.2-26.6l-4.8,7.9c0.1,0.7,0.2,1.5,0.2,2.3c0,4.1-1.9,7.9-5,10.5L694.9,448.1z"
			/>
	</g>
	<g>
		<path fill="#223B40" d="M702.8,420.4h-35.7l-0.9-1.7l17.4-26.1l1.8,0l18.3,26.1L702.8,420.4z M669.1,418.3h31.7l-16.2-23.2
			L669.1,418.3z"/>
	</g>
	<g>
		<path fill="#223B40" d="M746,449.7l-13.5-27.1l1-1.5l21.2,1.6l1,1.1l0,0.4l-7.7,25.5L746,449.7z M735.3,423.3l11.5,23l6.6-21.7
			L735.3,423.3z"/>
	</g>
	<g>
		<path fill="#223B40" d="M742.4,402.3l-26.5-5.3l-0.7-1.6l7.2-11.3l1.6-0.2l19.3,16.6L742.4,402.3z M717.8,395.2l21,4.2l-15.3-13.2
			L717.8,395.2z"/>
	</g>
	<g>
		<path fill="#223B40" d="M715.3,396.6l-17.8-20l1.1-1.7l24.9,8.7l0.5,1.6l-7.2,11.3L715.3,396.6z M701.9,378.2l14.1,15.9l5.7-9
			L701.9,378.2z"/>
	</g>
	<g>
		<path fill="#223B40" d="M655.7,396.6l-1.7-0.2l-6.5-11.2l0.6-1.5l24.2-8.8l1.2,1.7L655.7,396.6z M649.9,385.3l5.1,8.8l13.9-15.8
			L649.9,385.3z"/>
	</g>
	<g>
		<path fill="#223B40" d="M685.3,393.9l-1.7-0.1l-11.9-17.4l0.9-1.7h25.8l0.8,1.7L685.3,393.9z M674.6,376.9l10,14.6l11.6-14.6
			H674.6z"/>
	</g>
	<g>
		<path fill="#223B40" d="M716,397l-31.6-2.6l-0.7-1.7l13.9-17.4l1.6,0l17.8,20L716,397z M686.6,392.4l27,2.3l-15.2-17.1
			L686.6,392.4z"/>
	</g>
	<g>
		<path fill="#223B40" d="M668,420l-1.8-0.1L654,396.4l0.8-1.5l29.6-2.6l1,1.6L668,420z M656.6,396.8l10.6,20.5l15.2-22.8
			L656.6,396.8z"/>
	</g>
	<g>
		<path fill="#223B40" d="M701.9,420l-18.3-26.1l1-1.7l31.6,2.6l0.8,1.6l-13.3,23.5L701.9,420z M686.7,394.5l16,22.9l11.7-20.6
			L686.7,394.5z"/>
	</g>
</g>
</svg>
