<?xml version="1.0" encoding="utf-8"?>
<!-- Generator: Adobe Illustrator 18.1.1, SVG Export Plug-In . SVG Version: 6.00 Build 0)  -->
<svg version="1.1" id="Layer_1" xmlns="http://www.w3.org/2000/svg" xmlns:xlink="http://www.w3.org/1999/xlink" x="0px" y="0px"
	 viewBox="577.6 98.7 839.6 184" enable-background="new 577.6 98.7 839.6 184" xml:space="preserve">
<g>
	<path fill="#223B40" d="M703.5,212.8c0.8,0.8,1.9,1.2,2.3,0.7c0.4-0.4,0.1-1.5-0.7-2.3l-3.7-3.7c-0.8-0.8-1.9-1.2-2.3-0.7
		c-0.4,0.4-0.1,1.5,0.7,2.3L703.5,212.8z"/>
	<path fill="#223B40" d="M726.6,232.7c-0.8-0.8-1.9-1.2-2.3-0.7c-0.4,0.4-0.1,1.5,0.7,2.3l3.8,3.8c0.8,0.8,1.9,1.2,2.3,0.7
		c0.4-0.4,0.1-1.5-0.7-2.3L726.6,232.7z"/>
	<path fill="#223B40" d="M714,220.1c-0.8-0.8-1.9-1.2-2.3-0.7c-0.4,0.4-0.1,1.5,0.7,2.3l3.7,3.7c0.8,0.8,1.9,1.2,2.3,0.7
		c0.4-0.4,0.1-1.5-0.7-2.3L714,220.1z"/>
	<path fill="#223B40" d="M650.8,157c-0.8-0.8-1.9-1.2-2.3-0.7c-0.4,0.4-0.1,1.5,0.7,2.3l3.7,3.7c0.8,0.8,1.9,1.2,2.3,0.7
		c0.4-0.4,0.1-1.5-0.7-2.3L650.8,157z"/>
	<path fill="#223B40" d="M640.3,149.7c0.8,0.8,1.9,1.2,2.3,0.7c0.4-0.4,0.1-1.5-0.7-2.3l-3.7-3.7c-0.8-0.8-1.9-1.2-2.3-0.7
		s-0.1,1.5,0.7,2.3L640.3,149.7z"/>
	<path fill="#223B40" d="M665.6,200.2c0.8,0.8,1.9,1.2,2.3,0.7c0.4-0.4,0.1-1.5-0.7-2.3l-3.7-3.7c-0.8-0.8-1.9-1.2-2.3-0.7
		c-0.4,0.4-0.1,1.5,0.7,2.3L665.6,200.2z"/>
	<path fill="#223B40" d="M640.3,175c0.8,0.8,1.9,1.2,2.3,0.7c0.4-0.4,0.1-1.5-0.7-2.3l-3.7-3.7c-0.8-0.8-1.9-1.2-2.3-0.7
		c-0.4,0.4-0.1,1.5,0.7,2.3L640.3,175z"/>
	<path fill="#223B40" d="M627.7,162.3c0.8,0.8,1.9,1.2,2.3,0.7c0.4-0.4,0.1-1.5-0.7-2.3l-3.7-3.7c-0.8-0.8-1.9-1.2-2.3-0.7
		c-0.4,0.4-0.1,1.5,0.7,2.3L627.7,162.3z"/>
	<path fill="#223B40" d="M650.8,182.2c-0.8-0.8-1.9-1.2-2.3-0.7c-0.4,0.4-0.1,1.5,0.7,2.3l3.7,3.7c0.8,0.8,1.9,1.2,2.3,0.7
		c0.4-0.4,0.1-1.5-0.7-2.3L650.8,182.2z"/>
	<path fill="#223B40" d="M703.5,238.1c0.8,0.8,1.9,1.2,2.3,0.7s0.1-1.5-0.7-2.3l-3.7-3.7c-0.8-0.8-1.9-1.2-2.3-0.7s-0.1,1.5,0.7,2.3
		L703.5,238.1z"/>
	<path fill="#223B40" d="M714,245.4c-0.8-0.8-1.9-1.2-2.3-0.7s-0.1,1.5,0.7,2.3l3.8,3.8c0.8,0.8,1.9,1.2,2.3,0.7
		c0.4-0.4,0.1-1.5-0.7-2.3L714,245.4z"/>
	<path fill="#223B40" d="M678.2,238.1c0.8,0.8,1.9,1.2,2.3,0.7s0.1-1.5-0.7-2.3l-3.7-3.7c-0.8-0.8-1.9-1.2-2.3-0.7s-0.1,1.5,0.7,2.3
		L678.2,238.1z"/>
	<path fill="#223B40" d="M640.3,200.2c0.8,0.8,1.9,1.2,2.3,0.7c0.4-0.4,0.1-1.5-0.7-2.3l-3.7-3.7c-0.8-0.8-1.9-1.2-2.3-0.7
		c-0.4,0.4-0.1,1.5,0.7,2.3L640.3,200.2z"/>
	<path fill="#223B40" d="M688.7,245.4c-0.8-0.8-1.9-1.2-2.3-0.7s-0.1,1.5,0.7,2.3l3.7,3.7c0.8,0.8,1.9,1.2,2.3,0.7s0.1-1.5-0.7-2.3
		L688.7,245.4z"/>
	<path fill="#223B40" d="M627.7,187.6c0.8,0.8,1.9,1.2,2.3,0.7c0.4-0.4,0.1-1.5-0.7-2.3l-3.7-3.7c-0.8-0.8-1.9-1.2-2.3-0.7
		c-0.4,0.4-0.1,1.5,0.7,2.3L627.7,187.6z"/>
	<path fill="#223B40" d="M650.8,207.5c-0.8-0.8-1.9-1.2-2.3-0.7c-0.4,0.4-0.1,1.5,0.7,2.3l3.7,3.7c0.8,0.8,1.9,1.2,2.3,0.7
		c0.4-0.4,0.1-1.5-0.7-2.3L650.8,207.5z"/>
	<path fill="#223B40" d="M638.2,220.1c-0.8-0.8-1.9-1.2-2.3-0.7c-0.4,0.4-0.1,1.5,0.7,2.3l3.7,3.7c0.8,0.8,1.9,1.2,2.3,0.7
		s0.1-1.5-0.7-2.3L638.2,220.1z"/>
	<path fill="#223B40" d="M663.5,245.4c-0.8-0.8-1.9-1.2-2.3-0.7s-0.1,1.5,0.7,2.3l3.7,3.7c0.8,0.8,1.9,1.2,2.3,0.7s0.1-1.5-0.7-2.3
		L663.5,245.4z"/>
	<path fill="#223B40" d="M650.8,232.7c-0.8-0.8-1.9-1.2-2.3-0.7s-0.1,1.5,0.7,2.3l3.7,3.7c0.8,0.8,1.9,1.2,2.3,0.7s0.1-1.5-0.7-2.3
		L650.8,232.7z"/>
	<path fill="#223B40" d="M625.6,207.5c-0.8-0.8-1.9-1.2-2.3-0.7c-0.4,0.4-0.1,1.5,0.7,2.3l3.7,3.7c0.8,0.8,1.9,1.2,2.3,0.7
		c0.4-0.4,0.1-1.5-0.7-2.3L625.6,207.5z"/>
	<path fill="#223B40" d="M757.2,238.9c0.1-0.3,0.1-0.6,0-0.9c0,0,0,0,0,0c0,0,0,0-0.1-0.1c-0.2-0.5-0.2-0.5-0.2-0.5
		c-0.1,0-0.2,0-0.2-0.1c-0.2-0.2-0.5-0.3-0.8-0.3c0,0,0,0,0,0c0,0,0,0-0.1,0c0,0,0,0,0,0c-0.1,0-0.3,0-0.4,0
		c-1.9-0.4-4.8-2.8-4.8-2.8c-0.5-0.4-1-0.8-1.3-1c-0.2-0.2-0.4-0.4-0.6-0.6c-0.9-1-1.5-1.9-1.9-2.6c0-0.1-0.1-0.2-0.1-0.4
		c-0.2-0.5-0.3-1.2-0.3-1.3c3.1-5.2,5.5-10.8,7.2-16.5c0,0,0,0,0,0c0,0,0,0,0,0c2-6.7,3-13.7,3-20.8c0-1,0-2-0.1-3c0,0,0,0,0,0
		c0,0,0,0,0,0c-0.2-5.5-1.1-10.9-2.5-16.1c0,0,0,0,0,0c0,0,0,0,0,0c-1.7-6.3-4.2-12.2-7.4-17.7c0,0,0,0,0,0c0,0,0,0,0-0.1
		c-5.3-9.1-12.6-17-21.2-23.1c0,0,0,0,0,0c0,0,0,0,0,0c-6.4-4.5-13.5-8-21.1-10.2c0,0,0,0,0,0c0,0,0,0,0,0c-6.6-2-13.6-3-20.9-3
		c-6.9,0-13.6,1-20,2.8c0,0,0,0-0.1,0c0,0,0,0,0,0c-4.8,1.4-9.5,3.2-13.8,5.5c0,0,0,0,0,0c0,0,0,0,0,0
		c-10.6,5.5-19.6,13.6-26.4,23.4c0,0,0,0,0,0c0,0,0,0,0,0c-4.5,6.5-7.9,13.7-10.1,21.5c0,0,0,0,0,0c0,0,0,0,0,0.1
		c-1.8,6.3-2.8,13-2.8,19.9c0,6.9,1,13.7,2.8,20c0,0,0,0,0,0.1c0,0,0,0,0,0c7,24.3,26.2,43.5,50.5,50.4c0,0,0,0,0,0c0,0,0,0,0.1,0
		c6.3,1.8,13,2.8,19.8,2.8c6.5,0,13-0.9,19.1-2.5c0,0,0,0,0,0c0,0,0,0,0,0c12-3.2,23.1-9.5,32.2-18.5c0.5,0.1,1.3,0.3,2.2,0.5
		c2.1,0.6,4.9,1.3,8,1.3c4.6,0,8.5-1.7,11.7-5c0,0,0,0,0.1,0c0,0,0,0,0.3-0.3c0,0,0,0,0,0c0,0,0,0,0,0c0.3-0.3,0.3-0.3,0.3-0.3
		C757.2,239,757.2,238.9,757.2,238.9z M744.9,241.7c-2.7,0-5.3-0.7-7.2-1.2c-2.5-0.7-3.8-0.9-4.8,0c-8.8,8.7-19.5,14.8-31.1,18
		l-0.5-0.5c-0.8-0.8-1.9-1.2-2.3-0.7c-0.4,0.4-0.2,1.1,0.3,1.8c-2.5,0.6-5.1,1-7.7,1.3l0.8-0.8c0.8-0.8,1.2-1.9,0.7-2.3
		s-1.5-0.1-2.3,0.7l-2.7,2.7c-1.6,0.1-3.1,0.2-4.7,0.2c-1.5,0-3.1-0.1-4.6-0.2l-2.8-2.8c-0.8-0.8-1.9-1.2-2.3-0.7s-0.1,1.5,0.7,2.3
		l0.8,0.8c-2.6-0.3-5.2-0.8-7.7-1.3c0.5-0.7,0.7-1.5,0.3-1.8c-0.4-0.4-1.5-0.1-2.3,0.7l-0.5,0.5c-23.7-6.4-42.5-25-49.3-48.5
		l0.8-0.8c0.8-0.8,1.2-1.9,0.7-2.3c-0.4-0.4-1.4-0.1-2.2,0.6c-0.7-2.8-1.2-5.7-1.6-8.7l1.5,1.5c0.8,0.8,1.9,1.2,2.3,0.7
		c0.4-0.4,0.1-1.5-0.7-2.3l-3.4-3.4c-0.1-1.5-0.2-3-0.2-4.6c0-1.1,0-2.2,0.1-3.3l3.5-3.5c0.8-0.8,1.2-1.9,0.7-2.3
		c-0.4-0.4-1.5-0.1-2.3,0.7l-1.6,1.6c0.3-3.1,0.8-6.1,1.5-9.1l0.1,0.1c0.8,0.8,1.9,1.2,2.3,0.7c0.4-0.4,0.1-1.5-0.7-2.3l-1.1-1.1
		c2.6-9.5,7.1-18.1,13-25.6l0.7-0.7c0.3-0.3,0.6-0.7,0.7-1c0.9-1.1,1.9-2.1,2.8-3.1c0.3,0,0.6-0.1,0.9-0.3c0.2-0.2,0.3-0.6,0.3-0.9
		c1-0.9,2-1.9,3-2.8c0.4-0.1,0.8-0.4,1.2-0.8l1.3-1.3c7.2-5.8,15.6-10.2,24.7-12.8l1.4,1.4c0.8,0.8,1.9,1.2,2.3,0.7
		c0.4-0.4,0.1-1.5-0.7-2.3l-0.5-0.5c3.2-0.8,6.6-1.4,10-1.7l-2.2,2.2c-0.8,0.8-1.2,1.9-0.7,2.3c0.4,0.4,1.5,0.1,2.3-0.7l3.7-3.7
		c0.1-0.1,0.2-0.2,0.3-0.3c1.1-0.1,2.2-0.1,3.3-0.1c1.1,0,2.3,0,3.4,0.1c0.1,0.1,0.2,0.2,0.3,0.3l3.7,3.7c0.8,0.8,1.9,1.2,2.3,0.7
		c0.4-0.4,0.1-1.5-0.7-2.3l-2.2-2.2c3.4,0.3,6.7,0.9,9.9,1.7l-0.5,0.5c-0.8,0.8-1.2,1.9-0.7,2.3c0.4,0.4,1.5,0.1,2.3-0.7l1.4-1.4
		c9.3,2.7,17.9,7.2,25.2,13.2l0.8,0.8c0.3,0.3,0.6,0.5,0.9,0.7c1.1,1,2.2,1.9,3.2,2.9c0,0.3,0.1,0.6,0.3,0.8
		c0.2,0.2,0.5,0.3,0.8,0.3c1.1,1.1,2.1,2.3,3.1,3.5c0.1,0.2,0.3,0.4,0.5,0.7l0.2,0.2c6.2,7.6,10.9,16.5,13.5,26.2l-1,1
		c-0.8,0.8-1.2,1.9-0.7,2.3c0.4,0.4,1.5,0.1,2.3-0.7l0.1-0.1c0.7,2.9,1.2,5.9,1.5,8.9l-1.5-1.5c-0.8-0.8-1.9-1.2-2.3-0.7
		c-0.4,0.4-0.1,1.5,0.7,2.3l3.4,3.4c0.1,1.1,0.1,2.2,0.1,3.4c0,1.6-0.1,3.1-0.2,4.7l-3.3,3.3c-0.8,0.8-1.2,1.9-0.7,2.3
		c0.4,0.4,1.5,0.1,2.3-0.7l1.4-1.4c-0.3,2.9-0.8,5.7-1.5,8.5c-0.8-0.7-1.8-1-2.2-0.6c-0.4,0.4-0.1,1.5,0.7,2.3l0.8,0.8
		c-1.7,5.9-4.1,11.6-7.3,16.9c-0.7,1.1-0.4,2.7,0.7,4.6c1.5,2.6,4.8,6.3,8.4,7.8C750.5,240.9,747.9,241.7,744.9,241.7z"/>
	<path fill="#223B40" d="M653,137.1c0.8,0.8,1.9,1.2,2.3,0.7s0.1-1.5-0.7-2.3l-3.7-3.7c-0.8-0.8-1.9-1.2-2.3-0.7s-0.1,1.5,0.7,2.3
		L653,137.1z"/>
	<path fill="#223B40" d="M728.7,212.8c0.8,0.8,1.9,1.2,2.3,0.7c0.4-0.4,0.1-1.5-0.7-2.3l-3.7-3.7c-0.8-0.8-1.9-1.2-2.3-0.7
		c-0.4,0.4-0.1,1.5,0.7,2.3L728.7,212.8z"/>
	<path fill="#223B40" d="M665.6,149.7c0.8,0.8,1.9,1.2,2.3,0.7c0.4-0.4,0.1-1.5-0.7-2.3l-3.7-3.7c-0.8-0.8-1.9-1.2-2.3-0.7
		s-0.1,1.5,0.7,2.3L665.6,149.7z"/>
	<path fill="#223B40" d="M703.5,187.6c0.8,0.8,1.9,1.2,2.3,0.7c0.4-0.4,0.1-1.5-0.7-2.3l-3.7-3.7c-0.8-0.8-1.9-1.2-2.3-0.7
		c-0.4,0.4-0.1,1.5,0.7,2.3L703.5,187.6z"/>
	<path fill="#223B40" d="M741.4,225.5c0.8,0.8,1.9,1.2,2.3,0.7c0.4-0.4,0.1-1.5-0.7-2.3l-3.8-3.8c-0.8-0.8-1.9-1.2-2.3-0.7
		c-0.4,0.4-0.1,1.5,0.7,2.3L741.4,225.5z"/>
	<path fill="#223B40" d="M716.1,200.2c0.8,0.8,1.9,1.2,2.3,0.7c0.4-0.4,0.1-1.5-0.7-2.3l-3.7-3.7c-0.8-0.8-1.9-1.2-2.3-0.7
		c-0.4,0.4-0.1,1.5,0.7,2.3L716.1,200.2z"/>
	<path fill="#223B40" d="M716.1,175c0.8,0.8,1.9,1.2,2.3,0.7c0.4-0.4,0.1-1.5-0.7-2.3l-3.7-3.7c-0.8-0.8-1.9-1.2-2.3-0.7
		c-0.4,0.4-0.1,1.5,0.7,2.3L716.1,175z"/>
	<path fill="#223B40" d="M690.8,149.7c0.8,0.8,1.9,1.2,2.3,0.7c0.4-0.4,0.1-1.5-0.7-2.3l-3.7-3.7c-0.8-0.8-1.9-1.2-2.3-0.7
		s-0.1,1.5,0.7,2.3L690.8,149.7z"/>
	<path fill="#223B40" d="M678.2,137.1c0.8,0.8,1.9,1.2,2.3,0.7s0.1-1.5-0.7-2.3l-3.7-3.7c-0.8-0.8-1.9-1.2-2.3-0.7s-0.1,1.5,0.7,2.3
		L678.2,137.1z"/>
	<path fill="#223B40" d="M701.3,157c-0.8-0.8-1.9-1.2-2.3-0.7c-0.4,0.4-0.1,1.5,0.7,2.3l3.7,3.7c0.8,0.8,1.9,1.2,2.3,0.7
		c0.4-0.4,0.1-1.5-0.7-2.3L701.3,157z"/>
	<path fill="#223B40" d="M728.7,187.6c0.8,0.8,1.9,1.2,2.3,0.7c0.4-0.4,0.1-1.5-0.7-2.3l-3.7-3.7c-0.8-0.8-1.9-1.2-2.3-0.7
		c-0.4,0.4-0.1,1.5,0.7,2.3L728.7,187.6z"/>
	<path fill="#223B40" d="M741.4,200.2c0.8,0.8,1.9,1.2,2.3,0.7c0.4-0.4,0.1-1.5-0.7-2.3l-3.7-3.7c-0.8-0.8-1.9-1.2-2.3-0.7
		c-0.4,0.4-0.1,1.5,0.7,2.3L741.4,200.2z"/>
	<path fill="#223B40" d="M701.3,131.7c-0.8-0.8-1.9-1.2-2.3-0.7s-0.1,1.5,0.7,2.3l3.7,3.7c0.8,0.8,1.9,1.2,2.3,0.7s0.1-1.5-0.7-2.3
		L701.3,131.7z"/>
	<path fill="#223B40" d="M741.4,175c0.8,0.8,1.9,1.2,2.3,0.7c0.4-0.4,0.1-1.5-0.7-2.3l-3.7-3.7c-0.8-0.8-1.9-1.2-2.3-0.7
		c-0.4,0.4-0.1,1.5,0.7,2.3L741.4,175z"/>
	<path fill="#223B40" d="M728.7,162.3c0.8,0.8,1.9,1.2,2.3,0.7c0.4-0.4,0.1-1.5-0.7-2.3l-3.7-3.7c-0.8-0.8-1.9-1.2-2.3-0.7
		s-0.1,1.5,0.7,2.3L728.7,162.3z"/>
	<path fill="#223B40" d="M717.7,148.1l-3.7-3.7c-0.8-0.8-1.9-1.2-2.3-0.7s-0.1,1.5,0.7,2.3l3.7,3.7c0.8,0.8,1.9,1.2,2.3,0.7
		C718.9,150,718.5,148.9,717.7,148.1z"/>
	<path fill="#223B40" d="M728.7,144.3l-3.8,3.8c-0.8,0.8-1.2,1.9-0.7,2.3c0.4,0.4,1.5,0.1,2.3-0.7l3.8-3.8c0.8-0.8,1.2-1.9,0.7-2.3
		C730.6,143.2,729.6,143.5,728.7,144.3z"/>
	<path fill="#223B40" d="M640.3,232.7l-3.7,3.7c-0.8,0.8-1.2,1.9-0.7,2.3s1.5,0.1,2.3-0.7l3.7-3.7c0.8-0.8,1.2-1.9,0.7-2.3
		S641.2,231.9,640.3,232.7z"/>
	<path fill="#223B40" d="M663.5,212.8l3.7-3.7c0.8-0.8,1.2-1.9,0.7-2.3c-0.4-0.4-1.5-0.1-2.3,0.7l-3.7,3.7c-0.8,0.8-1.2,1.9-0.7,2.3
		C661.6,214,662.6,213.7,663.5,212.8z"/>
	<path fill="#223B40" d="M716.1,157l-3.7,3.7c-0.8,0.8-1.2,1.9-0.7,2.3c0.4,0.4,1.5,0.1,2.3-0.7l3.7-3.7c0.8-0.8,1.2-1.9,0.7-2.3
		C718,155.8,716.9,156.1,716.1,157z"/>
	<path fill="#223B40" d="M653,220.1l-3.7,3.7c-0.8,0.8-1.2,1.9-0.7,2.3s1.5,0.1,2.3-0.7l3.7-3.7c0.8-0.8,1.2-1.9,0.7-2.3
		C654.8,219,653.8,219.3,653,220.1z"/>
	<path fill="#223B40" d="M640.3,207.5l-3.7,3.7c-0.8,0.8-1.2,1.9-0.7,2.3c0.4,0.4,1.5,0.1,2.3-0.7l3.7-3.7c0.8-0.8,1.2-1.9,0.7-2.3
		C642.2,206.3,641.2,206.7,640.3,207.5z"/>
	<path fill="#223B40" d="M663.5,187.6l3.7-3.7c0.8-0.8,1.2-1.9,0.7-2.3c-0.4-0.4-1.5-0.1-2.3,0.7l-3.7,3.7c-0.8,0.8-1.2,1.9-0.7,2.3
		C661.6,188.7,662.6,188.4,663.5,187.6z"/>
	<path fill="#223B40" d="M627.7,220.1l-3.7,3.7c-0.8,0.8-1.2,1.9-0.7,2.3s1.5,0.1,2.3-0.7l3.7-3.7c0.8-0.8,1.2-1.9,0.7-2.3
		C629.6,219,628.5,219.3,627.7,220.1z"/>
	<path fill="#223B40" d="M716.1,131.7l-3.8,3.8c-0.8,0.8-1.2,1.9-0.7,2.3s1.5,0.1,2.3-0.7l3.8-3.8c0.8-0.8,1.2-1.9,0.7-2.3
		C718,130.5,717,130.9,716.1,131.7z"/>
	<path fill="#223B40" d="M653,194.9l-3.7,3.7c-0.8,0.8-1.2,1.9-0.7,2.3c0.4,0.4,1.5,0.1,2.3-0.7l3.7-3.7c0.8-0.8,1.2-1.9,0.7-2.3
		C654.8,193.7,653.8,194,653,194.9z"/>
	<path fill="#223B40" d="M701.3,149.7l3.7-3.7c0.8-0.8,1.2-1.9,0.7-2.3s-1.5-0.1-2.3,0.7l-3.7,3.7c-0.8,0.8-1.2,1.9-0.7,2.3
		C699.5,150.9,700.5,150.5,701.3,149.7z"/>
	<path fill="#223B40" d="M623.2,200.9c0.4,0.4,1.5,0.1,2.3-0.7l3.7-3.7c0.8-0.8,1.2-1.9,0.7-2.3c-0.4-0.4-1.5-0.1-2.3,0.7l-3.7,3.7
		C623.1,199.4,622.8,200.5,623.2,200.9z"/>
	<path fill="#223B40" d="M635.9,188.3c0.4,0.4,1.5,0.1,2.3-0.7l3.7-3.7c0.8-0.8,1.2-1.9,0.7-2.3c-0.4-0.4-1.5-0.1-2.3,0.7l-3.7,3.7
		C635.8,186.8,635.4,187.9,635.9,188.3z"/>
	<path fill="#223B40" d="M688.7,137.1l3.7-3.7c0.8-0.8,1.2-1.9,0.7-2.3s-1.5-0.1-2.3,0.7l-3.7,3.7c-0.8,0.8-1.2,1.9-0.7,2.3
		S687.9,137.9,688.7,137.1z"/>
	<path fill="#223B40" d="M653,169.6l-3.7,3.7c-0.8,0.8-1.2,1.9-0.7,2.3c0.4,0.4,1.5,0.1,2.3-0.7l3.7-3.7c0.8-0.8,1.2-1.9,0.7-2.3
		C654.8,168.4,653.8,168.8,653,169.6z"/>
	<path fill="#223B40" d="M676.1,149.7l3.7-3.7c0.8-0.8,1.2-1.9,0.7-2.3s-1.5-0.1-2.3,0.7l-3.7,3.7c-0.8,0.8-1.2,1.9-0.7,2.3
		C674.2,150.9,675.2,150.5,676.1,149.7z"/>
	<path fill="#223B40" d="M663.5,162.3l3.7-3.7c0.8-0.8,1.2-1.9,0.7-2.3c-0.4-0.4-1.5-0.1-2.3,0.7l-3.7,3.7c-0.8,0.8-1.2,1.9-0.7,2.3
		C661.6,163.5,662.6,163.2,663.5,162.3z"/>
	<path fill="#223B40" d="M640.3,157l-3.7,3.7c-0.8,0.8-1.2,1.9-0.7,2.3c0.4,0.4,1.5,0.1,2.3-0.7l3.7-3.7c0.8-0.8,1.2-1.9,0.7-2.3
		S641.2,156.1,640.3,157z"/>
	<path fill="#223B40" d="M650.8,149.7l3.7-3.7c0.8-0.8,1.2-1.9,0.7-2.3s-1.5-0.1-2.3,0.7l-3.7,3.7c-0.8,0.8-1.2,1.9-0.7,2.3
		C648.9,150.9,650,150.5,650.8,149.7z"/>
	<path fill="#223B40" d="M627.7,169.6l-3.7,3.7c-0.8,0.8-1.2,1.9-0.7,2.3c0.4,0.4,1.5,0.1,2.3-0.7l3.7-3.7c0.8-0.8,1.2-1.9,0.7-2.3
		C629.6,168.4,628.5,168.8,627.7,169.6z"/>
	<path fill="#223B40" d="M663.5,137.1l3.7-3.7c0.8-0.8,1.2-1.9,0.7-2.3s-1.5-0.1-2.3,0.7l-3.7,3.7c-0.8,0.8-1.2,1.9-0.7,2.3
		S662.6,137.9,663.5,137.1z"/>
	<path fill="#223B40" d="M741.4,232.8l-3.7,3.7c-0.8,0.8-1.2,1.9-0.7,2.3c0.4,0.4,1.5,0.1,2.3-0.7l3.7-3.7c0.8-0.8,1.2-1.9,0.7-2.3
		C743.3,231.6,742.2,231.9,741.4,232.8z"/>
	<path fill="#223B40" d="M726.6,175l3.7-3.7c0.8-0.8,1.2-1.9,0.7-2.3c-0.4-0.4-1.5-0.1-2.3,0.7l-3.7,3.7c-0.8,0.8-1.2,1.9-0.7,2.3
		C724.7,176.1,725.8,175.8,726.6,175z"/>
	<path fill="#223B40" d="M665.6,232.7l-3.7,3.7c-0.8,0.8-1.2,1.9-0.7,2.3s1.5,0.1,2.3-0.7l3.7-3.7c0.8-0.8,1.2-1.9,0.7-2.3
		S666.4,231.9,665.6,232.7z"/>
	<path fill="#223B40" d="M714,187.6l3.7-3.7c0.8-0.8,1.2-1.9,0.7-2.3c-0.4-0.4-1.5-0.1-2.3,0.7l-3.7,3.7c-0.8,0.8-1.2,1.9-0.7,2.3
		C712.1,188.7,713.1,188.4,714,187.6z"/>
	<path fill="#223B40" d="M699,200.9c0.4,0.4,1.5,0.1,2.3-0.7l3.7-3.7c0.8-0.8,1.2-1.9,0.7-2.3c-0.4-0.4-1.5-0.1-2.3,0.7l-3.7,3.7
		C698.9,199.4,698.6,200.5,699,200.9z"/>
	<path fill="#223B40" d="M653,245.4l-3.7,3.7c-0.8,0.8-1.2,1.9-0.7,2.3s1.5,0.1,2.3-0.7l3.7-3.7c0.8-0.8,1.2-1.9,0.7-2.3
		S653.8,244.5,653,245.4z"/>
	<path fill="#223B40" d="M739.2,162.3l3.8-3.8c0.8-0.8,1.2-1.9,0.7-2.3c-0.4-0.4-1.5-0.1-2.3,0.7l-3.8,3.8c-0.8,0.8-1.2,1.9-0.7,2.3
		C737.3,163.5,738.4,163.2,739.2,162.3z"/>
	<path fill="#223B40" d="M726.6,200.2l3.7-3.7c0.8-0.8,1.2-1.9,0.7-2.3c-0.4-0.4-1.5-0.1-2.3,0.7l-3.7,3.7c-0.8,0.8-1.2,1.9-0.7,2.3
		C724.7,201.4,725.8,201.1,726.6,200.2z"/>
	<path fill="#223B40" d="M690.8,232.7l-3.7,3.7c-0.8,0.8-1.2,1.9-0.7,2.3s1.5,0.1,2.3-0.7l3.7-3.7c0.8-0.8,1.2-1.9,0.7-2.3
		S691.7,231.9,690.8,232.7z"/>
	<path fill="#223B40" d="M703.5,220.1l-1.4,1.4l-9-36.9c0.7-0.5,1.4-1,2-1.6c2.3-2,3.9-4.5,4.9-7.3c0.4-0.1,0.9-0.4,1.3-0.8l3.7-3.7
		c0.8-0.8,1.2-1.9,0.7-2.3c-0.4-0.4-1.5-0.1-2.3,0.7l-2.6,2.6c0.1-0.7,0.1-1.3,0.1-2c0-9.5-7.7-17.2-17.2-17.2c-0.3,0-0.6,0-0.9,0
		l-0.2,0c-3.2,0.2-6.1,1.3-8.5,2.9c-0.2,0-0.3,0.1-0.4,0.2c-0.1,0.1-0.1,0.1-0.1,0.2c-4.2,3.1-7,8.1-7,13.7c0,0,0,0.1,0,0.1
		c0,0.9,0.1,1.9,0.2,2.8l-3.4-3.4c-0.8-0.8-1.9-1.2-2.3-0.7c-0.4,0.4-0.1,1.5,0.7,2.3l3.7,3.7c0.7,0.7,1.5,1,2,0.9
		c0.4,1.1,0.9,2.2,1.5,3.2c1.4,2.3,3.2,4.2,5.4,5.6l-4.6,18.5c-0.2,0.2-0.3,0.5-0.2,0.8l-4.4,17.9l-1.9-1.9
		c-0.8-0.8-1.9-1.2-2.3-0.7c-0.4,0.4-0.1,1.5,0.7,2.3l2.8,2.8l-0.4,1.5c0,0,0,0.1,0,0.1c-0.1,0.5,0.1,1,0.4,1.4
		c0.3,0.4,0.8,0.6,1.3,0.6h35.4c0.5,0,1-0.2,1.3-0.6c0.3-0.4,0.5-0.9,0.4-1.4c0,0,0-0.1,0-0.1l-0.5-1.9l2.4-2.4
		c0.8-0.8,1.2-1.9,0.7-2.3C705.4,219,704.3,219.3,703.5,220.1z M677.7,184.3c0.2-0.7-0.1-1.3-0.7-1.7c-2.2-1.2-4-3-5.3-5.1
		c-1.3-2.2-2-4.7-2-7.2c0,0,0-0.1,0-0.1c0-7.4,5.9-13.6,13.3-14.1l0.2,0c0.2,0,0.4,0,0.7,0c7.8,0,14.2,6.4,14.2,14.2
		c0,4.1-1.8,7.9-4.8,10.6c-0.8,0.7-1.6,1.3-2.5,1.8c-0.6,0.3-0.9,1-0.7,1.7l9.9,40.8h-32.2L677.7,184.3z"/>
	<path fill="#223B40" d="M714,212.8l3.7-3.7c0.8-0.8,1.2-1.9,0.7-2.3c-0.4-0.4-1.5-0.1-2.3,0.7l-3.7,3.7c-0.8,0.8-1.2,1.9-0.7,2.3
		C712.1,214,713.1,213.7,714,212.8z"/>
	<path fill="#223B40" d="M739.2,187.6l3.7-3.7c0.8-0.8,1.2-1.9,0.7-2.3c-0.4-0.4-1.5-0.1-2.3,0.7l-3.7,3.7c-0.8,0.8-1.2,1.9-0.7,2.3
		C737.3,188.7,738.4,188.4,739.2,187.6z"/>
	<path fill="#223B40" d="M678.2,245.4l-3.7,3.7c-0.8,0.8-1.2,1.9-0.7,2.3s1.5,0.1,2.3-0.7l3.7-3.7c0.8-0.8,1.2-1.9,0.7-2.3
		S679.1,244.5,678.2,245.4z"/>
	<path fill="#223B40" d="M739.2,212.8l3.7-3.7c0.8-0.8,1.2-1.9,0.7-2.3c-0.4-0.4-1.5-0.1-2.3,0.7l-3.7,3.7c-0.8,0.8-1.2,1.9-0.7,2.3
		C737.3,214,738.4,213.7,739.2,212.8z"/>
	<path fill="#223B40" d="M703.5,245.4l-3.7,3.7c-0.8,0.8-1.2,1.9-0.7,2.3s1.5,0.1,2.3-0.7l3.7-3.7c0.8-0.8,1.2-1.9,0.7-2.3
		S704.3,244.5,703.5,245.4z"/>
	<path fill="#223B40" d="M714,238.1l3.7-3.7c0.8-0.8,1.2-1.9,0.7-2.3c-0.4-0.4-1.5-0.1-2.3,0.7l-3.7,3.7c-0.8,0.8-1.2,1.9-0.7,2.3
		S713.1,238.9,714,238.1z"/>
	<path fill="#223B40" d="M726.6,225.5l3.7-3.7c0.8-0.8,1.2-1.9,0.7-2.3c-0.4-0.4-1.5-0.1-2.3,0.7l-3.7,3.7c-0.8,0.8-1.2,1.9-0.7,2.3
		C724.7,226.6,725.8,226.3,726.6,225.5z"/>
</g>
<g>
	
		<rect x="962" y="156" transform="matrix(-0.7071 0.7071 -0.7071 -0.7071 1757.8481 -406.5619)" fill="#223B40" width="2.3" height="9.6"/>
	
		<rect x="1037.8" y="231.7" transform="matrix(0.7071 -0.7071 0.7071 0.7071 137.0161 803.9003)" fill="#223B40" width="2.3" height="9.6"/>
	
		<rect x="949.4" y="143.4" transform="matrix(-0.7071 0.7071 -0.7071 -0.7071 1727.3608 -419.1901)" fill="#223B40" width="2.3" height="9.6"/>
	
		<rect x="1025.1" y="219.1" transform="matrix(0.7071 -0.7071 0.7071 0.7071 142.2497 791.2654)" fill="#223B40" width="2.3" height="9.6"/>
	
		<rect x="958.3" y="184.9" transform="matrix(0.7071 0.7071 -0.7071 0.7071 413.6415 -626.5435)" fill="#223B40" width="9.6" height="2.3"/>
	
		<rect x="945.7" y="172.3" transform="matrix(0.7071 0.7071 -0.7071 0.7071 401.0134 -621.3128)" fill="#223B40" width="9.6" height="2.3"/>
	
		<rect x="1012.5" y="231.7" transform="matrix(0.7071 -0.7071 0.7071 0.7071 129.6214 786.0345)" fill="#223B40" width="2.3" height="9.6"/>
	
		<rect x="933.1" y="159.6" transform="matrix(0.7071 0.7071 -0.7071 0.7071 388.3851 -616.082)" fill="#223B40" width="9.6" height="2.3"/>
	
		<rect x="974.6" y="193.9" transform="matrix(0.7071 -0.7071 0.7071 0.7071 145.3137 748.1501)" fill="#223B40" width="2.3" height="9.6"/>
	
		<rect x="987.2" y="231.7" transform="matrix(0.7071 -0.7071 0.7071 0.7071 122.224 768.1757)" fill="#223B40" width="2.3" height="9.6"/>
	
		<rect x="996.2" y="248" transform="matrix(0.7071 0.7071 -0.7071 0.7071 469.385 -634.8383)" fill="#223B40" width="9.6" height="2.3"/>
	
		<rect x="949.4" y="193.9" transform="matrix(-0.7071 0.7071 -0.7071 -0.7071 1763.0786 -332.9593)" fill="#223B40" width="2.3" height="9.6"/>
	
		<rect x="958.3" y="210.2" transform="matrix(0.7071 0.7071 -0.7071 0.7071 431.5005 -619.1461)" fill="#223B40" width="9.6" height="2.3"/>
	
		<rect x="936.7" y="181.2" transform="matrix(-0.7071 0.7071 -0.7071 -0.7071 1732.5917 -345.5874)" fill="#223B40" width="2.3" height="9.6"/>
	
		<rect x="971" y="248" transform="matrix(0.7071 0.7071 -0.7071 0.7071 461.9876 -616.9795)" fill="#223B40" width="9.6" height="2.3"/>
	
		<rect x="945.7" y="222.8" transform="matrix(0.7071 0.7071 -0.7071 0.7071 436.7312 -606.5179)" fill="#223B40" width="9.6" height="2.3"/>
	
		<rect x="933.1" y="210.2" transform="matrix(0.7071 0.7071 -0.7071 0.7071 424.103 -601.2872)" fill="#223B40" width="9.6" height="2.3"/>
	
		<rect x="958.3" y="235.4" transform="matrix(0.7071 0.7071 -0.7071 0.7071 449.3593 -611.7487)" fill="#223B40" width="9.6" height="2.3"/>
	
		<rect x="974.6" y="143.4" transform="matrix(-0.7071 0.7071 -0.7071 -0.7071 1770.4762 -437.0489)" fill="#223B40" width="2.3" height="9.6"/>
	
		<rect x="1012.5" y="181.2" transform="matrix(-0.7071 0.7071 -0.7071 -0.7071 1861.9374 -399.1644)" fill="#223B40" width="2.3" height="9.6"/>
	
		<rect x="1046.7" y="222.8" transform="matrix(-0.7071 -0.7071 0.7071 -0.7071 1636.7317 1125.8143)" fill="#223B40" width="9.6" height="2.3"/>
	
		<rect x="1021.5" y="197.5" transform="matrix(-0.7071 -0.7071 0.7071 -0.7071 1611.4686 1064.824)" fill="#223B40" width="9.6" height="2.3"/>
	
		<rect x="958.3" y="134.4" transform="matrix(0.7071 0.7071 -0.7071 0.7071 377.9236 -641.3384)" fill="#223B40" width="9.6" height="2.3"/>
	
		<rect x="1034.1" y="210.2" transform="matrix(-0.7071 -0.7071 0.7071 -0.7071 1624.0969 1095.3109)" fill="#223B40" width="9.6" height="2.3"/>
	
		<rect x="1037.8" y="181.2" transform="matrix(0.7071 -0.7071 0.7071 0.7071 172.7368 789.0988)" fill="#223B40" width="2.3" height="9.6"/>
	
		<rect x="1012.5" y="156" transform="matrix(-0.7071 0.7071 -0.7071 -0.7071 1844.0787 -442.2798)" fill="#223B40" width="2.3" height="9.6"/>
	
		<rect x="999.9" y="143.4" transform="matrix(-0.7071 0.7071 -0.7071 -0.7071 1813.5914 -454.908)" fill="#223B40" width="2.3" height="9.6"/>
	
		<rect x="1050.4" y="193.9" transform="matrix(0.7071 -0.7071 0.7071 0.7071 167.506 801.7269)" fill="#223B40" width="2.3" height="9.6"/>
	
		<rect x="983.6" y="134.4" transform="matrix(-0.7071 -0.7071 0.7071 -0.7071 1591.4432 930.2473)" fill="#223B40" width="9.6" height="2.3"/>
	
		<rect x="1021.5" y="172.3" transform="matrix(-0.7071 -0.7071 0.7071 -0.7071 1629.3276 1021.7085)" fill="#223B40" width="9.6" height="2.3"/>
	
		<rect x="1034.1" y="159.6" transform="matrix(-0.7071 -0.7071 0.7071 -0.7071 1659.8151 1009.0803)" fill="#223B40" width="9.6" height="2.3"/>
	
		<rect x="1021.5" y="147" transform="matrix(-0.7071 -0.7071 0.7071 -0.7071 1647.1868 978.5933)" fill="#223B40" width="9.6" height="2.3"/>
	
		<rect x="1008.8" y="134.4" transform="matrix(-0.7071 -0.7071 0.7071 -0.7071 1634.5586 948.106)" fill="#223B40" width="9.6" height="2.3"/>
	
		<rect x="1046.7" y="172.3" transform="matrix(-0.7071 -0.7071 0.7071 -0.7071 1672.4431 1039.5675)" fill="#223B40" width="9.6" height="2.3"/>
	
		<rect x="945.7" y="235.4" transform="matrix(0.7071 -0.7071 0.7071 0.7071 111.1279 741.3873)" fill="#223B40" width="9.6" height="2.3"/>
	
		<rect x="1037.8" y="143.3" transform="matrix(-0.7071 -0.7071 0.7071 -0.7071 1668.7606 987.5161)" fill="#223B40" width="2.3" height="9.6"/>
	
		<rect x="962" y="219.1" transform="matrix(0.7071 0.7071 -0.7071 0.7071 440.43 -615.4474)" fill="#223B40" width="2.3" height="9.6"/>
	
		<rect x="1025.1" y="156" transform="matrix(-0.7071 -0.7071 0.7071 -0.7071 1638.2573 1000.151)" fill="#223B40" width="2.3" height="9.6"/>
	
		<rect x="968.3" y="216.5" transform="matrix(0.7071 -0.7071 0.7071 0.7071 130.0701 749.2335)" fill="#223B40" width="2.3" height="2.3"/>
	
		<rect x="955.7" y="229.1" transform="matrix(0.7071 0.7071 -0.7071 0.7071 443.0454 -609.1334)" fill="#223B40" width="2.3" height="2.3"/>
	
		<rect x="1018.8" y="166" transform="matrix(0.7071 0.7071 -0.7071 0.7071 416.8915 -672.2743)" fill="#223B40" width="2.3" height="2.3"/>
	
		<rect x="1031.4" y="153.3" transform="matrix(-0.7071 0.7071 -0.7071 -0.7071 1871.9504 -466.4529)" fill="#223B40" width="2.3" height="2.3"/>
	
		<rect x="1021.5" y="134.4" transform="matrix(-0.7071 0.7071 -0.7071 -0.7071 1847.7842 -494.3409)" fill="#223B40" width="9.6" height="2.3"/>
	
		<rect x="958.3" y="197.5" transform="matrix(-0.7071 0.7071 -0.7071 -0.7071 1784.6364 -341.8888)" fill="#223B40" width="9.6" height="2.3"/>
	
		<rect x="933.1" y="222.8" transform="matrix(0.7071 -0.7071 0.7071 0.7071 116.3586 728.7591)" fill="#223B40" width="9.6" height="2.3"/>
	
		<rect x="949.4" y="206.5" transform="matrix(0.7071 0.7071 -0.7071 0.7071 427.8017 -610.2167)" fill="#223B40" width="2.3" height="9.6"/>
	
		<rect x="1008.8" y="147" transform="matrix(-0.7071 0.7071 -0.7071 -0.7071 1835.1492 -463.8375)" fill="#223B40" width="9.6" height="2.3"/>
	
		<rect x="974.6" y="181.2" transform="matrix(-0.7071 -0.7071 0.7071 -0.7071 1534.1676 1007.5483)" fill="#223B40" width="2.3" height="9.6"/>
	
		<rect x="968.3" y="191.2" transform="matrix(-0.7071 -0.7071 0.7071 -0.7071 1518.9241 1013.8625)" fill="#223B40" width="2.3" height="2.3"/>
	
		<rect x="955.7" y="203.8" transform="matrix(0.7071 0.7071 -0.7071 0.7071 425.1864 -616.5307)" fill="#223B40" width="2.3" height="2.3"/>
	
		<rect x="943" y="216.5" transform="matrix(-0.7071 0.7071 -0.7071 -0.7071 1765.6942 -296.1582)" fill="#223B40" width="2.3" height="2.3"/>
	
		<rect x="1006.2" y="153.3" transform="matrix(-0.7071 -0.7071 0.7071 -0.7071 1610.3855 975.9779)" fill="#223B40" width="2.3" height="2.3"/>
	
		<rect x="1018.8" y="140.7" transform="matrix(-0.7071 -0.7071 0.7071 -0.7071 1640.8728 963.3497)" fill="#223B40" width="2.3" height="2.3"/>
	
		<rect x="949.4" y="181.2" transform="matrix(0.7071 0.7071 -0.7071 0.7071 409.9427 -617.614)" fill="#223B40" width="2.3" height="9.6"/>
	
		<rect x="987.2" y="143.4" transform="matrix(-0.7071 -0.7071 0.7071 -0.7071 1582.5135 951.8047)" fill="#223B40" width="2.3" height="9.6"/>
	
		<rect x="962" y="168.6" transform="matrix(0.7071 0.7071 -0.7071 0.7071 404.712 -630.2422)" fill="#223B40" width="2.3" height="9.6"/>
	
		<rect x="971" y="159.6" transform="matrix(-0.7071 0.7071 -0.7071 -0.7071 1779.4054 -415.4912)" fill="#223B40" width="9.6" height="2.3"/>
	
		<rect x="933.1" y="197.5" transform="matrix(-0.7071 0.7071 -0.7071 -0.7071 1741.521 -324.0301)" fill="#223B40" width="9.6" height="2.3"/>
	
		<rect x="999.9" y="130.7" transform="matrix(-0.7071 -0.7071 0.7071 -0.7071 1613.0009 939.1765)" fill="#223B40" width="2.3" height="9.6"/>
	
		<rect x="968.3" y="166" transform="matrix(0.7071 -0.7071 0.7071 0.7071 165.7881 734.4385)" fill="#223B40" width="2.3" height="2.3"/>
	
		<rect x="955.7" y="178.6" transform="matrix(-0.7071 0.7071 -0.7071 -0.7071 1760.4633 -369.7607)" fill="#223B40" width="2.3" height="2.3"/>
	
		<rect x="943" y="191.2" transform="matrix(0.7071 0.7071 -0.7071 0.7071 412.5582 -611.2999)" fill="#223B40" width="2.3" height="2.3"/>
	
		<rect x="930.4" y="203.8" transform="matrix(-0.7071 0.7071 -0.7071 -0.7071 1735.2069 -308.7864)" fill="#223B40" width="2.3" height="2.3"/>
	
		<rect x="980.9" y="153.3" transform="matrix(-0.7071 0.7071 -0.7071 -0.7071 1785.7196 -430.7349)" fill="#223B40" width="2.3" height="2.3"/>
	
		<rect x="993.6" y="140.7" transform="matrix(-0.7071 0.7071 -0.7071 -0.7071 1798.3479 -461.2221)" fill="#223B40" width="2.3" height="2.3"/>
	
		<rect x="1006.2" y="128.1" transform="matrix(-0.7071 -0.7071 0.7071 -0.7071 1628.2445 932.8624)" fill="#223B40" width="2.3" height="2.3"/>
	
		<rect x="933.1" y="172.3" transform="matrix(-0.7071 0.7071 -0.7071 -0.7071 1723.6621 -367.1451)" fill="#223B40" width="9.6" height="2.3"/>
	
		<rect x="971" y="134.4" transform="matrix(-0.7071 0.7071 -0.7071 -0.7071 1761.5468 -458.6066)" fill="#223B40" width="9.6" height="2.3"/>
	
		<rect x="945.7" y="159.6" transform="matrix(-0.7071 0.7071 -0.7071 -0.7071 1736.2904 -397.6324)" fill="#223B40" width="9.6" height="2.3"/>
	
		<rect x="958.3" y="147" transform="matrix(-0.7071 0.7071 -0.7071 -0.7071 1748.9185 -428.1194)" fill="#223B40" width="9.6" height="2.3"/>
	
		<rect x="955.7" y="153.3" transform="matrix(0.7071 0.7071 -0.7071 0.7071 389.4685 -631.3257)" fill="#223B40" width="2.3" height="2.3"/>
	
		<rect x="943" y="166" transform="matrix(-0.7071 0.7071 -0.7071 -0.7071 1729.9763 -382.3888)" fill="#223B40" width="2.3" height="2.3"/>
	
		<rect x="930.4" y="178.6" transform="matrix(-0.7071 0.7071 -0.7071 -0.7071 1717.348 -351.9015)" fill="#223B40" width="2.3" height="2.3"/>
	
		<rect x="968.3" y="140.7" transform="matrix(-0.7071 -0.7071 0.7071 -0.7071 1554.6418 927.6319)" fill="#223B40" width="2.3" height="2.3"/>
	
		<rect x="980.9" y="128.1" transform="matrix(-0.7071 -0.7071 0.7071 -0.7071 1585.1292 915.0037)" fill="#223B40" width="2.3" height="2.3"/>
	
		<rect x="1046.7" y="235.4" transform="matrix(0.7071 -0.7071 0.7071 0.7071 140.7119 812.8366)" fill="#223B40" width="9.6" height="2.3"/>
	
		<rect x="1021.5" y="184.9" transform="matrix(0.7071 -0.7071 0.7071 0.7071 169.038 780.1693)" fill="#223B40" width="9.6" height="2.3"/>
	
		<rect x="974.6" y="231.7" transform="matrix(0.7071 0.7071 -0.7071 0.7071 453.0581 -620.6782)" fill="#223B40" width="2.3" height="9.6"/>
	
		<rect x="1037.8" y="168.6" transform="matrix(-0.7071 -0.7071 0.7071 -0.7071 1650.8855 1030.6381)" fill="#223B40" width="2.3" height="9.6"/>
	
		<rect x="1046.7" y="159.6" transform="matrix(-0.7071 0.7071 -0.7071 -0.7071 1908.7583 -469.0846)" fill="#223B40" width="9.6" height="2.3"/>
	
		<rect x="1012.5" y="193.9" transform="matrix(0.7071 0.7071 -0.7071 0.7071 437.3658 -658.5627)" fill="#223B40" width="2.3" height="9.6"/>
	
		<rect x="968.3" y="241.7" transform="matrix(0.7071 0.7071 -0.7071 0.7071 455.6735 -614.3641)" fill="#223B40" width="2.3" height="2.3"/>
	
		<rect x="1018.8" y="191.2" transform="matrix(0.7071 0.7071 -0.7071 0.7071 434.7504 -664.8768)" fill="#223B40" width="2.3" height="2.3"/>
	
		<rect x="1031.4" y="178.6" transform="matrix(-0.7071 -0.7071 0.7071 -0.7071 1635.6417 1036.952)" fill="#223B40" width="2.3" height="2.3"/>
	
		<rect x="1044.1" y="166" transform="matrix(0.7071 -0.7071 0.7071 0.7071 187.9804 788.0154)" fill="#223B40" width="2.3" height="2.3"/>
	
		<rect x="1037.8" y="193.9" transform="matrix(-0.7071 -0.7071 0.7071 -0.7071 1633.0265 1073.7535)" fill="#223B40" width="2.3" height="9.6"/>
	
		<rect x="983.6" y="248" transform="matrix(0.7071 -0.7071 0.7071 0.7071 113.2946 771.8745)" fill="#223B40" width="9.6" height="2.3"/>
	
		<rect x="1021.5" y="210.2" transform="matrix(0.7071 -0.7071 0.7071 0.7071 151.179 787.5667)" fill="#223B40" width="9.6" height="2.3"/>
	
		<rect x="996.2" y="235.4" transform="matrix(0.7071 -0.7071 0.7071 0.7071 125.9227 777.1052)" fill="#223B40" width="9.6" height="2.3"/>
	
		<rect x="1046.7" y="184.9" transform="matrix(0.7071 -0.7071 0.7071 0.7071 176.4355 798.0283)" fill="#223B40" width="9.6" height="2.3"/>
	<path fill="#223B40" d="M1017.8,221.3l-1.6-1.6l-3.2,3.2l-0.8-3.4l-1.2-5.1l-1.4-5.6l6.6,6.6l1.6-1.6l-6.8-6.8l-1.5,1.5l-0.8-3.4
		l0.2-0.2l-0.3-0.3l-1.4-5.6l-2.6-10.8l-0.6-2.5c0.7-0.5,1.4-1,2-1.6c2.2-1.9,3.8-4.3,4.7-6.9l0.3,0.3l6.8-6.8l-1.6-1.6l-4.5,4.5
		c0.1-0.8,0.2-1.6,0.2-2.3c0-0.7,0-1.3-0.1-1.9c-0.3-2.6-1.2-5.1-2.6-7.2c-1.4-2.1-3.2-3.9-5.3-5.3l-0.3-0.3l-0.1,0.1
		c-0.9-0.5-1.9-1-2.9-1.4c-1.9-0.7-3.8-1.1-5.9-1.1c-0.3,0-0.6,0-0.9,0l-0.2,0c-1.7,0.1-3.4,0.5-4.9,1c-1,0.4-2,0.8-2.9,1.4
		l-0.1-0.1l-0.5,0.5c-2,1.3-3.6,3-4.9,4.9c-1.5,2.2-2.4,4.8-2.7,7.5c-0.1,0.6-0.1,1.2-0.1,1.7c0,0,0,0.1,0,0.1
		c0,0.8,0.1,1.6,0.2,2.4l-4.6-4.6l-1.6,1.6l6.8,6.8l0.3-0.3c0.4,1,0.8,2,1.4,2.9c1.4,2.3,3.2,4.2,5.4,5.6l-0.6,2.5l-2.6,10.7
		l-1.4,5.6l-0.3,0.3l0.2,0.2l-0.8,3.4l-1.5-1.5l-6.8,6.8l1.6,1.6l6.6-6.6l-1.4,5.6l-1.2,5l-0.8,3.4l-3.1-3.1l-1.6,1.6l4.1,4.1
		l-0.4,1.7c0,0,0,0.1,0,0.1c-0.1,0.5,0.1,1,0.4,1.4c0.3,0.4,0.8,0.6,1.3,0.6h4.5l-1,1l1.6,1.6l1.6-1.6l-1-1h6.1h11.7h6.1l-1,1
		l1.6,1.6l1.6-1.6l-1-1h4.4c0.5,0,1-0.2,1.3-0.6c0.3-0.4,0.5-0.9,0.4-1.4c0,0,0-0.1,0-0.1l-0.4-1.6L1017.8,221.3z M1010.8,226.3
		h-32.2l10.1-40.8c0.2-0.7-0.1-1.3-0.7-1.7c-2.2-1.2-4-3-5.3-5.1c-1.3-2.2-2-4.7-2-7.2c0,0,0-0.1,0-0.1c0-7.4,5.9-13.6,13.3-14.1
		l0.2,0c0.2,0,0.4,0,0.7,0c7.8,0,14.2,6.4,14.2,14.2c0,4.1-1.8,7.9-4.8,10.6c-0.8,0.7-1.6,1.3-2.5,1.8c-0.6,0.3-0.9,1-0.7,1.7
		L1010.8,226.3z"/>
	
		<rect x="1018.8" y="216.5" transform="matrix(0.7071 -0.7071 0.7071 0.7071 144.865 784.9514)" fill="#223B40" width="2.3" height="2.3"/>
	
		<rect x="993.6" y="241.7" transform="matrix(0.7071 0.7071 -0.7071 0.7071 463.071 -632.223)" fill="#223B40" width="2.3" height="2.3"/>
	
		<rect x="980.9" y="254.4" transform="matrix(0.7071 0.7071 -0.7071 0.7071 468.3017 -619.5949)" fill="#223B40" width="2.3" height="2.3"/>
	
		<rect x="1031.4" y="203.8" transform="matrix(0.7071 -0.7071 0.7071 0.7071 157.4931 790.1821)" fill="#223B40" width="2.3" height="2.3"/>
	
		<rect x="1044.1" y="191.2" transform="matrix(-0.7071 -0.7071 0.7071 -0.7071 1648.2701 1067.4393)" fill="#223B40" width="2.3" height="2.3"/>
	
		<rect x="1056.7" y="178.6" transform="matrix(0.7071 -0.7071 0.7071 0.7071 182.7496 800.6437)" fill="#223B40" width="2.3" height="2.3"/>
	
		<rect x="1025.1" y="231.7" transform="matrix(0.7071 0.7071 -0.7071 0.7071 467.8528 -656.3961)" fill="#223B40" width="2.3" height="9.6"/>
	
		<rect x="1046.7" y="210.2" transform="matrix(0.7071 -0.7071 0.7071 0.7071 158.5766 805.4255)" fill="#223B40" width="9.6" height="2.3"/>
	
		<rect x="1008.8" y="248" transform="matrix(0.7071 -0.7071 0.7071 0.7071 120.692 789.7332)" fill="#223B40" width="9.6" height="2.3"/>
	
		<rect x="1034.1" y="222.8" transform="matrix(0.7071 -0.7071 0.7071 0.7071 145.9484 800.1948)" fill="#223B40" width="9.6" height="2.3"/>
	
		<rect x="1031.4" y="229.1" transform="matrix(0.7071 -0.7071 0.7071 0.7071 139.6343 797.5793)" fill="#223B40" width="2.3" height="2.3"/>
	
		<rect x="1018.8" y="241.7" transform="matrix(0.7071 -0.7071 0.7071 0.7071 127.0061 792.3486)" fill="#223B40" width="2.3" height="2.3"/>
	
		<rect x="1006.2" y="254.4" transform="matrix(0.7071 0.7071 -0.7071 0.7071 475.699 -637.4537)" fill="#223B40" width="2.3" height="2.3"/>
	
		<rect x="1044.1" y="216.5" transform="matrix(0.7071 -0.7071 0.7071 0.7071 152.2625 802.8101)" fill="#223B40" width="2.3" height="2.3"/>
	
		<rect x="1056.7" y="203.8" transform="matrix(0.7071 -0.7071 0.7071 0.7071 164.8907 808.0408)" fill="#223B40" width="2.3" height="2.3"/>
	<path fill="#223B40" d="M1068.4,238.9c-0.2-0.5-0.8-0.9-1.4-0.9c-1.9,0-4.7-1.8-7.1-4.5c-1.8-2-2.4-3.6-2.4-4.1
		c6.8-11.3,10.4-24.3,10.4-37.6c0-40.4-32.9-73.3-73.3-73.3c-40.4,0-73.3,32.9-73.3,73.3s32.9,73.3,73.3,73.3
		c19.4,0,37.6-7.5,51.4-21c0.5,0.1,1.3,0.3,2.2,0.5c2.1,0.6,4.9,1.3,8,1.3c4.8,0,8.8-1.8,12-5.4
		C1068.5,240,1068.6,239.4,1068.4,238.9z M1056.2,242.9c-1.6,0-3.2-0.2-4.5-0.5c-1-0.2-1.9-0.5-2.7-0.7c-2.5-0.7-3.8-0.9-4.8,0
		c-4.5,4.5-9.5,8.2-14.8,11.3l1.1-1.1l-6.8-6.8l-1.6,1.6l6.7,6.7c-0.9,0.5-1.8,1-2.8,1.5c-3.1,1.6-6.3,2.9-9.6,3.9
		c-1.1,0.3-2.2,0.7-3.3,1l-2-2l-1.6,1.6l1,1c-2.5,0.6-5,1-7.6,1.3l2.3-2.3l-1.6-1.6l-4.3,4.3c-1.5,0.1-2.9,0.2-4.4,0.2
		c-0.1,0-0.2,0-0.3,0c-0.1,0-0.1,0-0.2,0c-1.5,0-2.9-0.1-4.4-0.2l-4.3-4.3l-1.6,1.6l2.4,2.4c-2.6-0.3-5.1-0.7-7.6-1.3l1-1l-1.6-1.6
		l-2,2c-1.1-0.3-2.2-0.6-3.3-1c-3.3-1.1-6.6-2.4-9.6-3.9c-0.9-0.5-1.9-0.9-2.8-1.5l6.7-6.7l-1.6-1.6l-6.8,6.8l1.2,1.2
		c-11.9-6.8-21.7-16.9-28-29.1c-1.6-3.1-2.9-6.2-4-9.5c-0.4-1.1-0.7-2.1-1-3.2l2.4-2.4l-1.6-1.6l-1.4,1.4c-0.3-1.1-0.5-2.3-0.8-3.5
		c0-0.1,0-0.1,0-0.2c-0.3-1.6-0.6-3.3-0.8-5l3,3l1.6-1.6l-4.9-4.9c-0.1-1.5-0.2-3-0.2-4.6c0-1.1,0-2.2,0.1-3.3l5-5l-1.6-1.6
		l-3.2,3.2c0.2-1.6,0.4-3.3,0.6-4.9c0-0.2,0.1-0.4,0.1-0.7c0.2-1.2,0.4-2.4,0.7-3.5l1.7,1.7l1.6-1.6l-2.6-2.6c0.3-1.1,0.6-2.2,1-3.3
		c1.1-3.3,2.4-6.5,3.9-9.6c2.3-4.5,5-8.8,8.1-12.7l2.2-2.2l-0.2-0.2c0.7-0.7,1.3-1.5,2-2.2l0.3,0.3l1.6-1.6l-0.3-0.3
		c0.7-0.7,1.4-1.4,2.2-2.1l0.2,0.2l2.8-2.8c3.7-3,7.7-5.6,12-7.8c3-1.6,6.2-2.9,9.5-4c1.1-0.4,2.1-0.7,3.2-1l3,3l1.6-1.6l-2-2
		c1.1-0.3,2.3-0.5,3.5-0.8c0.5-0.1,1.1-0.2,1.6-0.3c1.6-0.3,3.2-0.5,4.9-0.6l-3.7,3.7l1.6,1.6l5.6-5.6c1.1-0.1,2.2-0.1,3.3-0.1
		c1.1,0,2.3,0,3.4,0.1l5.6,5.6l1.6-1.6l-3.7-3.7c1.6,0.2,3.3,0.4,4.9,0.7c0.5,0.1,1.1,0.2,1.6,0.3c1.2,0.2,2.3,0.5,3.5,0.8l-2,2
		l1.6,1.6l2.9-2.9c1.1,0.3,2.2,0.6,3.2,1c3.3,1.1,6.5,2.5,9.5,4c4.4,2.3,8.6,5,12.4,8.1l2.4,2.4l0.2-0.2c0.7,0.7,1.5,1.4,2.2,2.1
		l-0.2,0.2l1.6,1.6l0.2-0.2c0.7,0.7,1.4,1.5,2,2.2l-0.1,0.1l1.7,1.7c3.3,4.1,6.2,8.5,8.6,13.3c1.5,3.1,2.9,6.3,3.9,9.6
		c0.3,1.1,0.7,2.2,1,3.3l-2.6,2.6l1.6,1.6l1.6-1.6c0.3,1.2,0.5,2.3,0.7,3.5c0,0.2,0.1,0.3,0.1,0.5c0.3,1.6,0.5,3.2,0.7,4.9l-3.1-3.1
		l-1.6,1.6l4.9,4.9c0.1,1.1,0.1,2.2,0.1,3.4c0,1.6-0.1,3.1-0.2,4.7l-4.9,4.9l1.6,1.6l2.9-2.9c-0.2,1.7-0.5,3.3-0.8,5c0,0,0,0,0,0
		c-0.2,1.2-0.5,2.3-0.8,3.5l-1.4-1.4l-1.6,1.6l2.3,2.3c-0.3,1.1-0.6,2.2-1,3.2c-1.1,3.3-2.4,6.5-4,9.6c-0.7,1.4-1.5,2.8-2.3,4.1
		c-0.7,1.1-0.4,2.7,0.7,4.6c1.5,2.6,4.8,6.3,8.4,7.8c-0.4,0.3-0.8,0.5-1.1,0.8C1060.9,242.3,1058.7,242.9,1056.2,242.9z"/>
</g>
<g>
	<path fill="#223B40" d="M1336.3,125.8l-0.2,0c0.1,0,0.2,0.1,0.3,0.1L1336.3,125.8z"/>
	<path fill="#223B40" d="M1242.1,230.4l1.8,1.2c-0.7-1.1-1.3-2.2-2-3.4L1242.1,230.4z"/>
	<path fill="#223B40" d="M1262.7,253.4l3.1,0.9c-1.4-0.9-2.7-1.8-4-2.8L1262.7,253.4z"/>
	<path fill="#223B40" d="M1361.5,144.4l-0.2-0.5l-0.3-0.1C1361.1,144,1361.3,144.2,1361.5,144.4z"/>
	<path fill="#223B40" d="M1232.5,201.1l0.9,1.3c-0.2-1.3-0.3-2.6-0.4-3.9L1232.5,201.1z"/>
	<path fill="#223B40" d="M1251.5,143.7l-0.3,0.7c0.3-0.3,0.6-0.7,0.9-1L1251.5,143.7z"/>
	<path fill="#223B40" d="M1276.1,125.8l-0.3,0.4c0.4-0.2,0.7-0.3,1.1-0.5L1276.1,125.8z"/>
	<path fill="#223B40" d="M1306.7,119.5l-0.3-0.1l-0.5,0.1c0.1,0,0.2,0,0.3,0C1306.5,119.5,1306.6,119.5,1306.7,119.5z"/>
	<path fill="#223B40" d="M1235.7,170.6v1.9c0.3-1,0.6-1.9,0.9-2.9L1235.7,170.6z"/>
	<path fill="#223B40" d="M1370.3,230.5l0.1-1.4c-0.5,0.9-1,1.8-1.6,2.7L1370.3,230.5z"/>
	<path fill="#223B40" d="M1348.2,253.4l1.5-0.1l1.5-2.1C1350.3,251.9,1349.3,252.7,1348.2,253.4z"/>
	<path fill="#223B40" d="M1379.8,201.2l-0.3-1.1c-0.1,0.7-0.1,1.3-0.2,2L1379.8,201.2z"/>
	<path fill="#223B40" d="M1321.6,265.8l1.7-1.3c-1.2,0.3-2.5,0.6-3.8,0.8L1321.6,265.8z"/>
	<path fill="#223B40" d="M1376.6,170.5l-0.5-0.7c0.1,0.4,0.3,0.8,0.4,1.2L1376.6,170.5z"/>
	<path fill="#223B40" d="M1290.7,265.8l2-0.6c-1.6-0.3-3.2-0.6-4.7-1L1290.7,265.8z"/>
	<path fill="#223B40" d="M1270.9,257.4c3.6,2,7.4,3.7,11.4,5.1l-5.4-3.3L1270.9,257.4z"/>
	<path fill="#223B40" d="M1296.1,265.8c3.4,0.5,6.8,0.7,10.3,0.7c3.1,0,6.2-0.2,9.3-0.6l-11-2.8L1296.1,265.8z"/>
	<polygon fill="#223B40" points="1350.9,231 1359.5,239 1369.9,217.9 	"/>
	<path fill="#223B40" d="M1326.9,263.5c6.7-1.9,13-4.8,18.7-8.5l-8.7,0.6L1326.9,263.5z"/>
	<polygon fill="#223B40" points="1319.3,243.3 1336.3,253.8 1348,232.3 	"/>
	<polygon fill="#223B40" points="1262.7,219.7 1282.6,244.4 1289,229.8 1291.3,220.6 	"/>
	<polygon fill="#223B40" points="1275.9,190.2 1262.3,218.1 1291.7,219.1 1292,217.8 	"/>
	<polygon fill="#223B40" points="1277.2,189.5 1292.5,215.6 1298.5,191.7 	"/>
	<polygon fill="#223B40" points="1284.8,246.5 1304.4,261.2 1316,244 	"/>
	<polygon fill="#223B40" points="1355.2,161.3 1348.1,138.7 1329.1,144.7 	"/>
	<polygon fill="#223B40" points="1326,143.3 1318.2,125.3 1296.3,135.3 	"/>
	<path fill="#223B40" d="M1234,205.8c1.2,6.6,3.2,12.9,6,18.8l-1.1-11.8L1234,205.8z"/>
	<path fill="#223B40" d="M1358.2,141c-5.2-5.2-11.3-9.7-17.9-13.1l8.8,9.2L1358.2,141z"/>
	<path fill="#223B40" d="M1373.8,163.8c-2.3-5.2-5.1-10.2-8.5-14.7l3.2,7.1L1373.8,163.8z"/>
	<path fill="#223B40" d="M1379.8,195.8c0-0.9,0.1-1.9,0.1-2.8c0-6.5-0.8-12.8-2.4-18.7l-1.6,8.5L1379.8,195.8z"/>
	<path fill="#223B40" d="M1246,235c3.7,5.3,8.1,10.1,13.1,14.3l-3.8-8L1246,235z"/>
	<path fill="#223B40" d="M1268,158.2l8.1,28.9l14.1-15.4c0.2-3.7,1.5-7,3.7-9.6L1268,158.2z"/>
	<path fill="#223B40" d="M1372.1,225.9c3.1-6.2,5.4-12.9,6.6-19.9l-6.1,9.9L1372.1,225.9z"/>
	<path fill="#223B40" d="M1234.2,178.9c-0.8,4.2-1.3,8.6-1.3,13l1.3-6.4V178.9z"/>
	<path fill="#223B40" d="M1248.4,147.8c-4.3,5.5-7.8,11.6-10.4,18.2l6.4-6.8L1248.4,147.8z"/>
	<path fill="#223B40" d="M1299,119.9c-5.4,0.5-10.7,1.7-15.7,3.3l7.6-1.1L1299,119.9z"/>
	<path fill="#223B40" d="M1272.5,127.7c-6.4,3.3-12.3,7.6-17.4,12.6l11.4-5.2L1272.5,127.7z"/>
	<path fill="#223B40" d="M1331.9,124.1c-6.7-2.5-13.8-4-21.2-4.4l8.2,3.8L1331.9,124.1z"/>
	<polygon fill="#223B40" points="1260.2,219.4 1241.3,213.8 1255.6,238.7 	"/>
	<polygon fill="#223B40" points="1349.9,232.1 1338.7,252.7 1358.5,240.2 	"/>
	<polygon fill="#223B40" points="1317.8,244.1 1306.3,261.1 1334.6,254.6 	"/>
	<path fill="#223B40" d="M1362,237.4l6.7-5.6c0.5-0.9,1.1-1.8,1.6-2.7l0.5-9.8L1362,237.4z"/>
	<path fill="#223B40" d="M1374.8,179.4l1.6-8.4c-0.1-0.4-0.3-0.8-0.4-1.2l-6.3-9.1L1374.8,179.4z"/>
	<path fill="#223B40" d="M1352.1,140l13.3,13.1l-4-8.7c-0.2-0.2-0.4-0.4-0.5-0.6L1352.1,140z"/>
	<path fill="#223B40" d="M1372.9,212.4l6.3-10.3c0.1-0.7,0.2-1.3,0.2-2l-4.1-13.4L1372.9,212.4z"/>
	<polygon fill="#223B40" points="1283.1,247.1 1278.4,257.8 1301.8,261.1 	"/>
	<polygon fill="#223B40" points="1293.1,134.8 1290.5,124 1270.1,134.9 	"/>
	<polygon fill="#223B40" points="1294.6,134.4 1315.4,124.8 1292,123.7 	"/>
	<polygon fill="#223B40" points="1266.2,156.6 1266.2,137.7 1247,158.7 	"/>
	<polygon fill="#223B40" points="1247.3,187 1235.9,186.4 1239.9,209.4 	"/>
	<polygon fill="#223B40" points="1281.7,246.5 1258.7,242 1277,257.2 	"/>
	<polygon fill="#223B40" points="1247.5,185.5 1244.6,162.8 1236.1,184.9 	"/>
	<path fill="#223B40" d="M1360.3,240.8l-6.5,9.3c2.8,2,13.9,9,26-2c-9.4,0-12.5-9.4-12.5-13.2L1360.3,240.8z"/>
	<path fill="#223B40" d="M1280.8,259.7l7.2,4.5c1.6,0.4,3.1,0.7,4.7,1l8.4-2.7L1280.8,259.7z"/>
	<path fill="#223B40" d="M1307.8,262.3l11.6,3c1.3-0.2,2.5-0.5,3.8-0.8l10.2-8.1L1307.8,262.3z"/>
	<path fill="#223B40" d="M1258.1,243.5l3.7,7.9c1.3,1,2.6,1.9,4,2.8l8.1,2.4L1258.1,243.5z"/>
	<path fill="#223B40" d="M1356.9,243l-17.4,11l8.6-0.6c1-0.7,2-1.5,3-2.2L1356.9,243z"/>
	<path fill="#223B40" d="M1240.7,215.9l1.1,12.3c0.6,1.1,1.3,2.3,2,3.4l9.7,6.6L1240.7,215.9z"/>
	<polygon fill="#223B40" points="1327.7,143.5 1346.5,137.6 1320.1,125.7 	"/>
	<path fill="#223B40" d="M1314.8,123.3l-8-3.8c-0.1,0-0.3,0-0.4,0c-0.1,0-0.2,0-0.3,0l-10.2,2.8L1314.8,123.3z"/>
	<path fill="#223B40" d="M1286.9,124.2l-10,1.4c-0.4,0.2-0.7,0.3-1.1,0.5l-5.8,7.1L1286.9,124.2z"/>
	<path fill="#223B40" d="M1345.4,135.4l-9-9.5c-0.1,0-0.2-0.1-0.3-0.1l-13.5-0.6L1345.4,135.4z"/>
	<path fill="#223B40" d="M1263.9,138l-11.7,5.3c-0.3,0.3-0.6,0.7-0.9,1l-4.2,12L1263.9,138z"/>
	<path fill="#223B40" d="M1242.9,163l-6.2,6.6c-0.3,1-0.6,1.9-0.9,2.9v8.9L1242.9,163z"/>
	<path fill="#223B40" d="M1234.9,189.7l-1.8,8.9c0.1,1.3,0.2,2.6,0.4,3.9l4.8,6.9L1234.9,189.7z"/>
	<polygon fill="#223B40" points="1330.2,212.4 1349.3,229.5 1357,198.8 	"/>
	<polygon fill="#223B40" points="1274.8,187.8 1266.7,159.1 1249.7,185.6 	"/>
	<polygon fill="#223B40" points="1274.6,189.3 1249.5,187.2 1261.2,216.9 	"/>
	<polygon fill="#223B40" points="1315.8,242.5 1303,229.8 1290.7,229.8 1284,245 	"/>
	<path fill="#223B40" d="M1333,175.1l22-12.1l-26.7-17C1329.7,154.4,1332.3,170.9,1333,175.1z"/>
	<path fill="#223B40" d="M1290.3,173.8l-12.9,14.2l21.4,2.1l0.8-3.2C1294.5,184.6,1290.9,179.7,1290.3,173.8z"/>
	<path fill="#223B40" d="M1333.9,176.4c2.2,1.6,7.8,6.2,23.4,19.3l-1.5-31.3L1333.9,176.4z"/>
	<path fill="#223B40" d="M1329.8,210.9l27-13.7c-8.5-7.1-20.3-16.9-23.7-19.6L1329.8,210.9z"/>
	<polygon fill="#223B40" points="1328.2,210.7 1331.5,177.7 1313.4,188.3 1315.9,199.4 	"/>
	<polygon fill="#223B40" points="1327.7,213.3 1319.4,215.1 1322.3,227.9 	"/>
	<polygon fill="#223B40" points="1327.3,211.8 1316.5,202 1319.1,213.6 	"/>
	<path fill="#223B40" d="M1307.6,156.2l17.8-11.5l-30.4-8.1l4.7,21c2-0.9,4.2-1.4,6.6-1.4C1306.8,156.2,1307.2,156.2,1307.6,156.2z"
		/>
	<polygon fill="#223B40" points="1329.2,213.6 1318.9,241.8 1348.2,230.6 	"/>
	<path fill="#223B40" d="M1322.4,171.1l9,4c-0.1-0.9-0.3-2.1-0.6-3.6c-0.5-3-1.1-7-1.8-11c-1-6.1-2-12.3-2.4-14.8l-16.8,10.9
		C1316.7,158.1,1321.9,164,1322.4,171.1z"/>
	<polygon fill="#223B40" points="1317.3,241.7 1321.6,229.8 1305.2,229.8 	"/>
	<path fill="#223B40" d="M1316.8,184.6l14-8.2l-8.3-3.6C1322.3,177.5,1320.1,181.7,1316.8,184.6z"/>
	<path fill="#223B40" d="M1293.6,136.9l-24.7,19.9l26.4,3.8c0.9-0.9,2-1.7,3.1-2.3L1293.6,136.9z"/>
	<polygon fill="#223B40" points="1357.7,163.3 1373.4,180 1367.3,157.7 	"/>
	<polygon fill="#223B40" points="1248.8,184.1 1265.5,158.2 1245.9,160.3 	"/>
	<polygon fill="#223B40" points="1280.8,244.7 1261.5,220.5 1256.8,240.1 	"/>
	<polygon fill="#223B40" points="1267.8,155.7 1291.8,136.3 1267.8,136.5 	"/>
	<polygon fill="#223B40" points="1359.2,197.5 1371.3,213.6 1374,184.6 	"/>
	<polygon fill="#223B40" points="1259.8,217.7 1248.4,188.6 1240.6,212 	"/>
	<polygon fill="#223B40" points="1357.4,165.1 1358.9,195.8 1373.9,182.7 	"/>
	<polygon fill="#223B40" points="1358.5,199.1 1350.9,229.1 1370.8,215.5 	"/>
	<polygon fill="#223B40" points="1357,161.9 1366.6,156.4 1350.3,140.4 	"/>
</g>
</svg>
