<?xml version="1.0" encoding="utf-8"?>
<!-- Generator: Adobe Illustrator 18.1.1, SVG Export Plug-In . SVG Version: 6.00 Build 0)  -->
<svg version="1.1" id="Layer_1" xmlns="http://www.w3.org/2000/svg" xmlns:xlink="http://www.w3.org/1999/xlink" x="0px" y="0px"
	 viewBox="577.6 356.6 839.6 184" enable-background="new 577.6 356.6 839.6 184" xml:space="preserve">
<circle fill="none" cx="717.5" cy="452.2" r="5.5"/>
<path fill="none" d="M714.2,397.9l3.3-4.7l17.9-2.5v6.2c1-0.2,1.6-0.3,1.7-0.3c1.2-0.2,1.4-0.7,1.4-1.4c0-2.4,0-7.3,0-8.1
	c0-1.2-0.9-1.2-1.5-1.1c-16,2.5-59.9,9.2-62.9,9.7c-0.7,0.1-1.4,0.6-1.9,1.4c-0.5,0.7-1.2,2.3-0.7,4.5c0.8,3.6,2.9,5,7.3,4.2
	c0,0,19-3,35.4-5.5l0,0l1.2-0.2l2-0.3v-2.6L714.2,397.9z"/>
<circle fill="none" cx="698.3" cy="454.9" r="5.5"/>
<circle fill="none" cx="736.6" cy="449.4" r="5.5"/>
<path fill="#223B40" d="M756.3,395c-0.8-0.7-1.8-1-3-0.8l-7.5,1.1v-13.7c0-1-0.5-2-1.2-2.8c-0.8-0.7-1.8-1-3-0.8
	c-0.6,0.1-65,10-68.6,10.5c-2.7,0.4-5.2,2-7,4.5c-1.8,2.8-1.8,5.5-1.8,9.8c0,4.3,0,94.7,0,94.7c0,4.6,1.6,8.4,4.6,11
	c2.9,2.5,6.8,3.6,11.6,3.6c1.3,0,2.7-0.1,4.1-0.2v17.4c0,6.1,4.4,6.5,6.6,4.1c11.2-12.6,23.1-26.1,23.1-26.1s37.8-5.8,40-6.1
	c0.1,0,0.2,0,0.2,0c1.7-0.3,3.1-1.7,3.1-3.6v-99.7C757.5,396.8,757.1,395.8,756.3,395z M699.1,460.4c-3,0.4-5.8-1.6-6.2-4.6
	c-0.4-3,1.6-5.8,4.6-6.2c3-0.4,5.8,1.6,6.2,4.6C704.2,457.2,702.1,460,699.1,460.4z M718.2,457.6c-3,0.4-5.8-1.6-6.2-4.6
	c-0.4-3,1.6-5.8,4.6-6.2c3-0.4,5.8,1.6,6.2,4.6C723.3,454.4,721.3,457.2,718.2,457.6z M717.5,427v-27l-2,0.3l-1.2,0.2l0,0
	c-16.4,2.6-35.4,5.5-35.4,5.5c-4.4,0.8-6.3-0.5-7.3-4.2c-0.5-2.3,0.2-3.8,0.7-4.5c0.5-0.8,1.3-1.3,1.9-1.4c3-0.4,47-7.3,62.9-9.7
	c0.5-0.1,1.5,0,1.5,1.1c0,0.9,0,5.8,0,8.1c0,0.7-0.2,1.2-1.4,1.4c-0.1,0-0.7,0.1-1.7,0.3v28l-3.3-2.5l-5.3-3.9L717.5,427z
	 M737.4,454.8c-3,0.4-5.8-1.6-6.2-4.6c-0.4-3,1.6-5.8,4.6-6.2s5.8,1.6,6.2,4.6C742.5,451.7,740.4,454.4,737.4,454.8z"/>
<polygon fill="#122123" points="717.5,397.4 717.5,393.3 714.2,397.9 "/>
<polygon opacity="0.6" fill="#223B40" enable-background="new    " points="735.3,425 735.3,397.1 735.3,390.7 717.5,393.3 
	717.5,397.4 717.5,400 717.5,427 726.7,418.7 732,422.6 "/>
<polygon fill="#223B40" points="1010.7,399.4 1032,396 1029.4,407.9 1032,419.3 1010.7,422.6 "/>
<polygon fill="#223B40" points="1019.7,412.3 1010.7,422.6 1010.7,413.8 "/>
<polygon fill="#223B40" points="998.4,392.4 1019.7,389 1019.7,412.3 998.4,415.7 "/>
<path opacity="0.6" fill="#223B40" enable-background="new    " d="M1069.7,488.4l-70.6-32l-56.3,6.4c-1.4,1.7-4.3,5.8-4.3,10.2
	c0,5.1,2.5,9.1,3.1,10.1l43.7,34.7c-0.1-0.9-0.1-1.7-0.1-2.7c0-9.3,5.2-16.5,5.4-16.7c0.5-0.8,1.3-1.2,2.2-1.3L1069.7,488.4z"/>
<path fill="none" d="M996.5,503.3c-1.2,1.9-3.5,6.5-3.5,11.8c0,4.9,2.7,8.9,4.3,10.8l75.1-10.2c-2.6-6.5-3-14.9-2.1-20.9
	L996.5,503.3z"/>
<path fill="#223B40" d="M1083,487.3l-82.1-37.2c-0.5-0.3-1.2-0.4-1.7-0.3l-58.5,6.6c-0.8,0.1-1.4,0.4-1.9,1
	c-0.3,0.3-6.7,7.3-6.7,15.4c0,8,4.5,14.1,4.7,14.4s0.4,0.4,0.5,0.6l55.5,44.1l0,0l0,0c0.6,0.5,1.3,0.6,1.9,0.6c0.1,0,0.1,0,0.3,0
	l0,0c0.1,0,0.1,0,0.3,0l85.8-11.7c1.8-0.3,3-1.8,2.7-3.6c-0.3-1.8-1.8-3-3.6-2.7l-2.5,0.4c-3-5.8-3.2-15.8-2.1-20.6l6.4-0.8
	c1.4-0.1,2.6-1.3,2.9-2.7C1085.1,489.3,1084.3,487.9,1083,487.3z M990.6,498.4c-0.3,0.3-5.4,7.4-5.4,16.7c0,0.9,0.1,1.8,0.1,2.7
	l-43.7-34.7c-0.8-1-3.1-5.2-3.1-10.1c0-4.3,2.9-8.4,4.3-10.2l56.3-6.4l70.5,32l-76.7,8.8C992.1,497.2,991.1,497.8,990.6,498.4z
	 M1071,515.8L995.9,526c-1.6-1.8-4.3-5.8-4.3-10.8c0-5.3,2.2-9.7,3.5-11.8l73.8-8.4C1068.1,500.9,1068.4,509.3,1071,515.8z"/>
<line fill="none" stroke="#223B40" stroke-width="2" stroke-linecap="round" stroke-miterlimit="10" x1="993" y1="500.6" x2="948.5" y2="467.7"/>
<line fill="none" stroke="#223B40" stroke-width="2" stroke-linecap="round" stroke-miterlimit="10" x1="991.7" y1="508.4" x2="1060.9" y2="500.4"/>
<line fill="none" stroke="#223B40" stroke-width="3" stroke-linecap="round" stroke-miterlimit="10" x1="998.4" y1="476" x2="998.4" y2="384.6"/>
<line fill="none" stroke="#223B40" stroke-width="2" stroke-linecap="round" stroke-miterlimit="10" x1="990.2" y1="514.9" x2="1044" y2="508.4"/>
<line fill="none" stroke="#223B40" stroke-width="2" stroke-linecap="round" stroke-miterlimit="10" x1="991.7" y1="521" x2="1011.4" y2="518.6"/>
<circle fill="#223B40" cx="998.4" cy="384.6" r="4.4"/>
<g>
	<path fill="#223B40" d="M1320.7,383.8c-39.3,0-71.2,31.9-71.2,71.2c0,39.3,31.9,71.2,71.2,71.2c39.3,0,71.2-31.9,71.2-71.2
		C1391.8,415.6,1360,383.8,1320.7,383.8z M1280,452c0-0.5,0-1,0-1.6c0-14.8,2.5-23.4,6.7-23.9c0.9,0.1,1.6,0.4,2.3,0.9
		c1.5,1.4,2.8,4.4,3.8,8.7c0.8,4.5,0.9,10.2,1,15.9H1280z M1305.1,483.8c-2.7,0-6-1.8-7-14.1c-0.4-4.4-0.4-9.4-0.5-14.3
		c-0.1-7.6-0.1-15.5-1.4-21.4c-0.6-3.1-1.6-5.6-2.9-7.4c12.2,0,35.9,0,43.2,0c4.3,0,7.2,0.8,8.9,2.5c1.6,1.7,2.3,4.3,2.4,8.5
		l0.2,17.6l-10.5,2.7l-20.9-5.8h-1.8c-0.5,0-1,0.2-1.4,0.6c-0.4,0.4-0.6,0.9-0.5,1.4c0,0,0,0.7,0,1.8c0,2.9-0.1,10.5-1.4,17.1
		C1309.6,482.2,1306.7,483.7,1305.1,483.8z M1357.8,472.7c-1.8,7.3-4.7,11-8.6,11.1c-8.6,0.2-27.8,0.1-37.8,0
		c1.6-2.3,2.9-5.7,3.7-10.2c1.3-6.6,1.5-14,1.5-17.8l20.8,5.8l22.2-5.8C1359.6,458.8,1359.4,466.2,1357.8,472.7z"/>
</g>
</svg>
