<?xml version="1.0" encoding="utf-8"?>
<!-- Generator: Adobe Illustrator 18.1.1, SVG Export Plug-In . SVG Version: 6.00 Build 0)  -->
<svg version="1.1" id="Layer_1" xmlns="http://www.w3.org/2000/svg" xmlns:xlink="http://www.w3.org/1999/xlink" x="0px" y="0px"
	 viewBox="0 0 792 612" enable-background="new 0 0 792 612" xml:space="preserve">
<g>
	<polygon fill="none" points="284.2,233.1 284.2,233.1 284.2,233.1 	"/>
	<path fill="none" d="M286.8,411.1c2,0,3.4-0.8,3.9-2.2c0.8-2.5-1.2-7.3-7.6-12l-1.6-1.2l0.1,0c-0.2-0.1-0.5-0.3-0.7-0.4
		c-9.9-8.2-21.7-21.9-21.7-40.4c0-8.3,3.5-16.3,7.2-24.8c3.7-8.4,7.4-17.1,7.4-25.9c0-9.1-1.8-15.8-3.5-22.2
		c-1.6-6-3.3-12.3-3.3-20.1c0-11.2,6-22.9,10.8-32.3c2.2-4.4,4.2-8.1,4.9-10.7c1.2-4,1.3-8.7,0.8-14c-0.9,3.2-2,6.5-3.3,9.6
		c0.2,1.1,0.3,2.2,0.2,3.4c-0.2,2.3-0.9,4.8-2.1,7.3c-1.2,2.4-4.2,7.7-9.1,9c-2.6,4.6-4.9,9.3-6.3,14.2c0.8,1.1,1.5,2.4,1.9,4
		c0.6,2.2,0.8,4.8,0.5,7.6c-0.4,4-1.6,7.2-3.4,9.5c0.6,6.3,1.5,11.9,2.4,17c0.3,1.9,0.6,3.8,0.9,5.5c3.3,1,5.7,3.9,6.4,8
		c0.4,2.3,0.3,4.9-0.3,7.6c-1.4,6.7-4.9,11.2-9.4,11.9c-0.8,1.9-1.7,3.8-2.6,5.7c-2.9,6.3-6.1,13.1-7.7,19.8c2.3,2.3,3.9,6,4.4,10.7
		c0.3,2.7,0.1,5.4-0.6,7.6c-0.7,2.3-1.8,4.2-3.4,5.5c1.9,10.3,5.9,19.3,12,27.1c0.5-0.1,1.1-0.1,1.6-0.1c4.8,0,8.9,3.5,11,5.7
		c1.9,2,3.4,4.1,4.3,6.3c0.3,0.7,0.5,1.4,0.7,2.1l0.4,0.1C283.7,410.7,285.4,411.1,286.8,411.1z"/>
	<path fill="none" d="M540.4,345.3c-1.6-6.7-4.8-13.7-7.8-20c-0.9-1.9-1.8-3.9-2.6-5.8c-4.4-0.9-7.8-5.3-9.2-11.9
		c-0.5-2.7-0.6-5.3-0.3-7.6c0.7-4,2.9-6.9,6.1-8c0.3-1.8,0.6-3.7,0.9-5.6c0.9-5.2,1.9-10.9,2.4-17.3c-1.7-2.3-2.8-5.4-3.2-9.2
		c-0.3-2.7-0.1-5.4,0.5-7.6c0.4-1.4,1-2.7,1.7-3.7c-1.4-5-3.8-9.8-6.5-14.5c-4.8-1.4-7.7-6.6-8.8-9c-1.2-2.5-1.9-5-2.1-7.3
		c-0.1-1.1,0-2.1,0.1-3.1c-1.4-3.2-2.6-6.6-3.5-9.9c-0.5,5.3-0.4,10,0.8,14c0.8,2.6,2.7,6.4,4.9,10.7c4.8,9.4,10.8,21.2,10.8,32.3
		c0,7.8-1.7,14.1-3.3,20.1c-1.7,6.4-3.5,13-3.5,22.2c0,8.8,3.8,17.5,7.4,25.9c3.7,8.5,7.2,16.5,7.2,24.8c0,18.6-11.8,32.2-21.7,40.4
		c-0.3,0.2-0.5,0.4-0.8,0.5l-1.5,1.1c-6.4,4.7-8.4,9.5-7.6,12c0.5,1.4,1.8,2.2,3.9,2.2c1.5,0,3.2-0.4,5.2-1.2l0.5-0.2
		c0.2-0.6,0.4-1.2,0.6-1.9c0.9-2.1,2.4-4.3,4.3-6.3c2-2.1,6.2-5.7,11-5.7c0.5,0,1,0,1.4,0.1c6.1-7.8,10-16.9,11.9-27.2
		c-1.5-1.3-2.6-3.1-3.2-5.4c-0.6-2.2-0.8-4.8-0.6-7.6C536.7,351.3,538.2,347.6,540.4,345.3z"/>
	<path fill="#FFFFFF" d="M505,411.1c-2,0-3.4-0.8-3.9-2.2c-0.8-2.5,1.2-7.3,7.6-12l1.5-1.1c-0.5,0.2-1,0.3-1.5,0.3
		c-0.2,0-0.3,0-0.5-0.1c-0.9-0.1-1.7-0.5-2.3-1.2c-1.3-1.5-1.1-3.8,0.5-5.1c8.1-6.8,17.8-17.6,18.9-31.9c0,0,0,0,0-0.1
		c0-0.2,0-0.4,0-0.6c0-0.7,0.1-1.5,0.1-2.3c0,0,0-0.1,0-0.2c0-5.1-1.8-10.5-4.2-16.1c-0.5,0.7-1.1,1.2-1.9,1.4
		c-2.5,0.7-5.4-1.8-6.5-5.5c-1.1-3.8,0.1-7.4,2.6-8.1c0.2-0.1,0.4-0.1,0.5-0.1c-2.9-7-5.2-14.3-5.2-22.1c0-0.1,0-0.2,0-0.3
		c0-10,2-17.3,3.8-23.8c1.6-5.8,3-11.3,3.1-18.2c-2-0.5-3.9-2.6-4.7-5.5c-1-3.4-0.1-6.7,1.9-7.8c-2-5.5-4.8-10.9-7.3-15.7
		c-2.4-4.7-4.5-8.7-5.4-12c-0.9-3.2-1.3-6.6-1.3-10.3c0-1.1,0-2.2,0.1-3.3c0,0,0,0,0,0.1c-1.4,4.3-2.2,8.9-2.3,13.6c0,0,0,0.1,0,0.1
		c-0.1,6.6,2.2,12.8,4.5,19.4c2.4,6.6,4.8,13.4,4.9,20.9c0,0.1,0,0.2,0,0.2c0,7.1-2.8,13.5-5.7,19.8c0.1,0,0.1,0,0.2,0
		c2.9,0.7,4.2,5.8,2.8,11.3s-4.8,9.4-7.8,8.6c-0.7-0.2-1.4-0.6-1.9-1.3c-0.2,1.4-0.3,2.8-0.3,4.2c0,0,0,0.1,0,0.1
		c0,8.2,2.2,16.6,4.4,24.8c2.2,8.2,4.2,15.9,4.2,23.5c0,0.1,0,0.2,0,0.3c0,16.7-19.8,31.9-41.5,31.9c-13.7,0-34.8-5.1-38.8-16.4
		c-0.4-1.2-0.7-2.6-0.7-4.1c0.1-3.8,2.1-8.7,8.7-14.2c1.3-1.1,2.7-2.2,4.1-3.3c4.7-3.8,8.9-7.5,12.7-11.1c8.8-8.3,15.2-16,19.8-23.2
		c12.8-19.6,12.8-35.6,12.8-50.3c0-0.1,0-0.2,0-0.3c-0.1-22.2-8.9-43.3-25-59.5C440,186.1,418.6,177,396,177c0,0,0,0-0.1,0
		c0,0,0,0,0,0c-22.6,0-44,9.1-60.2,25.5c-16.1,16.3-25,37.5-25,59.8c0,8.8,0.8,16.7,2.3,23.7c6.5,31.2,25.7,46.8,43.1,60.9
		c1.4,1.1,2.7,2.2,4.1,3.3c5.4,4.4,7.7,8.5,8.5,11.9c0.5,2.5,0.2,4.7-0.4,6.4c-4,11.3-25.1,16.4-38.8,16.4
		c-19.8,0-38-12.7-41.1-27.6c-0.3-1.4-0.4-2.9-0.4-4.3c0-7.7,2.1-15.6,4.2-23.8c1.1-4.3,2.3-8.6,3.1-13c-3.1-1.1-5.4-6.2-5.4-12.3
		c0-5.4,1.8-10,4.3-11.8c-1.2-3.3-2.6-6.4-4.1-9.6c-2.3-5-4.7-10.1-5.7-15.6c-0.3-1.8-0.5-3.6-0.5-5.4c0-7.6,2.5-14.5,4.9-21.1
		c2.4-6.5,4.6-12.7,4.5-19.4c0-3-0.4-6-1-8.9c-0.4-1.7-0.8-3.3-1.3-4.9c0.3,4.9-0.1,9.4-1.3,13.6c-1,3.3-3,7.3-5.4,12
		c-3.6,7-7.9,15.5-9.5,23.4c0.3-0.1,0.6-0.1,0.9-0.1c1.8,0.2,3,2.8,2.7,5.7c-0.3,3-2,5.2-3.9,5.1c0,0-0.1,0-0.1,0
		c0.2,1.5,0.4,2.9,0.6,4.3c0.6,3,1.3,5.9,2.1,8.8c0.8,2.8,1.6,5.8,2.2,9.1c0.9,4.3,1.5,9.2,1.5,15c0,10.3-4.1,19.7-8,28.8
		c-3.4,7.8-6.6,15.1-6.6,21.9c0,15.8,10.4,27.7,19.1,34.9c1.5,1.3,1.7,3.5,0.5,5.1c-0.6,0.7-1.5,1.2-2.4,1.3c-0.1,0-0.3,0-0.4,0
		c-0.6,0-1.1-0.1-1.6-0.4l-0.1,0l1.6,1.2c6.4,4.7,8.4,9.5,7.6,12c-0.5,1.4-1.8,2.2-3.9,2.2c-1.4,0-3-0.4-4.9-1.1l-0.4-0.1
		c0.1,0.2,0.1,0.5,0.1,0.7c0.1,0.4,0.1,0.8,0.1,1.1c0,0.1,0,0.3,0,0.4c24,15.4,62.4,23.3,114.2,23.3c51.9,0,90.3-7.9,114.3-23.4
		c0-0.2,0-0.3,0-0.5c0-0.3,0.1-0.7,0.1-1c0-0.2,0.1-0.5,0.2-0.7l-0.5,0.2C508.2,410.7,506.5,411.1,505,411.1z M507.6,374.9
		c1.6-2.5,4.2-3.8,5.7-2.8c1.5,1,1.5,3.8-0.1,6.4c-1.6,2.5-4.2,3.8-5.7,2.8C505.9,380.2,506,377.4,507.6,374.9z M284.2,233.1
		L284.2,233.1L284.2,233.1L284.2,233.1z M278.3,361.8c-2.5,0.7-5.4-1.8-6.5-5.5c-1.1-3.8,0.1-7.4,2.6-8.1c2.5-0.7,5.4,1.8,6.5,5.5
		C281.9,357.5,280.8,361.1,278.3,361.8z M302.9,383.5c-0.9,0.7-2.5,0.3-3.6-1c-1.1-1.3-1.3-2.9-0.5-3.7c0.9-0.7,2.5-0.3,3.6,1
		C303.6,381.1,303.8,382.8,302.9,383.5z M419.7,260.5c1.6,0.6,3.4,0.8,5.4,0.5c4.1-0.7,7.4-4.1,8.1-8.3c0.5-3.3-0.7-6.4-2.7-8.5
		c-0.3-0.3-0.2-0.9,0.3-1c2.3-0.5,4.9-0.5,7.5,0.3c6,1.8,10.4,7.2,10.8,13.5c0.6,8.9-6.4,16.2-15.2,16.2c-7.4,0-13.5-5.2-14.9-12.2
		C418.8,260.7,419.2,260.4,419.7,260.5z M381.7,219.6c1.6,0.6,3.4,0.8,5.4,0.5c4.1-0.7,7.4-4.1,8.1-8.3c0.5-3.3-0.7-6.4-2.7-8.5
		c-0.3-0.3-0.2-0.9,0.3-1c2.3-0.5,4.9-0.5,7.5,0.3c6,1.8,10.4,7.2,10.8,13.5c0.6,8.9-6.4,16.2-15.2,16.2c-7.4,0-13.5-5.2-14.9-12.2
		C380.9,219.9,381.3,219.5,381.7,219.6z M343,261.2c-0.1-0.5,0.3-0.8,0.8-0.7c1.6,0.6,3.4,0.8,5.4,0.5c4.1-0.7,7.4-4.1,8.1-8.3
		c0.5-3.3-0.7-6.4-2.7-8.5c-0.3-0.3-0.2-0.9,0.3-1c2.3-0.5,4.9-0.5,7.5,0.3c6,1.8,10.4,7.2,10.8,13.5c0.6,8.9-6.4,16.2-15.2,16.2
		C350.5,273.3,344.4,268.1,343,261.2z M395.9,329.8c-38.2,0-38.3-27.6-37.9-32.9c0-0.4,0.5-0.7,0.8-0.5c2.8,1.3,12.7,6,18.8,7.3
		c0.3,0.1,0.5,0.3,0.5,0.6V315c0,0.6,0.8,0.8,1.1,0.3l5.2-9.8c0.1-0.2,0.3-0.3,0.5-0.3h22.2c0.2,0,0.4,0.1,0.5,0.3l5.2,9.8
		c0.3,0.5,1.1,0.3,1.1-0.3v-10.7c0-0.3,0.2-0.5,0.5-0.6c6.1-1.3,16-6,18.8-7.3c0.4-0.2,0.8,0.1,0.8,0.5
		C434.2,302.2,434.1,329.8,395.9,329.8z"/>
	<path fill="#E75A58" d="M395.8,232.5c8.7,0,15.8-7.4,15.2-16.2c-0.4-6.3-4.8-11.7-10.8-13.5c-2.6-0.8-5.1-0.8-7.5-0.3
		c-0.4,0.1-0.6,0.6-0.3,1c2.1,2.1,3.2,5.2,2.7,8.5c-0.6,4.2-3.9,7.5-8.1,8.3c-1.9,0.3-3.7,0.1-5.4-0.5c-0.4-0.2-0.9,0.2-0.8,0.7
		C382.4,227.2,388.5,232.5,395.8,232.5z"/>
	<path fill="#E75A58" d="M373,257.1c-0.4-6.3-4.8-11.7-10.8-13.5c-2.6-0.8-5.1-0.8-7.5-0.3c-0.4,0.1-0.6,0.6-0.3,1
		c2.1,2.1,3.2,5.2,2.7,8.5c-0.6,4.2-3.9,7.5-8.1,8.3c-1.9,0.3-3.7,0.1-5.4-0.5c-0.4-0.2-0.9,0.2-0.8,0.7c1.4,6.9,7.5,12.2,14.9,12.2
		C366.6,273.3,373.6,266,373,257.1z"/>
	<path fill="#E75A58" d="M433.8,273.3c8.7,0,15.8-7.4,15.2-16.2c-0.4-6.3-4.8-11.7-10.8-13.5c-2.6-0.8-5.1-0.8-7.5-0.3
		c-0.4,0.1-0.6,0.6-0.3,1c2.1,2.1,3.2,5.2,2.7,8.5c-0.6,4.2-3.9,7.5-8.1,8.3c-1.9,0.3-3.7,0.1-5.4-0.5c-0.4-0.2-0.9,0.2-0.8,0.7
		C420.3,268.1,426.4,273.3,433.8,273.3z"/>
	<path fill="#E75A58" d="M433.9,296.9c0-0.4-0.5-0.7-0.8-0.5c-2.8,1.3-12.7,6-18.8,7.3c-0.3,0.1-0.5,0.3-0.5,0.6V315
		c0,0.6-0.8,0.8-1.1,0.3l-5.2-9.8c-0.1-0.2-0.3-0.3-0.5-0.3h-22.2c-0.2,0-0.4,0.1-0.5,0.3l-5.2,9.8c-0.3,0.5-1.1,0.3-1.1-0.3v-10.7
		c0-0.3-0.2-0.5-0.5-0.6c-6.1-1.3-16-6-18.8-7.3c-0.4-0.2-0.8,0.1-0.8,0.5c-0.3,5.2-0.2,32.9,37.9,32.9
		C434.1,329.8,434.2,302.2,433.9,296.9z"/>
	<path fill="#FFFFFF" d="M266.5,227.3c0.1,0.1,0.3,0.1,0.5,0.1c1.4,0,3.4-2.2,4.9-5.2c1.6-3.5,1.9-6.8,0.6-7.4
		c-0.1-0.1-0.3-0.1-0.5-0.1c-1.4,0-3.4,2.2-4.9,5.2C265.4,223.3,265.1,226.6,266.5,227.3z"/>
	<path fill="#FFFFFF" d="M256.2,252.1c0,0-0.1,0-0.1,0c-1.4,0-2.9,2.9-3.2,6.6c-0.4,3.8,0.5,7,2,7.2c0,0,0.1,0,0.1,0
		c1.4,0,2.9-2.9,3.2-6.6C258.5,255.5,257.6,252.3,256.2,252.1z"/>
	<path fill="#FFFFFF" d="M260.3,312.5c0.1,0,0.1,0,0.2,0c1.4,0,3.1-2.7,3.8-6.3c0.8-3.8,0.2-7-1.2-7.3c-0.1,0-0.1,0-0.2,0
		c-1.4,0-3.1,2.7-3.8,6.3C258.3,309,258.9,312.3,260.3,312.5z"/>
	<path fill="#FFFFFF" d="M245.6,349.8C245.5,349.8,245.5,349.8,245.6,349.8c-1.6,0.1-2.5,3.3-2.1,7.2c0.4,3.7,1.8,6.7,3.2,6.7
		c0,0,0.1,0,0.1,0c1.5-0.1,2.4-3.3,2-7.2C248.4,352.8,247,349.8,245.6,349.8z"/>
	<path fill="#FFFFFF" d="M265.6,403.1c-0.4,0-0.7,0.1-1,0.3c-1.1,1,0.2,4.1,2.9,6.8c2.1,2.1,4.4,3.5,5.8,3.5c0.4,0,0.7-0.1,1-0.3
		c1.1-1-0.2-4.1-2.9-6.8C269.3,404.4,267,403.1,265.6,403.1z"/>
	<path fill="#FFFFFF" d="M525.2,227.4c0.2,0,0.3,0,0.5-0.1c1.3-0.6,1.1-4-0.6-7.4c-1.5-3.1-3.5-5.2-4.9-5.2c-0.2,0-0.3,0-0.5,0.1
		c-1.3,0.6-1.1,4,0.6,7.4C521.8,225.2,523.9,227.4,525.2,227.4z"/>
	<path fill="#FFFFFF" d="M537.3,265.9c0,0,0.1,0,0.1,0c1.5-0.1,2.3-3.4,2-7.2c-0.4-3.7-1.8-6.6-3.2-6.6c0,0-0.1,0-0.1,0
		c-1.5,0.1-2.3,3.4-2,7.2C534.4,263,535.9,265.9,537.3,265.9z"/>
	<path fill="#FFFFFF" d="M529.1,298.9c-1.4,0.3-2,3.6-1.2,7.3c0.7,3.6,2.4,6.3,3.8,6.3c0.1,0,0.1,0,0.2,0c1.4-0.3,2-3.6,1.2-7.3
		c-0.7-3.6-2.4-6.3-3.8-6.3C529.3,298.9,529.2,298.9,529.1,298.9z"/>
	<path fill="#FFFFFF" d="M546.7,349.8C546.7,349.8,546.7,349.8,546.7,349.8c-1.5,0-3,2.9-3.3,6.7c-0.4,3.8,0.5,7,2,7.2
		c0,0,0.1,0,0.1,0c1.4,0,2.9-2.9,3.2-6.7C549.1,353.2,548.2,350,546.7,349.8z"/>
	<path fill="#E75A58" d="M555.4,350.1c-1.2-4.3-4.2-7.1-8-7.4c-0.1,0-0.2,0-0.2,0c-1.8-7.1-5-14-8-20.4c-0.7-1.5-1.4-3.1-2.1-4.5
		c1.7-1.5,2.9-3.7,3.4-6.4c0.4-2.3,0.3-4.9-0.3-7.6c-1-5.1-3.3-8.9-6.3-10.8c0.3-1.7,0.6-3.4,0.9-5.2c0.8-4.5,1.6-9.3,2.2-14.6
		c0.1,0,0.2,0,0.4,0c0.3,0,0.5,0,0.8,0c3.8-0.4,6.7-3.2,7.9-7.5c0.6-2.2,0.8-4.8,0.5-7.6c-0.8-8-4.9-13.1-10.4-13.1
		c-0.2,0-0.4,0-0.6,0c-1.4-4.2-3.2-8.2-5.3-12c2.5-1.9,3.8-5.1,3.6-8.9c-0.2-2.3-0.9-4.8-2.1-7.3c-1.3-2.8-5.1-9.4-11.4-9.4
		c-1.1,0-2.3,0.2-3.3,0.7c-3.9-11.2-4.8-24-4.8-24.1c0,0,0-0.1,0-0.1c0-0.2,0-0.3-0.1-0.5c0-0.1,0-0.1,0-0.2c0-0.2-0.1-0.3-0.2-0.5
		c0,0,0-0.1-0.1-0.1c-0.1-0.2-0.2-0.4-0.4-0.6c0,0-0.1-0.1-0.1-0.1c-0.1-0.1-0.2-0.2-0.3-0.3c-0.1-0.1-0.2-0.1-0.2-0.2
		c-0.1-0.1-0.2-0.1-0.3-0.2c-0.1-0.1-0.2-0.1-0.4-0.2c-0.1,0-0.1-0.1-0.2-0.1c0,0,0,0-0.1,0c-0.1,0-0.3-0.1-0.4-0.1
		c-0.1,0-0.2,0-0.3-0.1c-0.1,0-0.2,0-0.3,0c-0.1,0-0.3,0-0.4,0c-0.1,0-0.1,0-0.2,0c0,0-0.1,0-0.1,0c-0.2,0-0.3,0-0.5,0.1
		c-0.1,0-0.1,0-0.2,0c-0.2,0-0.3,0.1-0.5,0.2c-0.1,0-0.1,0-0.2,0.1c-0.2,0.1-0.4,0.2-0.6,0.4c0,0-0.1,0.1-0.1,0.1
		c-0.1,0.1-0.3,0.2-0.4,0.4c-0.1,0.1-0.1,0.1-0.2,0.2c-0.1,0.1-0.1,0.2-0.2,0.3c-6.8,10.8-13.8,23.8-14,38.8c-0.1,7.9,2.5,15,5,21.9
		c2.3,6.4,4.5,12.4,4.5,18.7c0,5.9-2.7,11.8-5.6,17.9c-3.3,7.1-7.1,15.2-7.1,24.8c0,9.1,2.3,18,4.6,26.6c2.1,7.8,4,15.2,4,22
		c0,12.7-16.7,24.7-34.3,24.7c-13.2,0-29.7-5-32-11.6c-1.3-3.5,2.5-7.5,5.8-10.3c1.3-1.1,2.7-2.2,4-3.3c21.4-17.4,48-39,48-90.2
		c0-24.2-9.6-47.2-27.1-64.9c-17.6-17.8-40.9-27.6-65.4-27.6s-47.8,9.8-65.4,27.6c-17.5,17.7-27.1,40.7-27.1,64.9
		c0,51.2,26.6,72.8,48,90.2c1.4,1.1,2.7,2.2,4,3.3c3.4,2.8,7.1,6.8,5.8,10.3c-2.4,6.6-18.9,11.6-32,11.6c-17.6,0-34.3-12-34.3-24.7
		c0-6.8,1.9-14.2,4-22c2.3-8.6,4.6-17.5,4.6-26.6c0-9.6-3.7-17.7-7.1-24.8c-2.9-6.2-5.6-12-5.6-17.9c0-6.3,2.2-12.3,4.5-18.7
		c2.5-6.9,5-13.9,5-21.9c-0.1-8.4-1.8-19.6-14-38.8c-0.1-0.1-0.1-0.2-0.2-0.3c-0.1-0.1-0.1-0.1-0.2-0.2c-0.1-0.1-0.3-0.3-0.4-0.4
		c0,0-0.1-0.1-0.1-0.1c-0.2-0.1-0.4-0.3-0.6-0.4c0,0-0.1,0-0.1-0.1c-0.2-0.1-0.3-0.1-0.5-0.2c-0.1,0-0.1,0-0.2,0
		c-0.2,0-0.3-0.1-0.5-0.1c0,0-0.1,0-0.1,0c-0.1,0-0.1,0-0.1,0c-0.1,0-0.3,0-0.4,0c-0.1,0-0.2,0-0.3,0c-0.1,0-0.2,0-0.3,0.1
		c-0.1,0-0.3,0.1-0.4,0.1c0,0,0,0-0.1,0c-0.1,0-0.1,0.1-0.2,0.1c-0.1,0.1-0.2,0.1-0.4,0.2c-0.1,0.1-0.2,0.1-0.3,0.2
		c-0.1,0.1-0.2,0.1-0.3,0.2c-0.1,0.1-0.2,0.2-0.3,0.3c0,0.1-0.1,0.1-0.1,0.2c-0.1,0.2-0.2,0.4-0.3,0.6c0,0.1,0,0.1-0.1,0.2
		c-0.1,0.2-0.1,0.3-0.2,0.5c0,0.1,0,0.1,0,0.2c0,0.1-0.1,0.3-0.1,0.5c0,0,0,0.1,0,0.1c0,0.2-0.9,12.9-4.8,24c-1-0.4-2-0.6-3.1-0.6
		c-6.3,0-10.1,6.5-11.4,9.4c-1.2,2.5-1.9,5-2.1,7.3c-0.3,3.7,1,6.9,3.4,8.8c-2.1,3.9-4,7.9-5.3,12.1c-0.1,0-0.3,0-0.4,0
		c-5.5,0-9.6,5.2-10.4,13.1c-0.3,2.7-0.1,5.4,0.5,7.6c1.2,4.3,4.1,7.1,7.9,7.5c0.3,0,0.5,0,0.8,0c0,0,0.1,0,0.1,0
		c0.6,5.4,1.4,10.2,2.2,14.6c0.3,1.9,0.6,3.7,0.9,5.4c-2.9,1.9-5.1,5.6-6.1,10.6c-0.5,2.7-0.6,5.3-0.3,7.6c0.4,2.6,1.6,4.8,3.2,6.2
		c-0.7,1.5-1.4,3.1-2.2,4.7c-3,6.4-6.2,13.3-8,20.4c-3.8,0.4-6.7,3.1-7.9,7.4c-0.6,2.2-0.8,4.8-0.6,7.6c0.7,7.2,4,12.1,8.7,13
		c2.2,11.2,6.5,21,13.1,29.6c-1.3,2.5-1.4,5.6,0,8.8c0.9,2.1,2.4,4.3,4.3,6.3c2,2.1,6.2,5.7,11,5.7c2.2,0,4.2-0.8,5.7-2.1
		c25.3,15.7,64.6,23.7,117,23.7c52.5,0,91.8-8,117.1-23.8c1.6,1.4,3.6,2.2,5.8,2.2c4.8,0,8.9-3.5,11-5.7c1.9-2,3.4-4.1,4.3-6.3
		c1.4-3.2,1.3-6.4-0.1-8.9c6.5-8.5,10.8-18.2,13-29.4c4.8-0.8,8.2-5.8,8.9-13.1C556.2,354.9,556,352.3,555.4,350.1z M536,252.1
		c0,0,0.1,0,0.1,0c1.4,0,2.9,2.9,3.2,6.6c0.4,3.8-0.5,7-2,7.2c0,0-0.1,0-0.1,0c-1.4,0-2.9-2.9-3.2-6.6
		C533.7,255.5,534.5,252.3,536,252.1z M533.1,305.2c0.8,3.8,0.2,7-1.2,7.3c-0.1,0-0.1,0-0.2,0c-1.4,0-3.1-2.7-3.8-6.3
		c-0.8-3.8-0.2-7,1.2-7.3c0.1,0,0.1,0,0.2,0C530.7,298.9,532.4,301.6,533.1,305.2z M519.8,214.7c0.1-0.1,0.3-0.1,0.5-0.1
		c1.4,0,3.4,2.2,4.9,5.2c1.6,3.5,1.9,6.8,0.6,7.4c-0.1,0.1-0.3,0.1-0.5,0.1c-1.4,0-3.4-2.2-4.9-5.2
		C518.7,218.7,518.4,215.3,519.8,214.7z M267,219.8c1.5-3.1,3.5-5.2,4.9-5.2c0.2,0,0.3,0,0.5,0.1c1.3,0.6,1.1,4-0.6,7.4
		c-1.5,3.1-3.5,5.2-4.9,5.2c-0.2,0-0.3,0-0.5-0.1C265.1,226.6,265.4,223.3,267,219.8z M259.1,305.2c0.7-3.6,2.4-6.3,3.8-6.3
		c0.1,0,0.1,0,0.2,0c1.4,0.3,2,3.6,1.2,7.3c-0.7,3.6-2.4,6.3-3.8,6.3c-0.1,0-0.1,0-0.2,0C258.9,312.3,258.3,309,259.1,305.2z
		 M254.9,265.9c0,0-0.1,0-0.1,0c-1.5-0.1-2.3-3.4-2-7.2c0.4-3.7,1.8-6.6,3.2-6.6c0,0,0.1,0,0.1,0c1.5,0.1,2.3,3.4,2,7.2
		C257.8,263,256.3,265.9,254.9,265.9z M246.8,363.7C246.7,363.7,246.7,363.7,246.8,363.7c-1.5,0-3-2.9-3.3-6.7c-0.4-3.8,0.5-7,2-7.2
		c0,0,0.1,0,0.1,0c1.4,0,2.9,2.9,3.2,6.7C249.1,360.3,248.2,363.5,246.8,363.7z M274.3,413.4c-0.2,0.2-0.6,0.3-1,0.3
		c-1.4,0-3.7-1.3-5.8-3.5c-2.7-2.8-4-5.8-2.9-6.8c0.2-0.2,0.6-0.3,1-0.3c1.4,0,3.7,1.3,5.8,3.5C274,409.3,275.3,412.4,274.3,413.4z
		 M524.7,410.3c-2.1,2.1-4.4,3.5-5.8,3.5c-0.4,0-0.7-0.1-1-0.3c-1.1-1,0.2-4.1,2.9-6.8c2.1-2.1,4.4-3.5,5.8-3.5c0.4,0,0.7,0.1,1,0.3
		C528.6,404.5,527.3,407.5,524.7,410.3z M536.8,363.4c0.6,2.2,1.7,4.1,3.2,5.4c-1.9,10.4-5.9,19.4-11.9,27.2c-0.5-0.1-1-0.1-1.4-0.1
		c-4.8,0-8.9,3.5-11,5.7c-1.9,2-3.4,4.1-4.3,6.3c-0.3,0.6-0.5,1.3-0.6,1.9c-0.1,0.2-0.1,0.5-0.2,0.7c-0.1,0.4-0.1,0.7-0.1,1
		c0,0.2,0,0.3,0,0.5c-24,15.5-62.4,23.4-114.3,23.4c-51.8,0-90.2-7.8-114.2-23.3c0-0.1,0-0.3,0-0.4c0-0.4-0.1-0.7-0.1-1.1
		c0-0.2-0.1-0.5-0.1-0.7c-0.2-0.7-0.4-1.4-0.7-2.1c-0.9-2.1-2.4-4.3-4.3-6.3c-2-2.1-6.2-5.7-11-5.7c-0.6,0-1.1,0.1-1.6,0.1
		c-6-7.8-10-16.8-12-27.1c1.6-1.3,2.7-3.2,3.4-5.5c0.6-2.2,0.8-4.8,0.6-7.6c-0.4-4.7-2-8.4-4.4-10.7c1.6-6.7,4.8-13.5,7.7-19.8
		c0.9-1.9,1.8-3.8,2.6-5.7c4.5-0.8,8.1-5.2,9.4-11.9c0.5-2.7,0.6-5.3,0.3-7.6c-0.7-4.1-3-7-6.4-8c-0.3-1.8-0.6-3.6-0.9-5.5
		c-0.9-5.1-1.9-10.7-2.4-17c1.8-2.3,3-5.6,3.4-9.5c0.3-2.7,0.1-5.4-0.5-7.6c-0.4-1.5-1.1-2.9-1.9-4c1.4-4.9,3.8-9.6,6.3-14.2
		c4.9-1.3,7.9-6.6,9.1-9c1.2-2.5,1.9-5,2.1-7.3c0.1-1.2,0-2.4-0.2-3.4c1.3-3.1,2.4-6.4,3.3-9.6c0.5,5.3,0.4,10-0.8,14
		c-0.8,2.6-2.7,6.4-4.9,10.7C273,239,267,250.7,267,261.9c0,7.8,1.7,14.1,3.3,20.1c1.7,6.4,3.5,13,3.5,22.2c0,8.8-3.8,17.5-7.4,25.9
		c-3.7,8.5-7.2,16.5-7.2,24.8c0,18.6,11.8,32.2,21.7,40.4c0.2,0.2,0.4,0.3,0.7,0.4c0.5,0.3,1.1,0.4,1.6,0.4c0.1,0,0.3,0,0.4,0
		c0.9-0.1,1.7-0.5,2.4-1.3c1.3-1.5,1.1-3.8-0.5-5.1c-8.7-7.2-19.1-19.1-19.1-34.9c0-6.8,3.2-14.1,6.6-21.9c4-9.1,8-18.4,8-28.8
		c0-5.8-0.6-10.6-1.5-15c-0.7-3.3-1.5-6.3-2.2-9.1c-0.8-2.9-1.6-5.8-2.1-8.8c-0.3-1.4-0.5-2.9-0.6-4.3c0,0,0.1,0,0.1,0
		c1.8,0.2,3.6-2.1,3.9-5.1c0.3-3-0.9-5.6-2.7-5.7c-0.3,0-0.6,0-0.9,0.1c1.5-7.9,5.9-16.4,9.5-23.4c2.4-4.7,4.5-8.7,5.4-12
		c1.2-4.1,1.5-8.7,1.3-13.6c0.5,1.6,0.9,3.3,1.3,4.9c0.6,2.9,1,5.8,1,8.9c0.1,6.6-2.2,12.8-4.5,19.4c-2.4,6.7-4.9,13.5-4.9,21.1
		c0,1.8,0.2,3.6,0.5,5.4c1,5.5,3.4,10.6,5.7,15.6c1.4,3.1,2.9,6.3,4.1,9.6c-2.5,1.8-4.3,6.4-4.3,11.8c0,6.1,2.3,11.2,5.4,12.3
		c-0.8,4.3-2,8.7-3.1,13c-2.2,8.3-4.2,16.1-4.2,23.8c0,1.5,0.2,2.9,0.4,4.3c3,14.9,21.2,27.6,41.1,27.6c13.7,0,34.8-5.1,38.8-16.4
		c0.6-1.7,0.9-3.9,0.4-6.4c-0.7-3.4-3.1-7.5-8.5-11.9c-1.3-1.1-2.7-2.2-4.1-3.3c-17.3-14.1-36.5-29.7-43.1-60.9
		c-1.5-7.1-2.3-14.9-2.3-23.7c0-22.3,8.9-43.5,25-59.8c16.2-16.4,37.6-25.5,60.2-25.5c0,0,0,0,0,0c0,0,0,0,0.1,0
		c22.6,0,44,9.1,60.3,25.5c16.1,16.2,24.9,37.4,25,59.5c0,0.1,0,0.2,0,0.3c0,14.7,0,30.6-12.8,50.3c-4.7,7.2-11.1,14.9-19.8,23.2
		c-3.8,3.6-8,7.3-12.7,11.1c-1.4,1.1-2.7,2.2-4.1,3.3c-6.6,5.5-8.7,10.3-8.7,14.2c0,1.6,0.3,2.9,0.7,4.1c4,11.3,25.1,16.4,38.8,16.4
		c21.7,0,41.5-15.2,41.5-31.9c0-0.1,0-0.2,0-0.3c-0.1-7.6-2.1-15.4-4.2-23.5c-2.1-8.2-4.4-16.6-4.4-24.8c0,0,0-0.1,0-0.1
		c0-1.4,0.1-2.9,0.3-4.2c0.5,0.7,1.1,1.1,1.9,1.3c2.9,0.7,6.4-3.1,7.8-8.6s0.1-10.5-2.8-11.3c-0.1,0-0.1,0-0.2,0
		c2.9-6.2,5.7-12.7,5.7-19.8c0-0.1,0-0.2,0-0.2c-0.1-7.5-2.5-14.3-4.9-20.9c-2.4-6.5-4.6-12.7-4.5-19.4c0,0,0-0.1,0-0.1
		c0.1-4.8,0.9-9.3,2.3-13.6c0,0,0,0,0-0.1c-0.1,1.1-0.1,2.2-0.1,3.3c0,3.7,0.4,7.1,1.3,10.3c1,3.3,3,7.3,5.4,12
		c2.5,4.8,5.2,10.2,7.3,15.7c-2,1.1-2.9,4.4-1.9,7.8c0.8,2.9,2.7,5,4.7,5.5c0,6.9-1.5,12.4-3.1,18.2c-1.7,6.5-3.7,13.8-3.8,23.8
		c0,0.1,0,0.2,0,0.3c0,7.8,2.4,15.1,5.2,22.1c-0.2,0-0.4,0-0.5,0.1c-2.5,0.7-3.7,4.3-2.6,8.1c1.1,3.8,4,6.2,6.5,5.5
		c0.8-0.2,1.4-0.7,1.9-1.4c2.3,5.6,4.1,11,4.2,16.1c0,0,0,0.1,0,0.2c0,0.8,0,1.5-0.1,2.3c0,0.2,0,0.4,0,0.6c0,0,0,0,0,0.1
		c-1.2,14.3-10.8,25.2-18.9,31.9c-1.5,1.3-1.7,3.5-0.5,5.1c0.6,0.7,1.4,1.1,2.3,1.2c0.2,0,0.3,0.1,0.5,0.1c0.5,0,1-0.1,1.5-0.3
		c0.3-0.1,0.6-0.3,0.8-0.5c9.9-8.2,21.7-21.9,21.7-40.4c0-8.3-3.5-16.3-7.2-24.8c-3.7-8.4-7.4-17.1-7.4-25.9
		c0-9.1,1.8-15.8,3.5-22.2c1.6-6,3.3-12.3,3.3-20.1c0-11.2-6-22.9-10.8-32.3c-2.2-4.4-4.2-8.1-4.9-10.7c-1.2-4-1.3-8.7-0.8-14
		c0.9,3.3,2.1,6.7,3.5,9.9c-0.2,1-0.2,2-0.1,3.1c0.2,2.3,0.9,4.8,2.1,7.3c1.1,2.4,4.1,7.5,8.8,9c2.6,4.7,5,9.5,6.5,14.5
		c-0.7,1.1-1.3,2.3-1.7,3.7c-0.6,2.2-0.8,4.8-0.5,7.6c0.4,3.8,1.5,7,3.2,9.2c-0.6,6.4-1.5,12.1-2.4,17.3c-0.3,1.9-0.7,3.8-0.9,5.6
		c-3.2,1.1-5.4,4-6.1,8c-0.4,2.3-0.3,4.9,0.3,7.6c1.3,6.6,4.8,11,9.2,11.9c0.8,1.9,1.7,3.8,2.6,5.8c3,6.3,6.2,13.3,7.8,20
		c-2.2,2.3-3.7,5.9-4.2,10.5C536,358.6,536.2,361.2,536.8,363.4z M548.7,357c-0.4,3.7-1.8,6.7-3.2,6.7c0,0-0.1,0-0.1,0
		c-1.5-0.1-2.4-3.3-2-7.2c0.4-3.7,1.8-6.7,3.2-6.7c0,0,0.1,0,0.1,0C548.2,350,549.1,353.2,548.7,357z"/>
	<path fill="#FFFFFF" d="M526.6,403.1c-1.4,0-3.7,1.3-5.8,3.5c-2.7,2.8-4,5.8-2.9,6.8c0.2,0.2,0.6,0.3,1,0.3c1.4,0,3.7-1.3,5.8-3.5
		c2.7-2.8,4-5.8,2.9-6.8C527.3,403.2,527,403.1,526.6,403.1z"/>
	
		<ellipse transform="matrix(-0.2751 -0.9614 0.9614 -0.2751 11.0457 718.3377)" fill="#E75A58" cx="276.3" cy="355" rx="7.1" ry="4.7"/>
	
		<ellipse transform="matrix(-0.6575 -0.7534 0.7534 -0.6575 211.5087 858.483)" fill="#E75A58" cx="300.9" cy="381.2" rx="3.1" ry="2.1"/>
	
		<ellipse transform="matrix(-0.5374 0.8433 -0.8433 -0.5374 1102.3134 148.625)" fill="#E75A58" cx="510.4" cy="376.6" rx="5.4" ry="3.3"/>
</g>
</svg>
