<?xml version="1.0" encoding="utf-8"?>
<!-- Generator: Adobe Illustrator 18.1.1, SVG Export Plug-In . SVG Version: 6.00 Build 0)  -->
<svg version="1.1" id="Layer_1" xmlns="http://www.w3.org/2000/svg" xmlns:xlink="http://www.w3.org/1999/xlink" x="0px" y="0px"
	 viewBox="-4 56 800 500" enable-background="new -4 56 800 500" xml:space="preserve">
<g>
	<path fill="#FFFFFF" d="M450.4,334.9v-27.5h46.4c0,0,1.3-0.1,2.4,0.3c0.6,0.3,1,0.6,1.2,1.4c0.2,0.9-0.2,1.5-1,2.2
		c-1.1,0.8-2.8,1.6-2.8,1.6L450.4,334.9z"/>
	<path fill="#FFFFFF" d="M555.9,309.6c-4,25.1-21.3,44.2-48.9,44.3h-27.9L555.9,309.6z"/>
	<path fill="#FFFFFF" d="M450.4,297.5v-72l34.2-16.2l0.1,47.1c6-5.5,17.1-9.3,26.1-9.3c30.2,0,45.6,26,45.9,50.4v1.3
		c-2.6-1.6-6.4-1.3-6.4-1.3H450.4L450.4,297.5z"/>
	<path fill="#FFFFFF" d="M341.2,302.4v-24.2l68.4,1.3c0.4,0,0.8,0.1,0.8,0.4s-0.1,0.4-0.5,0.5l-0.4,0.1l-66.1,20.6
		C343.4,301.1,341.5,301.6,341.2,302.4"/>
	<path fill="#FFFFFF" d="M344.7,307.4h101h0.6c-3.3,26.2-21,46.3-49.4,46.3c-8.1,0-16-2-22.6-5.3v22.4l-33.1,15.7l-0.1-80
		C342,307.5,344.7,307.4,344.7,307.4"/>
	<path fill="#FFFFFF" d="M446.8,297.5h-47c0,0-2.3,0.1-2.9-1.2c-0.7-1.5,0.7-2.4,0.7-2.4l0.9-0.4l45-15
		C445.7,284.5,446.7,291,446.8,297.5L446.8,297.5z"/>
	<path fill="#FFFFFF" d="M341.2,272.4v-25.2c0,0,54.7-0.2,59.8,0c19.6,0,33,11,40,25.2H341.2z"/>
	<path fill="#FFFFFF" d="M337.3,311.7h-71.1c2.5,10.1,10.5,17.6,21.7,17.6c7.2,0,12.4-2.6,16.1-9.3h32.5c-5.3,24.1-26.7,35-48.4,35
		c-31.5,0-55-19.1-55-54.4c0-9.2,1.6-17.3,4.5-24.5l96.3,1.9c2.3,6.4,3.5,13.1,3.9,21.7C338,307.4,337.3,311.7,337.3,311.7"/>
	<path fill="#FFFFFF" d="M239.2,272.4c8.5-16.8,25.3-26.3,46.4-26.3c21.9,0,37.6,9.6,45.8,26.3H239.2z"/>
	<path fill="#FFFFFF" d="M548.1,346.5v-1.6h1.5c0.7,0,1.4,0,1.4,0.7c0,0.7-0.3,0.9-1.1,0.9H548.1L548.1,346.5z M548.1,347.8h1
		l1.6,2.9h1.8l-1.7-2.9c1.2-0.2,1.9-0.7,1.9-2c0-0.7-0.2-1.5-0.8-1.9c-0.5-0.3-1.3-0.3-1.9-0.3h-3.4v7h1.6L548.1,347.8L548.1,347.8z
		 M549.3,342.6c2.5,0,4.8,2,4.8,4.8c0,2.8-2.3,4.8-4.8,4.8c-2.5,0-4.8-2-4.8-4.8C544.6,344.6,546.7,342.6,549.3,342.6 M549.3,353.7
		c3.6,0,6.4-2.9,6.4-6.4c0-3.6-2.9-6.4-6.4-6.4s-6.4,2.9-6.4,6.4C542.9,350.8,545.7,353.7,549.3,353.7"/>
</g>
</svg>
