<?xml version="1.0" encoding="utf-8"?>
<!-- Generator: Adobe Illustrator 18.1.1, SVG Export Plug-In . SVG Version: 6.00 Build 0)  -->
<svg version="1.1" id="Layer_1" xmlns="http://www.w3.org/2000/svg" xmlns:xlink="http://www.w3.org/1999/xlink" x="0px" y="0px"
	 viewBox="2026.1 58.5 800 500" enable-background="new 2026.1 58.5 800 500" xml:space="preserve">
<g>
	<path fill="#FFFFFF" d="M550.5,445.2c-11.7,0-23.2-15.4-29.4-25.4c-1.3,0.7-2.8,1.1-4.4,1.1c-0.6,0-1.2-0.1-1.8-0.2
		c5.2,8.7,14.9,22.8,26.5,28.1c-6.7,2.4-17.8,5.5-30.7,5.5l0,0c-9.6,0-18.8-1.7-27.4-5c-0.5,2-1.7,3.7-3.2,5
		c9.6,3.9,19.8,5.9,30.6,5.9c23.4,0,41.1-9.4,41.3-9.5c1.2-0.6,1.8-2,1.4-3.3C553,446.1,551.9,445.2,550.5,445.2z"/>
	<path fill="#FFFFFF" d="M255,357.1l11.1-39c-0.1,0-0.1,0-0.2,0c-2,0-3.8-0.6-5.3-1.7L250,353.8C252,354.3,253.7,355.5,255,357.1z"
		/>
	<path fill="#FFFFFF" d="M294,376.2c-2-0.2-3.9-1-5.2-2.3L276.5,402c2,0.2,3.9,1,5.2,2.3L294,376.2z"/>
	<path fill="#FFFFFF" d="M360.4,253.8l4.8,8c0.6-2.5,1.4-4.9,2.6-7l-2.4-4C364,252.3,362.2,253.3,360.4,253.8z"/>
	<path fill="#FFFFFF" d="M249.9,263.1l10.6,37.8c1.5-1.1,3.4-1.7,5.3-1.7c0.1,0,0.1,0,0.2,0L254.9,260
		C253.7,261.5,252,262.6,249.9,263.1z"/>
	<path fill="#FFFFFF" d="M296.4,259.8l21.4,42.2c1.4-1.4,3.2-2.3,5.1-2.6l-21.4-42.2C300.2,258.5,298.4,259.5,296.4,259.8z"/>
	<path fill="#FFFFFF" d="M275.9,214.9l12.7,28.5c1.4-1.3,3.3-2.1,5.2-2.4l-12.6-28.2C279.9,214.1,278,214.8,275.9,214.9z"/>
	<path fill="#FFFFFF" d="M333.6,203.4l17.9,34.5c1.4-1.4,3.2-2.3,5.1-2.7l-17.9-34.5C337.4,202.1,335.6,203.1,333.6,203.4z"/>
	<path fill="#FFFFFF" d="M339.3,417.5l21.8-38.2c-2.4-0.6-4-1.9-5-3l-21.7,38.1C336.4,414.9,338.1,416,339.3,417.5z"/>
	<path fill="#FFFFFF" d="M340.2,189.5l28.5-29.1c-2.1-0.3-4-1.3-5.4-2.7l-27.4,27.9C337.8,186.4,339.2,187.8,340.2,189.5z"/>
	<path fill="#FFFFFF" d="M340.3,428c-0.9,1.7-2.4,3.2-4.2,4l27.9,27.1c1.5-1.4,3.5-2.4,5.5-2.6L340.3,428z"/>
	<path fill="#FFFFFF" d="M388.7,435l-15.3,21.9c1.9,0.6,3.6,1.8,4.8,3.3l15.4-22.1C391.5,437.6,389.9,436.5,388.7,435z"/>
	<path fill="#FFFFFF" d="M403.2,435.1c-1.3,1.5-3,2.6-4.9,3.1l15.6,22.4c1.1-1.6,2.7-2.9,4.6-3.5L403.2,435.1z"/>
	<path fill="#FFFFFF" d="M394,419.9l-24.8-40.1h-5c-0.7,0-1.3-0.1-1.9-0.1l26.6,43.2C390.4,421.3,392,420.2,394,419.9z"/>
	<path fill="#FFFFFF" d="M331.5,315c-1.3,1.5-3,2.5-4.9,2.9l27.8,48.2c0-0.1,0.1-0.3,0.1-0.4c0.2-0.4,1-3,2.3-7L331.5,315z"/>
	<path fill="#FFFFFF" d="M326.1,299.4c2,0.4,3.8,1.3,5.1,2.7l25.3-48.1c-2-0.4-3.8-1.3-5.1-2.7L326.1,299.4z"/>
	<path fill="#FFFFFF" d="M388.7,194.8l-27.8,40.8c1.9,0.6,3.6,1.7,4.8,3.3l27.8-40.8C391.5,197.5,389.9,196.4,388.7,194.8z"/>
	<path fill="#FFFFFF" d="M388.7,183.3c1.2-1.6,2.9-2.7,4.8-3.3l-15.9-23.3c-1.2,1.6-2.9,2.7-4.8,3.3L388.7,183.3z"/>
	<path fill="#FFFFFF" d="M325,429.7l-4.8,8c2,0.5,3.7,1.5,5,3l4.8-8C328,432.2,326.2,431.1,325,429.7z"/>
	<path fill="#FFFFFF" d="M329.6,414.4l-27.3-41.7c-1.2,1.5-2.9,2.7-4.9,3.2l27.3,41.7C325.9,416.1,327.6,414.9,329.6,414.4z"/>
	<path fill="#FFFFFF" d="M293.5,357.6l-21.1-42.2c-1.4,1.4-3.2,2.3-5.1,2.6l21.1,42.2C289.8,358.8,291.6,357.9,293.5,357.6z"/>
	<path fill="#FFFFFF" d="M267.3,299.4c2,0.3,3.8,1.2,5.1,2.6l21.1-42.2c-2-0.3-3.8-1.2-5.1-2.6L267.3,299.4z"/>
	<path fill="#FFFFFF" d="M323,318c-2-0.3-3.8-1.2-5.1-2.6l-21.4,42.2c2,0.3,3.8,1.2,5.1,2.6L323,318z"/>
	<path fill="#FFFFFF" d="M324.7,200.1l-27.2,41.4c1.9,0.5,3.6,1.7,4.9,3.2l27.2-41.4C327.6,202.7,325.9,201.6,324.7,200.1z"/>
	<path fill="#FFFFFF" d="M325,187.9c1.3-1.5,3-2.5,5-2.9l-5-8.5c-1.3,1.5-3,2.5-4.9,2.9L325,187.9z"/>
	<path fill="#FFFFFF" d="M280.6,419.4l28.8,24c0.8-1.8,2.1-3.4,3.7-4.5l-28.8-24C283.5,416.8,282.1,418.3,280.6,419.4z"/>
	<path fill="#FFFFFF" d="M254.6,369.4c-1.3,1.4-3,2.5-5,2.9l18.8,32.9c1.3-1.4,3.1-2.5,4.9-2.9L254.6,369.4z"/>
	<path fill="#FFFFFF" d="M247.7,353.5c0.4,0,0.9,0.1,1.3,0.1l-6.5-36.7c-1.3,0.7-2.8,1.2-4.4,1.2c-0.4,0-0.9-0.1-1.3-0.1l6.5,36.7
		C244.6,354,246.1,353.5,247.7,353.5z"/>
	<path fill="#FFFFFF" d="M242.5,300.4l6.5-37.1c-0.4,0.1-0.8,0.1-1.3,0.1c-1.6,0-3.1-0.4-4.4-1.1l-6.5,37.1c0.4-0.1,0.8-0.1,1.3-0.1
		C239.7,299.2,241.2,299.7,242.5,300.4z"/>
	<path fill="#FFFFFF" d="M274,214.8c-2-0.3-3.8-1.2-5.1-2.6l-19.1,32.5c2,0.4,3.7,1.5,5,3L274,214.8z"/>
	<path fill="#FFFFFF" d="M284.4,202.7l0.3-0.1l28.4-24.6c-1.7-1-3-2.6-3.8-4.4l-28.2,24.4C282.7,199.3,283.8,200.9,284.4,202.7z"/>
	<path fill="#FFFFFF" d="M256.9,311.5c-0.3-0.9-0.5-1.9-0.5-2.9c0-1,0.2-2,0.5-2.9H247c0.3,0.9,0.5,1.9,0.5,2.9c0,1-0.2,2-0.5,2.9
		H256.9z"/>
	<path fill="#FFFFFF" d="M275.3,308.7c0,1-0.2,2-0.5,2.9h40.7c-0.3-0.9-0.5-1.9-0.5-2.9s0.2-2,0.5-2.9h-40.7
		C275.1,306.7,275.3,307.7,275.3,308.7z"/>
	<path fill="#FFFFFF" d="M373.4,305.8h-40c0.3,0.9,0.5,1.9,0.5,2.9s-0.2,2-0.5,2.9h38.2C372.2,309.6,372.8,307.7,373.4,305.8z"/>
	<path fill="#FFFFFF" d="M284.9,205.5c0,1.1-0.2,2.1-0.6,3.1L324,199c-0.9-1.4-1.4-3.1-1.4-4.9c0-0.2,0.1-0.5,0.1-0.7l-37.9,9.2
		l-0.3,0.1C284.7,203.6,284.9,204.5,284.9,205.5z"/>
	<path fill="#FFFFFF" d="M340.8,190.6c0.5,1.1,0.7,2.3,0.7,3.6c0,0.8-0.1,1.5-0.3,2.2l46.2-3.7c-0.5-1.1-0.7-2.3-0.7-3.6
		c0-0.8,0.1-1.5,0.3-2.2L340.8,190.6z"/>
	<path fill="#FFFFFF" d="M362.6,156.9c-1.2-1.5-1.9-3.4-2-5.4l-35.1,12.9c1.2,1.5,1.9,3.4,2,5.4L362.6,156.9z"/>
	<path fill="#FFFFFF" d="M341.3,421.3c0.2,0.7,0.3,1.4,0.3,2.1c0,1.3-0.3,2.6-0.7,3.7l46,4c-0.2-0.7-0.2-1.4-0.2-2.1
		c0-1.3,0.3-2.6,0.8-3.7L341.3,421.3z"/>
	<path fill="#FFFFFF" d="M284.3,408.1c0.4,1.1,0.7,2.2,0.7,3.4c0,0.9-0.2,1.8-0.4,2.7l38.1,9.9c0-0.2-0.1-0.4-0.1-0.5
		c0-1.9,0.6-3.6,1.5-5L284.3,408.1z"/>
	<path fill="#FFFFFF" d="M325.5,452.6l35.6,12.9c0.1-2.1,0.8-3.9,2-5.4l-35.6-12.9C327.4,449.3,326.7,451.1,325.5,452.6z"/>
	<path fill="#FFFFFF" d="M526.4,318.1c-0.1,0-0.1,0-0.2,0l10.9,39.2c1.3-1.6,3-2.8,5-3.4l-10.4-37.5
		C530.2,317.5,528.4,318.1,526.4,318.1z"/>
	<path fill="#FFFFFF" d="M515.9,402l-12.3-28.1c-1.5,1.3-3.3,2.1-5.2,2.3l12.3,28.1C512,403.1,513.8,402.2,515.9,402z"/>
	<path fill="#FFFFFF" d="M424.7,254.7c1.1,2.2,2,4.6,2.6,7l4.8-8c-2-0.5-3.7-1.5-4.9-3L424.7,254.7z"/>
	<path fill="#FFFFFF" d="M542.3,263c-2.1-0.5-3.8-1.7-5-3.3l-11,39.4c0.1,0,0.1,0,0.2,0c2,0,3.9,0.6,5.3,1.7L542.3,263z"/>
	<path fill="#FFFFFF" d="M469.3,299.4c2,0.3,3.8,1.2,5.1,2.6l21.4-42.2c-2-0.3-3.8-1.2-5.1-2.6L469.3,299.4z"/>
	<path fill="#FFFFFF" d="M498.4,241.2c2,0.2,3.9,1.1,5.2,2.4l12.7-28.5c-2.1-0.1-3.9-0.9-5.3-2.1L498.4,241.2z"/>
	<path fill="#FFFFFF" d="M435.6,235.3c2,0.3,3.8,1.3,5.1,2.7l17.9-34.5c-2-0.3-3.8-1.3-5.1-2.7L435.6,235.3z"/>
	<path fill="#FFFFFF" d="M457.9,414.4l-21.8-38.2c-0.9,1.1-2.4,2.5-4.9,3.2l21.8,38.2C454.2,416,455.9,414.9,457.9,414.4z"/>
	<path fill="#FFFFFF" d="M452,189.5c1-1.7,2.5-3.1,4.3-3.9l-27.4-27.9c-1.4,1.5-3.3,2.4-5.4,2.7L452,189.5z"/>
	<path fill="#FFFFFF" d="M451.9,428l-29.3,28.5c2.2,0.2,4.1,1.2,5.5,2.6l27.9-27.1C454.3,431,452.9,429.7,451.9,428z"/>
	<path fill="#FFFFFF" d="M403.1,422.9l26.8-43.5c-0.7,0.1-1.4,0.2-2.2,0.2H423l-24.8,40.2C400.2,420.3,401.8,421.4,403.1,422.9z"/>
	<path fill="#FFFFFF" d="M437.8,366.3l28-48.4c-2-0.4-3.7-1.5-4.9-2.9l-25.3,43.9c1.3,4,2.1,6.6,2.2,7.1
		C437.8,366,437.8,366.2,437.8,366.3z"/>
	<path fill="#FFFFFF" d="M435.7,253.9L461,302c1.4-1.4,3.2-2.4,5.1-2.7l-25.3-48.1C439.5,252.5,437.7,253.5,435.7,253.9z"/>
	<path fill="#FFFFFF" d="M398.9,198.1l27.8,40.7c1.2-1.6,2.9-2.7,4.8-3.3l-27.8-40.7C402.4,196.4,400.8,197.5,398.9,198.1z"/>
	<path fill="#FFFFFF" d="M403.6,183.3l15.9-23.3c-1.9-0.6-3.6-1.7-4.8-3.3l-15.9,23.3C400.8,180.7,402.4,181.8,403.6,183.3z"/>
	<path fill="#FFFFFF" d="M467.3,429.7c-1.3,1.5-3,2.5-5,3l4.8,8c1.3-1.5,3-2.5,5-3L467.3,429.7z"/>
	<path fill="#FFFFFF" d="M467.6,417.6l27.3-41.7c-1.9-0.5-3.6-1.7-4.9-3.2l-27.3,41.7C464.7,414.9,466.3,416.1,467.6,417.6z"/>
	<path fill="#FFFFFF" d="M498.8,357.6c2,0.3,3.8,1.2,5.1,2.6L525,318c-2-0.3-3.8-1.2-5.1-2.6L498.8,357.6z"/>
	<path fill="#FFFFFF" d="M525,299.4l-21.1-42.2c-1.4,1.4-3.2,2.3-5.1,2.6l21.1,42.2C521.2,300.6,523,299.7,525,299.4z"/>
	<path fill="#FFFFFF" d="M495.9,357.6l-21.5-42.2c-1.4,1.4-3.2,2.3-5.1,2.6l21.4,42.2C492,358.8,493.8,357.9,495.9,357.6z"/>
	<path fill="#FFFFFF" d="M462.7,203.2l27.2,41.4c1.2-1.5,2.9-2.7,4.9-3.2l-27.2-41.4C466.4,201.6,464.7,202.7,462.7,203.2z"/>
	<path fill="#FFFFFF" d="M467.2,187.9l4.9-8.5c-2-0.4-3.7-1.5-4.9-2.9l-5,8.5C464.2,185.4,465.9,186.4,467.2,187.9z"/>
	<path fill="#FFFFFF" d="M482.9,443.3l28.8-24c-1.7-1.1-3-2.6-3.7-4.5l-28.8,24C480.9,439.9,482.2,441.4,482.9,443.3z"/>
	<path fill="#FFFFFF" d="M542.6,372.2c-2-0.4-3.7-1.5-5-2.9l-18.8,32.9c2,0.4,3.7,1.5,5,2.9L542.6,372.2z"/>
	<path fill="#FFFFFF" d="M549.8,317.1l-6.5,36.6c0.4-0.1,0.8-0.1,1.3-0.1c1.6,0,3.1,0.4,4.4,1.2l6.5-36.7c-0.5,0.1-1,0.2-1.6,0.2
		C552.4,318.1,551,317.7,549.8,317.1z"/>
	<path fill="#FFFFFF" d="M554,299.2c0.5,0,1.1,0.1,1.6,0.2l-6.5-37.1c-1.3,0.7-2.8,1.1-4.4,1.1c-0.4,0-0.9-0.1-1.3-0.1l6.5,36.9
		C551,299.6,552.4,299.2,554,299.2z"/>
	<path fill="#FFFFFF" d="M537.6,247.7c1.3-1.5,3-2.5,5-3l-19.1-32.5c-1.4,1.4-3.2,2.3-5.1,2.6L537.6,247.7z"/>
	<path fill="#FFFFFF" d="M507.9,202.7c0.6-1.9,1.7-3.5,3.3-4.7l-28.2-24.3c-0.8,1.8-2.1,3.4-3.8,4.4l28.4,24.5L507.9,202.7z"/>
	<path fill="#FFFFFF" d="M477.3,308.7c0,1-0.2,2-0.5,2.9h40.7c-0.3-0.9-0.5-1.9-0.5-2.9s0.2-2,0.5-2.9h-40.7
		C477.1,306.7,477.3,307.7,477.3,308.7z"/>
	<path fill="#FFFFFF" d="M458.4,308.7c0-1,0.2-2,0.5-2.9h-40.1c0.6,1.8,1.2,3.8,1.8,5.7h38.2C458.6,310.7,458.4,309.7,458.4,308.7z"
		/>
	<path fill="#FFFFFF" d="M544.5,308.7c0-1,0.2-2,0.5-2.9h-9.7c0.3,0.9,0.5,1.9,0.5,2.9s-0.2,2-0.5,2.9h9.7
		C544.7,310.7,544.5,309.7,544.5,308.7z"/>
	<path fill="#FFFFFF" d="M469.7,193.4c0,0.2,0.1,0.5,0.1,0.7c0,1.8-0.5,3.5-1.4,4.9l39.7,9.6c-0.3-1-0.6-2-0.6-3.1
		c0-1,0.2-2,0.5-2.9l-0.3-0.1L469.7,193.4z"/>
	<path fill="#FFFFFF" d="M451,196.3c-0.2-0.7-0.3-1.4-0.3-2.2c0-1.3,0.3-2.5,0.7-3.6l-46.1-3.7c0.2,0.7,0.3,1.4,0.3,2.2
		c0,1.3-0.3,2.5-0.7,3.6L451,196.3z"/>
	<path fill="#FFFFFF" d="M466.8,164.3l-35.1-12.9c-0.1,2.1-0.8,3.9-2,5.4l35.1,12.9C464.9,167.7,465.6,165.8,466.8,164.3z"/>
	<path fill="#FFFFFF" d="M379,153.9h34.3c-0.3-0.9-0.5-1.9-0.5-2.9c0-1,0.2-2,0.5-2.9H379c0.3,0.9,0.5,1.9,0.5,2.9
		C379.5,152.2,379.3,153,379,153.9z"/>
	<path fill="#FFFFFF" d="M451.5,427.1c-0.5-1.1-0.7-2.4-0.7-3.7c0-0.7,0.1-1.4,0.3-2.1l-46.3,4.1c0.5,1.1,0.7,2.4,0.7,3.7
		c0,0.7-0.1,1.4-0.3,2.1L451.5,427.1z"/>
	<path fill="#FFFFFF" d="M508,414.9c-0.4-1.1-0.7-2.3-0.7-3.5c0-0.8,0.1-1.6,0.3-2.4l-39.4,9.5c0.9,1.4,1.4,3.1,1.4,5
		c0,0.2-0.1,0.5-0.1,0.7L508,414.9z"/>
	<path fill="#FFFFFF" d="M429.2,460.1c1.2,1.5,1.9,3.4,2,5.4l35.6-12.9c-1.2-1.5-1.9-3.4-2-5.4L429.2,460.1z"/>
	<path fill="#FFFFFF" d="M379.6,463c0.3,0.9,0.5,1.9,0.5,2.9s-0.2,2-0.5,2.9h33.3c-0.3-0.9-0.5-1.9-0.5-2.9s0.2-2,0.5-2.9H379.6z"/>
	<path fill="#FFFFFF" d="M506.5,248.3c0.2,0.7,0.3,1.5,0.3,2.2c0,1.3-0.3,2.5-0.7,3.6l29.3,2.2c-0.2-0.7-0.3-1.5-0.3-2.2
		c0-1.3,0.3-2.5,0.7-3.6L506.5,248.3z"/>
	<path fill="#FFFFFF" d="M488.2,252.5c-0.1-0.7-0.2-1.4-0.2-2.1c0-1.3,0.3-2.6,0.8-3.7l-45.4-4.2c0.1,0.7,0.2,1.3,0.2,2.1
		c0,1.3-0.3,2.6-0.8,3.7L488.2,252.5z"/>
	<path fill="#FFFFFF" d="M412.5,241.7c2.7,1.6,5,3.5,7,5.7h5.4c-0.3-0.9-0.5-1.9-0.5-2.9c0-1,0.2-2,0.5-2.9L412.5,241.7L412.5,241.7
		z"/>
	<path fill="#FFFFFF" d="M372.6,247.5c2.1-2.3,4.5-4.2,7-5.7h-12.6c0.3,0.9,0.5,1.9,0.5,2.9c0,1-0.2,2-0.5,2.9L372.6,247.5z"/>
	<path fill="#FFFFFF" d="M257.2,253.9c0,0.9-0.2,1.8-0.4,2.6l29.6-2.2c-0.5-1.2-0.9-2.5-0.9-3.9c0-0.6,0.1-1.3,0.2-1.9l-29.1,2.2
		C256.9,251.7,257.2,252.8,257.2,253.9z"/>
	<path fill="#FFFFFF" d="M303.7,247.2c0.4,1,0.6,2.1,0.6,3.3c0,0.9-0.2,1.7-0.4,2.5l45.7-4.3c-0.6-1.3-1-2.6-1-4.1
		c0-0.6,0.1-1.1,0.2-1.6L303.7,247.2z"/>
	<path fill="#FFFFFF" d="M487.9,366.9c0-0.7,0.1-1.4,0.3-2.1l-49.9,4.4c0.1,2.2-0.4,4.2-1.5,5.9l51.9-4.6
		C488.2,369.4,487.9,368.2,487.9,366.9z"/>
	<path fill="#FFFFFF" d="M355.2,375c-1.1-1.8-1.6-3.8-1.4-5.9l-49.7-4.7c0.2,0.8,0.4,1.6,0.4,2.5c0,1.2-0.2,2.3-0.6,3.3L355.2,375z"
		/>
	<path fill="#FFFFFF" d="M506.1,363.3c0.4,1.1,0.7,2.3,0.7,3.6c0,0.8-0.1,1.5-0.3,2.2l29.5-2.2c-0.5-1.2-0.9-2.5-0.9-3.9
		c0-0.6,0.1-1.3,0.2-1.9L506.1,363.3z"/>
	<path fill="#FFFFFF" d="M285.7,368.7c-0.1-0.6-0.2-1.2-0.2-1.9c0-1.4,0.3-2.7,0.9-3.9l-29.5-2.2c0.2,0.7,0.3,1.5,0.3,2.2
		c0,1.3-0.3,2.5-0.7,3.6L285.7,368.7z"/>
	<circle fill="#FFFFFF" cx="358.3" cy="244.6" r="4.8"/>
	<circle fill="#FFFFFF" cx="247.7" cy="253.9" r="4.8"/>
	<circle fill="#FFFFFF" cx="294.9" cy="250.5" r="4.8"/>
	<circle fill="#FFFFFF" cx="318.1" cy="170.1" r="4.8"/>
	<circle fill="#FFFFFF" cx="332" cy="194.1" r="4.8"/>
	<circle fill="#FFFFFF" cx="422.2" cy="151.1" r="4.8"/>
	<circle fill="#FFFFFF" cx="474.2" cy="170.1" r="4.8"/>
	<circle fill="#FFFFFF" cx="460.3" cy="194.1" r="4.8"/>
	<circle fill="#FFFFFF" cx="497.4" cy="250.5" r="4.8"/>
	<circle fill="#FFFFFF" cx="526.4" cy="308.7" r="4.8"/>
	<circle fill="#FFFFFF" cx="554" cy="308.7" r="4.8"/>
	<circle fill="#FFFFFF" cx="238" cy="308.7" r="4.8"/>
	<circle fill="#FFFFFF" cx="497.4" cy="366.9" r="4.8"/>
	<circle fill="#FFFFFF" cx="460.3" cy="423.5" r="4.8"/>
	<circle fill="#FFFFFF" cx="396" cy="429.1" r="4.8"/>
	<circle fill="#FFFFFF" cx="467.8" cy="308.7" r="4.8"/>
	<circle fill="#FFFFFF" cx="434" cy="244.6" r="4.8"/>
	<circle fill="#FFFFFF" cx="396.2" cy="189.1" r="4.8"/>
	<circle fill="#FFFFFF" cx="516.8" cy="205.5" r="4.8"/>
	<circle fill="#FFFFFF" cx="544.6" cy="253.9" r="4.8"/>
	<circle fill="#FFFFFF" cx="421.7" cy="465.9" r="4.8"/>
	<circle fill="#FFFFFF" cx="474.2" cy="446.9" r="4.8"/>
	<circle fill="#FFFFFF" cx="516.8" cy="411.4" r="4.8"/>
	<circle fill="#FFFFFF" cx="544.6" cy="363" r="4.8"/>
	<circle fill="#FFFFFF" cx="265.9" cy="308.7" r="4.8"/>
	<circle fill="#FFFFFF" cx="294.9" cy="366.9" r="4.8"/>
	<circle fill="#FFFFFF" cx="332" cy="423.5" r="4.8"/>
	<circle fill="#FFFFFF" cx="324.5" cy="308.7" r="4.8"/>
	<circle fill="#FFFFFF" cx="275.5" cy="205.5" r="4.8"/>
	<circle fill="#FFFFFF" cx="370.6" cy="465.9" r="4.8"/>
	<circle fill="#FFFFFF" cx="318.1" cy="446.9" r="4.8"/>
	<circle fill="#FFFFFF" cx="275.5" cy="411.4" r="4.8"/>
	<circle fill="#FFFFFF" cx="247.7" cy="363" r="4.8"/>
	<circle fill="#FFFFFF" cx="370.1" cy="151.1" r="4.8"/>
	<path fill="#FFFFFF" d="M364.2,373.9h63.6c2.2,0,3.3-0.9,3.9-1.6c0.9-1.2,1-2.8,0.4-4.7c-0.8-2.7-22.6-71.9-23.5-74.7
		c-0.1-0.5,0.1-1.1,0.6-1.4c8-4.7,13.1-13.3,13.1-22.5c0-14.3-11.6-25.9-25.9-25.9H396c-14.3,0-25.9,11.6-25.9,25.9
		c0,9.2,4.9,17.8,13.1,22.5c0.5,0.3,0.7,0.9,0.6,1.4c-0.2,0.7-22.9,72.1-23.8,74.7c-0.6,1.8-0.5,3.5,0.3,4.7
		C360.9,372.9,361.9,373.9,364.2,373.9z"/>
</g>
<g>
	<path fill="#FFFFFF" d="M1533.3,274.6c-3,18.3-6.1,36.7-9.2,55c-0.3,1.6-1.6,5.1-2.7,6.9c3.5,0,5.2-0.1,8.7-0.4
		c-0.6-1.7-0.5-5.2-0.3-6.8c0.4-2.6,0.5-3.8,0.9-6.4c3.8,1.5,8,0.8,12.2-1.9c0.3,1.3,0.4,2.3,0.6,3.3c0.2,0.8,0.3,1.6,0.5,2.6
		c0,0.2,0.1,0.4,0.1,0.6c0.2,1.8,0.3,4.9-0.2,6.6c6.9-1.3,10.3-2.2,17.2-4.2c-1.2-1.4-2.6-4.9-2.9-6.4c-3.5-17.1-6.9-34.1-10.3-51.2
		c-0.3-1.5-0.4-5.4,0.1-7.2c-6,1.3-9.1,1.9-15.1,2.6C1533.5,269.4,1533.6,273.1,1533.3,274.6z M1537.4,294.5
		c0.6,3.2,1.3,6.4,1.9,9.6c0.9,4.4,1.7,8.8,2.6,13.2c-1.9,0.9-3.3,1.6-4.8,2c-1,0.2-2.1,0.3-3.3,0.1c-0.8-0.1-1.6-0.3-2.6-0.5
		c1.6-10.7,3.1-21.3,4.7-32C1536.4,289.3,1536.9,291.9,1537.4,294.5z"/>
	<path fill="#FFFFFF" d="M1588.9,322.3c5.1-1.9,8.7-4.2,10.8-6.3c-1.1-2.2-1.6-3.2-2.7-5.4c-1.2,2.3-5.2,7.1-8,7.5
		c-0.8,0.1-1.5,0.1-2.1,0c-0.8-0.1-1.5-0.4-2.2-0.8c-6.2-3.9-5.8-19.7-5.8-27.1c0-10.2-1.6-30.2,10.1-34.6c3-1.1,6.8,0.8,8,2.4
		c1.1-2.8,1.6-4.2,2.7-7.1c-2.1-0.7-5.5-1.1-10.8,0.6c-19,6.1-26,25.4-26.2,43.6C1562.6,310.7,1569.9,329.2,1588.9,322.3z"/>
	<path fill="#FFFFFF" d="M1302.2,271.7c-6.9,0.5-10.3,0.6-17.2,0.6c0.9,1.8,1.5,5.6,1.5,7.2c0,17.9,0,35.8,0,53.8
		c0,1.7-0.6,5.5-1.5,7.2c6.9,0,10.3-0.1,17.2-0.6c-0.9-1.7-1.6-5.5-1.6-7.1c0-9.2,0-13.8,0-23.1c2.6,0.9,7.3,0.5,10.3-0.8
		c0,1.1,0,2.1,0,3.1c0,1,0,1.9,0,2.8c0,5.8,0,10.2,0,17.2c0,1.7-0.6,5.5-1.5,7.3c6.9-0.6,10.3-1.1,17.2-2c-0.9-1.6-1.6-5.3-1.6-7
		c0-17.9,0-35.8,0-53.8c0-1.6,0.7-5.5,1.6-7.4c-6.9,1-10.3,1.4-17.2,2c0.9,1.7,1.5,5.5,1.5,7.1c0,10.2,0,15.4,0,25.6
		c-1.9,0.8-3.5,1.3-5,1.5c-1,0.1-2,0.1-3,0c-0.7-0.1-1.5-0.3-2.3-0.5c0-10.3,0-15.4,0-25.7C1300.7,277.5,1301.3,273.5,1302.2,271.7z
		"/>
	<path fill="#FFFFFF" d="M1334.6,329.6c-0.3,1.6-1.6,5.3-2.7,7.2c3.5-0.5,5.2-0.8,8.7-1.4c-0.6-1.7-0.5-5.2-0.3-6.8
		c0.3-2.6,0.5-3.9,0.9-6.5c3.8,1.2,8,0.4,12.2-2.4c0.3,1.3,0.5,2.3,0.6,3.3c0.2,0.8,0.3,1.6,0.5,2.6c0,0.2,0.1,0.4,0.1,0.7
		c0.2,1.8,0.3,4.9-0.2,6.5c6.9-1.3,10.3-2,17.2-3.4c-1.2-1.5-2.6-5.1-2.9-6.6c-3.4-17.2-6.9-34.5-10.3-51.7
		c-0.3-1.5-0.4-5.4,0.1-7.2c-6,1.2-9.1,1.7-15.1,2.8c0.6,1.6,0.7,5.3,0.4,6.9C1340.7,292.4,1337.6,311,1334.6,329.6z M1346.4,285.8
		c0.5,2.6,1,5.1,1.5,7.7c0.6,3.2,1.3,6.4,1.9,9.6c0.9,4.4,1.7,8.7,2.6,13.1c-1.8,0.9-3.3,1.6-4.8,2c-1,0.3-2.1,0.3-3.3,0.3
		c-0.8-0.1-1.6-0.2-2.6-0.4C1343.3,307.3,1344.8,296.5,1346.4,285.8z"/>
	<path fill="#FFFFFF" d="M1379.6,264c0,0.9,0,1.9,0,2.8c0,1,0,2,0,3.1c0,17,0,34.1,0,51.1c0,1.6-0.6,5.6-1.5,7.5
		c6.8-1.4,10.2-2.1,16.9-3.5c-0.9-1.6-1.5-5.4-1.5-6.9c0-19,0-38,0-57c0,0,0.1,0,0.1,0c1.4-0.3,2.1-0.4,3.5-0.7
		c1.6-0.3,5.5-0.4,7.2,0.1c-0.1-2.2-0.2-3.3-0.4-5.5c-11.6,2.3-23.2,4.7-34.9,7c-0.2,2.3-0.2,3.4-0.4,5.6c1.8-1.2,5.6-2.7,7.2-3
		C1377.4,264.4,1378.2,264.2,1379.6,264z"/>
	<path fill="#FFFFFF" d="M1408.7,259.8c2-1.1,5-2.1,6.3-2.4c1.4-0.3,2.2-0.4,3.6-0.7c0,0.9,0,1.8,0,2.7c0,1,0,2,0,3
		c0,17.1,0,34.2,0,51.2c0,1.6-0.6,5.6-1.5,7.5c6.8-1.2,10.2-1.8,16.9-2.8c-0.9-1.6-1.5-5.4-1.5-7c0-19,0-38,0-57c0,0,0.1,0,0.1,0
		c1.4-0.2,2.1-0.3,3.5-0.5c1.6-0.2,5.5-0.1,7.2,0.6c-0.2-2.2-0.2-3.3-0.4-5.5c-11.7,1.5-23.3,3.5-34.9,5.7c-0.1,2.1-0.2,3.3-0.4,5.3
		c0,0.1,0,0.2,0,0.4C1408,260.1,1408.3,260,1408.7,259.8z"/>
	<path fill="#FFFFFF" d="M1452,254.9c-3.1,18.5-6.1,36.9-9.2,55.4c-0.3,1.6-1.6,5.3-2.7,7.2c3.5-0.5,5.2-0.7,8.7-1.1
		c-0.6-1.7-0.5-5.2-0.3-6.8c0.4-2.6,0.5-3.9,0.9-6.4c3.8,1.4,8,0.9,12.2-1.3c0,0,0.6,0.3,1.1,2.8c0,0,0,0.1,0,0.1
		c0.2,0.8,0.3,2,0.2,3.3c-0.1,1.2-0.4,2.6-1.1,3.9c7.1-1.8,11,0.3,18.3,4c-1.2-1.8-2.9-7-3.2-8.6c-3.4-17.8-6.9-35.6-10.3-53.4
		c-0.3-1.5-0.4-5.4,0.1-7.2c-6,0.3-9.1,0.6-15.1,1.2C1452.2,249.7,1452.3,253.4,1452,254.9z M1456.1,274.9c0.6,3.2,1.3,6.5,1.9,9.7
		c0.9,4.5,1.8,9,2.6,13.5c-1.9,0.7-3.3,1.3-4.8,1.5c-1,0.2-2.1,0.2-3.3,0c-0.8-0.1-1.6-0.3-2.6-0.5c1.6-10.6,3.1-21.3,4.7-31.9
		C1455.1,269.7,1455.6,272.3,1456.1,274.9z"/>
	<path fill="#FFFFFF" d="M1680.7,330.5c0.9-2.3,0.2-3.8-0.7-4.8c0.3-4-2.3-7.5-6.5-7.7c0.2,0.8,0.3,1.5,0.2,2.2
		c-0.1,0.5-0.2,1-0.4,1.5c-0.4,1.1-1.2,2-2.2,2.7c-0.9,0.6-2,1.1-3.2,1.4c0,0,0,0,0,0c-0.2,0.1-0.5,0.1-0.7,0.1
		c-1.9,0.3-4.2,0.3-6.6-0.4c-0.4-0.1-0.8-0.3-1.3-0.4c-0.3-0.1-0.6-0.2-1-0.3c-0.4-0.1-0.8-0.3-1.1-0.5c-0.4-0.2-0.8-0.3-1.2-0.5
		c-0.8-1.1-1.6-2.5-2.4-3.9c1.5,1.1,3.2,2,4.9,2.7c4.1,1.6,9.5,1.8,11.4-1.9c1-2.1,0.3-4.4-1.8-5.2c-1.3-0.5-1.9-0.4-3.2-0.1
		c1.1,1.2,1.1,2.2,0.7,3.4c-1.1,2.8-5.3,2.5-8.3,1.4c-0.3-0.1-0.6-0.2-0.8-0.3c-0.9-0.4-1.7-0.8-2.4-1.1c-0.6-0.3-1.2-0.7-1.7-1
		c-9-17.4-19-49.8-20.1-56.8l6.9-14.2c0.7-1.4,3.4-5.3,5.7-6.9l-11.3,2.2c2.2,1.1,1,4.2,0.3,5.6l-8,17l-2.9,6.1l-2.2,4.8l-0.2-22.9
		c0-1.5,0.1-5.9,3.9-8.8l-20.3,4c2.7,1.3,3.3,5.6,3.3,7l0,15.3c0,2.2,0.1,3.5,1,4.6c-0.9,0.4-2.6,1.3-3.2,2.4c1.8,0.7,2.2,2.3,2.2,4
		l0.1,27.9c0,1.8-0.9,5.5-3.4,7c6.3-0.4,10.6-3.3,20.8-5.3c0.1,0,0.2,0,0.2-0.1c-0.2-0.1-0.4-0.3-0.6-0.5c-2.5-1.6-3.5-4.2-3.5-5.9
		l-0.2-19.1l1.5-3.5c0.3,1.2,0.8,2.8,1.4,4.5c0.6,1.9,1.5,4.1,2.4,6.4c4.9,12,13.7,28.4,24.4,36.2c2.9,2.6,6.7,4.8,11.1,6.5
		C1670.7,338.5,1678.2,336.8,1680.7,330.5z"/>
	<path fill="#FFFFFF" d="M1492.5,256.8v26.5c0,4.2,0.1,6.6,1.6,8.9c-1.5,0.6-4.1,1.7-5,3.9c2.8,1.7,3.4,4.8,3.4,7.9v25.4
		c0,6.3,0.4,15.8-1,23.7c3.3,0,10.3-0.1,17.4-0.2c3.4-8.5,4.4-18.6,4.4-27.9v-20.6c0-4.2-0.1-6.6-1.6-8.9c1.5-0.6,3.8-1.7,5-4
		c-2.8-1.7-3.4-4.8-3.4-7.9v-31.9c0-6.5,1.1-12.8,10-20.6c-12,1.1-21.2,11.7-37,14C1490.9,248,1492.5,253.3,1492.5,256.8z"/>
	<path fill="#FFFFFF" d="M1257,334.9c-4.1,0-6.2,5.2-3.5,8.6c0.8-1.7,2-2.4,3.4-2.4c2.3,0,3.8,1.2,4.9,2.9c0.3,0.5,0.6,1.1,0.8,1.7
		c0.5,1.4,0.7,3,0.7,4.5c0,0.9,0,1.7-0.1,2.5c0.7,0,1.3,0,2,0c0.3-1.5,0.5-3,0.5-4.4c0-5.4-1.2-11.6-6.1-13.1
		c-0.5-0.2-1-0.2-1.6-0.3C1257.7,335,1257.4,334.9,1257,334.9z"/>
	<path fill="#FFFFFF" d="M1268.4,352.9c0.7,0,1.4,0,2.1,0c2.3,0,4.6,0,6.6,0c1.4-4.5,2.1-9.6,2-15.2c-0.3-12.4-5.4-20.9-14.5-20.9
		c-2.8,0-4.6,1.8-5.4,3.4c-4.9,1.6-8,6.3-6.2,11.4c1.4-1,2.4-1.6,4.2-1.6c2.7,0,5.4,1.5,7.5,4.1c0.3,0.3,0.5,0.7,0.8,1.1
		c1.2,1.8,2.1,4.1,2.6,6.8c0.3,1.4,0.4,2.9,0.4,4.5c0,1.6-0.1,3.2-0.4,4.7c-0.1,0.6-0.1,1.2-0.2,1.7
		C1268,352.9,1268.2,352.9,1268.4,352.9z"/>
	<polygon fill="#FFFFFF" points="1687.6,344 1685.7,348.9 1683.7,344 1681.8,344 1681.8,351 1683.1,351 1683.1,345.5 1683.1,345.5 
		1685.2,351 1686.1,351 1688.2,345.5 1688.2,345.5 1688.2,351 1689.5,351 1689.5,344 	"/>
	<polygon fill="#FFFFFF" points="1674.7,345.1 1676.9,345.1 1676.9,351 1678.2,351 1678.2,345.1 1680.4,345.1 1680.4,344 
		1674.7,344 	"/>
	<path fill="#FFFFFF" d="M1638.4,333.6c-4.1-1.5-9.2-2-13.8-2.3c-16.2-1-28.7,4.2-40.3,8.3c-11.8,4.2-23.8,9.1-37.1,11.9
		c-4.5,0.9-9.1,2.3-13.7,2.7c-5.9,0.5-12,0.3-18.1,0.2c-1.1,0-2.2,0-3.4,0c-0.1,0-0.3,0-0.4,0c-1.1,0-2.1,0-3.2,0c0,0,0,0,0,0
		c-6.7,0-13.2,0-17.1,0v0c-6,0-12,0-17.8,0c-0.8,0-1.6,0-2.3,0c-0.9,0-1.8,0-2.7,0c-0.2-1.3-0.2-2.7-0.2-4.4c0-4.1,1.6-9.3,5.5-9.3
		c1.6,0,2.8,0.6,3.8,2.4c0.9-1.4,1.4-2.1,1.4-4c0-1.8-0.9-3.3-2.3-4c-0.9-0.5-1.9-0.7-3.1-0.6c-5.4,0.6-7.7,7.2-7.7,12.8
		c0,2.3,0.3,4.7,0.9,7.1c-0.3,0-0.6,0-0.9,0c0.6,3.2,1.7,5.3,2.6,7.1c0.6,0,1.2,0,1.7,0c0.9,0,1.8,0,2.7,0c0.4,0,0.9,0,1.3,0
		c4.9,0,9.8,0,14.6,0c-1.9,3.3-4.7,5.5-8.8,5.6c-3,0.1-5.5-0.5-7.6-1.5c-0.9-0.4-1.8-1-2.5-1.6c-0.9-0.7-1.7-1.5-2.4-2.4
		c0,0,0,0,0,0c-1.4-1.8-2.5-4-3.2-6.2c0,0,0,0,0,0c0-0.1-0.1-0.3-0.1-0.4c-0.8-2.7-1.1-5.5-1.1-8.4c0-9.7,5.3-16.5,10.8-16.5
		c1.6,0,3.1,0.4,4.6,1.6c1.8-5.1-1.4-9.9-6.2-11.4c-0.8-1.6-2.2-3.1-5.4-3.1c-8.8,0-14.3,8.2-14.5,20.6c0,6.3,0.9,11.9,2.8,16.8
		c-61.2,0-115.1,0.1-175.7,0.1c0,0,0,0,0,0c-2.7,0-5.9,0-9.3,0c0,0,0,0,0,0c-0.9,0-1.7,0-2.6,0c0,0,0,0,0,0c-8.5,0-17.9,0-23.4,0
		c-0.9,0-1.7,0-2.4,0c0,0,0,0,0,0c0,0,0,0.1,0,0.1c0.3,1.1,0.6,2.1,1,3.1c0.1,0.2,0.2,0.4,0.2,0.6c0.3,0.7,0.6,1.4,0.9,2
		c0.1,0.2,0.2,0.5,0.3,0.7c0,0,0,0,0,0c0.6,0,1.2,0,2,0c3.6,0,9.2,0,15.2,0c-0.2,0.4-0.3,0.8-0.5,1.1c0.3-0.3,0.6-0.7,0.9-1.1
		c0.9,0,1.8,0,2.7,0c-2.8,3.8-7.1,6-12.9,5.7c-1-0.1-1.9-0.3-2.8-0.6c-0.8-0.3-1.6-0.8-2.3-1.3c-11.8-9-10.2-46.4-10.2-52.8
		c0-5.1-0.1-7.9-1.9-10.6c1.9-1,3.1-1.4,5-4.1c-3.9-1.3-3.5-10.2-3.5-12.8c0.1-15.2,3.8-40.2,17.8-40.2c4.8,0,8.3,1.6,10.2,4.4
		c0.2,0.3,0.4,0.7,0.6,1.1c0.7,1.4,1.1,3,1.1,4.9c0,4.7-3.8,9.9-10.7,8.6c0,4.4,2.8,7.3,6.2,7.8c-0.5,5.2,2,16.4,12.3,16.9
		c-1.5-3.8-2.3-9.3-2.3-15.2c0.1-10.4,3.1-22.4,10.8-31.5c0,0-7,1-9.6,1.3c-3.4-1.3-9.2-3.2-18.1-3.2c-26.2,0-40.5,23.4-42,49.4
		c-0.1,2.3,0.3,8.2,2.3,11.6c-2,0.6-3.9,2.1-5.1,3.9c2.2,0.9,2.7,9.7,3,12.4c0.7,9.6,3.4,25.5,10.6,37.8c-2,0-4.1,0-6.2,0
		c-3.7,0-8.6,0.7-11.4,0c-2.3-0.6-2.3-5.9-5.9-5.9c-4.1,0-5.3,7.1-4.8,11c0.3,2.7,0.8,6.9,4.3,7.3c3.6,0.4,3.7-4.7,6.9-5.5
		c2.9-0.7,6.8-0.4,10.6-0.4c3.7,0,7.3,0,10.9,0c5.7,6.7,13.3,11.3,23.6,11.3c9.8,0,17.3-4.2,22.1-11.3c1.3,0,2.5,0,3.6,0
		c0,0,0,0,0,0c0,0,0.1,0,0.1,0c1.4,0,2.7,0,4.1,0c39.6,0.1,74.7,0.1,119.2,0.1c14.4,0,24.3,0.2,41.2,0.2c5.8,0,11.7,0,17.6,0
		c4.9,6.9,12.3,10.9,21.6,10.9c11.3,0,18.9-4.4,23.9-11c1.3,0,2.6,0,3.9,0c1.5,0,2.9,0,4.4,0c6.6,0,13.1-0.1,19.6-0.1
		c6.7,1.6,12.5,2.3,18.1,3.7c11.7,3.1,21.6,7.7,32.3,11.5c5.2,1.9,10.6,4.3,16.1,5.9c3.7,1.1,7.8,1.8,12.1,2.7
		c4.3,0.8,9.1,0.6,14.2,0.5c9.2-0.1,16.4-2.2,20.8-8.9C1654.1,363.8,1650.7,338.1,1638.4,333.6z M1590.2,370.7c-4.9-1-7.9-2-9.8-2.8
		l2.5-1.6c1.1,0.8,4.4,2.4,7.3,2.9c1.3,0.2,8.6,1.8,8.3-5.8c-0.2-5.2-2.9-6.3-7.3-6.3c-1.8,0-3.9,0.1-5,0.3v-1.8
		c1.2,0.2,3.4,0.2,5,0.1c3.8-0.2,5.6-2.2,5.6-5.4c0-1.8-0.1-4.5-5.8-3.7c-2.9,0.4-6.2,1.9-7.3,2.7l-2.5-1.7c1.9-0.7,5-1.7,9.8-2.5
		c11.9-2,18.6-1.2,18.8,4.1c0.2,4.3-5.9,6.5-11.6,7c5.7,0.3,13.8,1,14,8.5C1612.5,371.6,1603,373.2,1590.2,370.7z M1619.7,375.9
		c0.6-1,1.1-3.1,1.1-4V346c0-0.9-0.8-4.1-2.4-4.9c4.3-1.2,9.7-1.4,12-3.1V373c0,0.9,0.4,3,1,4L1619.7,375.9z"/>
</g>
<g>
	<path fill="#FFFFFF" d="M2482.2,339.4l0-27.8h46.9c0,0,1.3-0.1,2.4,0.3c0.6,0.3,1,0.6,1.2,1.4c0.2,0.9-0.2,1.5-1,2.2
		c-1.1,0.8-2.8,1.6-2.8,1.6L2482.2,339.4z"/>
	<path fill="#FFFFFF" d="M2588.8,313.8c-4,25.4-21.5,44.6-49.4,44.7h-28.2L2588.8,313.8z"/>
	<path fill="#FFFFFF" d="M2482.2,301.6l0-72.7l34.5-16.4l0.1,47.6c6.1-5.6,17.3-9.4,26.4-9.4c30.5,0,46.1,26.3,46.4,50.9l0,1.3
		c-2.6-1.6-6.5-1.3-6.5-1.3L2482.2,301.6L2482.2,301.6z"/>
	<path fill="#FFFFFF" d="M2371.9,306.6l0-24.4l69.1,1.3c0.4,0,0.8,0.1,0.8,0.4c0,0.3-0.1,0.4-0.5,0.5l-0.4,0.1l-66.8,20.8
		C2374.1,305.3,2372.2,305.8,2371.9,306.6"/>
	<path fill="#FFFFFF" d="M2375.4,311.6h102l0.6,0c-3.3,26.5-21.2,46.8-49.9,46.8c-8.2,0-16.2-2-22.8-5.4l0,22.6l-33.4,15.9
		l-0.1-80.8C2372.7,311.7,2375.4,311.6,2375.4,311.6"/>
	<path fill="#FFFFFF" d="M2478.6,301.6l-47.5,0c0,0-2.3,0.1-2.9-1.2c-0.7-1.5,0.7-2.4,0.7-2.4l0.9-0.4l45.5-15.2
		C2477.4,288.5,2478.5,295.1,2478.6,301.6L2478.6,301.6z"/>
	<path fill="#FFFFFF" d="M2371.9,276.3l0-25.5c0,0,55.3-0.2,60.4,0c19.8,0,33.3,11.1,40.4,25.5H2371.9z"/>
	<path fill="#FFFFFF" d="M2367.9,316h-71.8c2.5,10.2,10.6,17.8,21.9,17.8c7.3,0,12.5-2.6,16.3-9.4h32.8c-5.4,24.3-27,35.4-48.9,35.4
		c-31.8,0-55.6-19.3-55.6-54.9c0-9.3,1.6-17.5,4.5-24.7l97.3,1.9c2.3,6.5,3.5,13.2,3.9,21.9C2368.7,311.6,2367.9,316,2367.9,316"/>
	<path fill="#FFFFFF" d="M2268.9,276.3c8.6-17,25.6-26.6,46.9-26.6c22.1,0,38,9.7,46.3,26.6H2268.9z"/>
	<path fill="#FFFFFF" d="M2580.9,351.1v-1.6h1.5c0.7,0,1.4,0,1.4,0.7c0,0.7-0.3,0.9-1.1,0.9L2580.9,351.1L2580.9,351.1z
		 M2580.9,352.4h1l1.6,2.9h1.8l-1.7-2.9c1.2-0.2,1.9-0.7,1.9-2c0-0.7-0.2-1.5-0.8-1.9c-0.5-0.3-1.3-0.3-1.9-0.3h-3.4v7.1h1.6V352.4z
		 M2582.1,347.2c2.5,0,4.8,2,4.8,4.8c0,2.8-2.3,4.8-4.8,4.8c-2.5,0-4.8-2-4.8-4.8C2577.3,349.2,2579.5,347.2,2582.1,347.2
		 M2582.1,358.4c3.6,0,6.5-2.9,6.5-6.5c0-3.6-2.9-6.5-6.5-6.5c-3.6,0-6.5,2.9-6.5,6.5C2575.6,355.5,2578.5,358.4,2582.1,358.4"/>
</g>
</svg>
