<?xml version="1.0" encoding="utf-8"?>
<!-- Generator: Adobe Illustrator 18.1.1, SVG Export Plug-In . SVG Version: 6.00 Build 0)  -->
<svg version="1.1" id="Layer_1" xmlns="http://www.w3.org/2000/svg" xmlns:xlink="http://www.w3.org/1999/xlink" x="0px" y="0px"
	 viewBox="0 0 50 50" enable-background="new 0 0 50 50" xml:space="preserve">
<g>
	<path fill="#FFFFFF" d="M-219,0.9c-13.3,0-24,10.7-24,24c0,13.3,10.7,24,24,24c13.3,0,24-10.7,24-24C-195,11.7-205.8,0.9-219,0.9z
		 M-209.4,21.2c0,0.2,0,0.4,0,0.6c0,6.5-5,14-14,14c-2.8,0-5.4-0.8-7.6-2.2c0.4,0,0.8,0.1,1.2,0.1c2.3,0,4.4-0.8,6.1-2.1
		c-2.2,0-4-1.5-4.6-3.4c0.3,0.1,0.6,0.1,0.9,0.1c0.5,0,0.9-0.1,1.3-0.2c-2.3-0.5-4-2.4-4-4.8v-0.1c0.7,0.4,1.4,0.6,2.2,0.6
		c-1.3-0.9-2.2-2.4-2.2-4.1c0-0.9,0.2-1.8,0.7-2.5c2.4,3,6.1,4.9,10.2,5.2c-0.1-0.4-0.1-0.7-0.1-1.1c0-2.7,2.2-4.9,4.9-4.9
		c1.4,0,2.7,0.6,3.6,1.6c1.1-0.2,2.2-0.6,3.1-1.2c-0.4,1.2-1.1,2.1-2.2,2.7c1-0.1,1.9-0.4,2.8-0.8
		C-207.6,19.6-208.5,20.5-209.4,21.2z"/>
</g>
<g>
	<path fill="#908FB3" d="M-112,21.5c-1.8-3.2-3.7-5.7-3.8-5.9c-2.9,1.3-5,4-5.7,7.2C-121.1,22.8-116.9,22.9-112,21.5z"/>
	<path fill="#908FB3" d="M-113.8,15C-113.9,15-113.9,15-113.8,15C-113.9,15-113.8,15-113.8,15C-113.8,15-113.8,15-113.8,15z"/>
	<path fill="#908FB3" d="M-104.6,17.2c-1.8-1.6-4.2-2.6-6.8-2.6c-0.8,0-1.6,0.1-2.4,0.3c0.2,0.2,2.1,2.8,3.8,6
		C-106.1,19.5-104.6,17.3-104.6,17.2z"/>
	<path fill="#908FB3" d="M-110.7,25c0.1,0,0.3-0.1,0.4-0.1c-0.3-0.6-0.5-1.2-0.8-1.7c-5.3,1.6-10.3,1.5-10.5,1.5c0,0.1,0,0.2,0,0.3
		c0,2.6,1,5,2.6,6.8c0,0,0,0,0,0S-116.2,26.8-110.7,25z"/>
	<path fill="#908FB3" d="M-107.7,26.1c1.3,3.7,1.9,6.7,2,7.3c2.3-1.6,3.9-4,4.4-6.9C-101.5,26.5-104.4,25.6-107.7,26.1z"/>
	<path fill="#908FB3" d="M-109.2,22.5c0.2,0.5,0.5,1,0.7,1.5c0.1,0.2,0.1,0.4,0.2,0.5c3.5-0.4,7,0.3,7.1,0.3c0-2.4-0.9-4.7-2.3-6.4
		C-103.5,18.4-105.1,20.8-109.2,22.5z"/>
	<path fill="#908FB3" d="M-111.4,0.9c-13.3,0-24,10.7-24,24c0,13.3,10.7,24,24,24c13.3,0,24-10.7,24-24
		C-87.4,11.7-98.1,0.9-111.4,0.9z M-99.6,27.3c-0.2,0.8-0.4,1.5-0.7,2.3c-0.3,0.7-0.7,1.4-1.1,2c-0.4,0.6-0.9,1.2-1.5,1.8
		c-0.5,0.5-1.1,1-1.8,1.5c-0.6,0.4-1.3,0.8-2,1.1c-0.7,0.3-1.5,0.5-2.3,0.7c-0.8,0.2-1.6,0.2-2.4,0.2c-0.8,0-1.6-0.1-2.4-0.2
		c-0.8-0.2-1.5-0.4-2.3-0.7c-0.7-0.3-1.4-0.7-2-1.1c-0.6-0.4-1.2-0.9-1.8-1.5c-0.5-0.5-1-1.1-1.5-1.8c-0.4-0.6-0.8-1.3-1.1-2
		c-0.3-0.7-0.5-1.5-0.7-2.3c-0.2-0.8-0.2-1.6-0.2-2.4c0-0.8,0.1-1.6,0.2-2.4c0.2-0.8,0.4-1.5,0.7-2.3c0.3-0.7,0.7-1.4,1.1-2
		c0.4-0.6,0.9-1.2,1.5-1.8c0.5-0.5,1.1-1,1.8-1.5c0.6-0.4,1.3-0.8,2-1.1c0.7-0.3,1.5-0.5,2.3-0.7c0.8-0.2,1.6-0.2,2.4-0.2
		c0.8,0,1.6,0.1,2.4,0.2c0.8,0.2,1.5,0.4,2.3,0.7c0.7,0.3,1.4,0.7,2,1.1c0.6,0.4,1.2,0.9,1.8,1.5c0.5,0.5,1,1.1,1.5,1.8
		c0.4,0.6,0.8,1.3,1.1,2c0.3,0.7,0.5,1.5,0.7,2.3c0.2,0.8,0.2,1.6,0.2,2.4C-99.4,25.7-99.5,26.5-99.6,27.3z"/>
	<path fill="#908FB3" d="M-109.6,26.6c-6,2.1-8,6.4-8,6.4c1.7,1.4,3.9,2.2,6.3,2.2c1.4,0,2.8-0.3,4-0.8
		C-107.5,33.4-108.1,30.3-109.6,26.6C-109.6,26.6-109.6,26.6-109.6,26.6z"/>
	<path fill="#908FB3" d="M-117.7,33C-117.7,33-117.7,33-117.7,33c-0.1-0.1-0.2-0.1-0.2-0.2C-117.8,32.9-117.7,33-117.7,33z"/>
</g>
<g>
	<path fill="#FFFFFF" d="M25.1,0.9c-13.3,0-24,10.8-24,24s10.7,24,24,24c13.2,0,24-10.8,24-24S38.4,0.9,25.1,0.9z M35.5,34.6
		c0,1.4-1.1,2.5-2.5,2.5H17c-1.4,0-2.5-1.1-2.5-2.5V15.1c0-1.4,1.1-2.5,2.5-2.5h16c1.4,0,2.5,1.1,2.5,2.5V34.6z"/>
	<path fill="#FFFFFF" d="M33,14.3H17c-0.4,0-0.7,0.3-0.7,0.7v19.5c0,0.4,0.3,0.7,0.7,0.7h16c0.4,0,0.7-0.3,0.7-0.7V15.1
		C33.7,14.7,33.4,14.3,33,14.3z M18.6,18.2c0-0.4,0.3-0.7,0.7-0.7h5.2c0.4,0,0.7,0.3,0.7,0.7v0.4c0,0.4-0.3,0.7-0.7,0.7h-5.2
		c-0.4,0-0.7-0.3-0.7-0.7V18.2z M30.8,31.5c0,0.4-0.3,0.7-0.7,0.7H19.4c-0.4,0-0.7-0.3-0.7-0.7v-0.4c0-0.4,0.3-0.7,0.7-0.7h10.7
		c0.4,0,0.7,0.3,0.7,0.7V31.5z M30.8,27.1c0,0.4-0.3,0.7-0.7,0.7H19.4c-0.4,0-0.7-0.3-0.7-0.7v-0.4c0-0.4,0.3-0.7,0.7-0.7h10.7
		c0.4,0,0.7,0.3,0.7,0.7V27.1z M30.8,22.8c0,0.4-0.3,0.7-0.7,0.7H19.4c-0.4,0-0.7-0.3-0.7-0.7v-0.4c0-0.4,0.3-0.7,0.7-0.7h10.7
		c0.4,0,0.7,0.3,0.7,0.7V22.8z"/>
</g>
</svg>
