<?xml version="1.0" encoding="utf-8"?>
<!-- Generator: Adobe Illustrator 18.1.1, SVG Export Plug-In . SVG Version: 6.00 Build 0)  -->
<svg version="1.1" id="Layer_1" xmlns="http://www.w3.org/2000/svg" xmlns:xlink="http://www.w3.org/1999/xlink" x="0px" y="0px"
	 viewBox="0 0 50 50" enable-background="new 0 0 50 50" xml:space="preserve">
<g>
	<path fill="#FFFFFF" d="M25,0.9c-13.3,0-24,10.7-24,24c0,13.3,10.7,24,24,24c13.3,0,24-10.7,24-24C49,11.7,38.3,0.9,25,0.9z
		 M34.6,21.2c0,0.2,0,0.4,0,0.6c0,6.5-5,14-14,14c-2.8,0-5.4-0.8-7.6-2.2c0.4,0,0.8,0.1,1.2,0.1c2.3,0,4.4-0.8,6.1-2.1
		c-2.2,0-4-1.5-4.6-3.4c0.3,0.1,0.6,0.1,0.9,0.1c0.5,0,0.9-0.1,1.3-0.2c-2.3-0.5-4-2.4-4-4.8v-0.1c0.7,0.4,1.4,0.6,2.2,0.6
		c-1.3-0.9-2.2-2.4-2.2-4.1c0-0.9,0.2-1.8,0.7-2.5c2.4,3,6.1,4.9,10.2,5.2c-0.1-0.4-0.1-0.7-0.1-1.1c0-2.7,2.2-4.9,4.9-4.9
		c1.4,0,2.7,0.6,3.6,1.6c1.1-0.2,2.2-0.6,3.1-1.2c-0.4,1.2-1.1,2.1-2.2,2.7c1-0.1,1.9-0.4,2.8-0.8C36.4,19.6,35.5,20.5,34.6,21.2z"
		/>
</g>
</svg>
