<?xml version="1.0" encoding="utf-8"?>
<!-- Generator: Adobe Illustrator 18.1.1, SVG Export Plug-In . SVG Version: 6.00 Build 0)  -->
<svg version="1.1" id="Layer_1" xmlns="http://www.w3.org/2000/svg" xmlns:xlink="http://www.w3.org/1999/xlink" x="0px" y="0px"
	 viewBox="-4 56 800 500" enable-background="new -4 56 800 500" xml:space="preserve">
<g>
	<path fill="#FFFFFF" d="M551.2,263.8l-35.1-28.7l-0.3,0.3v79.1h-18v-6.7h-0.2c-3.7,5.5-9.2,8.3-15.9,8.3
		c-18.1,0-25.8-15.6-25.8-31.8c0-14.1,7.1-27.5,21.5-29.1l-24-19.9v16.3h-42.6v13.9h38.9v16h-38.9v15.1h43.7v17.8h-64.4v-74.2
		l-6.2-5.2l-0.2,0.1v14.2h-18.9v-8.9l-5.8-4.9l-0.3,0.1v12.9c-1.8-0.2-3.4-0.3-5.1-0.3c-4.3,0-7,0.6-7,5.8v2.6h11.4v12.2h-11.4v45.5
		h-18.9v-45.5h-9.1v-12.2h9.1c0-4,0.3-7.3,1.1-10l-13.8-11.6l-0.3,0.2v14.1h-18.3l8.5,7.2h9.8v57.8h-18.9v-44.6l-12.1-10.2l-0.4,0.1
		c5.3,4.8,5.9,12.4,5.9,17.6v37.1h-18.9v-27.9c0-7.9,0.9-15.9-9.5-15.9c-7.1,0-10.2,6-10.2,12.4v31.5h-18.9v-57.8h18.4v7.9h0.2
		c1.1-1.9,2.7-3.6,4.5-5l-29.2-24.5l-0.2,0.5v46c0,23-10.6,34.5-34.6,34.5c-11.1,0-19.3-2.4-24.9-7.3l0,0.3l47.9,40.1L255,384h331
		v-91.7L551.2,263.8z M364.7,256.7h18.9v57.8h-18.9V256.7z"/>
	<path fill="#FFFFFF" d="M486.3,301.7c9.2,0,11.2-8.8,11.2-16.1c0-8.3-3-16-11.2-16c-8.7,0-11.6,8.1-11.6,15.5
		C474.7,292.9,477.6,301.7,486.3,301.7z"/>
	<path fill="#FFFFFF" d="M190.5,298.3c10.1,0,13.9-5.2,13.9-15.5v-24.4l-27.8-23.4v47.7C176.6,293.1,180.4,298.3,190.5,298.3z"/>
</g>
</svg>
